<svg xmlns="http://www.w3.org/2000/svg" viewBox="0 0 847.13 442.3"><defs><style>.cls-1{fill:#f2f2f2;}.cls-2{fill:#8c9496;}.cls-3{fill:#5a5b5b;}.cls-4{fill:#e1ecef;}.cls-5{fill:#bebfbf;}.cls-6{fill:#d0d6d8;}.cls-7{fill:#9b7e08;}.cls-8{fill:#89710c;}</style></defs><title>bed</title><g id="Layer_2" data-name="Layer 2"><g id="bed"><path class="cls-1" d="M24.45,320.39H0v91.38l19.79,2.52V329.85A12,12,0,0,1,24.45,320.39Z"/><path class="cls-1" d="M844.05,196.7a10.85,10.85,0,0,0-7.93-5.88l-88.6-10.55v.63a12,12,0,0,1-12,12h-21a12,12,0,0,1-12-12v-6L556.24,157.49C386.93,220.67,184.77,286.28,61.78,321.11c-.23.07-.45.11-.68.17a11.94,11.94,0,0,1,3.64,8.57v88a11.92,11.92,0,0,1-.2,2.08l155.38,19.79c1.26.9,21.75,2.55,27.2,2.53,9.53,0,8.74-.73,14.3-2.78L844.56,208.81C849.21,207.09,846.61,201.83,844.05,196.7ZM419.83,262.63v45.75a4.06,4.06,0,0,1-2.55,3.77l-90.76,36.44a11.08,11.08,0,0,1-4.4.81v.38l-40-2.45V300.41c0-5.15,5.52-9.75,11.39-12.11h0l.06,0,1.24-.46,103.48-38.33h10.35a11.19,11.19,0,0,1,11.19,11.19Z"/><path class="cls-2" d="M68.7,237l33.41-10.76C264.59,170.34,442,115.3,579.55,72.45L723.67,26c5.66-1.82,4.41-10.17-1.54-10.26L473.43,0a116.7,116.7,0,0,0-34.94,4.82L0,142.37V237H68.7ZM358.75,49.49C398.83,26.7,430.86,11.35,482.91,16c50.52,4.49,134.24,7.93,122.86,18.63-25,23.53-56.93,48.42-111.6,41.2C420.55,66.07,346.77,56.31,358.75,49.49Z"/><path class="cls-3" d="M19.79,417.9a12,12,0,0,0,12,12h21A12,12,0,0,0,64.54,420l-44.75-5.69Z"/><path class="cls-3" d="M64.74,329.85a11.94,11.94,0,0,0-3.64-8.57,14.18,14.18,0,0,1-10.19-.89H24.45a12,12,0,0,0-4.66,9.46v84.44L64.54,420a11.92,11.92,0,0,0,.2-2.08Z"/><path class="cls-3" d="M702.56,174.92l45,5.35V92.85a12,12,0,0,0-5.8-10.24c-12.29,5.55-25.39,11.27-39.16,17.11Z"/><path class="cls-3" d="M702.56,180.9a12,12,0,0,0,12,12h21a12,12,0,0,0,12-12v-.63l-45-5.35Z"/><path class="cls-4" d="M494.17,75.8c54.67,7.22,86.58-17.67,111.6-41.2C617.15,23.9,533.43,20.46,482.91,16c-52.05-4.62-84.08,10.73-124.16,33.52C346.77,56.31,420.55,66.07,494.17,75.8Z"/><path class="cls-5" d="M49,244.7q7.47-2.62,15-5.26A11.9,11.9,0,0,0,56.7,237H0V308.8l38.55-13.28C35.7,274.32,40.77,247.59,49,244.7Z"/><path class="cls-5" d="M25,320q-12.49-.3-25-.63v1.05H24.45Z"/><path class="cls-5" d="M31.79,317.85H47.41c-4.79-4.66-7.6-13-8.86-22.33L0,308.8v10.46l25.05.68A11.93,11.93,0,0,1,31.79,317.85Z"/><path class="cls-5" d="M25.05,319.94l-25-.68v.08q12.5.33,25,.63Z"/><path class="cls-5" d="M24.45,320.39H41.54L25,320Z"/><path class="cls-5" d="M47.41,317.85H31.79a11.93,11.93,0,0,0-6.74,2.09l16.49.45h9.37A14.67,14.67,0,0,1,47.41,317.85Z"/><path class="cls-5" d="M25,320l16.54.42-16.49-.45Z"/><path class="cls-6" d="M64,239.44A12,12,0,0,1,68.7,249v36.16L470.51,146.61c5.41-2,17-2.8,21.31,1.16a10.87,10.87,0,0,0,5.55,2.71l58.87,7c53.17-19.84,103.1-39.44,146.32-57.77V92.85a12,12,0,0,1,12-12h21a11.82,11.82,0,0,1,6.2,1.76l3.75-1.69c17.48-8,4.43-62.39-11.05-57.34C693.87,36.8,640.64,53.42,579.55,72.45L102.11,226.2Q82.88,232.82,64,239.44Z"/><path class="cls-6" d="M491.82,147.77c-4.34-4-15.9-3.16-21.31-1.16L68.7,285.12v23.27A12,12,0,0,1,59.59,320a12.15,12.15,0,0,1,1.51,1.26c.23-.06.45-.1.68-.17,123-34.83,325.15-100.44,494.46-163.62l-58.87-7A10.87,10.87,0,0,1,491.82,147.77Z"/><path class="cls-6" d="M579.55,72.45C442,115.3,264.59,170.34,102.11,226.2Z"/><path class="cls-6" d="M56.7,320.39H50.91a14.18,14.18,0,0,0,10.19.89A12.15,12.15,0,0,0,59.59,320,11.5,11.5,0,0,1,56.7,320.39Z"/><path class="cls-6" d="M714.56,80.85a12,12,0,0,0-12,12v6.87c13.77-5.84,26.87-11.56,39.16-17.11a11.82,11.82,0,0,0-6.2-1.76Z"/><path class="cls-6" d="M68.7,249A12,12,0,0,0,64,239.44q-7.53,2.63-15,5.26c-8.19,2.89-13.26,29.62-10.41,50.82l30.15-10.4Z"/><path class="cls-6" d="M59.59,320a12,12,0,0,0,9.11-11.63V285.12l-30.15,10.4c1.26,9.38,4.07,17.67,8.86,22.33h5.33A11.94,11.94,0,0,1,59.59,320Z"/><path class="cls-6" d="M59.59,320a11.94,11.94,0,0,0-6.85-2.17H47.41a14.67,14.67,0,0,0,3.5,2.54H56.7A11.5,11.5,0,0,0,59.59,320Z"/><path class="cls-7" d="M322.12,349.4a11.08,11.08,0,0,0,4.4-.81l90.76-36.44a4.06,4.06,0,0,0,2.55-3.77V273.05l-97.71,38.5Z"/><path class="cls-8" d="M311.12,302.61,293.51,288.3c-5.87,2.36-11.39,7-11.39,12.11v9.53l29,1.16Z"/><path class="cls-8" d="M293.57,288.27l1.24-.46Z"/><path class="cls-8" d="M311.12,338.18V311.1l-29-1.16v37.39l40,2.45v-.38A11.22,11.22,0,0,1,311.12,338.18Z"/><polygon class="cls-8" points="311.12 311.1 322.12 311.55 311.12 302.61 311.12 311.1"/><path class="cls-8" d="M311.12,311.1v27.08a11.22,11.22,0,0,0,11,11.22V311.55Z"/><path class="cls-8" d="M293.51,288.3h0l.06,0Z"/><path class="cls-8" d="M408.64,249.48H398.29L294.81,287.81a20.12,20.12,0,0,1,6.36-1.18h7.45a13.47,13.47,0,0,1,8.12,2.72,11,11,0,0,1,1.24-.62l86.26-36.44a11.23,11.23,0,0,1,15.59,10.34v-2A11.19,11.19,0,0,0,408.64,249.48Z"/><path class="cls-8" d="M404.24,252.29,318,288.73a11,11,0,0,0-1.24.62,13.49,13.49,0,0,1,5.38,10.77v11.43l97.71-38.5V262.63A11.23,11.23,0,0,0,404.24,252.29Z"/><path class="cls-8" d="M311.12,299.07a11.23,11.23,0,0,1,5.62-9.72,13.47,13.47,0,0,0-8.12-2.72h-7.45a20.12,20.12,0,0,0-6.36,1.18l-1.24.46-.06,0,17.61,14.31Z"/><path class="cls-8" d="M311.12,299.07v3.54l11,8.94V300.12a13.49,13.49,0,0,0-5.38-10.77A11.23,11.23,0,0,0,311.12,299.07Z"/></g></g></svg>