<?xml version="1.0" encoding="utf-8"?>
<!-- Generator: Adobe Illustrator 22.0.1, SVG Export Plug-In . SVG Version: 6.00 Build 0)  -->
<svg version="1.1" baseProfile="tiny" id="Layer_1" xmlns="http://www.w3.org/2000/svg" xmlns:xlink="http://www.w3.org/1999/xlink"
	 x="0px" y="0px" viewBox="0 0 847.1 442.3" xml:space="preserve">
<title>bed</title>
<g id="Layer_2_1_">
	<g id="bed">
		<path fill="#F2F2F2" d="M24.5,320.4H0v91.4l19.8,2.5v-84.4C19.8,326.1,21.5,322.7,24.5,320.4z"/>
		<path fill="#F2F2F2" d="M844,196.7c-1.5-3.1-4.5-5.3-7.9-5.9l-88.6-10.6v0.6c0,6.6-5.4,12-12,12h-21c-6.6,0-12-5.4-12-12v-6
			l-146.3-17.4C386.9,220.7,184.8,286.3,61.8,321.1c-0.2,0.1-0.5,0.1-0.7,0.2c2.3,2.2,3.6,5.3,3.6,8.6v88c0,0.7-0.1,1.4-0.2,2.1
			l155.4,19.8c1.3,0.9,21.8,2.5,27.2,2.5c9.5,0,8.7-0.7,14.3-2.8l583.1-230.7C849.2,207.1,846.6,201.8,844,196.7z M419.8,262.6v45.8
			c0,1.7-1,3.2-2.5,3.8l-90.8,36.4c-1.4,0.6-2.9,0.8-4.4,0.8v0.4l-40-2.5v-46.9c0-5.1,5.5-9.8,11.4-12.1l0,0h0.1l1.2-0.5l103.5-38.3
			h10.4c6.2,0,11.2,5,11.2,11.2L419.8,262.6z"/>
		<path fill="#8C9496" d="M68.7,237l33.4-10.8C264.6,170.3,442,115.3,579.5,72.4L723.7,26c5.7-1.8,4.4-10.2-1.5-10.3L473.4,0
			c-11.8-0.2-23.6,1.5-34.9,4.8L0,142.4V237H68.7z M358.8,49.5c40.1-22.8,72.1-38.1,124.2-33.5c50.5,4.5,134.2,7.9,122.9,18.6
			c-25,23.5-56.9,48.4-111.6,41.2C420.5,66.1,346.8,56.3,358.8,49.5z"/>
		<path fill="#5A5B5B" d="M19.8,417.9c0,6.6,5.4,12,12,12h21c5.8,0,10.7-4.2,11.8-9.9l-44.8-5.7V417.9z"/>
		<path fill="#5A5B5B" d="M64.7,329.9c0-3.2-1.3-6.3-3.6-8.6c-3.4,1-7,0.7-10.2-0.9H24.5c-2.9,2.3-4.6,5.8-4.7,9.5v84.4l44.8,5.7
			c0.1-0.7,0.2-1.4,0.2-2.1V329.9z"/>
		<path fill="#5A5B5B" d="M702.6,174.9l45,5.4V92.8c0-4.2-2.2-8.1-5.8-10.2c-12.3,5.6-25.4,11.3-39.2,17.1L702.6,174.9z"/>
		<path fill="#5A5B5B" d="M702.6,180.9c0,6.6,5.4,12,12,12h21c6.6,0,12-5.4,12-12v-0.6l-45-5.4V180.9z"/>
		<path fill="#E1ECEF" d="M494.2,75.8c54.7,7.2,86.6-17.7,111.6-41.2c11.4-10.7-72.3-14.1-122.9-18.6c-52-4.6-84.1,10.7-124.2,33.5
			C346.8,56.3,420.5,66.1,494.2,75.8z"/>
		<path fill="#BEBFBF" d="M49,244.7c5-1.7,10-3.5,15-5.3c-2.1-1.6-4.7-2.5-7.3-2.4H0v71.8l38.5-13.3C35.7,274.3,40.8,247.6,49,244.7
			z"/>
		<path fill="#BEBFBF" d="M25,320c-8.3-0.2-16.7-0.4-25-0.6v1h24.5L25,320z"/>
		<path fill="#BEBFBF" d="M31.8,317.9h15.6c-4.8-4.7-7.6-13-8.9-22.3L0,308.8v10.5l25,0.7C27,318.6,29.4,317.9,31.8,317.9z"/>
		<path fill="#BEBFBF" d="M25,319.9l-25-0.7v0.1C8.4,319.6,16.7,319.8,25,319.9L25,319.9z"/>
		<path fill="#BEBFBF" d="M24.5,320.4h17.1L25,320L24.5,320.4z"/>
		<path fill="#BEBFBF" d="M47.4,317.9H31.8c-2.4,0-4.8,0.7-6.7,2.1l16.5,0.5h9.4C49.6,319.7,48.4,318.9,47.4,317.9z"/>
		<path fill="#BEBFBF" d="M25,320l16.5,0.4L25,320L25,320z"/>
		<path fill="#D0D6D8" d="M64,239.4c3,2.3,4.7,5.8,4.7,9.6v36.2l401.8-138.6c5.4-2,17-2.8,21.3,1.2c1.5,1.4,3.5,2.4,5.5,2.7l58.9,7
			c53.2-19.8,103.1-39.4,146.3-57.8v-6.9c0-6.6,5.4-12,12-12h21c2.2,0,4.3,0.6,6.2,1.8l3.8-1.7c17.5-8,4.4-62.4-11-57.3
			c-40.6,13.2-93.8,29.8-154.9,48.9L102.1,226.2C89.3,230.6,76.6,235,64,239.4z"/>
		<path fill="#D0D6D8" d="M491.8,147.8c-4.3-4-15.9-3.2-21.3-1.2L68.7,285.1v23.3c0,5.5-3.8,10.3-9.1,11.6c0.5,0.4,1,0.8,1.5,1.3
			c0.2-0.1,0.5-0.1,0.7-0.2c123-34.8,325.1-100.4,494.5-163.6l-58.9-7C495.3,150.1,493.4,149.2,491.8,147.8z"/>
		<path fill="#D0D6D8" d="M579.5,72.4c-137.5,42.9-315,97.9-477.4,153.8L579.5,72.4z"/>
		<path fill="#D0D6D8" d="M56.7,320.4h-5.8c3.2,1.6,6.8,1.9,10.2,0.9c-0.5-0.5-1-0.9-1.5-1.3C58.6,320.3,57.7,320.4,56.7,320.4z"/>
		<path fill="#D0D6D8" d="M714.6,80.8c-6.6,0-12,5.4-12,12v6.9c13.8-5.8,26.9-11.6,39.2-17.1c-1.9-1.1-4-1.8-6.2-1.8H714.6z"/>
		<path fill="#D0D6D8" d="M68.7,249c0-3.7-1.7-7.3-4.7-9.6c-5,1.8-10,3.5-15,5.3c-8.2,2.9-13.3,29.6-10.4,50.8l30.1-10.4L68.7,249z"
			/>
		<path fill="#D0D6D8" d="M59.6,320c5.3-1.3,9.1-6.1,9.1-11.6v-23.3l-30.2,10.4c1.3,9.4,4.1,17.7,8.9,22.3h5.3
			C55.2,317.8,57.6,318.6,59.6,320z"/>
		<path fill="#D0D6D8" d="M59.6,320c-2-1.4-4.4-2.2-6.8-2.2h-5.3c1,1,2.2,1.9,3.5,2.5h5.8C57.7,320.4,58.6,320.2,59.6,320z"/>
		<path fill="#9B7E08" d="M322.1,349.4c1.5,0,3-0.2,4.4-0.8l90.8-36.4c1.5-0.6,2.6-2.1,2.5-3.8V273l-97.7,38.5V349.4z"/>
		<path fill="#89710C" d="M311.1,302.6l-17.6-14.3c-5.9,2.4-11.4,7-11.4,12.1v9.5l29,1.2V302.6z"/>
		<path fill="#89710C" d="M293.6,288.3l1.2-0.5L293.6,288.3z"/>
		<path fill="#89710C" d="M311.1,338.2v-27.1l-29-1.2v37.4l40,2.5v-0.4C316,349.3,311.1,344.3,311.1,338.2z"/>
		<polygon fill="#89710C" points="311.1,311.1 322.1,311.5 311.1,302.6 		"/>
		<path fill="#89710C" d="M311.1,311.1v27.1c0,6.1,4.9,11.1,11,11.2v-37.9L311.1,311.1z"/>
		<path fill="#89710C" d="M293.5,288.3L293.5,288.3L293.5,288.3L293.5,288.3z"/>
		<path fill="#89710C" d="M408.6,249.5h-10.4l-103.5,38.3c2-0.7,4.2-1.1,6.4-1.2h7.5c2.9,0,5.8,1,8.1,2.7c0.4-0.2,0.8-0.4,1.2-0.6
			l86.3-36.4c5.7-2.4,12.3,0.3,14.7,6c0.6,1.4,0.9,2.9,0.9,4.4v-2C419.8,254.5,414.8,249.5,408.6,249.5z"/>
		<path fill="#89710C" d="M404.2,252.3L318,288.7c-0.4,0.2-0.8,0.4-1.2,0.6c3.4,2.5,5.4,6.5,5.4,10.8v11.4l97.7-38.5v-10.4
			c0-6.2-5-11.2-11.2-11.2C407.1,251.4,405.6,251.7,404.2,252.3z"/>
		<path fill="#89710C" d="M311.1,299.1c0-4,2.1-7.7,5.6-9.7c-2.3-1.8-5.2-2.7-8.1-2.7h-7.5c-2.2,0-4.3,0.4-6.4,1.2l-1.2,0.5h-0.1
			l17.6,14.3V299.1z"/>
		<path fill="#89710C" d="M311.1,299.1v3.5l11,8.9v-11.4c0-4.2-2-8.2-5.4-10.8C313.3,291.4,311.1,295.1,311.1,299.1z"/>
	</g>
</g>
</svg>
