<?xml version="1.0" encoding="utf-8"?>
<!-- Generator: Adobe Illustrator 22.0.1, SVG Export Plug-In . SVG Version: 6.00 Build 0)  -->
<svg version="1.1" baseProfile="tiny" id="Layer_1" xmlns="http://www.w3.org/2000/svg" xmlns:xlink="http://www.w3.org/1999/xlink"
	 x="0px" y="0px" viewBox="0 0 250.7 159.5" xml:space="preserve">
<title>box</title>
<g id="Layer_2_1_">
	<g id="box">
		<path fill="#AD8E0C" d="M239.3,157.4l-227.9,2.1c-6.3,0-11.4-5.1-11.4-11.4V59.5c0-6.3,5.1-11.4,11.4-11.4L239.3,46
			c6.3,0,11.4,5.1,11.4,11.4V146C250.6,152.3,245.5,157.3,239.3,157.4z"/>
		<path fill="#9B7E08" d="M216,0L29.8,2.1c-6.6,0-14.2,3-18.4,12L0,50.1c0,6.6,23.3,6,29.9,6L225.1,52c6.6,0,25.6,0.6,25.6-6
			l-13.6-34C230.1,0.3,222.6,0,216,0z"/>
		<path fill="#666252" d="M114.4,60.7h21c3.2,0,5.8,2.6,5.8,5.8v21c0,3.2-2.6,5.8-5.8,5.8h-21c-3.2,0-5.8-2.6-5.8-5.8v-21
			C108.6,63.3,111.2,60.7,114.4,60.7z"/>
		<path fill="none" stroke="#9E9B8D" stroke-width="7" stroke-miterlimit="10" d="M111.8,63.4c-0.3-7.6,6.5-17.4,13.6-17.5
			c6.6-0.1,11.7,10.5,12.5,17.5"/>
	</g>
</g>
</svg>
