<svg xmlns="http://www.w3.org/2000/svg" viewBox="0 0 250.66 159.47"><defs><style>.cls-1{fill:#ad8e0c;}.cls-2{fill:#9b7e08;}.cls-3{fill:#666252;}.cls-4{fill:none;stroke:#9e9b8d;stroke-miterlimit:10;stroke-width:7px;}</style></defs><title>box</title><g id="Layer_2" data-name="Layer 2"><g id="box"><path class="cls-1" d="M239.25,157.36,11.4,159.47A11.43,11.43,0,0,1,0,148.07V59.46a11.43,11.43,0,0,1,11.4-11.4L239.25,46a11.44,11.44,0,0,1,11.41,11.4V146A11.44,11.44,0,0,1,239.25,157.36Z"/><path class="cls-2" d="M216,0,29.79,2.11c-6.6,0-14.22,2.95-18.39,12L0,50.09c0,6.6,23.29,6,29.89,6L225.06,52c6.6,0,25.6.6,25.6-6L237.06,12C230.1.35,222.56,0,216,0Z"/><rect class="cls-3" x="108.61" y="60.69" width="32.5" height="32.5" rx="5.75" ry="5.75"/><path class="cls-4" d="M111.82,63.42c-.33-7.59,6.49-17.4,13.63-17.52,6.61-.11,11.74,10.55,12.46,17.52"/></g></g></svg>