<svg xmlns="http://www.w3.org/2000/svg" viewBox="0 0 1920.02 1080"><defs><style>.cls-1{fill:#69828c;stroke:#000;stroke-miterlimit:10;}.cls-2{fill:#797a79;}.cls-3{fill:#898989;}.cls-4{fill:#345437;}.cls-5{fill:#4d4d4d;}.cls-6{fill:#333;}.cls-7{fill:#a67c52;}.cls-8{fill:#754c24;}.cls-9{fill:#c69c83;}.cls-10{fill:#00151f;}.cls-11{fill:#001d28;}.cls-12{fill:#262626;}</style></defs><title>Artboard 1</title><g id="sky"><rect class="cls-1" width="1920.02" height="795.08"/><path class="cls-2" d="M444.35,138.44c-7.5,73.95,52.29,76.78,72,81,56.75,12.15,88.81-41.55,118.5-19.05,8.28,6.28,46,35.39,57.64,37,78.38,10.59,39.42-53.58,96.85-55.41,35.24-1.12,38.18,10.8,70.49,6,7-1,63.16-10,70.5-39,8.56-33.83-55.82-68.85-45-91.49,7-14.75,36.39-4.1,49.5-22.5,13.26-18.61,2.7-56.73-21-75-34-26.2-90.69-8.27-108,21-11.21,19-16.87,29.5-28.5,43.72-13.5,16.49-68.64,19.38-63-15.26,4.71-28.91-5.87-42.26-31.5-57-27.91-16-90.63-11.51-108,22.5-11.24,22,5,41.57-7.5,54-16.32,16.17-47.79-2.36-81,1.5-42.64,4.95-31.73,54.47-42,108"/><path class="cls-2" d="M670.63,416.19c30.33-68-36.07-91.57-57-102.47-60.24-31.39-112.19,8.72-138.91-23.12-7.46-8.88-41.3-49.85-53.89-55.39-85-37.45-60.2,37.42-125.33,19.15-40-11.22-39.74-23.63-77.51-30.31-8.17-1.45-74-12.5-90.83,12.67C107.54,266.05,169.57,322,150.69,339.8c-12.3,11.63-42.13-8.78-62.33,4.23-20.42,13.15-19.83,53.24,1.41,79,30.46,36.88,99.56,39.53,127.68,17.6,18.22-14.21,27.7-22.29,45-31.82,20.07-11.05,82.94,5.42,66.34,36.54-13.86,26-5.91,42.41,18.56,65.39,26.65,25,98.52,42.59,128.12,16.16,19.16-17.11,6.64-41.46,24.42-49,23.14-9.76,53.06,18.91,91.54,26.81,49.43,10.14,51.82-41,79.21-88.51"/><path class="cls-2" d="M1606.65,80.35c-21.16-85.77-87.09-66.06-110.12-63.24-66.32,8.11-79.8,80.58-120.88,66.73-11.47-3.87-63.91-22.06-77.11-19.37-89.16,18.14-21.52,75.16-83,99.2-37.75,14.75-45.66,2.51-78.79,20.26-7.16,3.84-64.5,35.36-61,70.72,4.13,41.21,87.77,55.82,85,85.35-1.8,19.24-37.81,18.52-44.74,44.18-7,25.93,19.55,64.63,52.46,76,47.21,16.37,101.58-25.45,108.74-64.89,4.63-25.56,6.6-39.53,13.57-59.92,8.1-23.67,66.72-48,74.32-7,6.35,34.22,23.1,45.13,56.7,51.8,36.6,7.27,102.79-21.8,108.14-66.57,3.47-29-21.93-44.67-13.26-63.41,11.28-24.38,52.73-15.66,87.2-32.7,44.26-21.87,12.82-73.22,2.75-137.16"/><path class="cls-3" d="M63.66,50.86h0C43.43,57,18.13,68,13.27,88c-5.21,21.42,17.49,35.24,12.21,53.78-8.66,30.39-77.32,20-85.17,44.93C-67.6,211.74-13,269.62,46.14,271.51c50.36,1.62,58.55-54.31,72.1-39.53,7.62,8.31-17,18.67,40.82,46.45,41.92,20.15,27.77-24.74,52.58-23.06,19.69,1.34,20.65,21.47,40.87,28.2,35.3,11.77,59.85-40.47,103.65-37.24,41.2,3,49.35,51.46,80,48.51,37.73-3.62,74.26-81.55,52.53-112.81-21.22-30.54-92.86-9.09-98.56-28.83C385.31,136.42,435,113.69,429.73,99c-5.41-15.22-59.61,7.42-98.34-21.19-28.46-21,53.06-16.89-44-54.59-18.36-7.13-21.56,50.17-49.2,57.09-27.79,7-45.73-38.92-96.3-51.26-28.62-7-59.29,14.34-78.22,21.77"/><path class="cls-3" d="M1815.53,385.5h0c21-2.48,47.85-8.86,56.15-27.65,8.91-20.17-11-37.78-2.53-55.09,13.89-28.39,79.65-6.08,91.77-29.2s-31.34-89.86-89.21-102.16c-49.29-10.48-67.21,43.12-77.94,26.19-6-9.52,20-15.38-32-52.92-37.71-27.24-31.7,19.45-55.82,13.42-19.14-4.79-16.54-24.78-35.25-35-32.68-17.8-66.06,29.28-108.6,18.37-40-10.25-39.49-59.36-70.21-61.87-37.78-3.09-87.48,67.18-71.62,101.78,15.5,33.8,89.81,25.33,91.94,45.77,1.81,17.36-51.06,31-48.52,46.32,2.65,15.94,82.06-8.66,93.06,38.21,9.51,40.49-12.16,70.66,31.73,74.32,19.63,1.64,39.14-34.93,67.57-36.87,28.58-1.95,31,22.92,78.64,44,26.94,11.93,60.89-3.65,80.83-7.62"/><path class="cls-3" d="M636.79,228.25c-39-5.87-74.46,19-81.39,53-7.5,36.8,20.79,73.18,46.77,77.25,26.14,4.1,76-5.28,85,1.45,10.38,7.79-50,24.16-42.34,59.76,10.8,49.89,96.63,93.9,148.16,71.24,49.55-21.8,48.78-97,84.18-98.64,21.42-1,25.83,26.38,58.35,42.84,55.29,28,145.7,1.16,161.3-43.39,16.38-46.76-7-52,4.3-63.67,15-15.46,77.12,47.08,129.46,19,32.13-17.25,41.47-87.29,14.55-115.13-35.34-36.56-120.81,12.42-142.27-19.18-17.63-25.95,33.41-68.74,14.75-105.65C1103,78.28,1050.9,63.22,1014.94,78.56c-55.18,23.54-43.54,106.35-85.68,116.7-44.21,10.85-77-75.41-130-65-31.82,6.26-15.88,68.86-74.06,100.18-22,11.83-75.58-5.43-88.41-2.2"/></g><g id="ground"><path class="cls-4" d="M0,736.58V1080H1920V783.08a5992.85,5992.85,0,0,0-704.94-90C759.22,662.22,337.29,691.75,0,736.58"/></g><g id="gravestone"><path class="cls-5" d="M980.45,683.46c1.5-55.5,50.29-96.9,101.9-85.49,43.21,9.55,81.28,31.1,94.59,75l12,223.49L975.76,931Z"/><polygon class="cls-6" points="962.27 911.04 975.76 930.95 980.45 683.46 962.27 911.04"/></g><g id="Layer_4" data-name="Layer 4"><ellipse class="cls-7" cx="615.21" cy="582.97" rx="48.75" ry="58.5"/><ellipse class="cls-7" cx="920.82" cy="497.09" rx="38.58" ry="52.05"/><ellipse class="cls-8" cx="1063.97" cy="509.47" rx="39.28" ry="54.19"/><ellipse class="cls-9" cx="1294.91" cy="530.68" rx="47.62" ry="66.99"/><ellipse class="cls-9" cx="775.71" cy="509.47" rx="41.25" ry="54"/><path class="cls-6" d="M1247.3,472.43c43.49-19,78.23-17.09,84.62-13.05,30.69,19.41,28.28,45.05,30.67,69,2.32,23.24-5.37,53.14-8.07,65.51"/><rect class="cls-10" x="1290.65" y="706.68" width="33.69" height="108.98" rx="12" ry="12"/><rect class="cls-11" x="1310.45" y="714.9" width="33.69" height="111.31" rx="12" ry="12"/><path class="cls-6" d="M1312,530.68v25.66c0,21.35-25.06,33-39.76,48.45l1.94,24.62c-3.48,3.67-1.94,4.87-1.94,9.93v63.1a19.74,19.74,0,0,0,18.45,19.7l65.12,4.27a19.75,19.75,0,0,0,20.76-23l-18.35-106.64"/><path class="cls-12" d="M1325.69,620.93a14.92,14.92,0,0,1,16.84,1.7c9.16,8.59-19.08,48-37.37,51.29-14.33,2.61-35.72-15.44-33.3-22.35,1.4-4,29.24,3.27,37-3.3S1318.59,625.19,1325.69,620.93Z"/><rect class="cls-12" x="1280.3" y="623.16" width="14.53" height="45.11" rx="6.75" ry="6.75" transform="translate(241.79 1636.23) rotate(-70.08)"/></g></svg>