<svg xmlns="http://www.w3.org/2000/svg" viewBox="0 0 1920.02 1080"><defs><style>.cls-1{fill:#69828c;}.cls-1,.cls-25{stroke:#000;stroke-miterlimit:10;}.cls-2{fill:#797a79;}.cls-3{fill:#898989;}.cls-4{fill:#345437;}.cls-5{fill:#3f3c3b;}.cls-6{fill:#353231;}.cls-7{fill:#a67c52;}.cls-8{fill:#c69c83;}.cls-9{fill:#333;}.cls-10{fill:#00151f;}.cls-11{fill:#001d28;}.cls-12{fill:#262626;}.cls-13{fill:#383535;}.cls-14{fill:#282524;}.cls-15{fill:#937f52;}.cls-16{fill:#4f4d4c;}.cls-17{fill:#aa9605;}.cls-18{fill:#262423;}.cls-19{fill:#211f1e;}.cls-20{fill:#d3c9c7;}.cls-21{fill:#2b2928;}.cls-22{fill:#2b2827;}.cls-23{fill:#634b42;}.cls-24{fill:#754c24;}.cls-26{fill:#4d4d4d;}</style></defs><title>Artboard 1</title><g id="sky"><rect class="cls-1" width="1920.02" height="795.08"/><path class="cls-2" d="M444.35,138.44c-7.5,73.95,52.29,76.78,72,81,56.75,12.15,88.81-41.55,118.5-19.05,8.28,6.28,46,35.39,57.64,37,78.38,10.59,39.42-53.58,96.85-55.41,35.24-1.12,38.18,10.8,70.49,6,7-1,63.16-10,70.5-39,8.56-33.83-55.82-68.85-45-91.49,7-14.75,36.39-4.1,49.5-22.5,13.26-18.61,2.7-56.73-21-75-34-26.2-90.69-8.27-108,21-11.21,19-16.87,29.5-28.5,43.72-13.5,16.49-68.64,19.38-63-15.26,4.71-28.91-5.87-42.26-31.5-57-27.91-16-90.63-11.51-108,22.5-11.24,22,5,41.57-7.5,54-16.32,16.17-47.79-2.36-81,1.5-42.64,4.95-31.73,54.47-42,108"/><path class="cls-2" d="M670.63,416.19c30.33-68-36.07-91.57-57-102.47-60.24-31.39-112.19,8.72-138.91-23.12-7.46-8.88-41.3-49.85-53.89-55.39-85-37.45-60.2,37.42-125.33,19.15-40-11.22-39.74-23.63-77.51-30.31-8.17-1.45-74-12.5-90.83,12.67C107.54,266.05,169.57,322,150.69,339.8c-12.3,11.63-42.13-8.78-62.33,4.23-20.42,13.15-19.83,53.24,1.41,79,30.46,36.88,99.56,39.53,127.68,17.6,18.22-14.21,27.7-22.29,45-31.82,20.07-11.05,82.94,5.42,66.34,36.54-13.86,26-5.91,42.41,18.56,65.39,26.65,25,98.52,42.59,128.12,16.16,19.16-17.11,6.64-41.46,24.42-49,23.14-9.76,53.06,18.91,91.54,26.81,49.43,10.14,51.82-41,79.21-88.51"/><path class="cls-2" d="M1606.65,80.35c-21.16-85.77-87.09-66.06-110.12-63.24-66.32,8.11-79.8,80.58-120.88,66.73-11.47-3.87-63.91-22.06-77.11-19.37-89.16,18.14-21.52,75.16-83,99.2-37.75,14.75-45.66,2.51-78.79,20.26-7.16,3.84-64.5,35.36-61,70.72,4.13,41.21,87.77,55.82,85,85.35-1.8,19.24-37.81,18.52-44.74,44.18-7,25.93,19.55,64.63,52.46,76,47.21,16.37,101.58-25.45,108.74-64.89,4.63-25.56,6.6-39.53,13.57-59.92,8.1-23.67,66.72-48,74.32-7,6.35,34.22,23.1,45.13,56.7,51.8,36.6,7.27,102.79-21.8,108.14-66.57,3.47-29-21.93-44.67-13.26-63.41,11.28-24.38,52.73-15.66,87.2-32.7,44.26-21.87,12.82-73.22,2.75-137.16"/><path class="cls-3" d="M63.66,50.86h0C43.43,57,18.13,68,13.27,88c-5.21,21.42,17.49,35.24,12.21,53.78-8.66,30.39-77.32,20-85.17,44.93C-67.6,211.74-13,269.62,46.14,271.51c50.36,1.62,58.55-54.31,72.1-39.53,7.62,8.31-17,18.67,40.82,46.45,41.92,20.15,27.77-24.74,52.58-23.06,19.69,1.34,20.65,21.47,40.87,28.2,35.3,11.77,59.85-40.47,103.65-37.24,41.2,3,49.35,51.46,80,48.51,37.73-3.62,74.26-81.55,52.53-112.81-21.22-30.54-92.86-9.09-98.56-28.83C385.31,136.42,435,113.69,429.73,99c-5.41-15.22-59.61,7.42-98.34-21.19-28.46-21,53.06-16.89-44-54.59-18.36-7.13-21.56,50.17-49.2,57.09-27.79,7-45.73-38.92-96.3-51.26-28.62-7-59.29,14.34-78.22,21.77"/><path class="cls-3" d="M1815.53,385.5h0c21-2.48,47.85-8.86,56.15-27.65,8.91-20.17-11-37.78-2.53-55.09,13.89-28.39,79.65-6.08,91.77-29.2s-31.34-89.86-89.21-102.16c-49.29-10.48-67.21,43.12-77.94,26.19-6-9.52,20-15.38-32-52.92-37.71-27.24-31.7,19.45-55.82,13.42-19.14-4.79-16.54-24.78-35.25-35-32.68-17.8-66.06,29.28-108.6,18.37-40-10.25-39.49-59.36-70.21-61.87-37.78-3.09-87.48,67.18-71.62,101.78,15.5,33.8,89.81,25.33,91.94,45.77,1.81,17.36-51.06,31-48.52,46.32,2.65,15.94,82.06-8.66,93.06,38.21,9.51,40.49-12.16,70.66,31.73,74.32,19.63,1.64,39.14-34.93,67.57-36.87,28.58-1.95,31,22.92,78.64,44,26.94,11.93,60.89-3.65,80.83-7.62"/><path class="cls-3" d="M636.79,228.25c-39-5.87-74.46,19-81.39,53-7.5,36.8,20.79,73.18,46.77,77.25,26.14,4.1,76-5.28,85,1.45,10.38,7.79-50,24.16-42.34,59.76,10.8,49.89,96.63,93.9,148.16,71.24,49.55-21.8,48.78-97,84.18-98.64,21.42-1,25.83,26.38,58.35,42.84,55.29,28,145.7,1.16,161.3-43.39,16.38-46.76-7-52,4.3-63.67,15-15.46,77.12,47.08,129.46,19,32.13-17.25,41.47-87.29,14.55-115.13-35.34-36.56-120.81,12.42-142.27-19.18-17.63-25.95,33.41-68.74,14.75-105.65C1103,78.28,1050.9,63.22,1014.94,78.56c-55.18,23.54-43.54,106.35-85.68,116.7-44.21,10.85-77-75.41-130-65-31.82,6.26-15.88,68.86-74.06,100.18-22,11.83-75.58-5.43-88.41-2.2"/></g><g id="ground"><path class="cls-4" d="M0,736.58V1080H1920V783.08a5992.85,5992.85,0,0,0-704.94-90C759.22,662.22,337.29,691.75,0,736.58"/></g><g id="Layer_4" data-name="Layer 4"><rect class="cls-5" x="932.61" y="746.78" width="30.75" height="89.22" rx="12" ry="12"/><rect class="cls-5" x="967.27" y="746.78" width="30.75" height="89.22" rx="12" ry="12"/><path class="cls-6" d="M912.75,760.33c30.1-.22,52.34-5.54,83.91-5.54,49.25,0-19.49-126.15,12.77-171.52,27.47-38.63-112-29.61-95.77,4.16C931.9,625.41,863.29,760.71,912.75,760.33Z"/><ellipse class="cls-7" cx="622.45" cy="577.47" rx="67.18" ry="55.99" transform="translate(-34.61 1115.24) rotate(-82.15)"/><ellipse class="cls-7" cx="960.12" cy="519.72" rx="39.22" ry="52.92"/><ellipse class="cls-8" cx="1294.91" cy="530.68" rx="47.62" ry="66.99" transform="translate(-41.99 117.03) rotate(-5.09)"/><ellipse class="cls-8" cx="799.28" cy="532.58" rx="66.48" ry="49.97" transform="translate(124.85 1216.43) rotate(-79.07)"/><path class="cls-9" d="M1247.3,472.43c43.49-19,78.23-17.09,84.62-13.05,30.69,19.41,28.28,45.05,30.67,69,2.32,23.24-5.37,53.14-8.07,65.51"/><rect class="cls-10" x="1290.65" y="706.68" width="33.69" height="108.98" rx="12" ry="12"/><rect class="cls-11" x="1310.45" y="714.9" width="33.69" height="111.31" rx="12" ry="12"/><path class="cls-9" d="M1312,530.68v25.66c0,21.35-25.06,33-39.76,48.45l1.94,24.62c-3.48,3.67-1.94,4.87-1.94,9.93v63.1a19.74,19.74,0,0,0,18.45,19.7l65.12,4.27a19.75,19.75,0,0,0,20.76-23l-18.35-106.64"/><path class="cls-12" d="M1325.69,620.93a14.92,14.92,0,0,1,16.84,1.7c9.16,8.59-19.08,48-37.37,51.29-14.33,2.61-35.72-15.44-33.3-22.35,1.4-4,29.24,3.27,37-3.3S1318.59,625.19,1325.69,620.93Z"/><rect class="cls-12" x="1280.3" y="623.16" width="14.53" height="45.11" rx="6.75" ry="6.75" transform="translate(241.79 1636.23) rotate(-70.08)"/><rect class="cls-13" x="585.75" y="830.28" width="29.88" height="68.79" rx="12" ry="12"/><rect class="cls-6" x="608.73" y="834.28" width="29.88" height="68.79" rx="12" ry="12"/><path class="cls-14" d="M644.26,656.08c-9.94-12.86-27.34-24.3-42-21-23.47,5.29-33.71,47-36,70.49-4.23,43.38,2.86,56.93-8.08,88.5-9.68,27.89-18.7,35.31-14.42,45,5.32,12,37.54-1.85,100.5,4.5,25,2.53,39.45,6.69,43.5,0,5.28-8.73-15.58-22-28.5-48C631.66,740.09,674.14,694.78,644.26,656.08Z"/><path class="cls-15" d="M783.5,538.75c.24,2.16,6,17.1-1.5,18-9.52,1.15-23.92,7.13-31-1.31-4.11-4.86-1.74-20.43-1.36-21.37"/><path class="cls-16" d="M746.45,521.81c-.17,2.85,3,15,5.73,15.54,50.83,9.95,75-9.26,95.7-17.24,10.26-3.94-5-78.25-51.3-73.89C765.77,449.12,748.52,488.79,746.45,521.81Z"/><path class="cls-17" d="M676.6,540.09c4.13-12-30.58-46-63-42-48.33,5.91-82.36,129.35-59.43,157.49,11,13.52,40.22,21,51.93,10.5,16.54-14.88-8.31-87,9-108C632.71,536.74,672.54,551.93,676.6,540.09Z"/><path class="cls-6" d="M608.11,694.58c20.56,1.92,30.9,3,61.84-7.71,35.84-12.43,13-71.11,8.49-90.8-2.37-10.37-27-2.21-21.44,9.93,12.75,27.72,14.6,46.18.39,59-13.78,12.49-28.72-2-50.78,7C591.41,678.34,607.41,694.52,608.11,694.58Z"/><rect class="cls-18" x="797.46" y="730.58" width="29.45" height="123" rx="12" ry="12"/><rect class="cls-19" x="771.09" y="726.46" width="29.45" height="138.22" rx="12" ry="12"/><path class="cls-6" d="M758,600.69c4.11-21.32,71.25-23.11,76.44-.62,16,69.31,17,78.11,10,122.93-4.5,28.81-48.24,24.42-77.25,22C712.75,740.46,750.75,638.27,758,600.69Z"/><polygon class="cls-20" points="806.12 597.76 820.25 596.31 814.61 610.96 806.12 597.76"/><polyline class="cls-20" points="814.27 610.93 807.9 661.3 816.95 674.09 821.97 659.42"/><rect class="cls-21" x="788.06" y="624.46" width="21.51" height="84.22" rx="7.94" ry="7.94" transform="translate(-226.26 488.71) rotate(-30)"/><path class="cls-21" d="M834.86,701.67,831,701.3a7.68,7.68,0,0,1-4-1.51,8,8,0,0,1-2.48-8.88,5.28,5.28,0,0,1,.29-.69l10.56-21.49c5-6.42-7.23-34.12-7.8-42.79a5.2,5.2,0,0,1,3.38-5.19l1.47-.6a7.36,7.36,0,0,1,5.59,0c6.14,2.57,10.8,17.23,12.57,22.51.22.63,1,1.37,1.17,2l2.16,17.49a5.1,5.1,0,0,1-.08,2.27c-1.55,5.86-6.33,26.81-13.37,35.16A6.48,6.48,0,0,1,834.86,701.67Z"/><path class="cls-22" d="M900.22,593.18c-14.35,14.17-7.13,37.6-5.75,59.82.89,14.25-1.65,51.18,11.46,54.41.84.2,10.37,4.18,11.17-4.53,4.76-51.9-7.43-75.68,5.24-110.36C924.28,587.21,915.12,578.44,900.22,593.18Z"/><path class="cls-22" d="M1019.09,587.2c11.89,16.28.91,36.8-4,58.51-3.16,13.92-6.45,52.24-19.92,53.33-.86.07-10.9,2.47-10.29-6.25,3.6-52,19.44-73.52,12.48-109.78C996.3,577.46,1006.73,570.27,1019.09,587.2Z"/><path class="cls-23" d="M945.84,481.32c.64,7.3,55,27.18,63.69,16.27,7-8.72-9.43-42-35.51-49.16-20.84-5.69-40.45,7-43.38,9.82C892.07,495.61,893.76,613.13,907.43,614c12.33.81,15-35.34,36.18-129.56"/><path class="cls-23" d="M1006.74,499.55c10,48.86,18.53,102.94,7.45,105.62-14.86,3.59-26.63-53-31.54-109.32"/><path class="cls-22" d="M1125.75,755.11l-54.49-7.55A31.65,31.65,0,0,1,1044.32,712l27.41-117.39c2.38-17.19,8.62-32.76,25.81-30.38l61.07,2.41c17.2,2.38,22.68,17.48,20.3,34.67l-17.57,126.89A31.65,31.65,0,0,1,1125.75,755.11Z"/><ellipse class="cls-24" cx="1121.62" cy="509.48" rx="50.01" ry="68.99"/><path class="cls-25" d="M1157,503.33c-1.16-.6-1.63-4.2-3.17-6.33a7.46,7.46,0,0,1-1.13-2.32,3.66,3.66,0,0,0-.25-.62l-7.8-15.11a4.29,4.29,0,0,1-.24-.59c-.76-2.4-3.49-4.36-5.91-5a7.27,7.27,0,0,0-2-.26l-24.25,1c-4,0-11.13,5.19-12.76,9a11.84,11.84,0,0,0-.45,1.26l-2.33,6.5c-.91,3.06-3.16,7.23-6.17,8.26-1.7.59,2.34-.54,0,0l-2.1,2.43a3.79,3.79,0,0,1-.8.69,16.23,16.23,0,0,1-6.39,2.31c-5,.7-9.39,2.16-8.74-2.9l3.46-31.22a10.28,10.28,0,0,1,1.29-3.84h0a49.53,49.53,0,0,1,41.9-24.81l12.45-.26a22.46,22.46,0,0,1,6.16.86,16.73,16.73,0,0,1,3.83,1.67l.3.14,8,3.54a3.57,3.57,0,0,1,.68.4c1.27.93,4.74,3.8,5.35,4.08a24.55,24.55,0,0,1,14.21,20.66l.7,29.33c.44,6.53-5.6,4.24-12,3.09"/></g><g id="gravestone"><path class="cls-26" d="M980.45,683.46c1.5-55.5,50.29-96.9,101.9-85.49,43.21,9.55,81.28,31.1,94.59,75l12,223.49L975.76,931Z"/><polygon class="cls-9" points="962.27 911.04 975.76 930.95 980.45 683.46 962.27 911.04"/></g></svg>