<svg xmlns="http://www.w3.org/2000/svg" viewBox="0 0 1920.02 1080"><defs><style>.cls-1{fill:#939899;}.cls-1,.cls-19,.cls-2{stroke:#000;stroke-miterlimit:10;}.cls-2{fill:#777575;}.cls-3{fill:#a67c52;}.cls-4{fill:#383535;}.cls-5{fill:#353231;}.cls-6{fill:#282524;}.cls-7{fill:#a09767;}.cls-8{fill:#c69c83;}.cls-9{fill:#937f52;}.cls-10{fill:#4f4d4c;}.cls-11{fill:#262423;}.cls-12{fill:#211f1e;}.cls-13{fill:#c6c1c1;}.cls-14{fill:#2b2928;}.cls-15{fill:#3f3c3b;}.cls-16{fill:#2b2827;}.cls-17{fill:#634b42;}.cls-18{fill:#754c24;}.cls-20{fill:#333;}.cls-21{fill:#00151f;}.cls-22{fill:#001d28;}.cls-23{fill:#262626;}.cls-24{fill:#4d4d4d;}</style></defs><title>funeral-2</title><g id="sky"><rect class="cls-1" width="1920.02" height="795.08"/></g><g id="ground"><path class="cls-2" d="M0,736.58V1080H1920V783.08a5992.85,5992.85,0,0,0-704.94-90C759.22,662.22,337.29,691.75,0,736.58"/></g><g id="Layer_9" data-name="Layer 9"><ellipse class="cls-3" cx="499.33" cy="474.63" rx="86.45" ry="72.04" transform="matrix(0.14, -0.99, 0.99, 0.14, -39.04, 904.48)"/><rect class="cls-4" x="452.11" y="799.94" width="38.44" height="88.51" rx="12" ry="12"/><rect class="cls-5" x="481.68" y="805.09" width="38.44" height="88.51" rx="12" ry="12"/><path class="cls-6" d="M527.39,575.79c-12.79-16.56-35.18-31.28-54-27-30.2,6.81-43.37,60.45-46.32,90.71-5.45,55.82,3.68,73.26-10.41,113.87-12.44,35.9-24.06,45.45-18.54,57.9,6.84,15.47,48.3-2.38,129.31,5.79,32.2,3.26,50.77,8.61,56,0,6.8-11.23-20-28.32-36.67-61.76C511.18,683.88,565.84,625.58,527.39,575.79Z"/><path class="cls-7" d="M569,426.53c5.31-15.46-39.35-59.14-81.06-54-62.18,7.61-106,166.44-76.47,202.66,14.16,17.38,51.75,27.07,66.82,13.51,21.29-19.16-10.69-111.95,11.58-139C512.53,422.22,563.78,441.77,569,426.53Z"/><path class="cls-5" d="M480.88,625.33c26.45,2.46,39.76,3.89,79.57-9.93,46.12-16,16.71-91.5,10.92-116.84-3-13.34-34.77-2.84-27.58,12.78,16.4,35.67,18.78,59.43.5,76-17.73,16.07-37-2.64-65.34,9C459.39,604.43,480,625.24,480.88,625.33Z"/><ellipse class="cls-8" cx="728.85" cy="416.05" rx="85.55" ry="64.3" transform="translate(182.19 1052.82) rotate(-79.07)"/><path class="cls-9" d="M708.54,424c.31,2.77,7.65,22-1.93,23.16-12.25,1.48-30.78,9.17-40-1.69-5.29-6.25-2.25-26.29-1.76-27.49"/><path class="cls-10" d="M660.87,402.19c-.23,3.66,3.82,19.3,7.36,20C733.65,435,764.69,410.27,791.38,400c13.2-5.07-6.49-100.68-66-95.08C685.73,308.65,663.53,359.7,660.87,402.19Z"/><rect class="cls-11" x="726.5" y="670.82" width="37.89" height="158.27" rx="12" ry="12"/><rect class="cls-12" x="692.58" y="665.52" width="37.89" height="177.85" rx="12" ry="12"/><path class="cls-5" d="M675.73,503.69c5.29-27.44,91.67-29.74,98.35-.81C794.67,592.07,796,603.39,787,661.07c-5.79,37.07-62.07,31.42-99.4,28.31C617.51,683.54,666.4,552,675.73,503.69Z"/><polygon class="cls-13" points="737.64 499.92 755.83 498.06 748.57 516.91 737.64 499.92"/><polyline class="cls-13" points="748.13 516.87 739.94 581.68 751.58 598.13 758.04 579.26"/><rect class="cls-14" x="714.41" y="534.28" width="27.68" height="108.37" rx="7.94" ry="7.94" transform="matrix(0.87, -0.5, 0.5, 0.87, -196.66, 442.96)"/><path class="cls-14" d="M774.62,633.62l-5-.48a9.72,9.72,0,0,1-5.12-1.94,10.28,10.28,0,0,1-3.2-11.42,7,7,0,0,1,.37-.89l13.59-27.64c6.44-8.28-9.3-43.91-10-55.07a6.69,6.69,0,0,1,4.35-6.68l1.88-.77a9.5,9.5,0,0,1,7.2,0c7.9,3.31,13.89,22.17,16.18,29,.27.82,1.35,1.77,1.5,2.6l2.78,22.51a6.53,6.53,0,0,1-.1,2.92c-2,7.54-8.15,34.49-17.21,45.24A8.28,8.28,0,0,1,774.62,633.62Z"/><rect class="cls-15" x="899.93" y="667.12" width="37.5" height="108.81" rx="12" ry="12"/><rect class="cls-15" x="942.2" y="667.12" width="37.5" height="108.81" rx="12" ry="12"/><path class="cls-5" d="M875.71,683.66c36.7-.28,63.83-6.77,102.32-6.77,60.06,0-23.77-153.83,15.57-209.15,33.5-47.12-136.56-36.12-116.78,5.07C899.06,519.12,815.4,684.11,875.71,683.66Z"/><ellipse class="cls-3" cx="933.48" cy="390.24" rx="47.83" ry="64.54"/><path class="cls-16" d="M860.42,479.81c-17.49,17.29-8.69,45.86-7,73,1.08,17.37-2,62.4,14,66.34,1,.26,12.64,5.1,13.61-5.51,5.81-63.29-9.06-92.3,6.39-134.59C889.77,472.53,878.6,461.85,860.42,479.81Z"/><path class="cls-16" d="M1005.39,472.52c14.5,19.86,1.11,44.89-4.89,71.36-3.84,17-7.86,63.71-24.28,65-1.05.09-13.29,3-12.56-7.62,4.4-63.4,23.71-89.66,15.23-133.87C977.59,460.64,990.32,451.88,1005.39,472.52Z"/><path class="cls-17" d="M916.06,343.41c.78,8.91,67.06,33.15,77.66,19.84,8.48-10.63-11.49-51.26-43.29-59.94-25.42-6.94-49.33,8.5-52.91,12-47,45.57-45,188.87-28.3,190,15,1,18.32-43.09,44.12-158"/><path class="cls-17" d="M990.32,365.64c12.14,59.59,22.61,125.54,9.09,128.8-18.13,4.38-32.48-64.66-38.46-133.32"/><path class="cls-16" d="M1161.37,661.28l-62.75-8.68a36.46,36.46,0,0,1-31-41l31.57-135.18c2.74-19.81,9.91-37.74,29.71-35l70.34,2.78c19.8,2.75,26.1,20.13,23.36,39.93l-20.22,146.13A36.45,36.45,0,0,1,1161.37,661.28Z"/><ellipse class="cls-18" cx="1156.61" cy="378.42" rx="57.59" ry="79.45"/><path class="cls-19" d="M1197.36,371.34c-1.34-.69-1.88-4.84-3.65-7.29a8.63,8.63,0,0,1-1.31-2.67,3.7,3.7,0,0,0-.28-.72l-9-17.4a5.52,5.52,0,0,1-.27-.67c-.88-2.77-4-5-6.81-5.8a8.32,8.32,0,0,0-2.35-.29l-27.92,1.12c-4.6,0-12.82,6-14.7,10.39-.2.48-.37,1-.52,1.45l-2.68,7.49c-1,3.51-3.64,8.32-7.1,9.51-2,.67,2.69-.63,0,0l-2.43,2.79a3.81,3.81,0,0,1-.91.79,18.51,18.51,0,0,1-7.36,2.67c-5.78.8-10.81,2.48-10.07-3.34l4-35.95a12,12,0,0,1,1.49-4.43h0a57,57,0,0,1,48.26-28.57l14.33-.29a26.22,26.22,0,0,1,7.1,1,20.05,20.05,0,0,1,4.41,1.92,2.16,2.16,0,0,0,.34.17l9.21,4.07a4.09,4.09,0,0,1,.79.46c1.46,1.08,5.45,4.38,6.16,4.71a28.26,28.26,0,0,1,16.36,23.78l.81,33.78c.5,7.53-6.45,4.88-13.88,3.56"/><ellipse class="cls-8" cx="1367.04" cy="414.12" rx="61.27" ry="86.2" transform="translate(-31.36 122.97) rotate(-5.09)"/><path class="cls-20" d="M1305.77,339.16c56-24.43,100.66-22,108.89-16.79,39.49,25,36.39,58,39.47,88.8,3,29.91-6.92,68.37-10.39,84.3"/><rect class="cls-21" x="1361.56" y="640.58" width="43.35" height="140.23" rx="12" ry="12"/><rect class="cls-22" x="1387.03" y="651.16" width="43.35" height="143.22" rx="12" ry="12"/><path class="cls-20" d="M1389,414.12v33c0,27.48-32.24,42.43-51.17,62.35l2.5,31.68c-4.48,4.72-2.5,6.27-2.5,12.78v81.19a25.41,25.41,0,0,0,23.75,25.35l83.79,5.5a25.41,25.41,0,0,0,26.71-29.66l-23.61-137.23"/><path class="cls-23" d="M1406.64,530.25c6.81-4.08,16.52-2.64,21.67,2.19,11.78,11-24.55,61.7-48.09,66-18.43,3.36-46-19.87-42.84-28.75,1.8-5.13,37.62,4.21,47.58-4.25S1397.51,535.72,1406.64,530.25Z"/><rect class="cls-23" x="1348.24" y="533.12" width="18.69" height="58.04" rx="6.75" ry="6.75" transform="translate(366.53 1646.96) rotate(-70.08)"/></g><g id="gravestone"><path class="cls-24" d="M960.74,609.37c1.93-71.41,64.71-124.7,131.12-110,55.6,12.29,104.58,40,121.71,96.5L1229,883.43l-274.3,44.39Z"/><polygon class="cls-20" points="937.35 902.21 954.71 927.83 960.74 609.37 937.35 902.21"/></g></svg>