<svg xmlns="http://www.w3.org/2000/svg" viewBox="0 0 148.82 538.69"><defs><style>.cls-1{fill:#b7a7a1;}.cls-2{fill:#8e8572;}.cls-3{fill:#7f7d7c;}.cls-4{fill:#3f3d3b;}.cls-5{fill:#3f3b3a;}.cls-6{fill:#595655;}.cls-7{fill:#aaa2a2;}.cls-8{fill:#4c4a48;}</style></defs><title>grey2</title><g id="Layer_2" data-name="Layer 2"><g id="grey2"><ellipse class="cls-1" cx="78.4" cy="111.37" rx="85.55" ry="64.3" transform="translate(-45.81 167.24) rotate(-79.07)"/><path class="cls-2" d="M58.09,119.3c.32,2.78,7.66,22-1.93,23.16-12.24,1.49-30.77,9.18-39.95-1.68-5.28-6.26-2.24-26.29-1.75-27.5"/><path class="cls-3" d="M10.43,97.51c-.23,3.66,3.81,19.3,7.36,20,65.41,12.8,96.45-11.93,123.14-22.19,13.2-5.07-6.48-100.69-66-95.08C35.28,4,13.08,55,10.43,97.51Z"/><rect class="cls-4" x="76.06" y="366.14" width="37.89" height="158.27" rx="12" ry="12"/><rect class="cls-5" x="42.13" y="360.84" width="37.89" height="177.85" rx="12" ry="12"/><path class="cls-6" d="M25.28,199c5.29-27.44,91.68-29.75,98.36-.81,20.59,89.19,21.87,100.51,12.87,158.19-5.79,37.07-62.08,31.42-99.4,28.31C-32.94,378.85,16,247.36,25.28,199Z"/><polygon class="cls-7" points="87.2 195.24 105.38 193.37 98.13 212.22 87.2 195.24"/><polyline class="cls-7" points="97.69 212.18 89.5 277 101.14 293.45 107.6 274.58"/><rect class="cls-8" x="63.96" y="229.59" width="27.68" height="108.37" rx="7.94" ry="7.94" transform="translate(-131.47 76.92) rotate(-30)"/><path class="cls-8" d="M124.18,328.94l-5-.48a9.81,9.81,0,0,1-5.12-1.94,10.29,10.29,0,0,1-3.19-11.42,5,5,0,0,1,.37-.9l13.59-27.64c6.43-8.27-9.3-43.91-10-55.06a6.68,6.68,0,0,1,4.36-6.68L121,224a9.5,9.5,0,0,1,7.2.06c7.9,3.3,13.89,22.17,16.17,29,.28.81,1.35,1.77,1.51,2.59l2.78,22.52a6.63,6.63,0,0,1-.1,2.91c-2,7.55-8.15,34.5-17.21,45.25A8.3,8.3,0,0,1,124.18,328.94Z"/></g></g></svg>