<svg xmlns="http://www.w3.org/2000/svg" viewBox="0 0 166.91 475.43"><defs><style>.cls-1{fill:#c1aa9f;}.cls-2{fill:#5e5e5e;}.cls-3{fill:#374649;}.cls-4{fill:#2f4144;}.cls-5{fill:#4c4c4c;}</style></defs><title>grey5</title><g id="Layer_2" data-name="Layer 2"><g id="grey5"><ellipse class="cls-1" cx="61.51" cy="95.16" rx="61.27" ry="86.2" transform="translate(-8.2 5.84) rotate(-5.09)"/><path class="cls-2" d="M.24,20.21c56-24.43,100.67-22,108.9-16.79,39.49,25,36.38,58,39.46,88.8,3,29.91-6.92,68.37-10.39,84.3"/><rect class="cls-3" x="56.03" y="321.63" width="43.35" height="140.23" rx="12" ry="12"/><rect class="cls-4" x="81.5" y="332.21" width="43.35" height="143.22" rx="12" ry="12"/><path class="cls-2" d="M83.45,95.16v33c0,27.47-32.24,42.42-51.16,62.34l2.5,31.69c-4.49,4.72-2.5,6.26-2.5,12.77v81.19A25.41,25.41,0,0,0,56,341.53l83.8,5.5a25.41,25.41,0,0,0,26.7-29.67L142.92,180.14"/><path class="cls-5" d="M101.11,211.3c6.81-4.08,16.53-2.65,21.68,2.19,11.78,11-24.56,61.7-48.09,66-18.44,3.36-46-19.87-42.85-28.75,1.8-5.14,37.62,4.2,47.59-4.25S92,216.77,101.11,211.3Z"/><rect class="cls-5" x="42.71" y="214.16" width="18.69" height="58.04" rx="6.75" ry="6.75" transform="translate(-194.31 209.27) rotate(-70.08)"/></g></g></svg>