<?xml version="1.0" encoding="utf-8"?>
<!-- Generator: Adobe Illustrator 22.0.1, SVG Export Plug-In . SVG Version: 6.00 Build 0)  -->
<svg version="1.1" baseProfile="tiny" id="Layer_1" xmlns="http://www.w3.org/2000/svg" xmlns:xlink="http://www.w3.org/1999/xlink"
	 x="0px" y="0px" viewBox="0 0 52.4 172.4" xml:space="preserve">
<title>mom-on-phone</title>
<g id="Layer_2_1_">
	<g id="OBJECTS">
		<path fill="#1D1D33" d="M8.5,84.6l17,2.9l17-2.9l0.1,82.9h-3.9L25.7,93.3l-1.2,74.1h-3.9c0,0-6.9-31.2-7.1-34s1-11.6,1-11.6
			L8.5,84.6z"/>
		<path fill="#E48868" d="M2,85.6c0,0-1.1,4.4-1.3,5.8s-0.2,2.1,0.9,1.8S1.5,95.2,3.2,95s4.5-4.7,4.5-4.7l-2.8-3.9L2,85.6z"/>
		<path fill="#593A0E" d="M36.2,31.3c0,0,1.5-18.2,0-23.9S28.6-0.3,25,0S14.2,1.9,14.1,10.5s0.8,20.8,0.8,20.8H36.2z"/>
		<path fill="#485D68" d="M37.5,45.4l-2.1,14C41,67.7,44,80.1,45.5,89.6H4.8c3.6-21.4,11.6-30,11.6-30l-3.3-14.3
			c-2.9-2.8-3.1-7.1-3.1-9.1v-7.3c0,0,13-6.3,15.9-6.3s14.9,5.7,14.9,5.7V36C41.9,41.7,37.5,45.4,37.5,45.4z"/>
		<path d="M27.8,40.2h6.1c0.6,0,1,0.5,1,1v13.3c0,0.6-0.5,1-1,1h-6.1c-0.6,0-1-0.5-1-1V41.2C26.8,40.6,27.3,40.2,27.8,40.2z"/>
		<path fill="#E48868" d="M36.6,51.5l-2.5-0.2c0,0-0.9-3.6-1.7-4.2l-1.1,1.7c0,0-3.5-3.9-3.8-3.6l-1.4,1.1l1.6,1.4c0,0-1,0.4-1,0.8
			c0,0.3,0,0.6,0.1,0.8c-0.4,0.5-0.7,1-0.9,1.5c-0.3,0.8-0.9,1.3-0.9,2.1s4.3,3,4.9,3.3s6.7,0.7,6.7,0.7L36.6,51.5z"/>
		<path fill="#4F1A12" d="M40.9,28.2c2,1.4,2.3,5.8,3.3,9s6.7,11.2,5.7,14.3s-2.6,3.2-1.4,7s-2.1,5.3-5,4.5s-10-5.6-10-5.6l0.5-2.2
			l3.4-13L40.9,28.2z"/>
		<path fill="#4F1A12" d="M34.6,25.4l2.5,75.1h15.3c0,0-3.6-17-4-27.1S45,30.7,43,28.9S34.6,25.4,34.6,25.4z"/>
		<path fill="#4F1A12" d="M10.9,28.2c-2.3,1.5-4.3,3.9-4.6,5.2S3.1,63,3.3,66.7S0.3,69.6,1.6,75s-3.1,5-1.1,8.6L1,86.5l4.2,1L9.4,75
			l3.7-29.7L10.9,28.2z"/>
		<path fill="#CFB199" d="M22.6,36.9L22.6,36.9c3.3-0.7,6.1-2.6,8.2-5.1c0.1-0.1,0.1-0.3-0.1-0.4c-0.1-0.1-0.3-0.1-0.4,0.1
			c-1.9,2.5-4.7,4.2-7.7,4.9c-0.2,0-0.3,0.2-0.2,0.4c0,0,0,0,0,0C22.4,36.8,22.5,36.9,22.6,36.9z"/>
		<path fill="#393762" d="M13.3,45.2c0.1,0,0.1,0,0.2,0c0.1-0.1,0.2-0.3,0.1-0.4c0,0,0,0,0,0c-2-3.2-2.3-7.3-0.8-10.8l0.1-0.1
			l-0.1-0.1c-0.2-0.5-0.4-0.9-0.7-1.4s-0.4-1-0.7-1.5c-0.1-0.1-0.3-0.2-0.4-0.1c-0.1,0.1-0.2,0.3-0.1,0.4c0.2,0.5,0.4,0.9,0.7,1.4
			s0.4,0.9,0.6,1.3c-1.5,3.7-1.1,7.8,0.9,11.2C13.1,45.2,13.2,45.2,13.3,45.2z"/>
		<path fill="#393762" d="M5.8,86.2c0.1,0,0.3-0.1,0.3-0.3c0.9-4.6,2.1-9,3.7-13.4c0.1-0.2,0-0.3-0.2-0.4s-0.3,0-0.4,0.2
			c-1.6,4.4-2.9,8.9-3.8,13.5C5.5,86,5.6,86.2,5.8,86.2L5.8,86.2z"/>
		<path fill="#E48868" d="M28.6,18.3v7.1c0,0-3.6,6.1-6.9,0.1l0.3-7.3H28.6z"/>
		<path fill="#E48868" d="M27.1,1.4c6.2,0.8,7.1,7.9,5.7,13.6c-1.1,4.2-3.6,8.4-7.6,8.3s-6.3-5.5-7-8.8C17.1,9.1,17.3,0.1,27.1,1.4z
			"/>
		<path fill="#E48868" d="M32.1,13.4c0,0,0.2-2.3,2.1-1.6s-0.4,6.1-2.5,5.5S32.1,13.4,32.1,13.4z"/>
		<path fill="#E48868" d="M19.4,13.3c0,0-0.1-2.4-2-1.7s0,6.1,2.1,5.7S19.4,13.3,19.4,13.3z"/>
		<path fill="#4C2F0C" d="M18.8,3.1c0.5-0.2,1-0.3,1.5-0.3c0.1-0.4,0.4-0.7,0.7-0.9c2.1-1.2,7.3-1,9.5,0S35.4,7,36,9.4
			s0,5.2-0.6,7.7c-0.1,0.8-0.5,1.5-1.1,1.9c-0.6,0.2-1.3,0.2-1.8,0c-3.5-0.9-6.6-2.7-9.1-5.3c-0.4-0.4-0.7-0.8-1-1.2l0,0
			C21.5,14.9,20,17,18,18.6c-0.2,0.2-0.5,0.3-0.8,0.4c-0.5,0-0.7-0.5-0.9-0.9c-0.8-1.5-1.3-3.1-1.5-4.8C14.9,11.6,17.3,3.8,18.8,3.1
			z"/>
		<path fill="#BA745D" d="M25.2,23.6c0.9,0,1.9-0.2,2.7-0.7c0.1-0.1,0.2-0.3,0.1-0.4c0,0,0,0,0,0c-0.1-0.1-0.3-0.2-0.4-0.1
			c-1.6,0.9-3.5,0.8-5-0.2c-0.1-0.1-0.3-0.1-0.4,0c-0.1,0.1-0.1,0.3,0,0.4c0,0,0,0,0.1,0.1C23.1,23.2,24.2,23.6,25.2,23.6z"/>
		<path fill="#191919" d="M45.8,52.1c0.2,0,0.3-0.1,0.3-0.3c0-0.2-0.1-0.3-0.2-0.3c0,0,0,0,0,0L36.9,50c-0.2,0-0.3,0.1-0.3,0.3
			c0,0.2,0.1,0.3,0.2,0.3c0,0,0,0,0,0L45.8,52.1L45.8,52.1z"/>
		<path fill="#4F1A12" d="M17.7,25.4L17,100.5H1.7c0,0,2.5-17,3-27.1s3.4-42.6,5.4-44.5S17.7,25.4,17.7,25.4z"/>
		<path fill="#191919" d="M4,86.6c0.2,0,0.3-0.1,0.3-0.3C4.7,77,7.8,39,9.6,31c0-0.2-0.1-0.3-0.2-0.4c-0.2,0-0.3,0.1-0.4,0.2
			c-1.8,8-4.9,46.1-5.3,55.4C3.7,86.4,3.8,86.5,4,86.6C4,86.5,4,86.5,4,86.6L4,86.6z"/>
		<path fill="#191919" d="M44.8,62.7c0.7,0,1.5-0.1,2.2-0.3c0.2,0,0.3-0.2,0.2-0.4c0,0,0,0,0,0c0-0.2-0.2-0.3-0.4-0.2
			c-3.7,0.9-6.7-0.8-9.3-2.3c-0.5-0.3-0.9-0.5-1.3-0.8c-0.1-0.1-0.3,0-0.4,0.1c-0.1,0.1,0,0.3,0.1,0.4l1.3,0.8
			C39.4,61.3,41.9,62.7,44.8,62.7z"/>
		<polygon fill="#A5A5A5" points="38.8,167.4 40,172.4 46.9,172.4 43.5,169.9 42.7,167.4 		"/>
		<polygon fill="#A5A5A5" points="24.5,167.4 24.5,172.4 17.7,172.4 21.1,169.9 20.6,167.4 		"/>
	</g>
</g>
</svg>
