<?xml version="1.0" encoding="utf-8"?>
<!-- Generator: Adobe Illustrator 22.0.1, SVG Export Plug-In . SVG Version: 6.00 Build 0)  -->
<svg version="1.1" baseProfile="tiny" id="Layer_1" xmlns="http://www.w3.org/2000/svg" xmlns:xlink="http://www.w3.org/1999/xlink"
	 x="0px" y="0px" viewBox="0 0 55.7 172.4" xml:space="preserve">
<title>mom-alone</title>
<g id="Layer_2_1_">
	<g id="OBJECTS">
		<path fill="#1D1D33" d="M8.5,84.6l17,2.9l17-2.9l0.1,82.9h-3.9L25.7,93.3l-1.2,74.1h-3.9c0,0-6.9-31.2-7.1-34s1-11.6,1-11.6
			L8.5,84.6z"/>
		<path fill="#E48868" d="M2,85.6c0,0-1.1,4.4-1.3,5.8s-0.2,2.1,0.9,1.8S1.5,95.2,3.2,95s4.5-4.7,4.5-4.7l-2.8-3.9L2,85.6z"/>
		<path fill="#593A0E" d="M36.2,32.3c0,0,1.5-19.3,0-24.9S28.6-0.3,25,0S14.2,1.9,14.1,10.5s2.5,20.8,2.5,20.8L36.2,32.3z"/>
		<path fill="#485D68" d="M37.5,45.4l-2.1,14C41,67.7,44,80.1,45.5,89.6H4.8c3.6-21.4,11.6-30,11.6-30l-3.3-14.3
			c-2.9-2.8-3.1-7.1-3.1-9.1v-7.3c0,0,13-6.3,15.9-6.3s14.9,5.7,14.9,5.7V36C41.9,41.7,37.5,45.4,37.5,45.4z"/>
		<path fill="#4F1A12" d="M34.6,25.4l2.1,71.1H52c0,0-3.1-13-3.6-23.1S45,30.7,43,28.9S34.6,25.4,34.6,25.4z"/>
		<path fill="#4F1A12" d="M10.9,28.2c-2.3,1.5-4.3,3.9-4.6,5.2S3.1,63,3.3,66.7S0.3,69.6,1.6,75s-3.1,5-1.1,8.6L1,86.5l4.2,1L9.4,75
			l3.7-29.7L10.9,28.2z"/>
		<path fill="#CFB199" d="M22.6,36.9L22.6,36.9c3.3-0.7,6.1-2.6,8.2-5.1c0.1-0.1,0.1-0.3-0.1-0.4c-0.1-0.1-0.3-0.1-0.4,0.1
			c-1.9,2.5-4.7,4.2-7.7,4.9c-0.2,0-0.3,0.2-0.2,0.4c0,0,0,0,0,0C22.4,36.8,22.5,36.9,22.6,36.9z"/>
		<path fill="#393762" d="M13.3,45.2c0.1,0,0.1,0,0.2,0c0.1-0.1,0.2-0.3,0.1-0.4c0,0,0,0,0,0c-2-3.2-2.3-7.3-0.8-10.8l0.1-0.1
			l-0.1-0.1c-0.2-0.5-0.4-0.9-0.7-1.4s-0.4-1-0.7-1.5c-0.1-0.1-0.3-0.2-0.4-0.1c-0.1,0.1-0.2,0.3-0.1,0.4c0.2,0.5,0.4,0.9,0.7,1.4
			s0.4,0.9,0.6,1.3c-1.5,3.7-1.1,7.8,0.9,11.2C13.1,45.2,13.2,45.2,13.3,45.2z"/>
		<path fill="#393762" d="M5.8,86.2c0.1,0,0.3-0.1,0.3-0.3c0.9-4.6,2.1-9,3.7-13.4c0.1-0.2,0-0.3-0.2-0.4s-0.3,0-0.4,0.2
			c-1.6,4.4-2.9,8.9-3.8,13.5C5.5,86,5.6,86.2,5.8,86.2L5.8,86.2z"/>
		<path fill="#E48868" d="M28.6,18.3v7.1c0,0-3.6,6.1-6.9,0.1l0.3-7.3H28.6z"/>
		<path fill="#E48868" d="M27.1,1.4c6.2,0.8,7.1,7.9,5.7,13.6c-1.1,4.2-3.6,8.4-7.6,8.3s-6.3-5.5-7-8.8C17.1,9.1,17.3,0.1,27.1,1.4z
			"/>
		<path fill="#E48868" d="M32.1,13.4c0,0,0.2-2.3,2.1-1.6s-0.4,6.1-2.5,5.5S32.1,13.4,32.1,13.4z"/>
		<path fill="#E48868" d="M19.4,13.3c0,0-0.1-2.4-2-1.7s0,6.1,2.1,5.7S19.4,13.3,19.4,13.3z"/>
		<path fill="#4C2F0C" d="M18.8,3.1c0.5-0.2,1-0.3,1.5-0.3c0.1-0.4,0.4-0.7,0.7-0.9c2.1-1.2,7.3-1,9.5,0S35.4,7,36,9.4
			s0,5.2-0.6,7.7c-0.1,0.8-0.5,1.5-1.1,1.9c-0.6,0.2-1.3,0.2-1.8,0c-3.5-0.9-6.6-2.7-9.1-5.3c-0.4-0.4-0.7-0.8-1-1.2l0,0
			C21.5,14.9,20,17,18,18.6c-0.2,0.2-0.5,0.3-0.8,0.4c-0.5,0-0.7-0.5-0.9-0.9c-0.8-1.5-1.3-3.1-1.5-4.8C14.9,11.6,17.3,3.8,18.8,3.1
			z"/>
		<path fill="#BA745D" d="M25.2,23.6c0.9,0,1.9-0.2,2.7-0.7c0.1-0.1,0.2-0.3,0.1-0.4c0,0,0,0,0,0c-0.1-0.1-0.3-0.2-0.4-0.1
			c-1.6,0.9-3.5,0.8-5-0.2c-0.1-0.1-0.3-0.1-0.4,0c-0.1,0.1-0.1,0.3,0,0.4c0,0,0,0,0.1,0.1C23.1,23.2,24.2,23.6,25.2,23.6z"/>
		<path fill="#4F1A12" d="M17.7,25.4l-1.2,71.1H1.2c0,0,3-13,3.5-23.1s3.4-42.6,5.4-44.5S17.7,25.4,17.7,25.4z"/>
		<path d="M43.8,87.6l6.9-2c2.1-0.6,4.2,0.6,4.8,2.7l0,0c0.6,2.1-0.6,4.2-2.7,4.8l-6.9,2c-2.1,0.6-4.2-0.6-4.8-2.7l0,0
			C40.5,90.4,41.7,88.2,43.8,87.6z"/>
		<path fill="#191919" d="M4,86.6c0.2,0,0.3-0.1,0.3-0.3C4.7,77,7.8,39,9.6,31c0-0.2-0.1-0.3-0.2-0.4c-0.2,0-0.3,0.1-0.4,0.2
			c-1.8,8-4.9,46.1-5.3,55.4C3.7,86.4,3.8,86.5,4,86.6C4,86.5,4,86.5,4,86.6L4,86.6z"/>
		<path fill="#E48868" d="M45.8,86l1.6,1.9c0,0-2,3.2-1.8,4.1l2-0.4c0,0-0.3,5.2,0,5.2l1.8,0.3L49.2,95c0,0,1,0.4,1.3,0.2
			c0.2-0.2,0.4-0.4,0.5-0.7c0.6,0,1.1-0.2,1.7-0.4c0.8-0.3,1.5-0.2,2.1-0.8s-0.8-5.2-1-5.8s-4.1-5.3-4.1-5.3L45.8,86z"/>
		<polygon fill="#A5A5A5" points="38.8,167.4 40,172.4 46.9,172.4 43.5,169.9 42.7,167.4 		"/>
		<polygon fill="#A5A5A5" points="24.5,167.4 24.5,172.4 17.7,172.4 21.1,169.9 20.6,167.4 		"/>
		<path fill="#4F1A12" d="M40.5,29c2.3,1.5,4.3,3.9,4.6,5.2s4.1,29.7,5.1,33.3c1.8,6.2-0.8,3,0.6,8.3c1.8,6.4-0.2,2.4,1.1,8.6
			l1.5,2.9l-7.2,1L42,75.7L38.3,46L40.5,29z"/>
		<path fill="none" stroke="#000000" stroke-width="0.25" stroke-miterlimit="10" d="M45.3,87.3L41,74.8l-2.7-29.7l2.2-17"/>
	</g>
</g>
</svg>
