<?xml version="1.0" encoding="utf-8"?>
<!-- Generator: Adobe Illustrator 22.0.1, SVG Export Plug-In . SVG Version: 6.00 Build 0)  -->
<svg version="1.1" baseProfile="tiny" id="Layer_1" xmlns="http://www.w3.org/2000/svg" xmlns:xlink="http://www.w3.org/1999/xlink"
	 x="0px" y="0px" viewBox="0 0 361.9 682.7" xml:space="preserve">
<title>mom</title>
<g id="Layer_2_1_">
	<g id="Layer_10">
		<path fill="#1D1D33" d="M103,395.2l55.8,9.5l55.8-9.5l0.5,271.2h-12.9l-42.9-242.6l-3.9,242.6h-12.9c0,0-22.4-102.1-23.4-111.4
			s3.3-38,3.3-38L103,395.2z"/>
		<path fill="#E48868" d="M81.9,398.6c0,0-3.7,14.4-4.4,19s-0.7,7,3,6s-0.3,6.3,5,5.7s14.8-15.3,14.8-15.3l-9.1-12.7L81.9,398.6z"/>
		<path fill="#593A0E" d="M193,198.3c0,0,5.8-37.1,0.8-55.6s-24.8-25.3-36.9-24.2s-35.1,6.1-35.4,34.4s5.2,48.5,5.2,48.5L193,198.3z
			"/>
		<path fill="#191919" d="M193.3,206.5c0,0,4.7-9,2.5-12s-30-10.5-38.1-10.5s-33.7,8.3-35.7,10.5s3.3,12,3.3,12L193.3,206.5z"/>
		<path fill="#5E5E5E" d="M198,267.1l-7,45.9c18.4,26.9,28.1,67.4,33.2,98.5H90.9c11.7-70,38-98.3,38-98.3l-10.6-46.8
			c-9.6-9-10.1-23.4-10.1-29.8v-23.9c0,0,42.5-20.7,52.1-20.7s48.9,18.6,48.9,18.6v25.5C212.4,254.9,198,267.1,198,267.1z"/>
		<path fill="#333231" d="M209.2,210.8c6.6,4.5,7.6,19.1,10.6,29.4s22,36.8,18.5,46.8s-8.5,10.5-4.5,23s-7,17.2-16.5,14.6
			s-32.7-18.2-32.7-18.2l1.9-7.4l11.1-42.6L209.2,210.8z"/>
		<path fill="#333231" d="M188.4,201.5l6.6,343.8h50.1c0,0-10-153.7-11.5-186.8S222.5,219,216,212.9S188.4,201.5,188.4,201.5z"/>
		<path fill="#333231" d="M111,210.8c-7.4,4.8-13.9,12.8-15,17s-10.6,96.7-10.1,109s-9.6,9.6-5.3,27.1s-10.1,16.4-3.8,28.1l1.6,9.6
			l13.7,3.2l14-40.9l12.2-97.3L111,210.8z"/>
		<path fill="#CFB199" d="M149.3,239.3c0.1,0,0.1,0,0.2,0c10.5-2.4,19.9-8.3,26.5-16.8c0.3-0.4,0.3-1.1-0.2-1.4
			c-0.4-0.3-1.1-0.3-1.4,0.2c-6.4,8.1-15.3,13.8-25.4,16.1c-0.5,0.1-0.9,0.7-0.8,1.2C148.4,239,148.8,239.3,149.3,239.3z"/>
		<path fill="#393762" d="M118.7,266.4c0.2,0,0.4,0,0.5-0.1c0.5-0.3,0.6-0.9,0.3-1.4c0,0,0,0,0,0c-6.5-10.6-7.6-23.8-2.8-35.3
			l0.2-0.4l-0.2-0.4c-0.8-1.5-1.5-3.1-2.2-4.7s-1.5-3.3-2.3-4.8c-0.3-0.5-0.9-0.7-1.3-0.4c0,0,0,0,0,0c-0.5,0.3-0.7,0.9-0.4,1.3
			c0,0,0,0,0,0c0.8,1.5,1.5,3.1,2.2,4.7s1.3,3,2,4.4c-4.9,12-3.7,25.6,3.1,36.7C118,266.2,118.3,266.4,118.7,266.4z"/>
		<path fill="#393762" d="M94.1,400.6c0.5,0,0.9-0.3,1-0.8c2.9-14.9,7-29.6,12.2-43.8c0.2-0.5,0-1.1-0.5-1.3c-0.5-0.2-1.1,0-1.3,0.5
			c0,0,0,0.1-0.1,0.2c-5.3,14.3-9.4,29.1-12.3,44.1c-0.1,0.5,0.2,1.1,0.8,1.2c0,0,0,0,0.1,0L94.1,400.6z"/>
		<path fill="#E48868" d="M168.8,178.3v23.4c0,0-11.9,20-22.7,0.5l1-23.8L168.8,178.3z"/>
		<path fill="#E48868" d="M164.1,122.9c20.2,2.6,23.4,25.9,18.5,44.4c-3.6,13.7-11.8,27.6-24.8,27.3s-20.7-18-23.1-28.9
			C131,148.2,131.7,118.7,164.1,122.9z"/>
		<path fill="#E48868" d="M180.2,162.2c0,0,0.8-7.7,7-5.1s-1.4,20-8.3,18S180.2,162.2,180.2,162.2z"/>
		<path fill="#E48868" d="M138.8,161.8c0,0-0.2-7.8-6.6-5.6s-0.1,20,7,18.5S138.8,161.8,138.8,161.8z"/>
		<path fill="#4C2F0C" d="M136.7,128.7c1.6-0.7,3.3-1,5.1-1.1c0.4-1.3,1.2-2.3,2.4-2.9c7-3.8,23.7-3.2,31.1,0s15.8,16.7,17.8,24.5
			c2.1,8.3,0,16.9-2.1,25.2c-0.6,2.4-1.4,5-3.5,6.2c-1.8,1-4.1,0.6-6.1,0.1c-11.3-2.9-21.6-8.9-29.8-17.4c-1.2-1.2-2.3-2.5-3.3-3.9
			v0.1c-2.8,7.8-7.7,14.6-14.1,19.8c-0.7,0.7-1.5,1.1-2.5,1.1c-1.5-0.1-2.4-1.6-3-2.9c-2.3-5-4.6-10.1-4.8-15.6
			S131.7,130.9,136.7,128.7z"/>
		<path fill="#BA745D" d="M157.7,195.5c3.1,0,6.1-0.8,8.8-2.3c0.5-0.3,0.7-0.9,0.4-1.3c-0.3-0.5-0.9-0.7-1.3-0.4c0,0,0,0-0.1,0
			c-5.2,2.9-11.5,2.7-16.4-0.5c-0.5-0.3-1.1-0.2-1.4,0.3s-0.2,1.1,0.3,1.4C150.8,194.5,154.2,195.5,157.7,195.5z"/>
		<path fill="#CFB199" d="M157.8,306c9.7,0,17.7-7.4,18.6-17l23.3-272.9l-4-0.3l-23.3,272.9c-0.7,8.1-7.8,14-15.9,13.3
			c-8.1-0.7-14-7.8-13.3-15.9c0-0.4,0.1-0.8,0.2-1.2l2.4-14l-3.9-0.7l-2.4,14c-1.7,10.2,5.1,19.8,15.2,21.6
			C155.6,305.9,156.7,306,157.8,306z"/>
		<path d="M157.8,308c10.7,0,19.6-8.2,20.6-18.8l2.3-25.5c0.2-2.2-1.4-4.2-3.6-4.4c-2.2-0.2-4.2,1.4-4.4,3.6l-2.3,25.5
			c-0.6,7-6.8,12.1-13.7,11.5s-12.1-6.8-11.5-13.7c0-0.3,0.1-0.7,0.1-1l2.4-14c0.4-2.2-1.1-4.3-3.3-4.6s-4.3,1.1-4.6,3.3l-2.4,14
			c-1.9,11.3,5.7,22,17,23.8C155.5,307.9,156.6,308,157.8,308z"/>
		<path fill="#666563" d="M361.9,149.6c0,0-63.4-4.4-85.6,19.4c0,0-54.4-28.8-103.3-5.2c0,0-52.2-33.6-108.9-7
			c0,0-40.6-35.4-64.2-31.4c0,0,71.5-74.4,95.3-86s104.2-28.8,104.2-28.8s79,33.6,89.5,41.5C315.5,72,361.9,149.6,361.9,149.6z"/>
		<path fill="#0A0A0A" d="M275.5,159.7h0.1c0.5-0.1,0.9-0.6,0.8-1.1c0,0,0,0,0,0c-0.5-3.3-12.3-81.2-19.4-92.1s-53.6-52-55.6-53.8
			c-0.4-0.4-1-0.3-1.4,0.1c-0.4,0.4-0.3,1,0.1,1.4c0.5,0.4,48.2,42.8,55.2,53.4s19,90.5,19.1,91.3
			C274.5,159.3,275,159.7,275.5,159.7z"/>
		<path fill="#ECE0D3" d="M202.9,12c0,0-3.8,4.4-7.6-0.9l2.9-1.4c0,0-0.1-9.6,1.7-9.7s0.9,9.6,0.9,9.6L202.9,12z"/>
		<path fill="#191919" d="M225,289c0.6,0,1-0.4,1.1-0.9c0-0.6-0.4-1-0.9-1.1l-29.3-4.9c-0.6-0.1-1.1,0.3-1.2,0.8
			c-0.1,0.6,0.3,1.1,0.8,1.2l29.3,4.9H225z"/>
		<path fill="#333231" d="M133.2,201.4l-4,343.9H79.1c0,0,10-153.7,11.5-186.8s11.1-139.5,17.6-145.6S133.2,201.4,133.2,201.4z"/>
		<path fill="#191919" d="M88.3,401.8c0.6,0,1-0.4,1-1c1.4-30.3,11.3-154.8,17.3-180.8c0.1-0.5-0.2-1.1-0.7-1.2c0,0,0,0,0,0
			c-0.5-0.1-1.1,0.2-1.2,0.8c0,0,0,0,0,0c-6,26.1-16,150.8-17.4,181.2C87.2,401.3,87.6,401.7,88.3,401.8
			C88.2,401.7,88.2,401.8,88.3,401.8z"/>
		<path fill="#E48868" d="M191,281.8l-7.8-2.5c0,0-0.1-12.2-2.1-14.6l-4.9,4.6c0,0-8.1-14.9-9-14.5l-5.3,2.4l4,5.6
			c0,0-3.4,0.6-3.8,1.7c-0.3,0.9-0.4,1.8-0.3,2.8c-1.5,1.1-2.9,2.5-4,4c-1.7,2.3-3.9,3.2-4.4,5.9s11.2,13.1,13,14.4
			s20.6,7.5,20.6,7.5L191,281.8z"/>
		<path fill="#191919" d="M221.8,323.5c2.4,0,4.9-0.3,7.2-0.9c0.5-0.1,0.9-0.7,0.7-1.2c-0.1-0.5-0.7-0.9-1.2-0.7
			c-12.1,3-21.8-2.7-30.5-7.7c-1.5-0.8-2.9-1.7-4.3-2.5c-0.5-0.3-1.1-0.1-1.4,0.4c0,0,0,0,0,0c-0.3,0.5-0.1,1.1,0.4,1.4c0,0,0,0,0,0
			c1.4,0.8,2.8,1.6,4.3,2.4C204.3,318.9,212.3,323.5,221.8,323.5z"/>
		<polygon fill="#A5A5A5" points="202.2,666.4 206.2,682.7 228.7,682.7 217.4,674.5 215.1,666.4 		"/>
		<polygon fill="#A5A5A5" points="155.4,666.4 155.4,682.7 133,682.7 144.2,674.5 142.6,666.4 		"/>
	</g>
</g>
</svg>
