<svg xmlns="http://www.w3.org/2000/svg" viewBox="0 0 189.27 521.52"><defs><style>.cls-1{fill:#a67c52;}.cls-2{fill:#383535;}.cls-3{fill:#353231;}.cls-4{fill:#282524;}.cls-5{fill:#a09767;}</style></defs><title>person1</title><g id="Layer_2" data-name="Layer 2"><g id="Layer_1-2" data-name="Layer 1"><ellipse class="cls-1" cx="102.67" cy="102.55" rx="86.45" ry="72.04" transform="matrix(0.14, -0.99, 0.99, 0.14, -12.95, 190.25)"/><rect class="cls-2" x="55.44" y="427.86" width="38.44" height="88.51" rx="12" ry="12"/><rect class="cls-3" x="85.01" y="433.01" width="38.44" height="88.51" rx="12" ry="12"/><path class="cls-4" d="M130.72,203.71c-12.78-16.56-35.18-31.28-54-27-30.2,6.81-43.37,60.45-46.32,90.71C24.92,323.22,34,340.66,20,381.27c-12.44,35.9-24.06,45.45-18.54,57.9,6.84,15.47,48.3-2.38,129.31,5.79,32.2,3.25,50.77,8.61,56,0,6.8-11.23-20-28.32-36.67-61.76C114.51,311.8,169.17,253.5,130.72,203.71Z"/><path class="cls-5" d="M172.34,54.45C177.66,39,133-4.69,91.28.41,29.1,8-14.69,166.85,14.81,203.07,29,220.45,66.57,230.13,81.63,216.58c21.29-19.16-10.69-112,11.58-139C115.86,50.14,167.11,69.69,172.34,54.45Z"/><path class="cls-3" d="M84.21,253.25c26.45,2.46,39.76,3.89,79.57-9.93,46.12-16,16.72-91.5,10.93-116.84-3.05-13.34-34.77-2.84-27.59,12.78,16.4,35.67,18.78,59.43.51,76-17.74,16.06-37-2.64-65.35,9.05C62.72,232.35,83.3,253.16,84.21,253.25Z"/></g></g></svg>