<svg xmlns="http://www.w3.org/2000/svg" viewBox="0 0 155.94 362.65"><defs><style>.cls-1{fill:#2b2827;}.cls-2{fill:#754c24;}.cls-3{stroke:#000;stroke-miterlimit:10;}</style></defs><title>person4</title><g id="Layer_2" data-name="Layer 2"><g id="Layer_4" data-name="Layer 4"><path class="cls-1" d="M94.12,362.31l-62.76-8.69a36.45,36.45,0,0,1-31-41L31.91,177.45c2.74-19.8,9.92-37.73,29.72-35L132,145.24c19.8,2.74,26.11,20.12,23.37,39.92L135.1,331.29A36.45,36.45,0,0,1,94.12,362.31Z"/><ellipse class="cls-2" cx="89.35" cy="79.45" rx="57.59" ry="79.45"/><path class="cls-3" d="M130.1,72.37c-1.33-.7-1.87-4.85-3.65-7.3a8.89,8.89,0,0,1-1.3-2.66,4.59,4.59,0,0,0-.28-.73l-9-17.4a3.87,3.87,0,0,1-.26-.67c-.88-2.77-4-5-6.81-5.79a8.42,8.42,0,0,0-2.35-.3L78.52,38.64c-4.6,0-12.82,6-14.7,10.4a13.8,13.8,0,0,0-.51,1.45L60.62,58c-1,3.52-3.63,8.32-7.1,9.51-2,.68,2.69-.62,0,0L51.1,70.27a4.32,4.32,0,0,1-.91.8,18.69,18.69,0,0,1-7.37,2.66C37,74.53,32,76.21,32.76,70.4l4-36A11.76,11.76,0,0,1,38.23,30h0A57,57,0,0,1,86.48,1.45l14.33-.3a25.74,25.74,0,0,1,7.1,1,19.47,19.47,0,0,1,4.42,1.92l.33.17,9.22,4.07a3.7,3.7,0,0,1,.79.46c1.45,1.07,5.45,4.38,6.15,4.7a28.26,28.26,0,0,1,16.36,23.79L146,71c.5,7.52-6.45,4.87-13.88,3.56"/></g></g></svg>