<?xml version="1.0" encoding="utf-8"?>
<!-- Generator: Adobe Illustrator 22.0.1, SVG Export Plug-In . SVG Version: 6.00 Build 0)  -->
<svg version="1.1" baseProfile="tiny" id="Layer_1" xmlns="http://www.w3.org/2000/svg" xmlns:xlink="http://www.w3.org/1999/xlink"
	 x="0px" y="0px" viewBox="0 0 155.9 362.6" xml:space="preserve">
<title>person4</title>
<g id="Layer_2_1_">
	<g id="Layer_4">
		<path fill="#2B2827" d="M94.1,362.3l-62.8-8.7c-19.9-2.8-33.7-21.1-31-41l31.5-135.2c2.7-19.8,9.9-37.7,29.7-35l70.4,2.8
			c19.8,2.7,26.1,20.1,23.4,39.9l-20.3,146.1C132.3,351.1,114,365,94.1,362.3z"/>
		<ellipse fill="#754C24" cx="89.3" cy="79.4" rx="57.6" ry="79.4"/>
		<path stroke="#000000" stroke-miterlimit="10" d="M130.1,72.4c-1.3-0.7-1.9-4.8-3.7-7.3c-0.6-0.8-1-1.7-1.3-2.7
			c-0.1-0.3-0.2-0.5-0.3-0.7l-9-17.4c-0.1-0.2-0.2-0.4-0.3-0.7c-0.9-2.8-4-5-6.8-5.8c-0.8-0.2-1.6-0.3-2.3-0.3l-27.9,1.1
			c-4.6,0-12.8,6-14.7,10.4c-0.2,0.5-0.4,1-0.5,1.5L60.6,58c-1,3.5-3.6,8.3-7.1,9.5c-2,0.7,2.7-0.6,0,0l-2.4,2.8
			c-0.3,0.3-0.6,0.6-0.9,0.8c-2.2,1.4-4.8,2.3-7.4,2.7C37,74.5,32,76.2,32.8,70.4l4-36c0.2-1.5,0.7-3,1.5-4.4l0,0
			c10-17.3,28.3-28.1,48.3-28.5l14.3-0.3c2.4,0,4.8,0.3,7.1,1c1.5,0.5,3,1.1,4.4,1.9l0.3,0.2l9.2,4.1c0.3,0.1,0.5,0.3,0.8,0.5
			c1.4,1.1,5.5,4.4,6.2,4.7c9.4,4.3,15.7,13.5,16.4,23.8L146,71c0.5,7.5-6.4,4.9-13.9,3.6"/>
	</g>
</g>
</svg>
