<?xml version="1.0" encoding="utf-8"?>
<!-- Generator: Adobe Illustrator 22.0.1, SVG Export Plug-In . SVG Version: 6.00 Build 0)  -->
<svg version="1.1" baseProfile="tiny" id="Layer_1" xmlns="http://www.w3.org/2000/svg" xmlns:xlink="http://www.w3.org/1999/xlink"
	 x="0px" y="0px" viewBox="0 0 148.8 538.7" xml:space="preserve">
<title>person2</title>
<g id="Layer_2_1_">
	<g id="Layer_2-2">
		
			<ellipse transform="matrix(0.1896 -0.9819 0.9819 0.1896 -45.8198 167.2433)" fill="#C69C83" cx="78.4" cy="111.4" rx="85.6" ry="64.3"/>
		<path fill="#937F52" d="M58.1,119.3c0.3,2.8,7.7,22-1.9,23.2c-12.2,1.5-30.8,9.2-40-1.7c-5.3-6.3-2.2-26.3-1.8-27.5"/>
		<path fill="#4F4D4C" d="M10.4,97.5c-0.2,3.7,3.8,19.3,7.4,20c65.4,12.8,96.4-11.9,123.1-22.2c13.2-5.1-6.5-100.7-66-95.1
			C35.3,4,13.1,55,10.4,97.5z"/>
		<path fill="#262423" d="M88.1,366.1h13.9c6.6,0,12,5.4,12,12v134.3c0,6.6-5.4,12-12,12H88.1c-6.6,0-12-5.4-12-12V378.1
			C76.1,371.5,81.4,366.1,88.1,366.1z"/>
		<path fill="#211F1E" d="M54.1,360.8H68c6.6,0,12,5.4,12,12v153.9c0,6.6-5.4,12-12,12H54.1c-6.6,0-12-5.4-12-12V372.8
			C42.1,366.2,47.5,360.8,54.1,360.8z"/>
		<path fill="#353231" d="M25.3,199c5.3-27.4,91.7-29.8,98.4-0.8c20.6,89.2,21.9,100.5,12.9,158.2c-5.8,37.1-62.1,31.4-99.4,28.3
			C-32.9,378.9,16,247.4,25.3,199z"/>
		<polygon fill="#C6C1C1" points="87.2,195.2 105.4,193.4 98.1,212.2 		"/>
		<polyline fill="#C6C1C1" points="97.7,212.2 89.5,277 101.1,293.5 107.6,274.6 		"/>
		<path fill="#2B2928" d="M45.6,239.8l10.2-5.9c3.8-2.2,8.7-0.9,10.8,2.9l46.2,80.1c2.2,3.8,0.9,8.7-2.9,10.8l-10.2,5.9
			c-3.8,2.2-8.7,0.9-10.8-2.9l-46.2-80.1C40.5,246.8,41.8,242,45.6,239.8z"/>
		<path fill="#2B2928" d="M124.2,328.9l-5-0.5c-1.9-0.1-3.6-0.8-5.1-1.9c-3.4-2.7-4.6-7.3-3.2-11.4c0.1-0.3,0.2-0.6,0.4-0.9
			l13.6-27.6c6.4-8.3-9.3-43.9-10-55.1c-0.2-2.9,1.6-5.7,4.4-6.7l1.8-0.8c2.3-0.9,4.9-0.9,7.2,0.1c7.9,3.3,13.9,22.2,16.2,29
			c0.3,0.8,1.4,1.8,1.5,2.6l2.8,22.5c0.2,1,0.1,2-0.1,2.9c-2,7.5-8.1,34.5-17.2,45.3C129.5,328.3,126.9,329.3,124.2,328.9z"/>
	</g>
</g>
</svg>
