<svg xmlns="http://www.w3.org/2000/svg" viewBox="0 0 162.19 474.4"><defs><style>.cls-1{fill:#3f3c3b;}.cls-2{fill:#353231;}.cls-3{fill:#a67c52;}.cls-4{fill:#2b2827;}.cls-5{fill:#634b42;}</style></defs><title>person3</title><g id="Layer_2" data-name="Layer 2"><g id="Layer_3" data-name="Layer 3"><rect class="cls-1" x="50.21" y="365.59" width="37.5" height="108.81" rx="12" ry="12"/><rect class="cls-1" x="92.48" y="365.59" width="37.5" height="108.81" rx="12" ry="12"/><path class="cls-2" d="M26,382.12c36.7-.27,63.83-6.76,102.33-6.76,60.06,0-23.77-153.83,15.57-209.16,33.5-47.11-136.57-36.11-116.79,5.07C49.35,217.59-34.32,382.58,26,382.12Z"/><ellipse class="cls-3" cx="83.76" cy="88.71" rx="47.83" ry="64.54"/><path class="cls-4" d="M10.71,178.28c-17.49,17.28-8.69,45.86-7,72.95,1.08,17.38-2,62.41,14,66.35,1,.25,12.64,5.1,13.62-5.52,5.8-63.29-9.06-92.29,6.38-134.58C40.05,171,28.89,160.31,10.71,178.28Z"/><path class="cls-4" d="M155.67,171c14.5,19.86,1.12,44.88-4.88,71.36-3.85,17-7.87,63.7-24.29,65-1,.09-13.29,3-12.55-7.62,4.39-63.41,23.71-89.66,15.23-133.87C127.88,159.11,140.6,150.35,155.67,171Z"/><path class="cls-5" d="M66.35,41.88C67.12,50.78,133.4,75,144,61.72c8.48-10.63-11.5-51.27-43.3-59.95-25.41-6.94-49.33,8.5-52.91,12-47,45.57-45,188.87-28.3,190,15,1,18.33-43.08,44.13-158"/><path class="cls-5" d="M140.61,64.1c12.13,59.59,22.6,125.54,9.08,128.81-18.12,4.38-32.47-64.67-38.46-133.32"/></g></g></svg>