<?xml version="1.0" encoding="utf-8"?>
<!-- Generator: Adobe Illustrator 22.0.1, SVG Export Plug-In . SVG Version: 6.00 Build 0)  -->
<svg version="1.1" baseProfile="tiny" id="Layer_1" xmlns="http://www.w3.org/2000/svg" xmlns:xlink="http://www.w3.org/1999/xlink"
	 x="0px" y="0px" viewBox="0 0 162.2 474.4" xml:space="preserve">
<title>person3</title>
<g id="Layer_2_1_">
	<g id="Layer_3">
		<path fill="#3F3C3B" d="M62.2,365.6h13.5c6.6,0,12,5.4,12,12v84.8c0,6.6-5.4,12-12,12H62.2c-6.6,0-12-5.4-12-12v-84.8
			C50.2,371,55.6,365.6,62.2,365.6z"/>
		<path fill="#3F3C3B" d="M104.5,365.6H118c6.6,0,12,5.4,12,12v84.8c0,6.6-5.4,12-12,12h-13.5c-6.6,0-12-5.4-12-12v-84.8
			C92.5,371,97.9,365.6,104.5,365.6z"/>
		<path fill="#353231" d="M26,382.1c36.7-0.3,63.8-6.8,102.3-6.8c60.1,0-23.8-153.8,15.6-209.2c33.5-47.1-136.6-36.1-116.8,5.1
			C49.3,217.6-34.3,382.6,26,382.1z"/>
		<ellipse fill="#A67C52" cx="83.8" cy="88.7" rx="47.8" ry="64.5"/>
		<path fill="#2B2827" d="M10.7,178.3c-17.5,17.3-8.7,45.9-7,72.9c1.1,17.4-2,62.4,14,66.3c1,0.3,12.6,5.1,13.6-5.5
			c5.8-63.3-9.1-92.3,6.4-134.6C40,171,28.9,160.3,10.7,178.3z"/>
		<path fill="#2B2827" d="M155.7,171c14.5,19.9,1.1,44.9-4.9,71.4c-3.9,17-7.9,63.7-24.3,65c-1,0.1-13.3,3-12.6-7.6
			c4.4-63.4,23.7-89.7,15.2-133.9C127.9,159.1,140.6,150.4,155.7,171z"/>
		<path fill="#634B42" d="M66.3,41.9c0.8,8.9,67,33.1,77.7,19.8c8.5-10.6-11.5-51.3-43.3-60c-25.4-6.9-49.3,8.5-52.9,12
			c-47,45.6-45,188.9-28.3,190c15,1,18.3-43.1,44.1-158"/>
		<path fill="#634B42" d="M140.6,64.1c12.1,59.6,22.6,125.5,9.1,128.8c-18.1,4.4-32.5-64.7-38.5-133.3"/>
	</g>
</g>
</svg>
