<?xml version="1.0" encoding="utf-8"?>
<!-- Generator: Adobe Illustrator 22.0.1, SVG Export Plug-In . SVG Version: 6.00 Build 0)  -->
<svg version="1.1" baseProfile="tiny" id="Layer_1" xmlns="http://www.w3.org/2000/svg" xmlns:xlink="http://www.w3.org/1999/xlink"
	 x="0px" y="0px" viewBox="0 0 166.9 475.4" xml:space="preserve">
<title>person5</title>
<g id="Layer_2_1_">
	<g id="Layer_5">
		
			<ellipse transform="matrix(0.9961 -8.872046e-02 8.872046e-02 0.9961 -8.2007 5.8325)" fill="#C69C83" cx="61.5" cy="95.2" rx="61.3" ry="86.2"/>
		<path fill="#333333" d="M0.2,20.2c56-24.4,100.7-22,108.9-16.8c39.5,25,36.4,58,39.5,88.8c3,29.9-6.9,68.4-10.4,84.3"/>
		<path fill="#00151F" d="M68,321.6h19.3c6.6,0,12,5.4,12,12v116.2c0,6.6-5.4,12-12,12H68c-6.6,0-12-5.4-12-12V333.6
			C56,327,61.4,321.6,68,321.6z"/>
		<path fill="#001D28" d="M93.5,332.2h19.3c6.6,0,12,5.4,12,12v119.2c0,6.6-5.4,12-12,12H93.5c-6.6,0-12-5.4-12-12V344.2
			C81.5,337.6,86.9,332.2,93.5,332.2z"/>
		<path fill="#333333" d="M83.4,95.2v33c0,27.5-32.2,42.4-51.2,62.3l2.5,31.7c-4.5,4.7-2.5,6.3-2.5,12.8v81.2
			c0,13.4,10.4,24.5,23.7,25.4l83.8,5.5c14,0.9,26.1-9.7,27-23.7c0.1-2,0-4-0.3-6l-23.6-137.2"/>
		<path fill="#262626" d="M101.1,211.3c6.8-4.1,16.5-2.6,21.7,2.2c11.8,11-24.6,61.7-48.1,66c-18.4,3.4-46-19.9-42.8-28.8
			c1.8-5.1,37.6,4.2,47.6-4.3S92,216.8,101.1,211.3z"/>
		<path fill="#262626" d="M23.9,235.7l1.8-4.9c1.3-3.5,5.1-5.3,8.6-4L76.2,242c3.5,1.3,5.3,5.1,4,8.6l-1.8,4.9
			c-1.3,3.5-5.1,5.3-8.6,4l-41.9-15.2C24.4,243.1,22.6,239.2,23.9,235.7z"/>
	</g>
</g>
</svg>
