<?xml version="1.0" encoding="utf-8"?>
<!-- Generator: Adobe Illustrator 22.0.1, SVG Export Plug-In . SVG Version: 6.00 Build 0)  -->
<svg version="1.1" baseProfile="tiny" id="Layer_1" xmlns="http://www.w3.org/2000/svg" xmlns:xlink="http://www.w3.org/1999/xlink"
	 x="0px" y="0px" viewBox="0 0 494 802.5" xml:space="preserve">
<title>Phone</title>
<g id="Layer_2_1_">
	<g id="Layer_1-2">
		<path fill="#21201F" stroke="#000000" stroke-miterlimit="10" d="M37,0.5h424.6c17.6,0,31.9,14.3,31.9,31.9v737.7
			c0,17.6-14.3,31.9-31.9,31.9H37c-17.6,0-31.9-14.3-31.9-31.9V32.4C5.1,14.8,19.4,0.5,37,0.5z"/>
		<path fill="#FFFFFF" stroke="#000000" stroke-miterlimit="10" d="M59.8,75.2H441c17.6,0,31.9,14.3,31.9,31.9v574.6
			c0,17.6-14.3,31.9-31.9,31.9H59.8c-17.6,0-31.9-14.3-31.9-31.9V107.1C27.9,89.5,42.2,75.2,59.8,75.2z"/>
		<circle fill="#2D2D2D" stroke="#000000" stroke-miterlimit="10" cx="249.3" cy="757.4" r="29"/>
		<path fill="#2D2D2D" stroke="#000000" stroke-miterlimit="10" d="M191.3,31h115.9c3.2,0,5.8,2.6,5.8,5.8v0c0,3.2-2.6,5.8-5.8,5.8
			H191.3c-3.2,0-5.8-2.6-5.8-5.8v0C185.5,33.6,188.1,31,191.3,31z"/>
		<path fill="#2D2D2D" stroke="#000000" stroke-miterlimit="10" d="M12.1,165v38.8c0,3.2-2.6,5.8-5.8,5.8l0,0
			c-3.2,0-5.8-2.6-5.8-5.8V165c0-3.2,2.6-5.8,5.8-5.8l0,0C9.5,159.2,12.1,161.8,12.1,165z"/>
		<path fill="#2D2D2D" stroke="#000000" stroke-miterlimit="10" d="M12.1,219.8v38.8c0,3.2-2.6,5.8-5.8,5.8l0,0
			c-3.2,0-5.8-2.6-5.8-5.8v-38.8c0-3.2,2.6-5.8,5.8-5.8l0,0C9.5,214,12.1,216.6,12.1,219.8z"/>
	</g>
</g>
</svg>
