<svg xmlns="http://www.w3.org/2000/svg" viewBox="0 0 199.76 165.58"><defs><style>.cls-1{fill:#d3d3d1;stroke:#000;stroke-miterlimit:10;}</style></defs><title>piece6</title><g id="Layer_2" data-name="Layer 2"><g id="piece6"><path id="piece_6" data-name="piece 6" class="cls-1" d="M1.27,151.75l38-44L52.21,87A36,36,0,0,1,68.8,72.81l22.7-9.56A17.86,17.86,0,0,0,95,45.09L84.68,16.81l39-15.39A13.11,13.11,0,0,1,136,2.85l20.62,14.33A22.69,22.69,0,0,1,162,22.37l33.2,45a21,21,0,0,1,4,14.11l-4,51.39a12.38,12.38,0,0,1-5.93,10.58l-29.52,18a24.38,24.38,0,0,1-20.19,2.4L74.9,143a24.79,24.79,0,0,0-11.41-.91Z"/></g></g></svg>