<svg xmlns="http://www.w3.org/2000/svg" viewBox="0 0 229.13 216.61"><defs><style>.cls-1{fill:#d3d3d1;stroke:#000;stroke-miterlimit:10;}</style></defs><title>piece8</title><g id="Layer_2" data-name="Layer 2"><g id="piece8"><g id="piece_8" data-name="piece 8"><path class="cls-1" d="M199.53,103.84v.08l-.5-.37h.5a21.06,21.06,0,0,0-4.05-14.12l-33.19-45a23.08,23.08,0,0,0-5.34-5.19L136.32,24.9A13.16,13.16,0,0,0,124,23.47L85,38.86,139.16.59l89.47,47.2V203.65a12.45,12.45,0,0,1-12.45,12.46H110.56L50.06,199,1.6,174.09l62.22-9.62a24.79,24.79,0,0,1,11.41.91l64.67,20.87a24.38,24.38,0,0,0,20.19-2.4l29.52-18a12.38,12.38,0,0,0,5.93-10.58l4-51.31"/></g></g></g></svg>