<svg xmlns="http://www.w3.org/2000/svg" viewBox="0 0 161.32 141.34"><defs><style>.cls-1{fill:#d3d3d1;stroke:#000;stroke-miterlimit:10;}</style></defs><title>piece5</title><g id="Layer_2" data-name="Layer 2"><g id="piece5"><g id="piece_5" data-name="piece 5"><path id="piece_5-2" data-name="piece 5" class="cls-1" d="M.59.78l22,8.89a25.29,25.29,0,0,0,21.73-.12L62.48.78l37,14c30.84,11.67,41,2.62,49.88-9l10.36,28.28a17.86,17.86,0,0,1-3.54,18.16l-22.7,9.55A36,36,0,0,0,116.9,75.92L104,96.71l-38,44L31.38,122A41,41,0,0,1,10.16,90.3Z"/><path d="M47,26.56a17.74,17.74,0,0,1,.21-2.63,16,16,0,0,1,.67-2.73A14.87,14.87,0,0,1,49,18.66a9.93,9.93,0,0,1,1.63-2.13,7.26,7.26,0,0,1,2.14-1.46,6.61,6.61,0,0,1,2.68-.53,9.46,9.46,0,0,1,3.65.67,7.19,7.19,0,0,1,2.66,1.88A7.94,7.94,0,0,1,63.42,20,11.94,11.94,0,0,1,64,23.66a18.56,18.56,0,0,1-.27,3,17.72,17.72,0,0,1-.86,3.23,17.38,17.38,0,0,1-1.47,3,12.31,12.31,0,0,1-2,2.57,8.9,8.9,0,0,1-2.62,1.79,7.59,7.59,0,0,1-3.16.67A5.72,5.72,0,0,1,51,37.43,5.54,5.54,0,0,1,49.16,36,7.27,7.27,0,0,1,48,33.87a15.49,15.49,0,0,1-.65-2.45,19.6,19.6,0,0,1-.29-2.53C47,28.05,47,27.27,47,26.56Zm2.57,1.37a24.61,24.61,0,0,0,.13,2.52,7.88,7.88,0,0,0,.6,2.43,4.63,4.63,0,0,0,1.39,1.81,3.92,3.92,0,0,0,2.49.71,4.39,4.39,0,0,0,2.33-.62,6.6,6.6,0,0,0,1.81-1.62,10.91,10.91,0,0,0,1.38-2.25,16.48,16.48,0,0,0,.95-2.56,19.66,19.66,0,0,0,.55-2.51,14.91,14.91,0,0,0,.18-2.15,15.14,15.14,0,0,0-.21-2.58A5.65,5.65,0,0,0,60.42,19a3.73,3.73,0,0,0-1.51-1.38,5.67,5.67,0,0,0-2.57-.5,5.18,5.18,0,0,0-2.35.51A5.93,5.93,0,0,0,52.22,19,7.51,7.51,0,0,0,51,21a13.69,13.69,0,0,0-.8,2.31,18.82,18.82,0,0,0-.44,2.41A20.05,20.05,0,0,0,49.58,27.93Z"/><path d="M65.18,18.51V17.35a8.14,8.14,0,0,1,.15-1.55,4.49,4.49,0,0,1,.48-1.35,1.11,1.11,0,0,1,1-.57c.26,0,.48.23.65.68a9.71,9.71,0,0,1,.43,1.7,22.33,22.33,0,0,1,.24,2.24q.07,1.21.12,2.31c0,.73,0,1.36.07,1.89a4.15,4.15,0,0,0,.1,1c.06.32.17.8.34,1.45s.36,1.38.56,2.2.43,1.67.67,2.55.47,1.74.68,2.55.41,1.53.59,2.18.32,1.11.42,1.39a.82.82,0,0,0,0,.18,1,1,0,0,1,0,.18.67.67,0,0,1-.23.53,1.53,1.53,0,0,1-.55.3,2.44,2.44,0,0,1-.65.14l-.6,0-.35,0-.29,0c-.42-1.41-.87-2.9-1.35-4.46s-.9-3.16-1.28-4.77-.7-3.24-.94-4.86A32.34,32.34,0,0,1,65.18,18.51Z"/><path d="M72.32,18.51V17.35a8.14,8.14,0,0,1,.15-1.55A4.24,4.24,0,0,1,73,14.45a1.1,1.1,0,0,1,1-.57c.26,0,.47.23.65.68a9,9,0,0,1,.42,1.7,22.33,22.33,0,0,1,.24,2.24q.08,1.21.12,2.31c0,.73.06,1.36.08,1.89a5.14,5.14,0,0,0,.09,1c.06.32.18.8.35,1.45s.36,1.38.56,2.2.42,1.67.66,2.55.47,1.74.69,2.55.4,1.53.59,2.18.32,1.11.42,1.39a.82.82,0,0,0,0,.18.82.82,0,0,1,0,.18.67.67,0,0,1-.23.53,1.57,1.57,0,0,1-.54.3,2.44,2.44,0,0,1-.65.14l-.61,0-.35,0-.28,0c-.43-1.41-.88-2.9-1.35-4.46s-.9-3.16-1.29-4.77-.69-3.24-.94-4.86A32.34,32.34,0,0,1,72.32,18.51Z"/><path d="M79.46,18.51V17.35a7.42,7.42,0,0,1,.16-1.55,4.49,4.49,0,0,1,.48-1.35,1.11,1.11,0,0,1,1-.57c.26,0,.48.23.65.68a9,9,0,0,1,.42,1.7,19.62,19.62,0,0,1,.25,2.24q.08,1.21.12,2.31c0,.73.05,1.36.07,1.89a5.14,5.14,0,0,0,.09,1c.06.32.18.8.35,1.45s.36,1.38.56,2.2.43,1.67.67,2.55.47,1.74.68,2.55.41,1.53.59,2.18S85.9,35.73,86,36a.82.82,0,0,0,0,.18.82.82,0,0,1,0,.18.67.67,0,0,1-.22.53,1.62,1.62,0,0,1-.55.3,2.44,2.44,0,0,1-.65.14l-.6,0-.35,0-.29,0c-.42-1.41-.87-2.9-1.35-4.46s-.9-3.16-1.28-4.77-.7-3.24-.94-4.86A32.4,32.4,0,0,1,79.46,18.51Z"/><path d="M86.61,18.51V17.35a8.14,8.14,0,0,1,.15-1.55,4.49,4.49,0,0,1,.48-1.35,1.12,1.12,0,0,1,1-.57c.27,0,.48.23.66.68a9,9,0,0,1,.42,1.7,22.33,22.33,0,0,1,.24,2.24q.07,1.21.12,2.31c0,.73.06,1.36.08,1.89a5.14,5.14,0,0,0,.09,1c.06.32.17.8.35,1.45s.35,1.38.56,2.2.42,1.67.66,2.55.47,1.74.68,2.55.41,1.53.59,2.18.33,1.11.43,1.39a.82.82,0,0,0,0,.18.82.82,0,0,1,0,.18.67.67,0,0,1-.23.53,1.57,1.57,0,0,1-.54.3,2.52,2.52,0,0,1-.65.14l-.61,0-.35,0-.29,0c-.42-1.41-.87-2.9-1.34-4.46s-.91-3.16-1.29-4.77-.7-3.24-.94-4.86A32.34,32.34,0,0,1,86.61,18.51Z"/><path d="M47,63.76a17.74,17.74,0,0,1,.21-2.63,16,16,0,0,1,.67-2.73A14.87,14.87,0,0,1,49,55.86a9.69,9.69,0,0,1,1.63-2.13,7.26,7.26,0,0,1,2.14-1.46,6.61,6.61,0,0,1,2.68-.53,9.46,9.46,0,0,1,3.65.67,7.3,7.3,0,0,1,2.66,1.88,7.94,7.94,0,0,1,1.62,2.89A12,12,0,0,1,64,60.86a18.56,18.56,0,0,1-.27,3,17.72,17.72,0,0,1-.86,3.23,17.38,17.38,0,0,1-1.47,3,12.31,12.31,0,0,1-2,2.57,8.9,8.9,0,0,1-2.62,1.79,7.59,7.59,0,0,1-3.16.67A5.72,5.72,0,0,1,51,74.63a5.54,5.54,0,0,1-1.8-1.45A7.27,7.27,0,0,1,48,71.07a15.49,15.49,0,0,1-.65-2.45,19.6,19.6,0,0,1-.29-2.53C47,65.25,47,64.47,47,63.76Zm2.57,1.37a24.61,24.61,0,0,0,.13,2.52,7.75,7.75,0,0,0,.6,2.42,4.6,4.6,0,0,0,1.39,1.82,3.92,3.92,0,0,0,2.49.71A4.39,4.39,0,0,0,56.52,72a6.6,6.6,0,0,0,1.81-1.62,11.19,11.19,0,0,0,1.38-2.25,16.48,16.48,0,0,0,.95-2.56A19.66,19.66,0,0,0,61.21,63a14.91,14.91,0,0,0,.18-2.15,15.14,15.14,0,0,0-.21-2.58,5.65,5.65,0,0,0-.76-2.08,3.73,3.73,0,0,0-1.51-1.38,5.54,5.54,0,0,0-2.57-.5,5.18,5.18,0,0,0-2.35.51,5.93,5.93,0,0,0-1.77,1.37,7.51,7.51,0,0,0-1.26,2,13.69,13.69,0,0,0-.8,2.31,18.82,18.82,0,0,0-.44,2.41A20.05,20.05,0,0,0,49.58,65.13Z"/><path d="M65.18,55.71V54.54A8.11,8.11,0,0,1,65.33,53a4.49,4.49,0,0,1,.48-1.35,1.11,1.11,0,0,1,1-.57c.26,0,.48.23.65.68a9.82,9.82,0,0,1,.43,1.69c.11.68.19,1.43.24,2.24s.09,1.59.12,2.32,0,1.36.07,1.89a4.15,4.15,0,0,0,.1,1c.06.32.17.8.34,1.45s.36,1.38.56,2.19.43,1.68.67,2.56.47,1.74.68,2.55.41,1.53.59,2.18.32,1.11.42,1.39a.82.82,0,0,0,0,.18,1,1,0,0,1,0,.18.67.67,0,0,1-.23.53,1.53,1.53,0,0,1-.55.3,2.44,2.44,0,0,1-.65.14l-.6,0-.35,0-.29,0q-.63-2.12-1.35-4.47t-1.28-4.76c-.39-1.62-.7-3.24-.94-4.86A32.34,32.34,0,0,1,65.18,55.71Z"/><path d="M72.32,55.71V54.54A8.11,8.11,0,0,1,72.47,53,4.24,4.24,0,0,1,73,51.65a1.1,1.1,0,0,1,1-.57c.26,0,.47.23.65.68a9,9,0,0,1,.42,1.69c.11.68.19,1.43.24,2.24s.09,1.59.12,2.32.06,1.36.08,1.89a5.14,5.14,0,0,0,.09,1c.06.32.18.8.35,1.45s.36,1.38.56,2.19.42,1.68.66,2.56.47,1.74.69,2.55.4,1.53.59,2.18.32,1.11.42,1.39a.82.82,0,0,0,0,.18.82.82,0,0,1,0,.18.67.67,0,0,1-.23.53,1.57,1.57,0,0,1-.54.3,2.44,2.44,0,0,1-.65.14l-.61,0-.35,0-.28,0q-.65-2.12-1.35-4.47c-.48-1.56-.9-3.15-1.29-4.76s-.69-3.24-.94-4.86A32.34,32.34,0,0,1,72.32,55.71Z"/><path d="M79.46,63.76a16.55,16.55,0,0,1,.22-2.63,16,16,0,0,1,.66-2.73,15.69,15.69,0,0,1,1.15-2.54,9.73,9.73,0,0,1,1.64-2.13,7.09,7.09,0,0,1,2.13-1.46,6.61,6.61,0,0,1,2.68-.53,9.46,9.46,0,0,1,3.65.67,7.22,7.22,0,0,1,2.66,1.88,7.94,7.94,0,0,1,1.62,2.89,11.69,11.69,0,0,1,.55,3.68,18.56,18.56,0,0,1-.27,3,17.75,17.75,0,0,1-.87,3.23,17.38,17.38,0,0,1-1.47,3,12.61,12.61,0,0,1-2,2.57,9,9,0,0,1-2.62,1.79,7.67,7.67,0,0,1-3.17.67,5.65,5.65,0,0,1-2.58-.55,5.48,5.48,0,0,1-1.81-1.45,7.51,7.51,0,0,1-1.15-2.11,15.49,15.49,0,0,1-.65-2.45,19.58,19.58,0,0,1-.28-2.53C79.48,65.25,79.46,64.47,79.46,63.76ZM82,65.13c0,.8,0,1.65.12,2.52a7.75,7.75,0,0,0,.6,2.42,4.62,4.62,0,0,0,1.4,1.82,3.87,3.87,0,0,0,2.48.71A4.37,4.37,0,0,0,89,72a6.64,6.64,0,0,0,1.82-1.62,11.63,11.63,0,0,0,1.37-2.25,15.57,15.57,0,0,0,1-2.56A21.42,21.42,0,0,0,93.66,63a14.91,14.91,0,0,0,.18-2.15,15.14,15.14,0,0,0-.21-2.58,5.83,5.83,0,0,0-.75-2.08,3.76,3.76,0,0,0-1.52-1.38,5.52,5.52,0,0,0-2.57-.5,5.18,5.18,0,0,0-2.35.51,6.19,6.19,0,0,0-1.77,1.37,7.49,7.49,0,0,0-1.25,2,12.89,12.89,0,0,0-.81,2.31,18.82,18.82,0,0,0-.44,2.41A19.92,19.92,0,0,0,82,65.13Z"/><path d="M97.63,55.71V54.54A8.11,8.11,0,0,1,97.78,53a4.49,4.49,0,0,1,.48-1.35,1.12,1.12,0,0,1,1-.57c.27,0,.48.23.65.68a8.27,8.27,0,0,1,.43,1.69c.11.68.19,1.43.24,2.24s.09,1.59.12,2.32.06,1.36.08,1.89a5.14,5.14,0,0,0,.09,1c.06.32.17.8.35,1.45s.35,1.38.56,2.19.42,1.68.66,2.56.47,1.74.68,2.55.41,1.53.59,2.18.33,1.11.43,1.39a.82.82,0,0,0,0,.18.82.82,0,0,1,0,.18.67.67,0,0,1-.23.53,1.57,1.57,0,0,1-.54.3,2.52,2.52,0,0,1-.65.14l-.61,0-.35,0-.29,0L100.22,70q-.72-2.34-1.29-4.76c-.38-1.62-.7-3.24-.94-4.86A32.34,32.34,0,0,1,97.63,55.71Z"/></g></g></g></svg>