<svg xmlns="http://www.w3.org/2000/svg" viewBox="0 0 153.08 180.65"><defs><style>.cls-1{fill:#d3d3d1;stroke:#000;stroke-miterlimit:10;}</style></defs><title>piece1</title><g id="Layer_2" data-name="Layer 2"><g id="piece1"><g id="piece_1" data-name="piece 1"><path class="cls-1" d="M.5,155.34l74.2,23.73a23.8,23.8,0,0,0,28.07-11.52l30.36-24.39c5.3-9.95,34.57-14.36,9.32-38.74L120.78,87.14l4.74-32.4a31.33,31.33,0,0,0-2.08-16.63L107.78.5,10.55.52h0a10,10,0,0,0-10,10V155.34"/><path d="M81.67,37.66A.87.87,0,0,1,82.2,37a3.2,3.2,0,0,1,.8-.09,2.36,2.36,0,0,1,1.56.93,14.72,14.72,0,0,1,1.77,2.46c.6,1,1.21,2.21,1.83,3.55S89.37,46.58,90,48s1.11,2.84,1.62,4.25.94,2.71,1.31,3.89.66,2.21.87,3.08a9.57,9.57,0,0,1,.3,1.78,2,2,0,0,1-.23.92.81.81,0,0,1-.8.44.91.91,0,0,1-.62-.22,2.06,2.06,0,0,1-.44-.56c-.12-.22-.23-.45-.33-.67s-.2-.41-.28-.57-.24-.65-.5-1.28l-.78-2c-.28-.69-.53-1.34-.77-1.94l-.38-.95a.69.69,0,0,0-.53-.42c-1.28-.22-2.57-.42-3.86-.61s-2.92-.42-4.5-.62H79.7c-.73,3.12-1.37,5.6-1.92,7.41a29.25,29.25,0,0,1-1.4,3.88c-.37.76-.66,1.08-.87.95s-.36-.59-.43-1.39a21.71,21.71,0,0,1,0-3.2c.09-1.33.26-2.8.52-4.4s.56-3.29.92-5a49.85,49.85,0,0,1,1.32-5.09,40.75,40.75,0,0,1,1.72-4.55A15.52,15.52,0,0,1,81.67,37.66Zm-.73,10.66A1.91,1.91,0,0,0,81.67,50a3.9,3.9,0,0,0,1.75.68,12.75,12.75,0,0,0,2.17.12l1.24,0A.68.68,0,0,0,87.5,50a10.25,10.25,0,0,0-.35-1.86,23.45,23.45,0,0,0-1-2.8c-.41-.93-.84-1.83-1.29-2.71S84,40.94,83.6,40.23a4.13,4.13,0,0,0-.71,1.23c-.25.6-.5,1.26-.75,2s-.48,1.46-.69,2.16S81.1,46.9,81,47.35c0,.06,0,.22,0,.47S80.94,48.24,80.94,48.32Z"/><path d="M106.85,43.29c0-.38,0-.8,0-1.24a4.51,4.51,0,0,1,.11-1.24,2.09,2.09,0,0,1,.48-1,1.45,1.45,0,0,1,1.14-.38,4.26,4.26,0,0,1,.74,2c.11.78.18,1.59.23,2.45s.08,1.71.13,2.56a6.59,6.59,0,0,0,.5,2.24.93.93,0,0,0,.29.35l.35.29a18.26,18.26,0,0,0,1.65-1.64L113.9,46c.49-.53,1-1,1.46-1.53A8.87,8.87,0,0,1,117,43.23a7.7,7.7,0,0,1,1.93-.86,8.69,8.69,0,0,1,2.44-.32,2.51,2.51,0,0,1-.51,1.45,10.09,10.09,0,0,1-1.3,1.47c-.53.5-1.1,1-1.73,1.52s-1.23,1-1.82,1.57a19.56,19.56,0,0,0-1.57,1.6,5.94,5.94,0,0,0-.63.87.68.68,0,0,0,.37,1l1,.36c.8.32,1.71.7,2.73,1.15s2.07.95,3.16,1.47,2.09,1,3,1.56a19.1,19.1,0,0,1,2.22,1.45c.58.46.86.83.86,1.11V59a4,4,0,0,1,0,.59,1.3,1.3,0,0,1-.2.53.54.54,0,0,1-.48.23,7,7,0,0,1-2.39-.47,14.31,14.31,0,0,1-2.18-1.09c-.71-.44-1.41-.89-2.11-1.37s-1.41-.92-2.13-1.36A12.54,12.54,0,0,0,115.28,55a8.87,8.87,0,0,0-2.53-.47,2.3,2.3,0,0,0-.39,1.41,3.73,3.73,0,0,0,.41,1.36,13.14,13.14,0,0,0,.83,1.4,10.32,10.32,0,0,1,.85,1.48,5.61,5.61,0,0,1,.48,1.62,3.36,3.36,0,0,1-.27,1.78.59.59,0,0,1-.23.2l-.36.23a1.65,1.65,0,0,1-.41.18l-.27.06c-.26,0-.55-.25-.86-.76a13.11,13.11,0,0,1-1-2c-.36-.87-.72-1.87-1.09-3s-.74-2.28-1.09-3.48-.68-2.41-1-3.63-.56-2.36-.79-3.42-.41-2-.54-2.8A12.71,12.71,0,0,1,106.85,43.29Z"/><path d="M75.13,88.48c0-.24,0-.64,0-1.19s0-1.14,0-1.76,0-1.19,0-1.74,0-.93,0-1.15a5.81,5.81,0,0,1,.15-.65,8.69,8.69,0,0,1,.29-.86v0a1.69,1.69,0,0,1,2-1,3.87,3.87,0,0,1,1.08.45,8.52,8.52,0,0,1,1.69,1.44,17.47,17.47,0,0,1,1.56,2c.5.73,1,1.45,1.47,2.17s1,1.39,1.42,2a10.66,10.66,0,0,0,1,1.15.69.69,0,0,0,.92.06,2.59,2.59,0,0,0,.68-.91,10.36,10.36,0,0,0,.69-2.06c.19-.78.35-1.58.5-2.42a14.78,14.78,0,0,1,.62-2.32,5.15,5.15,0,0,1,1-1.74,2.37,2.37,0,0,1,1.8-.68,3.48,3.48,0,0,1,2.47,1.06,11.1,11.1,0,0,1,2,2.7A20.39,20.39,0,0,1,98,86.7c.41,1.33.76,2.61,1,3.84s.5,2.34.64,3.33A17.45,17.45,0,0,1,99.89,96c0,.18,0,.38,0,.59a1.77,1.77,0,0,1-.15.58.82.82,0,0,1-.39.39,1.12,1.12,0,0,1-.79,0,1,1,0,0,1-.35-.17,3.07,3.07,0,0,1-.41-.35,4.23,4.23,0,0,1-.36-.41.58.58,0,0,1-.15-.35c-.18-1-.39-2.08-.61-3.3s-.5-2.43-.83-3.67a25.41,25.41,0,0,0-1.26-3.62,11.4,11.4,0,0,0-1.46-2.52.69.69,0,0,0-1-.08,3.59,3.59,0,0,0-.78,1,12.16,12.16,0,0,0-.83,2.15c-.23.78-.43,1.57-.61,2.38a10.62,10.62,0,0,1-.73,2.19A4.79,4.79,0,0,1,88,92.45a2.68,2.68,0,0,1-1.87.64,2.78,2.78,0,0,1-1.59-.53,7.48,7.48,0,0,1-1.5-1.4,19.52,19.52,0,0,1-1.41-1.9L80.29,87.2c-.44-.68-.86-1.31-1.27-1.89a7.36,7.36,0,0,0-1.26-1.4c-.16.63-.29,1.18-.38,1.65s-.16.94-.21,1.38-.08.9-.09,1.36,0,.94,0,1.48a15.82,15.82,0,0,0,.21,2.57c.14.84.3,1.69.46,2.52s.32,1.66.47,2.5a14.94,14.94,0,0,1,.23,2.59v.18a2.08,2.08,0,0,1-.25.29l-.37.41a3.51,3.51,0,0,1-.41.37,3.06,3.06,0,0,1-.3.23.23.23,0,0,1-.13,0,.57.57,0,0,1-.18,0l-.15,0-.15,0q-.21-1.75-.45-3.33c-.17-1-.31-2.09-.44-3.12s-.25-2.07-.34-3.12S75.13,89.69,75.13,88.48Z"/><path d="M101.19,85.79c0-.18,0-.37,0-.56a1.75,1.75,0,0,1,.12-.55.85.85,0,0,1,.3-.39,1,1,0,0,1,.59-.14h.18a.34.34,0,0,0,.16,0,7.53,7.53,0,0,1,1,2c.29.82.56,1.68.82,2.6s.55,1.85.85,2.79a10.45,10.45,0,0,0,1.18,2.52,5.66,5.66,0,0,0,1.79,1.79,4.31,4.31,0,0,0,2.63.58.9.9,0,0,0,.91-.76,7.86,7.86,0,0,0,.22-1.94c0-.79,0-1.65-.06-2.6a24.48,24.48,0,0,1,0-2.71,7.48,7.48,0,0,1,.46-2.26,2.13,2.13,0,0,1,1.32-1.3,9.35,9.35,0,0,1,.65,2.47c.17,1.12.29,2.41.37,3.87s.13,3,.13,4.76,0,3.4-.13,5.08-.2,3.31-.36,4.86-.34,2.92-.54,4.09a15,15,0,0,1-.71,2.77c-.28.67-.56,1-.87.86a4,4,0,0,1-1-1.57,9.82,9.82,0,0,1-.49-2.15,18.39,18.39,0,0,1-.1-2.5c0-.88,0-1.76.1-2.65s.11-1.75.19-2.6c0-.58.08-1.12.09-1.63a.67.67,0,0,0-.63-.69,5.36,5.36,0,0,1-1.58-.35,7.93,7.93,0,0,1-2.23-1.31,13,13,0,0,1-2.07-2.17,15,15,0,0,1-1.73-2.87,17.67,17.67,0,0,1-1.16-3.47A17.19,17.19,0,0,1,101.19,85.79Z"/></g></g></g></svg>