<svg xmlns="http://www.w3.org/2000/svg" viewBox="0 0 229.13 216.61"><defs><style>.cls-1{fill:#d3d3d1;stroke:#000;stroke-miterlimit:10;}</style></defs><title>piece8</title><g id="Layer_2" data-name="Layer 2"><g id="piece8"><g id="piece_8" data-name="piece 8"><path class="cls-1" d="M199.53,103.84v.08l-.5-.37h.5a21.06,21.06,0,0,0-4.05-14.12L161.05,42.77a10.23,10.23,0,0,0-2.42-2.36L130.84,21.1a.71.71,0,0,0-.65-.08L85,38.86,139.16.59l89.47,47.2V216.11H110.56L50.06,199,1.6,174.09,66.74,164a12.29,12.29,0,0,1,5.68.45L145.34,188a11.9,11.9,0,0,0,9.87-1.17l34.4-21a12.38,12.38,0,0,0,5.93-10.58l4-51.31"/></g></g></g></svg>