<svg id="Layer_1" data-name="Layer 1" xmlns="http://www.w3.org/2000/svg" viewBox="0 0 1920.02 1080"><defs><style>.cls-1{fill:#161515;opacity:0.1;}.cls-2{fill:#8c9496;}.cls-3{fill:#fff;}.cls-3,.cls-4{stroke:#000;stroke-width:2px;}.cls-16,.cls-3,.cls-4,.cls-5{stroke-miterlimit:10;}.cls-16,.cls-4{fill:none;}.cls-5,.cls-6{fill:#474949;}.cls-5{stroke:#474949;}.cls-7{fill:#5a5b5b;}.cls-8{fill:#e1ecef;}.cls-9{fill:#bebfbf;}.cls-10{fill:#d0d6d8;}.cls-11{fill:#635142;}.cls-12{fill:#8c6e42;}.cls-13{fill:#775d3a;}.cls-14{fill:#9b7e08;}.cls-15{fill:#89710c;}.cls-16{stroke:#423f32;opacity:0.6;}.cls-17{fill:#d3d3d1;}</style></defs><title>RoomScene</title><path class="cls-1" d="M465.09,541.09-183,764.5a7.12,7.12,0,0,0-.76.31c-7.48,3.35-8.2,13.77-1.53,18.54l399.77,50.9c1.26.9,21.75,2.55,27.21,2.53,9.53,0,8.74-.73,14.29-2.78L839.14,603.29c4.66-1.71,2.05-7-.51-12.11a10.79,10.79,0,0,0-7.93-5.87L492,545a10.8,10.8,0,0,1-5.54-2.71C482.06,538.29,470.51,539.09,465.09,541.09Z"/><path class="cls-2" d="M-301.58,625.3,438.49,393.17a116.39,116.39,0,0,1,34.94-4.82l248.7,15.76a5.26,5.26,0,0,1,1.54,10.27L68.7,625.3"/><path class="cls-3" d="M-281.64,699.94c107.73,2.6,215.46,6.19,323.18,8.79"/><ellipse class="cls-4" cx="1027.58" cy="428.18" rx="82.01" ry="28.76"/><line class="cls-5" x1="945.57" y1="433.37" x2="970.96" y2="587.59"/><line class="cls-5" x1="1109.58" y1="433.37" x2="1084.2" y2="587.59"/><ellipse class="cls-4" cx="1027.58" cy="589.84" rx="56.62" ry="14.08"/><path class="cls-6" d="M945.57,433.37c34,40.72,98.83,135.45,138.63,154.22"/><path class="cls-6" d="M958.26,412.8c26.16,49.95,82.14,115,128.36,153.09"/><path class="cls-6" d="M950.4,462.7c26.16,49.94,69.1,99.47,115.32,137.55"/><path class="cls-6" d="M1097.63,411.11c-26.16,49.95-82.14,115-128.36,153.1"/><path class="cls-6" d="M1074.69,404.63c-26.16,49.95-64.55,102.12-110.77,140.2"/><path class="cls-6" d="M978.06,404.63c26.16,49.95,64.55,102.12,110.77,140.2"/><path class="cls-6" d="M1054,398.8c-26.16,49.94-49.52,83.09-95.74,121.17"/><path class="cls-6" d="M997.87,402.12c26.16,49.94,49.52,83.09,95.74,121.16"/><path class="cls-6" d="M1033.45,398.8c-26.16,49.94-33.22,57.08-79.44,95.15"/><path class="cls-6" d="M1019.3,398.8c26.16,49.94,33.22,57.08,79.44,95.15"/><path class="cls-6" d="M1012.61,398.8c-18.84,34.57-25.09,41.59-58.73,70.35"/><path class="cls-6" d="M1045.32,398.2c18.85,34.57,25.09,41.59,58.73,70.35"/><path class="cls-6" d="M985.15,403.93c-6,18-20.39,26.41-32.44,36.09"/><path class="cls-6" d="M1075,403.93c6,18,20.38,26.41,32.44,36.09"/><path class="cls-6" d="M1103.4,465.23c-26.15,49.95-69.1,96.94-115.32,135"/><path class="cls-6" d="M1098.07,500.74c-26.16,50-41.92,65.1-88.13,103.18"/><path class="cls-6" d="M954,500.74c26.16,50,41.91,65.1,88.13,103.18"/><path class="cls-6" d="M1091.24,544.83c-35.51,46.95-8.9,12.16-50.84,59.09"/><path class="cls-6" d="M964.4,546.22c35.51,47,8.89,12.17,50.83,59.09"/><path class="cls-6" d="M1109.72,433.37c-34,40.72-98.83,135.45-138.63,154.22"/><rect class="cls-7" x="19.79" y="706.19" width="44.95" height="112.04" rx="12" ry="12"/><rect class="cls-7" x="702.56" y="469.19" width="44.95" height="112.04" rx="12" ry="12"/><path class="cls-8" d="M482.91,404.3c50.52,4.49,134.24,7.94,122.86,18.64-25,23.52-56.93,48.42-111.6,41.2-73.62-9.73-147.4-19.5-135.42-26.31C398.83,415,430.86,399.68,482.91,404.3Z"/><rect class="cls-9" x="-104.83" y="625.3" width="173.53" height="83.43" rx="12" ry="12"/><path class="cls-10" d="M61.78,709.45c175.19-49.62,511-161.67,683.69-240.2,17.48-7.94,4.43-62.39-11.05-57.34C592.47,458.19,295.36,546.14,49,633,34.41,638.17,29.69,718.54,61.78,709.45Z"/><rect class="cls-11" x="1363.26" y="551.87" width="30.46" height="214.43" rx="12" ry="12"/><rect class="cls-11" x="1574.85" y="498.1" width="30.46" height="214.43" rx="12" ry="12"/><rect class="cls-11" x="1879.56" y="593.73" width="30.46" height="214.43" rx="12" ry="12"/><path class="cls-12" d="M1577.78,444.87c-89,19.62-278.26,65.61-220.29,79.71,62.45,15.19,523.19,75.67,556.52,49.28,16-12.65,122-116,83.08-116.92C1913,454.92,1630,433.37,1577.78,444.87Z"/><path class="cls-13" d="M1925.58,564.21,1921.25,591A15.14,15.14,0,0,1,1905,604.27l-535-41.26c-8.52-.66-30.27-15.72-29.36-24.22l7.8-17.36"/><ellipse class="cls-1" cx="1086.62" cy="594.73" rx="77.96" ry="14.86"/><path class="cls-1" d="M2040.77,810.18,1561,779.91c-6.6,0-17.9-5.49-12-12l204-101.82c7.52-6.77,22.17-12,28.77-12l417,19.84a12,12,0,0,1,12,12L2058.48,798.18C2050.77,805.74,2047.37,810.18,2040.77,810.18Z"/><path class="cls-14" d="M326.52,736.93l90.76-36.45a4.06,4.06,0,0,0,2.55-3.76V651a11.22,11.22,0,0,0-15.59-10.34L318,677.06a11.23,11.23,0,0,0-6.86,10.34v39.12A11.22,11.22,0,0,0,326.52,736.93Z"/><path class="cls-15" d="M282.12,735.67V688.74c0-7.46,11.59-13.78,19.05-13.78h7.45a13.49,13.49,0,0,1,13.5,13.5v49.65"/><path class="cls-15" d="M322.12,699.88l97.71-38.5V649a11.19,11.19,0,0,0-11.19-11.19H398.29L293.51,676.63"/><line class="cls-16" x1="322.12" y1="699.88" x2="282.12" y2="698.27"/><polygon class="cls-17" points="1674.76 454.13 1574.85 511.61 1689.81 529.4 1788.35 465.08 1674.76 454.13"/></svg>