<?xml version="1.0" encoding="utf-8"?>
<!-- Generator: Adobe Illustrator 22.0.1, SVG Export Plug-In . SVG Version: 6.00 Build 0)  -->
<svg version="1.1" baseProfile="tiny" id="Layer_1" xmlns="http://www.w3.org/2000/svg" xmlns:xlink="http://www.w3.org/1999/xlink"
	 x="0px" y="0px" viewBox="0 0 1920 1080" xml:space="preserve">
<title>RoomScene</title>
<image width="1032" height="298" xlink:href="EEA0431B.png"  transform="matrix(1 0 0 1 -190 539)">
</image>
<path fill="#8C9496" d="M-301.6,625.3l740.1-232.1c11.3-3.4,23.1-5,34.9-4.8l248.7,15.8c2.9,0,5.2,2.4,5.2,5.3
	c0,2.3-1.5,4.3-3.7,4.9l-655,210.9"/>
<path fill="#FFFFFF" stroke="#000000" stroke-width="2" stroke-miterlimit="10" d="M-281.6,699.9c107.7,2.6,215.5,6.2,323.2,8.8"/>
<ellipse fill="none" stroke="#000000" stroke-width="2" stroke-miterlimit="10" cx="1027.6" cy="428.2" rx="82" ry="28.8"/>
<line fill="none" stroke="#474949" stroke-miterlimit="10" x1="945.6" y1="433.4" x2="971" y2="587.6"/>
<line fill="none" stroke="#474949" stroke-miterlimit="10" x1="1109.6" y1="433.4" x2="1084.2" y2="587.6"/>
<ellipse fill="none" stroke="#000000" stroke-width="2" stroke-miterlimit="10" cx="1027.6" cy="589.8" rx="56.6" ry="14.1"/>
<path fill="#474949" d="M945.6,433.4c34,40.7,98.8,135.5,138.6,154.2"/>
<path fill="#474949" d="M958.3,412.8c26.2,50,82.1,115,128.4,153.1"/>
<path fill="#474949" d="M950.4,462.7c26.2,49.9,69.1,99.5,115.3,137.5"/>
<path fill="#474949" d="M1097.6,411.1c-26.2,50-82.1,115-128.4,153.1"/>
<path fill="#474949" d="M1074.7,404.6c-26.2,50-64.5,102.1-110.8,140.2"/>
<path fill="#474949" d="M978.1,404.6c26.2,50,64.5,102.1,110.8,140.2"/>
<path fill="#474949" d="M1054,398.8c-26.2,49.9-49.5,83.1-95.7,121.2"/>
<path fill="#474949" d="M997.9,402.1c26.2,49.9,49.5,83.1,95.7,121.2"/>
<path fill="#474949" d="M1033.4,398.8c-26.2,49.9-33.2,57.1-79.4,95.1"/>
<path fill="#474949" d="M1019.3,398.8c26.2,49.9,33.2,57.1,79.4,95.1"/>
<path fill="#474949" d="M1012.6,398.8c-18.8,34.6-25.1,41.6-58.7,70.4"/>
<path fill="#474949" d="M1045.3,398.2c18.8,34.6,25.1,41.6,58.7,70.4"/>
<path fill="#474949" d="M985.2,403.9c-6,18-20.4,26.4-32.4,36.1"/>
<path fill="#474949" d="M1075,403.9c6,18,20.4,26.4,32.4,36.1"/>
<path fill="#474949" d="M1103.4,465.2c-26.2,49.9-69.1,96.9-115.3,135"/>
<path fill="#474949" d="M1098.1,500.7c-26.2,50-41.9,65.1-88.1,103.2"/>
<path fill="#474949" d="M954,500.7c26.2,50,41.9,65.1,88.1,103.2"/>
<path fill="#474949" d="M1091.2,544.8c-35.5,47-8.9,12.2-50.8,59.1"/>
<path fill="#474949" d="M964.4,546.2c35.5,47,8.9,12.2,50.8,59.1"/>
<path fill="#474949" d="M1109.7,433.4c-34,40.7-98.8,135.5-138.6,154.2"/>
<path fill="#5A5B5B" d="M31.8,706.2h21c6.6,0,12,5.4,12,12v88c0,6.6-5.4,12-12,12h-21c-6.6,0-12-5.4-12-12v-88
	C19.8,711.6,25.2,706.2,31.8,706.2z"/>
<path fill="#5A5B5B" d="M714.6,469.2h21c6.6,0,12,5.4,12,12v88c0,6.6-5.4,12-12,12h-21c-6.6,0-12-5.4-12-12v-88
	C702.6,474.6,707.9,469.2,714.6,469.2z"/>
<path fill="#E1ECEF" d="M482.9,404.3c50.5,4.5,134.2,7.9,122.9,18.6c-25,23.5-56.9,48.4-111.6,41.2c-73.6-9.7-147.4-19.5-135.4-26.3
	C398.8,415,430.9,399.7,482.9,404.3z"/>
<path fill="#BEBFBF" d="M-92.8,625.3H56.7c6.6,0,12,5.4,12,12v59.4c0,6.6-5.4,12-12,12H-92.8c-6.6,0-12-5.4-12-12v-59.4
	C-104.8,630.7-99.5,625.3-92.8,625.3z"/>
<path fill="#D0D6D8" d="M61.8,709.5c175.2-49.6,511-161.7,683.7-240.2c17.5-7.9,4.4-62.4-11-57.3C592.5,458.2,295.4,546.1,49,633
	C34.4,638.2,29.7,718.5,61.8,709.5z"/>
<path fill="#635142" d="M1375.3,551.9h6.5c6.6,0,12,5.4,12,12v190.4c0,6.6-5.4,12-12,12h-6.5c-6.6,0-12-5.4-12-12V563.9
	C1363.3,557.2,1368.6,551.9,1375.3,551.9z"/>
<path fill="#635142" d="M1586.8,498.1h6.5c6.6,0,12,5.4,12,12v190.4c0,6.6-5.4,12-12,12h-6.5c-6.6,0-12-5.4-12-12V510.1
	C1574.8,503.5,1580.2,498.1,1586.8,498.1z"/>
<path fill="#635142" d="M1891.6,593.7h6.5c6.6,0,12,5.4,12,12v190.4c0,6.6-5.4,12-12,12h-6.5c-6.6,0-12-5.4-12-12V605.7
	C1879.6,599.1,1884.9,593.7,1891.6,593.7z"/>
<path fill="#8C6E42" d="M1577.8,444.9c-89,19.6-278.3,65.6-220.3,79.7c62.4,15.2,523.2,75.7,556.5,49.3c16-12.7,122-116,83.1-116.9
	C1913,454.9,1630,433.4,1577.8,444.9z"/>
<path fill="#775D3A" d="M1925.6,564.2l-4.3,26.8c-1,8.1-8.1,13.9-16.3,13.3L1370,563c-8.5-0.7-30.3-15.7-29.4-24.2l7.8-17.4"/>
<image width="157" height="31" xlink:href="EEA0431E.png"  transform="matrix(1 0 0 1 1008 579)">
</image>
<image width="664" height="157" xlink:href="EEA0431D.png"  transform="matrix(1 0 0 1 1547 654)">
</image>
<path fill="#9B7E08" d="M326.5,736.9l90.8-36.5c1.5-0.6,2.5-2.1,2.5-3.8V651c0-6.2-5-11.2-11.2-11.2c-1.5,0-3,0.3-4.4,0.9L318,677.1
	c-4.2,1.8-6.9,5.8-6.9,10.3v39.1c0,6.2,5,11.2,11.2,11.2C323.8,737.7,325.2,737.5,326.5,736.9z"/>
<path fill="#89710C" d="M282.1,735.7v-46.9c0-7.5,11.6-13.8,19-13.8h7.5c7.5,0,13.5,6,13.5,13.5c0,0,0,0,0,0v49.7"/>
<path fill="#89710C" d="M322.1,699.9l97.7-38.5V649c0-6.2-5-11.2-11.2-11.2l0,0h-10.3l-104.8,38.8"/>
<image width="41" height="4" xlink:href="EEA04314.png"  transform="matrix(1 0 0 1 282 697)">
</image>
</svg>
