<?xml version="1.0" encoding="utf-8"?>
<!-- Generator: Adobe Illustrator 22.0.1, SVG Export Plug-In . SVG Version: 6.00 Build 0)  -->
<svg version="1.1" baseProfile="tiny" id="Layer_1" xmlns="http://www.w3.org/2000/svg" xmlns:xlink="http://www.w3.org/1999/xlink"
	 x="0px" y="0px" viewBox="0 0 830.2 929.8" xml:space="preserve">
<title>SB-Cover</title>
<g id="Layer_2_1_">
	<g id="Layer_1-2">
		<path fill="#9E7646" d="M84.8,0h721.5c13.2,0,23.9,10.7,23.9,23.9v858c0,13.2-10.7,23.9-23.9,23.9H84.8c-7.7,0-14-6.3-14-14V14
			C70.8,6.3,77,0,84.8,0z"/>
		<path fill="#916B43" d="M64.6,909l-51.4,20c-0.8,0.2-1.5,0.3-2.3,0.2c-6.1-0.7-10.7-5.8-10.7-11.9L0,50.7c0-6.3,4.9-11.6,11.1-12
			c0.7-0.1,1.3-0.2,1.9-0.5l51-29.5c1.1-0.5,2.3-0.7,3.5-0.5c5.7,1,9.9,6,9.9,11.8l-0.2,876.7c0,6.3-4.9,11.6-11.2,12
			C65.6,908.7,65.1,908.8,64.6,909z"/>
		<line fill="none" stroke="#020202" stroke-miterlimit="10" x1="822.7" y1="899.3" x2="765.4" y2="929.3"/>
		<rect x="279.9" y="178.3" fill="#C9C7C5" width="333.3" height="140.6"/>
		<path d="M364.8,252l-3.2,15.9c-0.2,0.9-0.4,1.9-0.4,2.8c0,0.5,0.1,0.9,0.3,1.4c-1.3,0.7-2.8,1.1-4.2,1.2c-0.8,0-1.2-0.3-1.2-1
			c0.1-1,0.2-1.9,0.5-2.9l3.5-17.4h-0.3c-1.5,0-3.1,0.4-4.5,1c0.4-1.2,1.1-2.2,2-3.1c0.8-0.5,1.8-0.8,2.7-0.7h0.6l2.8-13.7h-0.5
			c-2.9-0.2-5.8,0.8-8,2.7c0.6-2.4,1.6-4,3.1-4.8c1-0.6,4.3-0.9,9.7-0.9h6c3.8,0.1,7.6-0.3,11.2-1.2c-0.7,1.4-1.7,2.5-3,3.3
			c-1.5,0.7-3.1,0.9-4.8,0.8h-2h-7l-2.7,13.7h5c2.6,0.1,5.2-0.3,7.6-1.2c-0.4,1.4-1.3,2.5-2.5,3.3c-1,0.5-2.8,0.7-5.6,0.7L364.8,252
			z"/>
		<path d="M407.9,249.6c0,0.3,0.1,0.7,0.1,1c0,4.3-1.6,8.4-4.5,11.6c-2.6,3.1-6.4,4.9-10.5,4.9c-2.8,0.1-5.5-1-7.5-3
			c-2-2-3-4.8-2.9-7.6c0-3.5,1.3-6.8,3.8-9.3c2.3-2.5,5.5-3.9,8.8-3.9c0.6,0,1.1,0.1,1.7,0.2c-0.3-0.5-0.5-1.1-0.6-1.7
			c0-0.8,0.3-1.5,0.8-2.1c3.7,0.3,6.8,2.2,9.3,5.7c2.3,1.7,5.1,2.6,7.9,2.6c2.1-0.1,4.1-0.7,5.8-1.8l1.1,1.9
			c-2.2,1.6-4.8,2.5-7.5,2.6C411.8,250.6,409.8,250.2,407.9,249.6z M402.7,247.6c-1.3-0.4-2.5-1-3.5-1.8c-0.6-0.2-1.3-0.2-2-0.3
			c-2.7,0.1-5.3,1.3-6.9,3.5c-1.9,2.2-3,5.1-3,8c-0.1,1.9,0.6,3.9,1.8,5.4c1.2,1.4,2.9,2.2,4.7,2.1c2.6,0,4.8-1.3,6.7-3.9
			c1.9-2.7,2.9-6,2.8-9.3C403.3,250,403.1,248.8,402.7,247.6z"/>
		<path d="M420.4,266.3c-0.8,0.4-1.6,0.7-2.5,0.7c-1.6,0-2.4-0.7-2.4-2.1c0.2-1.8,0.4-3.5,0.8-5.3l1.1-5.7c0.6-2.5,0.9-5,1.1-7.6
			c0-0.8-0.2-1.6-0.8-2.2c1.3-0.5,2.6-0.8,3.9-0.8c1.1,0,1.6,0.7,1.6,2.1c-0.2,2.2-0.6,4.4-1.1,6.6l-1.3,6.7
			c2.3-4.7,5.2-9.2,8.7-13.1c2.9-3.1,5.6-4.7,8-4.7c0.8,0,1.6,0.2,2.2,0.7c0.6,0.4,0.9,1.1,0.9,1.8c0,1.1-1.2,2.5-3.5,4.3
			c-0.4-1.1-1.4-1.8-2.5-1.8c-1.9,0-4.4,2.1-7.4,6.2c-1.8,2.5-3.5,5.2-4.9,8c-1.4,2.7-2.1,4.7-2.1,5.8L420.4,266.3z"/>
		<path d="M464.8,249.5l-1.2,5.9c-0.4,1.7-0.6,3.5-0.7,5.2c0,2,2,3.1,5.9,3.1c3.6,0.1,7.1-0.6,10.4-2.1c-0.7,2.3-1.8,3.7-3.4,4.2
			c-1.6,0.5-3.3,0.8-5,1c-1.8,0.3-3.7,0.5-5.5,0.5c-5,0-7.5-1.7-7.5-5c0.1-1.7,0.4-3.4,0.7-5.1l1.5-7.7h-0.4c-1.6,0-3.1,0.3-4.5,1
			c0.5-1.2,1.2-2.2,2.1-3.2c0.8-0.5,1.7-0.8,2.6-0.7h0.8l2.3-11.3h-0.7c-2.9,0-5.6,1-7.9,2.7c0.8-2.4,1.8-4,3.1-4.7
			c1-0.5,4.2-0.8,9.6-0.8h6.8c3.5,0.1,7.1-0.3,10.5-1.3c-1.2,1.9-2.3,3.1-3.2,3.5s-3,0.6-6.1,0.6h-7.4l-2.3,11.3h4.8
			c2.7,0.1,5.4-0.3,7.9-1.3c-1,1.9-2,3.1-2.8,3.5s-2.7,0.6-5.7,0.6L464.8,249.5z"/>
		<path d="M490.9,266.3c-0.8,0.4-1.6,0.7-2.5,0.7c-1.6,0-2.4-0.7-2.4-2.1c0.2-1.8,0.4-3.5,0.8-5.3l1.2-5.7c0.6-2.5,0.9-5,1.1-7.6
			c0-0.8-0.2-1.6-0.8-2.2c1.3-0.5,2.6-0.8,3.9-0.8c1.1,0,1.6,0.7,1.6,2.1c-0.2,2.2-0.6,4.4-1.1,6.6l-1.3,6.7
			c2.3-4.7,5.2-9.2,8.7-13.1c2.9-3.1,5.6-4.7,8-4.7c0.8,0,1.6,0.2,2.2,0.7c0.6,0.4,0.9,1.1,0.9,1.8c0,1.1-1.2,2.5-3.5,4.3
			c-0.4-1.1-1.4-1.8-2.5-1.8c-1.9,0-4.4,2.1-7.4,6.2c-1.8,2.5-3.4,5.2-4.9,8c-1.4,2.7-2.1,4.7-2.1,5.8L490.9,266.3z"/>
		<path d="M537.9,247.7c-2.8,5.2-6.3,10-10.5,14.2c-3.5,3.4-6.7,5.1-9.5,5.1c-1.6,0.1-3.1-0.5-4.1-1.7c-1.1-1.2-1.6-2.8-1.6-4.4
			c0.1-1.1,0.2-2.2,0.5-3.3l0.5-2.5c0.6-2.5,1-5.1,1.1-7.7c0-0.8-0.3-1.5-0.8-2.1c1.2-0.3,2.5-0.6,3.7-0.7c1.1,0,1.7,0.8,1.7,2.4
			c-0.1,1.7-0.3,3.4-0.7,5.1l-0.9,4.5c-0.3,1.4-0.5,2.8-0.7,4.2c0,1.9,0.8,2.8,2.4,2.8c1.9,0,4.5-1.6,7.6-4.8
			c3.5-3.7,6.6-7.8,9.2-12.2L537.9,247.7z M517.5,236.1h0.3c1.6-0.2,3.1-0.8,4.4-1.6c1.6-0.8,3.1-1.8,4.5-3
			c-0.7,2.1-1.9,3.9-3.6,5.3c-2.6,2.2-4.4,3.3-5.3,3.3c-0.6,0-0.9-0.4-0.9-1.1C516.9,238,517.1,237.1,517.5,236.1z"/>
		<path d="M564.7,247.7c-3.1,5.5-7.1,10.4-11.7,14.7c-4.1,3.6-8,5.4-11.5,5.4c-2.7,0.1-5.3-1-7.2-3c-1.9-2.2-2.9-5-2.8-7.9
			c0.2-8.7,7.2-15.7,15.9-15.9c1.5-0.1,3,0.3,4.3,1c1,0.5,1.6,1.4,1.7,2.5c0,1.7-1.4,2.9-4.3,3.8c0.1-0.3,0.2-0.7,0.2-1.1
			c0-2.5-1.3-3.7-4-3.7c-2.3,0-4.4,1.3-6.3,3.8c-1.9,2.4-2.9,5.3-2.9,8.4c-0.1,2.2,0.6,4.3,1.9,6c1.2,1.5,3.1,2.4,5,2.3
			c5.6,0,12.2-5.8,19.8-17.5L564.7,247.7z"/>
	</g>
</g>
</svg>
