<?xml version="1.0" encoding="utf-8"?>
<!-- Generator: Adobe Illustrator 22.0.1, SVG Export Plug-In . SVG Version: 6.00 Build 0)  -->
<svg version="1.1" baseProfile="tiny" id="Layer_1" xmlns="http://www.w3.org/2000/svg" xmlns:xlink="http://www.w3.org/1999/xlink"
	 x="0px" y="0px" viewBox="0 0 1286.1 904.2" xml:space="preserve">
<title>SB-Cover</title>
<g id="Layer_2_1_">
	<g id="Layer_1-2">
		<line fill="none" stroke="#020202" stroke-miterlimit="10" x1="11.8" y1="832" x2="685.4" y2="832.2"/>
		<path fill="#9E7646" d="M77.4,0h642.2c13.2,0,23.9,10.7,23.9,23.9c0,0,0,0,0,0v763.4c0,13.2-10.7,23.9-23.9,23.9H77.4
			c-7.7,0-14-6.3-14-14V14C63.4,6.3,69.6,0,77.4,0z"/>
		<path fill="#916B43" d="M57.8,814l-46,18c-0.7,0.2-1.4,0.3-2.1,0.2c-5.4-0.6-9.6-5.2-9.6-10.7L0,45.4c0-5.6,4.4-10.3,10-10.7
			c0.6-0.1,1.2-0.2,1.7-0.5L57.4,7.8c1-0.5,2.1-0.6,3.1-0.4c5.1,0.9,8.9,5.4,8.9,10.6L69.3,803c0,5.6-4.4,10.3-10,10.7
			C58.8,813.8,58.3,813.9,57.8,814z"/>
		<line fill="none" stroke="#020202" stroke-miterlimit="10" x1="736.7" y1="805.3" x2="685.4" y2="832.2"/>
		<rect x="250.6" y="159.7" fill="#C9C7C5" width="298.5" height="125.9"/>
		<path d="M326.7,225.7l-2.8,14.2c-0.2,0.8-0.3,1.7-0.4,2.5c0,0.4,0.1,0.8,0.3,1.2c-1.2,0.6-2.5,1-3.8,1c-0.7,0-1.1-0.3-1.1-0.9
			c0.1-0.9,0.2-1.7,0.4-2.6l3.1-15.6H322c-1.4,0-2.7,0.3-4,0.9c0.4-1,1-2,1.8-2.8c0.7-0.5,1.6-0.7,2.5-0.6h0.5l2.5-12.3h-0.5
			c-2.6-0.1-5.2,0.7-7.1,2.4c0.5-2.2,1.5-3.6,2.8-4.3c0.9-0.5,3.8-0.8,8.7-0.8h5.4c3.4,0.1,6.8-0.3,10-1.1c-0.6,1.2-1.5,2.3-2.7,3
			c-1.3,0.6-2.8,0.8-4.3,0.8h-1.8h-6.2l-2.5,12.3h4.4c2.3,0.1,4.6-0.3,6.8-1c-0.4,1.2-1.2,2.3-2.3,3c-1.6,0.5-3.3,0.8-5,0.6
			L326.7,225.7z"/>
		<path d="M365.3,223.5c0,0.3,0.1,0.6,0.1,0.9c0,3.8-1.4,7.6-4,10.4c-2.3,2.8-5.8,4.4-9.4,4.4c-2.5,0.1-5-0.9-6.7-2.6
			c-1.8-1.8-2.7-4.3-2.6-6.9c0-3.1,1.2-6.1,3.4-8.3c2-2.2,4.9-3.5,7.9-3.5c0.5,0,1,0.1,1.5,0.2c-0.3-0.5-0.5-1-0.5-1.6
			c0-0.7,0.3-1.4,0.7-1.9c3.4,0.3,6.5,2.2,8.4,5.1c2.1,1.5,4.6,2.3,7.1,2.3c1.8-0.1,3.6-0.6,5.2-1.6l1,1.8c-1.9,1.4-4.3,2.2-6.7,2.3
			C368.7,224.4,367,224.1,365.3,223.5z M360.6,221.8c-1.1-0.3-2.2-0.9-3.1-1.6c-0.6-0.1-1.2-0.2-1.8-0.2c-2.4,0-4.7,1.2-6.2,3.1
			c-1.8,2-2.7,4.5-2.7,7.2c-0.1,1.7,0.5,3.5,1.6,4.8c1,1.2,2.6,1.9,4.2,1.9c2.3,0,4.3-1.2,6-3.5c1.7-2.4,2.6-5.4,2.5-8.4
			C361.2,223.9,361,222.8,360.6,221.8z"/>
		<path d="M376.5,238.5c-0.7,0.4-1.5,0.6-2.3,0.7c-1.4,0-2.1-0.6-2.1-1.9c0.1-1.6,0.4-3.2,0.7-4.7l1-5.1c0.5-2.2,0.8-4.5,0.9-6.8
			c0-0.7-0.2-1.4-0.7-2c1.1-0.4,2.3-0.7,3.5-0.7c1,0,1.4,0.6,1.4,1.8c-0.2,2-0.5,4-1,5.9l-1.2,6c2.1-4.3,4.7-8.2,7.8-11.8
			c2.6-2.8,5-4.2,7.1-4.2c0.7,0,1.4,0.2,2,0.6c0.5,0.4,0.8,0.9,0.8,1.6c0,1-1,2.2-3.1,3.8c-0.3-0.9-1.2-1.6-2.2-1.6
			c-1.7,0-3.9,1.9-6.6,5.6c-1.6,2.3-3.1,4.6-4.4,7.1c-1.2,2.4-1.8,4.2-1.8,5.2L376.5,238.5z"/>
		<path d="M416.3,223.4l-1,5.3c-0.4,1.5-0.6,3.1-0.7,4.7c0,1.8,1.8,2.7,5.3,2.7c3.2,0.1,6.4-0.6,9.3-1.9c-0.6,2.1-1.6,3.3-3.1,3.8
			c-1.5,0.4-3,0.7-4.5,0.9c-1.6,0.3-3.3,0.4-4.9,0.5c-4.5,0-6.7-1.5-6.7-4.5c0.1-1.5,0.3-3.1,0.7-4.6l1.4-6.9h-0.3
			c-1.4,0-2.7,0.3-4,0.9c0.5-1,1.1-2,1.9-2.8c0.7-0.5,1.5-0.7,2.3-0.6h0.7l2-10.1h-0.6c-2.6,0-5,0.9-7,2.4c0.7-2.2,1.6-3.6,2.8-4.2
			c0.9-0.5,3.8-0.7,8.6-0.7h6.1c3.2,0.1,6.4-0.3,9.4-1.2c-0.7,1.3-1.7,2.4-2.9,3.1c-1.8,0.5-3.6,0.7-5.5,0.6h-6.6l-2,10.1h4.1
			c2.4,0.1,4.8-0.3,7.1-1.1c-0.9,1.7-1.8,2.8-2.5,3.1s-2.4,0.5-5.1,0.5L416.3,223.4z"/>
		<path d="M439.6,238.5c-0.7,0.4-1.5,0.6-2.3,0.7c-1.4,0-2.1-0.6-2.1-1.9c0.1-1.6,0.4-3.2,0.7-4.7l1-5.1c0.5-2.2,0.8-4.5,1-6.8
			c0-0.7-0.2-1.4-0.7-2c1.1-0.4,2.3-0.7,3.5-0.7c1,0,1.4,0.6,1.4,1.8c-0.2,2-0.5,4-1,5.9l-1.2,6c2.1-4.3,4.7-8.2,7.8-11.8
			c2.6-2.8,5-4.2,7.1-4.2c0.7,0,1.4,0.2,2,0.6c0.5,0.4,0.8,0.9,0.8,1.6c0,1-1,2.2-3.1,3.8c-0.3-0.9-1.2-1.6-2.2-1.6
			c-1.7,0-4,1.9-6.6,5.6c-1.6,2.3-3.1,4.6-4.4,7.1c-1.2,2.4-1.9,4.2-1.9,5.2L439.6,238.5z"/>
		<path d="M481.7,221.8c-2.5,4.7-5.7,9-9.4,12.7c-3.2,3.1-6,4.6-8.5,4.6c-1.4,0.1-2.7-0.5-3.7-1.5c-1-1.1-1.5-2.5-1.4-3.9
			c0-1,0.2-2,0.4-2.9l0.5-2.3c0.5-2.3,0.9-4.6,1-6.9c0-0.7-0.2-1.4-0.7-1.9c1.1-0.3,2.2-0.5,3.4-0.6c1,0,1.5,0.7,1.5,2.1
			c-0.1,1.5-0.3,3-0.6,4.5l-0.8,4c-0.3,1.2-0.5,2.5-0.6,3.8c0,1.7,0.7,2.5,2.2,2.5c1.7,0,4-1.4,6.9-4.3c3.2-3.3,6-7,8.3-11
			L481.7,221.8z M463.4,211.5h0.3c1.4-0.2,2.8-0.7,4-1.4c1.5-0.7,2.8-1.6,4-2.7c-0.6,1.9-1.7,3.5-3.2,4.8c-2.3,1.9-3.9,2.9-4.7,2.9
			c-0.5,0-0.8-0.3-0.8-1C463,213.2,463.1,212.3,463.4,211.5L463.4,211.5z"/>
		<path d="M505.8,221.9c-2.8,4.9-6.4,9.4-10.5,13.1c-3.7,3.2-7.1,4.8-10.3,4.8c-2.4,0.1-4.8-0.9-6.4-2.7c-1.7-2-2.6-4.5-2.4-7.1
			c0.2-7.8,6.4-14.1,14.2-14.2c1.3-0.1,2.6,0.3,3.8,0.9c0.9,0.4,1.5,1.3,1.5,2.3c0,1.5-1.3,2.6-3.8,3.4c0.1-0.3,0.2-0.6,0.2-0.9
			c0-2.2-1.2-3.3-3.5-3.3c-2,0-3.9,1.1-5.6,3.4c-1.7,2.1-2.6,4.8-2.6,7.5c-0.1,1.9,0.5,3.9,1.7,5.4c1.1,1.4,2.7,2.1,4.5,2.1
			c5,0,10.9-5.2,17.7-15.7L505.8,221.9z"/>
	</g>
</g>
</svg>
