<?xml version="1.0" encoding="utf-8"?>
<!-- Generator: Adobe Illustrator 22.0.1, SVG Export Plug-In . SVG Version: 6.00 Build 0)  -->
<svg version="1.1" baseProfile="tiny" id="Layer_1" xmlns="http://www.w3.org/2000/svg" xmlns:xlink="http://www.w3.org/1999/xlink"
	 x="0px" y="0px" viewBox="0 0 1286.1 904.2" xml:space="preserve">
<title>SBPg3</title>
<g id="Layer_2_1_">
	<g id="Layer_2-2">
		<path fill="#A38672" d="M605.9,837.9L34.1,904.2c-18.8,0-34.1-14-34.1-31.1L13.7,51.8c0-17.1,15.4-31.1,34.1-31.1l558,44
			c18.8,0,34.1,14,34.1,31.1v711C640,823.9,624.7,837.9,605.9,837.9z"/>
		<path fill="#C6A185" d="M611.9,828.1L40.1,894.4c-18.8,0-34.1-14-34.1-31.1L19.7,42c0-17.1,15.4-31.1,34.1-31.1l558,44
			c18.8,0,34.1,14,34.1,31.1v711C646,814.1,630.7,828.1,611.9,828.1z"/>
		<path fill="#D6D6D6" d="M644,811.1c-113.4-12.1-197.9-11.4-293.8,5.1C232,836.5,131.1,869.3,19.4,869.3
			C25.7,570.4,39.6,335,46,36.1c99.4-7.6,187.7-33.3,285.7-22.8C435.6,24.5,538.9,51.9,644,69V811.1z"/>
		<path fill="#E5E5E5" d="M653.3,800.2c-111.9-12.1-195.3-11.4-290,5.1c-116.8,20.3-216.4,53.1-326.7,53.1
			c6.2-298.8,20-534.3,26.2-833.2C161,17.7,248.2-8,344.9,2.5C447.5,13.7,549.5,41,653.3,58.2V800.2z"/>
		<path fill="#A38672" d="M678.2,836.9l571.8,66.3c18.8,0,34.1-14,34.1-31.1l-13.8-821.3c0-17.1-15.4-31.1-34.1-31.1l-558.1,44
			c-18.8,0-34.1,14-34.1,31.1v711C644,822.9,659.4,836.9,678.2,836.9z"/>
		<path fill="#C6A185" d="M680.2,828.1l571.8,66.3c18.8,0,34.1-14,34.1-31.1L1272.3,42c0-17.1-15.4-31.1-34.1-31.1l-558.1,44
			c-18.8,0-34.2,14-34.2,31.1v711C646,814.1,661.4,828.1,680.2,828.1z"/>
		<path fill="#D6D6D6" d="M644,811.1c113.9-12.1,198.8-11.4,295.2,5.1c118.8,20.3,220.3,53.1,332.5,53.1
			c-6.4-298.8-5.1-534.3-11.4-833.2c-100-7.6-203.9-33.3-302.4-22.8C853.5,24.5,748.5,57.8,644,69V811.1z"/>
		<path fill="#E5E5E5" d="M645,800.2c111.9-12.1,195.3-11.4,290,5.1c116.8,20.3,216.4,53.1,326.7,53.1
			c-6.2-298.8-5-534.3-11.2-833.2C1152.3,17.7,1050.2-8,953.4,2.5C850.8,13.7,747.6,47,645,58.2V800.2z"/>
		<line fill="none" stroke="#A38672" stroke-miterlimit="10" x1="645" y1="58.2" x2="645" y2="800.2"/>
		<path fill="#F7F7F7" d="M720.8,672.5c90.1-3.3,145.9-2.7,214.6,1.9c91.1,6.1,120.5,11.4,218,23c1.5-211.6,2-368.8,1.6-587
			c-70.4-5.4-97.9-4.6-213.2,5.9c-73.7,6.7-147.5,16.3-221.1,24.3L720.8,672.5z"/>
		<path fill="#072A30" stroke="#000000" stroke-width="3" stroke-miterlimit="10" d="M734.8,602.3c79.1-1.9,138.2-4.9,211.6-3.2
			c54.1,1.3,111.1,5.7,185.4,14.8c5.4,0.7,10.3-3.2,10.9-8.5c0-0.4,0.1-0.8,0.1-1.2c0-166.9-0.2-297.1-1.4-473.9
			c-66-4.5-134.5-2.5-199.5,3.8c-68.9,6.6-138.2,15.1-207.1,21.8V602.3z"/>
		<path fill="#2FAC66" d="M843.7,362.8c3.5-0.5,6.8-1.1,10.4-1.5c3.8-0.3,7.6-0.3,11.4,0c4,0.3,8,0.8,11.9,1.6
			c4.4,1,8.7,2.2,12.9,3.7c2.5,0.9,2.5-1.7-0.2-2.5c-0.7-0.2-1.4-0.5-2.2-0.6c-1.5-0.4-2,0.7-0.7,1.6c0.6,0.4,1.3,0.7,2,1.1
			c0.5-0.6,0.9-1.2,1.4-1.9c-8.2-3.1-16.9-4.8-25.7-5c-3.8-0.1-7.7,0.2-11.5,0.7c-3.4,0.4-6.8,1.2-10,2.5
			C843.5,362.7,843.6,362.9,843.7,362.8L843.7,362.8z"/>
		<path fill="#DEDC00" d="M823.8,369.9c4.5-0.2,9-0.7,13.5-0.6c4.5,0.1,8.9,0.7,13.3,1.7c4.3,0.9,8.4,2.3,12.4,4.1
			c4.1,2.1,7.9,4.5,11.5,7.4c2.1,1.6,4.5-2.2,2.2-3.7c-0.7-0.4-1.2-0.9-1.9-1.3c-0.8-0.4-1.8-0.2-2.2,0.6c-0.3,0.5-0.3,1.1,0,1.6
			c0.4,0.7,0.8,1.3,1.2,1.9l3.4-2.5c-6.9-6.1-16.2-9.8-25.2-11.2c-4.7-0.7-9.4-0.9-14.1-0.6c-4.7,0.1-9.5,0.9-14,2.2
			C823.7,369.7,823.7,369.9,823.8,369.9L823.8,369.9z"/>
		<path fill="#2FAC66" d="M828.5,378.7c2.5,3.2,5,6.2,7.4,9.6c2.4,3.6,4.5,7.4,6.3,11.3c1.9,4.1,3.5,8.4,4.8,12.7
			c1.3,4.8,2.3,9.8,3,14.8c0.4,2.9,3.3,1.6,2.7-1.4c-0.2-0.8-0.3-1.7-0.5-2.5c-0.4-1.7-1.9-1.6-2.1,0.1c-0.1,0.8-0.1,1.7-0.2,2.5
			l2.8,0.5c-1.2-9.8-4.1-19.3-8.7-28.1c-2.1-3.9-4.5-7.6-7.2-11.1c-2.3-3.3-5.2-6.2-8.3-8.7C828.4,378.4,828.3,378.6,828.5,378.7
			L828.5,378.7z"/>
		<path fill="#90C362" d="M795.4,360.8c-4.4-1-8.8-2.1-13.2-2.8c-4.4-0.6-8.9-0.8-13.4-0.5c-4.4,0.2-8.7,0.9-12.9,2.1
			c-4.4,1.4-8.6,3.2-12.5,5.5c-2.3,1.3-4.1-2.9-1.5-4c0.7-0.3,1.4-0.7,2.1-0.9c0.9-0.3,1.8,0.1,2.1,1c0.2,0.5,0.1,1.1-0.2,1.6
			c-0.5,0.6-1,1.1-1.5,1.7l-2.9-3c7.8-4.9,17.5-7,26.6-7c4.7,0.1,9.4,0.6,14,1.6c4.7,0.9,9.2,2.4,13.5,4.5
			C795.6,360.5,795.6,360.8,795.4,360.8L795.4,360.8z"/>
		<path fill="#53B89A" d="M823,365.3c5.4-2.6,10.7-5.4,16.3-7.7c5.9-2.3,11.9-4.1,18.1-5.2c9.2-1.5,18.5-2.5,27.8-2.9
			c7,0,14,0.6,20.9,1.8c4.1,0.6,3.8-4.7-0.5-5c-1.2-0.1-2.3-0.3-3.5-0.3c-2.5-0.1-3.1,2.4-0.9,3.5c1,0.5,2.2,0.9,3.2,1.4
			c0.7-1.5,1.4-3,2-4.4c-14-2.8-37.4-1-49.9,2.2c-6.3,1.7-12.4,3.9-18.2,6.7c-5.6,2.4-10.9,5.7-15.6,9.7
			C822.6,365.1,822.8,365.4,823,365.3L823,365.3z"/>
		<path fill="#AFD4A1" d="M831,355c1.8-1.5,3.8-2.8,5.8-4c2.1-1.4,4.3-2.9,6.5-4.2c4.1-2.5,8.4-4.7,12.7-6.7
			c4.2-1.9,8.6-3.5,12.9-5.2c4.6-1.7,9.3-3.2,13.9-4.9c2.6-1,0.6-5.3-1.8-3.9c-0.9,0.5-1.6,1.2-2.4,1.7c-1,0.7-0.3,2.4,0.8,2.4
			c0.8,0,1.6,0,2.3,0c-0.1-1.4-0.1-2.9-0.2-4.3c-9.3,2.9-18.2,6.8-26.8,11.5c-4.2,2.3-8.2,4.8-12.1,7.4c-2,1.4-4,2.9-5.9,4.4
			C834.7,351,833,353.2,831,355L831,355L831,355z"/>
		<path fill="#8F9A00" d="M809.9,361.9c-2-1.2-4.1-2.3-6.2-3.3c-2.3-1.2-4.5-2.4-6.9-3.5c-4.4-2-8.9-3.8-13.4-5.2
			c-4.4-1.4-8.9-2.6-13.4-3.7c-4.8-1.2-9.6-2.1-14.4-3.4c-2.7-0.7-1.2-5.2,1.4-4.1c0.9,0.4,1.7,1,2.6,1.4c0.6,0.4,0.8,1.3,0.4,1.9
			c-0.2,0.3-0.5,0.5-0.9,0.6c-0.8,0.1-1.6,0.2-2.3,0.2c-0.1-1.4-0.2-2.9-0.3-4.3c9.5,1.9,18.9,4.7,27.9,8.5
			c4.4,1.8,8.7,3.8,12.8,6.1c2.2,1.2,4.3,2.4,6.3,3.7C805.8,358.3,807.7,360.3,809.9,361.9L809.9,361.9L809.9,361.9z"/>
		<path fill="#B3CF60" d="M821.3,363.4c1-2,2.4-4.1,3.6-6c1.3-2.2,2.7-4.4,4-6.5c2.6-4,5.3-7.9,8.1-11.6s5.5-7.1,8.3-10.5
			c3-3.7,6-7.2,9-10.9c1.7-2.1,0-4.4-1.5-2.1c-0.5,0.8-1,1.7-1.5,2.5c-0.7,1,0,2,0.7,1.5c0.5-0.4,1.1-0.8,1.6-1.2
			c-0.2-1.1-0.3-2.1-0.5-3.2c-6.2,7.1-11.9,14.6-17.2,22.4c-2.6,3.9-5.2,7.8-7.6,11.9c-1.3,2.1-2.5,4.2-3.6,6.4
			C823.5,358.4,822.5,361,821.3,363.4L821.3,363.4L821.3,363.4z"/>
		<path fill="#AFD4A1" d="M818.3,375.1c0.1,2.3,0,4.7-0.2,7c-0.1,2.6-0.2,5.1-0.4,7.7c-0.4,4.8-1.1,9.6-2.2,14.3
			c-1,4.5-2.2,9-3.5,13.5c-1.3,4.7-3,9.4-4.3,14.1c-0.7,2.7,4,3.6,4.3,0.8c0.1-1,0-2,0-3c0-1.2-1.8-1.7-2.5-0.8
			c-0.5,0.6-0.9,1.3-1.4,1.9l3.6,2.4c3.2-9.2,5.3-18.7,6.5-28.4c0.6-4.7,1-9.4,1.1-14.1c0-2.5,0-4.9-0.1-7.3
			C819.3,380.4,818.5,377.7,818.3,375.1L818.3,375.1L818.3,375.1z"/>
		<path fill="#009579" d="M820.3,373.5c7.5,10.1,11.7,27.9,15.6,45.2c0.3,1.4,1,2.4,1.7,2.4s1.3-0.8,1.8-2.3
			c0.4-1.6,0.4-3.2,0.1-4.8c-4-17.9-11-33.1-18.9-41.7C820.2,371.9,819.9,373.1,820.3,373.5z"/>
		<path fill="#8DBE23" d="M826.4,372.4c4.9,2.6,9.7,5.4,14.3,8.4c5.1,3.1,22.9,18.1,25.5,20.9c2.1,2.2,5.1-0.4,3-2.7
			c-2.5-2.8-14.1-12.9-19.7-16.2c-6.4-3.8-13.6-6.9-22-10.5C826.4,371.8,825.3,371.8,826.4,372.4L826.4,372.4z"/>
		<path fill="#8DBE23" d="M811.6,367.6c-11.4-2.8-23.3,0.4-33.8,5.4c-9.1,4.4-16.1,13.1-22.1,21.3c-1.7,2.3-3.3,4.7-4.9,7.1
			c-0.5,0.7-1.3,1.1-2.2,0.9c-1.7-0.6-0.7-3.8-0.3-4.5c5.7-8.8,12.1-17.4,20.9-23.2c9.3-6.1,20.2-9.5,31.3-9.6
			c3.8,0.1,7.5,0.7,11.1,1.9C812,367.2,811.9,367.7,811.6,367.6L811.6,367.6z"/>
		<path fill="#2FAC66" d="M809.6,340.7c-0.6-1.3-1.2-2.5-1.9-3.7c-0.7-1.4-1.4-2.7-2.2-4c-1.5-2.5-3.1-4.8-4.8-7.1
			c-1.7-2.2-3.5-4.3-5.3-6.3s-4-4.3-5.9-6.5c-1.1-1.3,1.2-3,2-1.5c0.3,0.5,0.5,1,0.8,1.6s-0.5,1.4-1.1,1.1c-0.4-0.2-0.8-0.5-1.2-0.7
			l1.3-2.2c4.1,4.1,7.7,8.6,10.9,13.5c1.5,2.4,3,4.8,4.3,7.3c0.7,1.3,1.3,2.6,1.8,4C808.7,337.6,809,339.2,809.6,340.7L809.6,340.7z
			"/>
		<path fill="#2FAC66" d="M822.5,321.8c-0.1-2.7-1.2-5.7-1.9-8.3c-0.9-3-2.3-5.9-4.1-8.5c-1.5-2.1,1.5-4.9,3-2.7
			c1.8,2.7,3.1,5.8,3.8,9c0.9,3.7,0.4,6.8,0,10.5c0,0.2-0.2,0.4-0.4,0.4C822.6,322.2,822.4,322.1,822.5,321.8L822.5,321.8
			L822.5,321.8z"/>
		<path fill="#2FAC66" d="M781,364.5c-3.3-1-7.4-0.3-11.1,1.2c-1.4,0.6-2.7,1.4-3.9,2.4c-1.2,0.9-2,2.3-3.4,2.9
			c-1.6,0.7-3.1,0.1-3-1.3c0.3-3.3,7-5.5,10.1-6.4c3.9-1.3,8.1-1,11.8,0.6C781.7,364.2,781.4,364.6,781,364.5L781,364.5z"/>
		<path fill="#006633" d="M813.7,360.8c-4.9-6.8-10.7-12.8-17.3-18c-3.3-2.5-6.9-4.7-10.7-6.4c-1.9-0.8-3.8-1.6-5.8-2.2
			c-2.3-0.7-4.6-1-6.9-1.7c-3-0.9-0.7-5,2.3-4.4c2.2,0.6,4.4,1.4,6.6,2.3c2,0.8,4.1,1.8,6,2.8c3.8,2,7.3,4.4,10.6,7.1
			c6.8,5.6,11.4,12.6,15.6,20.1C814.1,360.8,813.8,361,813.7,360.8L813.7,360.8z"/>
		<path fill="#2FAC66" d="M813.8,374.7c-6.6,8.6-13.5,18.2-17.3,29.9c-1.8,5.8-3.2,11.7-4.2,17.7c-0.5,3.1-0.8,6.2-1,9.3
			c-0.2,3.6,0,7.2-0.3,10.7l-3.9-0.7c0.1-1.4,0.5-2.8,1-4.1c1-2,3-0.8,2.7,1.6c-0.1,0.8-0.1,1.7,0,2.5c0.7,3.8-3.5,4.8-3.9,0.8
			c-0.2-3.6,0-7.2,0.4-10.7c0.3-3.4,0.7-6.7,1.3-10c1.1-6.2,2.9-12.2,5.5-18c5.2-11.4,11.5-21,19.4-28.9c0,0,0.1,0,0,0.1
			L813.8,374.7z"/>
		<path fill="#53B89A" d="M812.2,372.1c-8.6,5.3-17.8,11.4-24.8,20.4c-3.5,4.4-6.6,9.1-9.3,14c-1.4,2.5-2.7,5.1-3.9,7.8
			c-1.3,3-2.3,6.3-3.7,9.2l-3.2-1.9c0.6-1.2,1.3-2.2,2.2-3.2c1.5-1.4,2.9,0.3,1.9,2.3c-0.4,0.7-0.6,1.4-0.8,2.2
			c-0.6,3.6-4.6,3-3.7-0.6c1-3.2,2.3-6.3,3.8-9.2c1.4-2.8,2.8-5.6,4.4-8.3c3-5.1,6.5-9.7,10.7-13.9c8.3-8.2,16.9-14.5,26.3-18.8
			C812.2,372,812.2,372.1,812.2,372.1L812.2,372.1z"/>
		<path fill="#DEDC00" d="M819.6,359.9c0-9.7-1.3-19.4-3.7-28.8c-1.2-4.7-2.9-9.3-5.1-13.6c-1.1-2.1-2.3-4.2-3.6-6.3
			c-1.5-2.3-3.3-4.4-4.8-6.6c-2.1-3,2.5-4.9,4.7-2.2c1.5,2.2,2.9,4.5,4.1,6.9c1.3,2.3,2.3,4.6,3.3,7c2,4.6,3.6,9.3,4.6,14.2
			c2.3,10,1.9,19.7,0.9,29.4C819.9,360.2,819.6,360.1,819.6,359.9L819.6,359.9z"/>
		<polygon fill="#3AAA35" points="766.7,332.5 763.4,331.1 764.9,334.3 763.1,331.2 762.4,334.7 762.8,331.2 760.2,333.5 
			762.5,330.9 759,331.3 762.4,330.6 759.4,328.8 762.6,330.2 761.1,327 762.9,330.1 763.6,326.6 763.3,330.1 765.9,327.8 
			763.5,330.4 767,330 763.6,330.7 		"/>
		<polygon fill="#3AAA35" points="845.8,314.5 842.6,313.1 844.1,316.3 842.3,313.3 841.6,316.8 841.9,313.3 839.3,315.6 841.7,313 
			838.2,313.4 841.6,312.6 838.5,310.9 841.8,312.3 840.3,309.1 842.1,312.2 842.8,308.7 842.5,312.2 845,309.8 842.7,312.5 
			846.2,312.1 842.8,312.8 		"/>
		<polygon fill="#3AAA35" points="891.8,359.1 888.6,357.7 890.1,360.9 888.3,357.9 887.6,361.3 887.9,357.8 885.3,360.2 
			887.7,357.6 884.2,358 887.6,357.2 884.5,355.5 887.8,356.9 886.3,353.7 888.1,356.7 888.8,353.3 888.4,356.8 891,354.4 
			888.7,357 892.2,356.6 888.8,357.4 		"/>
		<polygon fill="#3AAA35" points="899.6,338.4 896.4,337 897.8,340.2 896,337.2 895.3,340.6 895.7,337.1 893.1,339.5 895.4,336.9 
			891.9,337.3 895.4,336.5 892.3,334.8 895.5,336.2 894.1,333 895.8,336 896.5,332.6 896.2,336.1 898.8,333.7 896.5,336.4 900,336 
			896.5,336.7 		"/>
		<polygon fill="#3AAA35" points="763.1,429.5 759.8,428.1 761.3,431.3 759.5,428.2 758.8,431.7 759.2,428.2 756.6,430.5 
			758.9,427.9 755.4,428.3 758.8,427.6 755.8,425.8 759,427.2 757.5,424 759.3,427.1 760,423.6 759.7,427.1 762.3,424.8 
			759.9,427.4 763.4,427 760,427.7 		"/>
		<polygon fill="#3AAA35" points="849.2,436.4 846,435 847.5,438.2 845.7,435.2 845,438.6 845.3,435.1 842.7,437.5 845.1,434.9 
			841.6,435.3 845,434.5 841.9,432.8 845.2,434.2 843.7,431 845.5,434 846.2,430.6 845.8,434.1 848.4,431.7 846.1,434.3 
			849.6,433.9 846.2,434.7 		"/>
		<path fill="#DEDC00" d="M793.6,327c-0.3,0.6-1.1,0.9-1.7,0.5c-0.6-0.3-0.9-1.1-0.5-1.7s1.1-0.9,1.7-0.5
			C793.7,325.6,793.9,326.4,793.6,327L793.6,327z"/>
		<path fill="#DEDC00" d="M774.9,323.9c-0.3,0.6-1.1,0.8-1.7,0.5s-0.8-1.1-0.5-1.7c0.3-0.6,1.1-0.8,1.7-0.5
			C775,322.5,775.2,323.3,774.9,323.9C774.9,323.9,774.9,323.9,774.9,323.9z"/>
		<path fill="#DEDC00" d="M785.6,317.4c-0.2,0.4-0.7,0.5-1.1,0.3c-0.4-0.2-0.5-0.7-0.3-1.1c0.2-0.4,0.7-0.5,1.1-0.3
			C785.7,316.5,785.8,317,785.6,317.4z"/>
		<path fill="#DEDC00" d="M775.2,313.3c-0.3,0.6-1,0.8-1.6,0.5s-0.8-1-0.5-1.6s1-0.8,1.6-0.5c0,0,0,0,0,0
			C775.3,312,775.5,312.8,775.2,313.3z"/>
		<path fill="#DEDC00" d="M784.5,325c-0.2,0.4-0.7,0.5-1.1,0.3c-0.4-0.2-0.5-0.7-0.3-1.1c0.2-0.4,0.7-0.5,1.1-0.3
			C784.5,324.1,784.6,324.6,784.5,325z"/>
		<path fill="#DEDC00" d="M796.1,393.9c-0.2,0.4-0.7,0.5-1.1,0.2c-0.3-0.2-0.4-0.6-0.3-0.9c0.2-0.4,0.6-0.6,1-0.4
			c0.4,0.2,0.6,0.6,0.4,1C796.1,393.7,796.1,393.8,796.1,393.9z"/>
		<path fill="#DEDC00" d="M762.9,397.3c-0.2,0.4-0.7,0.5-1.1,0.3c-0.4-0.2-0.5-0.7-0.3-1.1c0.2-0.4,0.7-0.5,1.1-0.3
			C763,396.4,763.1,396.9,762.9,397.3C762.9,397.3,762.9,397.3,762.9,397.3z"/>
		<path fill="#DEDC00" d="M774.8,350.7c-0.2,0.4-0.7,0.5-1.1,0.3c-0.4-0.2-0.5-0.7-0.3-1.1c0.2-0.4,0.7-0.5,1.1-0.3
			C774.8,349.9,775,350.3,774.8,350.7C774.8,350.7,774.8,350.7,774.8,350.7z"/>
		<path fill="#DEDC00" d="M781.5,342.8c-0.2,0.4-0.7,0.5-1.1,0.3c0,0,0,0,0,0c-0.4-0.2-0.6-0.6-0.4-1s0.6-0.6,1-0.4
			c0.1,0,0.1,0,0.2,0.1C781.5,342,781.7,342.4,781.5,342.8C781.5,342.8,781.5,342.8,781.5,342.8z"/>
		<path fill="#DEDC00" d="M831.2,319.5c-0.2,0.4-0.7,0.5-1,0.3c0,0,0,0,0,0c-0.4-0.2-0.5-0.7-0.3-1.1c0.2-0.4,0.7-0.5,1.1-0.3
			C831.2,318.7,831.4,319.1,831.2,319.5z"/>
		<path fill="#DEDC00" d="M762.8,404.3c-0.2,0.4-0.7,0.5-1.1,0.3c-0.4-0.2-0.5-0.7-0.3-1c0.2-0.4,0.7-0.5,1.1-0.3
			C762.8,403.5,763,404,762.8,404.3z"/>
		<path fill="#DEDC00" d="M756.4,374.7c-0.2,0.4-0.7,0.5-1.1,0.3c-0.4-0.2-0.5-0.7-0.3-1.1c0.2-0.4,0.7-0.5,1.1-0.3
			C756.5,373.9,756.6,374.4,756.4,374.7z"/>
		<path fill="#DEDC00" d="M762.9,348.9c-0.2,0.4-0.7,0.5-1.1,0.3c-0.4-0.2-0.5-0.7-0.3-1.1c0.2-0.4,0.7-0.5,1.1-0.3
			C763,348.1,763.1,348.5,762.9,348.9z"/>
		<path fill="#DEDC00" d="M788.8,396.1c-0.2,0.4-0.6,0.6-1,0.4c-0.4-0.2-0.6-0.6-0.4-1c0-0.1,0-0.1,0.1-0.2c0.2-0.4,0.6-0.6,1-0.4
			c0.4,0.2,0.6,0.6,0.4,1C788.9,396,788.9,396,788.8,396.1z"/>
		<path fill="#DEDC00" d="M759.7,409.8c-0.2,0.4-0.7,0.5-1.1,0.3c-0.4-0.2-0.5-0.7-0.3-1.1c0.2-0.4,0.7-0.5,1.1-0.3
			C759.8,409,759.9,409.5,759.7,409.8z"/>
		<path fill="#DEDC00" d="M801.5,424.9c-0.2,0.4-0.7,0.5-1.1,0.3c-0.4-0.2-0.5-0.7-0.3-1.1c0.2-0.4,0.7-0.5,1.1-0.3
			C801.5,424,801.7,424.5,801.5,424.9z"/>
		<path fill="#DEDC00" d="M833.4,423.1c-0.2,0.4-0.7,0.5-1,0.3c0,0,0,0,0,0c-0.4-0.2-0.5-0.7-0.3-1.1c0.2-0.4,0.7-0.5,1.1-0.3
			C833.4,422.3,833.6,422.7,833.4,423.1C833.4,423.1,833.4,423.1,833.4,423.1z"/>
		<path fill="#DEDC00" d="M852.5,401.4c-0.2,0.4-0.7,0.5-1.1,0.3c-0.4-0.2-0.5-0.7-0.3-1.1c0.2-0.4,0.7-0.5,1.1-0.3
			C852.6,400.5,852.7,401,852.5,401.4z"/>
		<path fill="#DEDC00" d="M869.2,368.4c-0.2,0.4-0.7,0.5-1.1,0.3c-0.4-0.2-0.5-0.7-0.3-1.1c0.2-0.4,0.7-0.5,1.1-0.3
			C869.2,367.6,869.4,368,869.2,368.4C869.2,368.4,869.2,368.4,869.2,368.4z"/>
		<path fill="#DEDC00" d="M864.7,382.6c-0.2,0.4-0.7,0.5-1.1,0.3c-0.4-0.2-0.5-0.7-0.3-1.1c0,0,0,0,0,0c0.2-0.4,0.7-0.5,1.1-0.3
			S864.9,382.3,864.7,382.6L864.7,382.6z"/>
		<path fill="#DEDC00" d="M857.9,376.6c-0.2,0.4-0.7,0.5-1.1,0.3s-0.5-0.7-0.3-1.1l0,0c0.2-0.4,0.7-0.5,1.1-0.3c0,0,0,0,0,0
			C858,375.7,858.1,376.2,857.9,376.6z"/>
		<path fill="#DEDC00" d="M853.9,365.2c-0.2,0.4-0.7,0.5-1.1,0.3c-0.4-0.2-0.5-0.7-0.3-1c0,0,0,0,0,0c0.2-0.4,0.6-0.6,1-0.4
			c0.4,0.2,0.6,0.6,0.4,1C854,365.1,854,365.2,853.9,365.2L853.9,365.2z"/>
		<path fill="#DEDC00" d="M872.9,354.2c-0.2,0.4-0.7,0.5-1.1,0.3c-0.4-0.2-0.5-0.7-0.3-1.1c0.2-0.4,0.7-0.5,1.1-0.3
			C873,353.3,873.1,353.8,872.9,354.2C872.9,354.2,872.9,354.2,872.9,354.2z"/>
		<path fill="#DEDC00" d="M871.6,343.9c-0.2,0.4-0.7,0.5-1.1,0.3c-0.4-0.2-0.5-0.7-0.3-1c0.2-0.4,0.7-0.5,1.1-0.3
			C871.6,343,871.8,343.5,871.6,343.9z"/>
		<path fill="#DEDC00" d="M876.6,335.8c-0.2,0.4-0.7,0.5-1.1,0.3c-0.4-0.2-0.5-0.7-0.3-1.1s0.7-0.5,1.1-0.3c0,0,0,0,0,0
			C876.6,334.9,876.8,335.4,876.6,335.8z"/>
		<path fill="#DEDC00" d="M864.5,324.8c-0.2,0.4-0.7,0.5-1.1,0.3c-0.4-0.2-0.5-0.7-0.2-1.1c0.2-0.3,0.6-0.4,0.9-0.3
			C864.6,324,864.8,324.4,864.5,324.8C864.6,324.8,864.6,324.8,864.5,324.8z"/>
		<path fill="#DEDC00" d="M857.3,332.4c-0.2,0.4-0.7,0.5-1.1,0.3c-0.4-0.2-0.5-0.7-0.2-1.1c0.2-0.3,0.6-0.5,1-0.3
			C857.4,331.6,857.5,332,857.3,332.4C857.3,332.4,857.3,332.4,857.3,332.4z"/>
		<path fill="#DEDC00" d="M833.7,308.9c-0.2,0.4-0.6,0.6-1,0.4c-0.4-0.2-0.6-0.6-0.4-1c0,0,0-0.1,0.1-0.1c0.2-0.4,0.7-0.5,1.1-0.2
			C833.7,308.2,833.9,308.6,833.7,308.9z"/>
		<path fill="#DEDC00" d="M804.5,317.4c-0.2,0.4-0.6,0.6-1,0.4c-0.4-0.2-0.6-0.6-0.4-1c0-0.1,0-0.1,0.1-0.2c0.2-0.4,0.7-0.5,1.1-0.3
			c0,0,0,0,0,0C804.5,316.5,804.7,317,804.5,317.4C804.5,317.4,804.5,317.4,804.5,317.4z"/>
		<path fill="#DEDC00" d="M797.5,308c-0.3,0.6-1.1,0.9-1.7,0.5s-0.9-1.1-0.5-1.7c0.3-0.6,1.1-0.9,1.7-0.5c0,0,0,0,0,0
			C797.6,306.6,797.9,307.4,797.5,308z"/>
		<path fill="#DEDC00" d="M831.2,303.7c-0.3,0.6-1.1,0.9-1.7,0.5c-0.6-0.3-0.9-1.1-0.5-1.7c0.3-0.6,1.1-0.9,1.7-0.5
			C831.3,302.3,831.5,303,831.2,303.7C831.2,303.7,831.2,303.7,831.2,303.7z"/>
		<path fill="#DEDC00" d="M856.8,326.1c-0.3,0.6-1.1,0.9-1.7,0.5s-0.9-1.1-0.5-1.7c0.3-0.6,1.1-0.9,1.7-0.5c0,0,0,0,0,0
			C856.9,324.7,857.1,325.5,856.8,326.1z"/>
		<path fill="#DEDC00" d="M878,341.2c-0.3,0.6-1.1,0.9-1.7,0.5c-0.6-0.3-0.9-1.1-0.5-1.7c0.3-0.6,1.1-0.9,1.7-0.5
			C878.1,339.8,878.3,340.6,878,341.2C878,341.2,878,341.2,878,341.2z"/>
		<path fill="#DEDC00" d="M865.6,356c-0.3,0.6-1.1,0.9-1.7,0.5s-0.9-1.1-0.5-1.7c0.3-0.6,1.1-0.9,1.7-0.5c0,0,0,0,0,0
			C865.7,354.6,865.9,355.4,865.6,356z"/>
		<path fill="#DEDC00" d="M868.9,386.3c-0.3,0.6-1.1,0.9-1.7,0.5c-0.6-0.3-0.9-1.1-0.5-1.7c0.3-0.6,1.1-0.9,1.7-0.5
			C869,384.9,869.2,385.6,868.9,386.3z"/>
		<path fill="#DEDC00" d="M858.9,366.7c-0.3,0.6-1.1,0.9-1.7,0.5s-0.9-1.1-0.5-1.7c0.3-0.6,1.1-0.9,1.7-0.5c0,0,0,0,0,0
			C859,365.3,859.2,366.1,858.9,366.7z"/>
		<path fill="#DEDC00" d="M853.9,395.8c-0.3,0.6-1.1,0.9-1.7,0.5s-0.9-1.1-0.5-1.7c0.3-0.6,1.1-0.9,1.7-0.5c0,0,0,0,0,0
			C854,394.4,854.2,395.2,853.9,395.8z"/>
		<path fill="#DEDC00" d="M845.1,415.1c-0.3,0.6-1.1,0.9-1.7,0.5c-0.6-0.3-0.9-1.1-0.5-1.7c0.3-0.6,1.1-0.9,1.7-0.5
			C845.2,413.7,845.5,414.5,845.1,415.1C845.1,415.1,845.1,415.1,845.1,415.1z"/>
		<path fill="#DEDC00" d="M834.1,430.6c-0.3,0.6-1.1,0.9-1.7,0.5s-0.9-1.1-0.5-1.7c0.3-0.6,1.1-0.9,1.7-0.5c0,0,0,0,0,0
			C834.2,429.2,834.4,430,834.1,430.6z"/>
		<path fill="#DEDC00" d="M800.1,429.5c-0.3,0.6-1.1,0.9-1.7,0.5s-0.9-1.1-0.5-1.7c0.3-0.6,1.1-0.9,1.7-0.5c0,0,0,0,0,0
			C800.2,428.1,800.4,428.9,800.1,429.5z"/>
		<path fill="#DEDC00" d="M791.6,401.1c-0.3,0.6-1.1,0.9-1.7,0.5c-0.6-0.3-0.9-1.1-0.5-1.7c0.3-0.6,1.1-0.9,1.7-0.5
			C791.6,399.7,791.9,400.5,791.6,401.1C791.6,401.1,791.6,401.1,791.6,401.1z"/>
		<path fill="#DEDC00" d="M753.3,417.9c-0.3,0.6-1.1,0.9-1.7,0.5c-0.6-0.3-0.9-1.1-0.5-1.7c0.3-0.6,1.1-0.9,1.7-0.5
			C753.4,416.5,753.7,417.3,753.3,417.9C753.4,417.9,753.4,417.9,753.3,417.9z"/>
		<path fill="#DEDC00" d="M754.7,382.4c-0.3,0.6-1.1,0.9-1.7,0.5c-0.6-0.3-0.9-1.1-0.5-1.7c0.3-0.6,1.1-0.9,1.7-0.5
			C754.8,381,755.1,381.8,754.7,382.4C754.7,382.4,754.7,382.4,754.7,382.4z"/>
		<path fill="#DEDC00" d="M768,351.9c-0.3,0.6-1.1,0.9-1.7,0.5c-0.6-0.3-0.9-1.1-0.5-1.7c0.3-0.6,1.1-0.9,1.7-0.5
			C768.1,350.5,768.3,351.3,768,351.9C768,351.9,768,351.9,768,351.9z"/>
		<path fill="#D7007E" d="M1006.3,262.6c-0.2-3.8,0.6-7.9,0.9-11.6c0.4-4.3,0.7-8.5,1.3-12.8c1.1-7.9,2.6-15.8,4.7-23.5
			c2-7.4,4.4-14.8,6.8-22.1c2.6-7.8,5.6-15.4,8.1-23.1c1.4-4.4-6.2-6.3-7-1.8c-0.3,1.6-0.2,3.3-0.3,4.9c-0.2,2,2.7,2.9,4,1.5
			c0.9-1,1.6-2,2.4-3.1l-5.7-4.2c-5.9,15-10.3,30.7-13.1,46.6c-1.4,7.7-2.4,15.6-3,23.4c-0.3,4.1-0.4,8.1-0.4,12.2
			C1005,253.7,1006.1,258.1,1006.3,262.6L1006.3,262.6L1006.3,262.6z"/>
		<path fill="#EE748A" d="M1005.6,278.3c0,3.8,0.9,7.8,1.4,11.6c0.5,4.3,1.1,8.5,1.8,12.7c1.4,7.9,3.3,15.6,5.8,23.2
			c2.3,7.3,5,14.6,7.8,21.8c2.9,7.6,6.3,15.1,9.1,22.7c1.6,4.4-5.9,6.6-6.9,2.1c-0.3-1.6-0.3-3.2-0.5-4.9c-0.3-2,2.6-3.1,3.9-1.7
			c0.9,0.9,1.7,2,2.5,3l-5.5,4.5c-6.6-14.8-11.6-30.2-15.1-46c-1.7-7.7-3.1-15.4-4-23.3c-0.5-4-0.8-8.1-0.9-12.2
			C1004.8,287.3,1005.6,282.8,1005.6,278.3L1005.6,278.3z"/>
		<path fill="#EE748A" d="M1011.2,266c10.2-8.4,21.7-17.3,35.8-22.3c7-2.5,14.1-4.4,21.4-5.7c3.7-0.7,7.5-1.2,11.3-1.5
			c4.3-0.4,8.8-0.3,13.1-0.8c-0.3-1.6-0.7-3.2-1-4.8c-1.7,0.2-3.4,0.7-4.9,1.4c-2.3,1.3-0.8,3.7,2,3.3c1-0.2,2-0.2,3,0
			c4.7,0.8,5.7-4.5,0.8-4.8c-4.2-0.3-8.9,0.4-13.1,0.9s-8.2,1.1-12.2,2c-7.5,1.6-14.9,4-21.8,7.4c-13.7,6.8-25.2,14.9-34.5,24.9
			C1011,266,1011.1,266.1,1011.2,266L1011.2,266z"/>
		<path fill="#C273AD" d="M1044.6,272.9c12.3,5,25.6,10.9,36.7,20.9c5.5,4.9,10.6,10.3,15.2,16.1c2.4,3,4.6,6,6.7,9.2
			c2.4,3.6,4.4,7.6,6.9,11.2l3.7-3.1c-1-1.4-2.2-2.6-3.6-3.7c-2.2-1.5-3.7,1-2,3.4c0.6,0.8,1.1,1.7,1.5,2.6c1.6,4.5,6.7,2.9,4.6-1.6
			c-1.8-3.9-4.6-7.6-7-11.1s-4.9-6.7-7.5-9.8c-5-5.9-10.6-11.1-16.9-15.7c-12.5-8.8-25.1-15-38.3-18.5
			C1044.5,272.8,1044.5,272.9,1044.6,272.9L1044.6,272.9z"/>
		<path fill="#8A2753" d="M999,288.2c-3.4,12.8-6.7,27-5.3,41.9c0.7,7.4,1.9,14.7,3.7,21.8c0.9,3.7,2,7.3,3.3,10.9
			c1.4,4.1,3.4,8.1,4.8,12.2l-4.7,1.1c-0.5-1.6-0.8-3.3-0.8-5.1c0.2-2.7,3-2.3,3.8,0.5c0.3,1,0.7,1.9,1.2,2.8c2.7,3.9-1.7,7.1-4,2.7
			c-2-3.7-3.3-8.2-4.7-12.3s-2.4-7.9-3.3-11.9c-1.7-7.5-2.5-15.2-2.4-22.9C991.2,314.6,993.8,300.8,999,288.2
			C998.9,288.1,999,288.2,999,288.2L999,288.2z"/>
		<path fill="#8A2753" d="M1031.9,243c5.8-4.2,11.4-8.6,17.6-12.5c6.4-3.9,13.1-7.2,20.1-9.8c7-2.7,14.3-4.8,21.8-6.2
			c8.1-1.3,16.3-1.9,24.5-1.8c4.8,0,3.6-6.4-1.5-6c-1.4,0.1-2.7,0.1-4.1,0.3c-2.9,0.3-3.2,3.5-0.4,4.4c1.3,0.4,2.6,0.7,4,1.1
			c0.5-1.9,1.1-3.9,1.6-5.8c-16.6-0.7-33.5,3.3-47.5,9.6c-7,3.2-13.7,7.1-19.9,11.7c-6.2,4.4-12,9.2-16.4,14.8
			C1031.4,242.9,1031.7,243.2,1031.9,243L1031.9,243z"/>
		<path fill="#EE748A" d="M1010.2,272.8c7.8,2.8,15.7,5.1,23.5,8.4c15.6,6.9,29.8,16.7,41.8,28.8c6.4,6.6,11.7,14,16.8,21.7
			c3,4.5,8.7-0.8,5.2-5.2c-1-1.2-1.8-2.5-2.8-3.6c-2.1-2.5-5.5-0.7-4.8,2.4c0.4,1.5,0.9,2.9,1.3,4.4l6.9-2.2
			c-9.5-16-23.9-29.2-38.8-38.3c-7.6-4.5-15.7-8.2-24-11.1c-8.3-3-16.7-5.3-25-5.9C1010,272.2,1009.9,272.7,1010.2,272.8
			L1010.2,272.8z"/>
		<path fill="#A3195B" d="M1011.8,269.5c7.3-1.1,14.4-2.5,21.9-3.2c7.8-0.6,15.6-0.5,23.3,0.3c8,0.7,15.9,2.2,23.7,4.3
			c8.4,2.5,16.7,5.6,24.6,9.3c4.7,2.1,5.9-4,0.8-5.9c-1.4-0.5-2.7-1.1-4.1-1.6c-3-1-4.5,1.7-2.1,3.7c1.1,1,2.3,1.8,3.5,2.7l3.8-4.4
			c-15.7-7.6-32.8-11.9-50.2-12.7c-8-0.3-16,0.2-23.9,1.4c-7.7,1.1-15.2,2.7-21.6,5.7C1011.3,269.2,1011.5,269.6,1011.8,269.5
			L1011.8,269.5z"/>
		<path fill="#AA4895" d="M1008.1,275.4c4.8,5.6,9.7,11,14.2,17c4.6,6.3,8.6,13,12,20c3.6,7.2,6.5,14.7,8.7,22.4
			c2.3,8.5,4,17.1,5,25.9c0.7,5.1,6.5,2.9,5.5-2.4c-0.3-1.4-0.5-2.9-0.8-4.3c-0.7-3-3.8-2.9-4.3,0.1c-0.2,1.4-0.3,2.9-0.5,4.4
			l5.7,0.9c-1.7-17.3-6.9-34.2-15.4-49.4c-4-6.9-8.5-13.5-13.7-19.6c-5-6-10.3-11.5-16.2-15.5C1008.2,274.8,1008,275.1,1008.1,275.4
			L1008.1,275.4z"/>
		<path fill="#EE748A" d="M1037.1,184.5c0.9-1.3,1.9-2.4,3-3.6c1.1-1.3,2.2-2.6,3.4-3.8c2.2-2.3,4.6-4.5,7.1-6.5
			c2.4-1.9,4.9-3.8,7.4-5.5c2.7-1.9,5.4-3.6,8.1-5.6c1.5-1.1-0.5-3.5-1.8-2.2c-0.5,0.5-0.8,1-1.3,1.5s0.2,1.6,0.9,1.4
			c0.5-0.1,1-0.3,1.5-0.4c-0.3-0.9-0.6-1.8-0.9-2.7c-5.5,3.5-10.6,7.5-15.2,12c-2.3,2.2-4.5,4.5-6.5,6.9c-1,1.3-2,2.5-3,3.9
			C1038.7,181.4,1038,183,1037.1,184.5L1037.1,184.5L1037.1,184.5z"/>
		<path fill="#A3195B" d="M1017.2,230.7c5.9-11.7,13.2-22.6,21.8-32.6c4.2-4.8,8.8-9.2,13.9-13c2.5-1.8,5.1-3.5,7.7-5.1
			c3-1.8,6.2-3,9.3-4.7c4.1-2.2,0.3-7.8-3.7-6c-3,1.4-6,3.6-8.7,5.5c-2.7,1.9-5.3,4-7.9,6.1c-5,4.2-9.6,8.9-13.8,14.1
			c-8.6,10.6-14.2,22.7-19.1,35.4C1016.7,230.7,1017.1,230.9,1017.2,230.7L1017.2,230.7z"/>
		<path fill="#D7007E" d="M1025,282.7c10,8.5,18.8,18.3,26.4,29c3.7,5.2,6.8,10.8,9.3,16.6c1.2,2.8,2.2,5.8,3,8.7
			c1,3.4,1.4,6.8,2.3,10.1c1.2,4.5,7.5,2.2,6.7-2.1c-0.6-3.3-2.1-6.7-3.3-9.8s-2.6-6.1-4.1-9.1c-2.9-5.9-6.4-11.5-10.3-16.7
			c-8.3-10.9-18.7-19.2-29.8-27C1025,282.2,1024.8,282.5,1025,282.7L1025,282.7z"/>
		<path fill="#8A2753" d="M1049.1,269.7c12.7,3.2,25,7.9,36.6,14c5.6,3,10.9,6.6,15.8,10.6c2.3,2,4.6,4.2,6.7,6.4
			c2.4,2.5,4.3,5.4,6.6,8c3.1,3.5,7.7-1.4,5-4.9c-2-2.6-4.9-5-7.3-7.3s-5.1-4.3-7.7-6.3c-5.2-3.9-10.8-7.4-16.7-10.2
			c-12.3-6.1-25.3-8.8-38.8-10.8C1048.8,269.2,1048.8,269.6,1049.1,269.7L1049.1,269.7z"/>
		<path fill="#8A1E82" d="M1010.4,262.6c7.6-15.1,17.1-29.3,28.2-42.1c5.4-6.2,11.4-11.9,18-16.8c3.2-2.4,6.5-4.6,10-6.5
			c3.9-2.3,8.1-3.9,12-6c5.3-2.9,0.4-10.1-4.8-7.8c-3.9,1.8-7.7,4.7-11.3,7.1s-6.9,5.2-10.2,7.9c-6.5,5.5-12.5,11.6-17.8,18.2
			c-11.2,13.8-18.4,29.4-24.7,45.8C1009.7,262.7,1010.3,262.9,1010.4,262.6L1010.4,262.6z"/>
		<path fill="#EA4C78" d="M1019.2,306c6.8,12.6,12.1,26.1,15.7,40c1.7,6.8,2.7,13.7,3,20.7c0.1,3.4,0,6.8-0.3,10.1
			c-0.3,3.8-1.2,7.5-1.6,11.3c-0.6,5,6.8,5.2,7.7,0.4c0.6-3.6,0.4-7.7,0.5-11.3s-0.3-7.3-0.6-10.9c-0.7-7.2-2-14.3-4.1-21.2
			c-4.2-14.4-11.6-27-19.9-39.4C1019.4,305.4,1019,305.7,1019.2,306L1019.2,306z"/>
		<path fill="#EE748A" d="M1118.1,293.3c8,4.3,12.7,12,17.1,19.6c0.4,0.6,1.1,1,1.8,1c0.8,0,1.4-0.4,1.8-1.1c0.4-0.7,0.4-1.5,0-2.1
			c-4.8-7.9-11.9-14.2-20.4-17.9C1118.1,292.6,1117.7,293.1,1118.1,293.3L1118.1,293.3z"/>
		<path fill="#D7007E" d="M1064.9,210.2c7-5.7,16-7,24.7-8.2c0.7-0.1,1.4-0.6,1.6-1.3c0.3-0.7,0.2-1.5-0.3-2.1
			c-0.5-0.6-1.2-0.9-2-0.8c-9.2,1.3-17.7,5.4-24.4,11.8C1064.2,209.9,1064.6,210.4,1064.9,210.2L1064.9,210.2z"/>
		<path fill="#C273AD" d="M1035.1,179.8c0.9-2.9,3-5.8,4.6-8.4c1.9-3,4.2-5.7,6.9-7.9c2.2-1.8-0.1-5.7-2.5-3.8
			c-2.8,2.4-5.1,5.3-6.8,8.6c-2,3.7-2.5,7.2-3.2,11.3c-0.1,0.3,0.1,0.5,0.4,0.6C1034.8,180.2,1035,180,1035.1,179.8L1035.1,179.8
			L1035.1,179.8z"/>
		<path fill="#BE097F" d="M1047.6,296.6c2.4,1.8,4.5,4.7,6.4,7c2.3,2.7,4,5.8,5.3,9.1c1,2.7,5.4,1.7,4.4-1.1c-1.4-3.4-3.4-6.6-6-9.2
			c-2.9-3.1-6-4.7-9.7-6.6c-0.2-0.1-0.5-0.1-0.7,0.1S1047.3,296.5,1047.6,296.6L1047.6,296.6z"/>
		<path fill="#991A81" d="M1089.5,223.5c3.1-1.2,6.6-1.1,9.6,0.4c1.2,0.6,2.2,1.3,3.1,2.3c0.9,0.9,1.4,2.3,2.6,2.8
			c0.9,0.5,2.1,0.2,2.6-0.8c0.1-0.3,0.2-0.6,0.2-0.8c0.3-3.5-5.3-5.3-7.9-6c-3.5-1-7.3-0.4-10.4,1.6c-0.1,0.1-0.2,0.3-0.1,0.4
			C1089.2,223.5,1089.4,223.6,1089.5,223.5z"/>
		<path fill="#D7007E" d="M1047.8,257c13.8-2.9,28.1-3.3,42.1-1.2c13.6,2.2,27.5,7.5,37.3,17.4c3.6,3.6,8.4-2,4.6-5.3
			c-11.2-9.6-25.7-14.2-40.1-16.1c-14.8-2.1-29.9-1-44.3,3.3c-0.5,0.3-0.6,0.9-0.4,1.4C1047.2,256.8,1047.5,257,1047.8,257
			L1047.8,257z"/>
		<path fill="#EE748A" d="M1000.3,266.3c-10.6-8-22.5-16.4-36.8-20.7c-7.1-2.2-14.3-3.8-21.6-4.8c-3.7-0.5-7.5-0.8-11.3-1
			c-4.3-0.2-8.8,0.1-13.1-0.2c0.3-1.6,0.5-3.2,0.8-4.8c1.7,0.2,3.4,0.6,5,1.2c2.4,1.2,1,3.7-1.9,3.4c-1-0.1-2-0.1-3,0.1
			c-4.6,1-5.9-4.2-1-4.8c4.2-0.5,8.9,0,13.1,0.3s8.2,0.8,12.3,1.4c7.6,1.2,15,3.4,22.1,6.4c14,6.2,25.8,13.8,35.6,23.3
			C1000.4,266.3,1000.3,266.3,1000.3,266.3L1000.3,266.3z"/>
		<path fill="#D7007E" d="M967.2,274.6c-12.1,5.5-25.1,12-35.7,22.5c-5.3,5.2-10.1,10.8-14.5,16.8c-2.2,3.1-4.3,6.2-6.3,9.5
			c-2.3,3.7-4.1,7.8-6.4,11.4l-3.8-3c0.9-1.4,2.1-2.7,3.4-3.8c2.2-1.5,3.7,0.9,2.1,3.3c-0.6,0.8-1,1.7-1.3,2.7
			c-1.3,4.5-6.5,3.2-4.7-1.4c1.6-3.9,4.2-7.8,6.5-11.4s4.6-6.9,7.1-10.1c4.7-6.1,10.1-11.6,16.2-16.4c12.1-9.3,24.4-16.1,37.4-20.2
			C967.2,274.5,967.2,274.6,967.2,274.6L967.2,274.6z"/>
		<path fill="#8A1E82" d="M978.5,244.2c-6-3.9-11.8-8.1-18.1-11.7c-6.5-3.6-13.4-6.6-20.5-8.9c-7.2-2.4-14.5-4.2-22-5.2
			c-8.1-0.9-16.3-1.2-24.5-0.7c-4.8,0.2-3.8-6.3,1.2-6.1c1.4,0.1,2.7,0,4.1,0.1c2.9,0.2,3.4,3.4,0.7,4.4c-1.3,0.5-2.6,0.8-3.9,1.3
			l-1.9-5.7c16.6-1.4,33.7,1.8,47.9,7.5c7.1,2.9,14,6.5,20.4,10.8c6.4,4.1,12.4,8.6,17.1,14C979.1,244,978.8,244.3,978.5,244.2
			L978.5,244.2z"/>
		<path fill="#A3195B" d="M1001.6,273c-7.7,3.1-15.5,5.8-23.1,9.4c-15.3,7.6-29,17.9-40.5,30.6c-6.1,6.9-11,14.5-15.8,22.4
			c-2.8,4.6-8.7-0.4-5.4-5c0.9-1.2,1.7-2.6,2.6-3.8c2-2.6,5.5-1,4.9,2.2c-0.3,1.5-0.8,3-1.1,4.4l-7-1.9
			c8.8-16.4,22.6-30.3,37.1-39.9c7.4-4.8,15.3-8.9,23.5-12.2c8.1-3.4,16.4-6.1,24.8-7c0.3,0,0.4,0.4,0.1,0.5L1001.6,273z"/>
		<path fill="#C273AD" d="M1002.4,252.8c-1.5-8.2-2.7-16.3-4.7-24.5c-4.4-16.5-11.9-32-22.1-45.8c-5.5-7.4-12-13.7-18.9-20
			c-4-3.6,2.1-8.4,5.9-4.3c1,1.1,2.2,2.1,3.2,3.3c2.1,2.5-0.1,5.6-3.1,4.4c-1.4-0.6-2.7-1.4-4.1-2c1.1-2.1,2.2-4.3,3.2-6.4
			c14.3,11.8,25.2,28.1,31.9,44.3c3.3,8.2,5.7,16.8,7.4,25.5c1.7,8.6,2.7,17.3,2,25.6C1003,253.1,1002.5,253.1,1002.4,252.8
			L1002.4,252.8z"/>
		<path fill="#A3195B" d="M999.8,269.7c-7.3-0.8-14.5-1.9-22-2.2c-7.8-0.3-15.6,0.2-23.3,1.3c-7.9,1.1-15.8,2.9-23.4,5.3
			c-8.3,2.8-16.4,6.3-24.2,10.4c-4.6,2.3-6.1-3.8-1.1-5.9c1.3-0.6,2.7-1.3,4-1.8c2.9-1.1,4.5,1.5,2.3,3.6c-1.1,1-2.2,1.9-3.3,2.9
			l-3.9-4.2c15.3-8.3,32.2-13.4,49.5-14.9c8-0.6,16-0.5,23.9,0.3c7.8,0.7,15.3,2,21.9,4.7C1000.3,269.4,1000.1,269.8,999.8,269.7
			L999.8,269.7z"/>
		<path fill="#8A1E82" d="M1003.8,275.5c-4.5,5.8-9.2,11.4-13.4,17.6c-4.3,6.5-8,13.4-11.1,20.5c-3.2,7.3-5.8,15-7.7,22.8
			c-1.9,8.6-3.2,17.3-3.8,26.1c-0.4,5.2-6.4,3.2-5.6-2.2c0.2-1.4,0.3-2.9,0.6-4.4c0.6-3.1,3.6-3.1,4.3,0c0.3,1.4,0.4,2.9,0.7,4.4
			l-5.7,1.2c0.9-17.4,5.4-34.4,13.2-50c3.6-7.1,7.9-13.9,12.8-20.2c4.7-6.3,9.8-12,15.5-16.1C1003.7,274.9,1004,275.2,1003.8,275.5
			L1003.8,275.5z"/>
		<path fill="#8A2753" d="M992.7,231.2c-6.4-11.4-14.2-22-23.2-31.6c-4.4-4.6-9.2-8.8-14.5-12.4c-2.6-1.7-5.2-3.3-8-4.7
			c-3.1-1.6-6.4-2.7-9.5-4.2c-4.2-2-0.7-7.8,3.4-6.2c3.1,1.3,6.1,3.4,9,5.1s5.5,3.8,8.1,5.8c5.2,4,10,8.5,14.4,13.4
			c9.1,10.2,15.2,22.1,20.7,34.5C993.2,231.3,992.8,231.4,992.7,231.2L992.7,231.2z"/>
		<path fill="#D7007E" d="M980.7,262.8c-12.8-3.1-25.9-4.5-39-4.4c-6.4,0.1-12.7,0.8-18.9,2.2c-3,0.7-6,1.6-8.9,2.6
			c-3.3,1.2-6.3,2.8-9.5,4.1c-4.3,1.7-6.2-4.8-2.2-6.7c3-1.4,6.7-2.2,9.9-3.1s6.5-1.5,9.8-2.1c6.5-1.1,13-1.6,19.6-1.4
			c13.7,0.3,26.5,3.8,39.4,8.2C981.1,262.5,980.9,262.9,980.7,262.8L980.7,262.8z"/>
		<path fill="#AA4895" d="M994.1,279.6c-9.6,9-18,19.1-25.1,30.1c-3.4,5.4-6.3,11-8.6,17c-1.1,2.9-2,5.9-2.7,8.9
			c-0.8,3.4-1.1,6.8-1.8,10.2c-1,4.5-7.4,2.5-6.8-1.8c0.5-3.3,1.8-6.8,2.8-9.9s2.3-6.2,3.7-9.3c2.6-6,5.9-11.8,9.6-17.1
			c7.8-11.3,17.8-20.1,28.6-28.3C994,279,994.3,279.4,994.1,279.6L994.1,279.6z"/>
		<path fill="#D7007E" d="M962.6,271.6c-12.6,3.7-24.7,9-36,15.6c-5.5,3.2-10.6,7-15.3,11.3c-2.3,2.1-4.4,4.3-6.4,6.7
			c-2.3,2.7-4.1,5.6-6.2,8.3c-2.9,3.6-7.8-1.1-5.2-4.7c1.9-2.7,4.7-5.2,7-7.6s4.9-4.5,7.4-6.6c5.1-4.2,10.5-7.9,16.3-11
			c12-6.6,24.9-9.9,38.3-12.5C962.7,271.1,962.8,271.5,962.6,271.6L962.6,271.6z"/>
		<path fill="#C273AD" d="M1000.9,262.8c-8.3-14.8-18.4-28.5-30-40.9c-5.7-6-11.9-11.3-18.7-16c-3.3-2.2-6.7-4.3-10.3-6.1
			c-4-2.1-8.2-3.5-12.2-5.5c-5.4-2.6-0.9-10.1,4.4-8c4,1.6,7.9,4.4,11.6,6.6s7.1,4.9,10.5,7.5c6.7,5.2,13,11,18.6,17.4
			c11.8,13.3,19.7,28.6,26.7,44.7C1001.6,262.9,1001.1,263.1,1000.9,262.8L1000.9,262.8z"/>
		<path fill="#EE748A" d="M983.2,342.4c-1.6,8.9,1.6,17.4,4.8,25.5c0.3,0.7,0.1,1.5-0.4,2.1c-0.5,0.6-1.2,0.9-2,0.7
			c-0.8-0.1-1.4-0.6-1.6-1.4c-3.3-8.7-3.8-18.1-1.5-27.1C982.6,341.9,983.2,342,983.2,342.4L983.2,342.4z"/>
		<path fill="#D7007E" d="M944.1,212.8c-7.3-5.4-16.3-6.3-25-7.1c-0.7-0.1-1.4-0.5-1.7-1.2c-0.3-0.7-0.2-1.5,0.2-2.1
			c0.4-0.6,1.2-1,1.9-0.9c9.2,0.9,17.9,4.7,24.9,10.7C944.8,212.6,944.5,213.1,944.1,212.8z"/>
		<path fill="#C273AD" d="M965.2,298.5c-2.4,1.9-4.3,4.9-6.1,7.3c-2.1,2.8-3.8,6-4.9,9.4c-0.9,2.7-5.3,1.9-4.5-0.9
			c1.2-3.5,3.1-6.7,5.5-9.5c2.7-3.3,5.8-5,9.4-7c0.2-0.1,0.5,0,0.6,0.2C965.4,298.1,965.4,298.3,965.2,298.5L965.2,298.5z"/>
		<path fill="#E71D73" d="M1027.6,152.3c0,1.8-1.3,3.2-3.1,3.3c-1.8,0-3.2-1.3-3.3-3.1s1.3-3.2,3.1-3.3c0,0,0,0,0,0
			C1026.1,149.1,1027.5,150.5,1027.6,152.3C1027.6,152.2,1027.6,152.2,1027.6,152.3z"/>
		<path fill="#E71D73" d="M912.7,191.8c0,0.7-0.5,1.2-1.2,1.2c0,0,0,0,0,0c-0.7,0-1.2-0.5-1.2-1.2s0.5-1.2,1.2-1.2
			C912.1,190.7,912.7,191.2,912.7,191.8z"/>
		<path fill="#E71D73" d="M900.3,202.3c0,1-0.8,1.8-1.8,1.8c-1,0-1.8-0.8-1.8-1.8c0-1,0.8-1.8,1.7-1.8
			C899.4,200.5,900.2,201.3,900.3,202.3C900.3,202.3,900.3,202.3,900.3,202.3z"/>
		<path fill="#E71D73" d="M1001.7,154.4c0,1-0.8,1.8-1.8,1.8c-1,0-1.8-0.8-1.8-1.8c0-1,0.8-1.8,1.7-1.8
			C1000.8,152.6,1001.7,153.4,1001.7,154.4C1001.7,154.4,1001.7,154.4,1001.7,154.4z"/>
		<path fill="#E71D73" d="M991.8,176.9c0,1-0.8,1.8-1.7,1.8s-1.8-0.8-1.8-1.7c0-1,0.8-1.8,1.7-1.8c0,0,0,0,0,0
			C990.9,175.1,991.8,175.9,991.8,176.9z"/>
		<path fill="#E71D73" d="M1102,185.5c0,1-0.8,1.8-1.7,1.8c-1,0-1.8-0.8-1.8-1.7s0.8-1.8,1.7-1.8c0,0,0,0,0,0
			C1101.2,183.8,1102,184.5,1102,185.5C1102,185.5,1102,185.5,1102,185.5z"/>
		<path fill="#E71D73" d="M1114.7,232c0,1-0.8,1.8-1.8,1.8c-1,0-1.8-0.8-1.8-1.8c0-1,0.8-1.8,1.7-1.8
			C1113.9,230.2,1114.7,231,1114.7,232C1114.7,232,1114.7,232,1114.7,232z"/>
		<path fill="#E71D73" d="M1118.3,275.1c0,1-0.8,1.8-1.7,1.8c-1,0-1.8-0.8-1.8-1.7c0-1,0.8-1.8,1.7-1.8c0,0,0,0,0,0
			C1117.5,273.4,1118.3,274.1,1118.3,275.1C1118.3,275.1,1118.3,275.1,1118.3,275.1z"/>
		<path fill="#E71D73" d="M1112.3,313.4c0,1-0.8,1.8-1.7,1.8c-1,0-1.8-0.8-1.8-1.7c0-1,0.8-1.8,1.7-1.8c0,0,0,0,0,0
			C1111.4,311.6,1112.2,312.4,1112.3,313.4z"/>
		<path fill="#E71D73" d="M1070,317c0,1-0.8,1.8-1.8,1.8c-1,0-1.8-0.8-1.8-1.8c0-1,0.8-1.8,1.7-1.8C1069.2,315.2,1070,316,1070,317
			C1070,317,1070,317,1070,317z"/>
		<path fill="#E71D73" d="M1058.5,346.3c0,1-0.8,1.8-1.7,1.8c-1,0-1.8-0.8-1.8-1.7c0-1,0.8-1.8,1.7-1.8c0,0,0,0,0,0
			C1057.6,344.5,1058.5,345.3,1058.5,346.3C1058.5,346.3,1058.5,346.3,1058.5,346.3z"/>
		<path fill="#E71D73" d="M1025.3,333.7c0,1-0.8,1.8-1.7,1.8s-1.8-0.8-1.8-1.7c0-1,0.8-1.8,1.7-1.8c0,0,0,0,0,0
			C1024.5,331.9,1025.3,332.7,1025.3,333.7C1025.3,333.7,1025.3,333.7,1025.3,333.7z"/>
		<path fill="#E71D73" d="M1004.2,332.7c0,1-0.8,1.8-1.7,1.8c-1,0-1.8-0.8-1.8-1.7c0-1,0.8-1.8,1.7-1.8c0,0,0,0,0,0
			C1003.4,330.9,1004.2,331.7,1004.2,332.7z"/>
		<path fill="#E71D73" d="M976.2,357.1c0,1-0.8,1.8-1.7,1.8s-1.8-0.8-1.8-1.7c0-1,0.8-1.8,1.7-1.8c0,0,0,0,0,0
			C975.3,355.4,976.1,356.1,976.2,357.1z"/>
		<path fill="#E71D73" d="M939.4,322.7c0,1-0.8,1.8-1.7,1.8c-1,0-1.8-0.8-1.8-1.7c0-1,0.8-1.8,1.7-1.8c0,0,0,0,0,0
			C938.6,320.9,939.4,321.7,939.4,322.7z"/>
		<path fill="#E71D73" d="M907.6,272.9c0,1-0.8,1.8-1.7,1.8s-1.8-0.8-1.8-1.7c0-1,0.8-1.8,1.7-1.8c0,0,0,0,0,0
			C906.8,271.1,907.6,271.9,907.6,272.9z"/>
		<path fill="#E71D73" d="M1077.9,169.1c0,1-0.8,1.8-1.7,1.8c-1,0-1.8-0.8-1.8-1.7s0.8-1.8,1.7-1.8c0,0,0,0,0,0
			C1077,167.4,1077.8,168.2,1077.9,169.1z"/>
		<path fill="#E71D73" d="M895.8,237.2c0,1.1-0.9,2-2,2s-2-0.9-2-2s0.9-2,2-2S895.8,236.1,895.8,237.2z"/>
		<path fill="#E71D73" d="M909.5,247.4c0,0.6-0.4,1-1,1s-1-0.4-1-1s0.4-1,1-1S909.5,246.9,909.5,247.4z"/>
		<path fill="#E71D73" d="M893.9,284.4c0,0.6-0.4,1-1,1s-1-0.4-1-1s0.4-1,1-1S893.9,283.8,893.9,284.4z"/>
		<path fill="#E71D73" d="M941.6,334.1c0,0.6-0.4,1-1,1s-1-0.4-1-1s0.4-1,1-1S941.6,333.5,941.6,334.1z"/>
		<path fill="#E71D73" d="M1014.5,161.5c0,0.6-0.4,1-1,1s-1-0.4-1-1s0.4-1,1-1S1014.5,160.9,1014.5,161.5z"/>
		<path fill="#E71D73" d="M1080,160.6c0,0.6-0.4,1-1,1s-1-0.4-1-1s0.4-1,1-1S1080,160.1,1080,160.6z"/>
		<path fill="#E71D73" d="M1101.1,199.9c0,0.6-0.4,1-1,1s-1-0.4-1-1s0.4-1,1-1S1101.1,199.3,1101.1,199.9z"/>
		<path fill="#E71D73" d="M1091,177.3c0,0.6-0.4,1-1,1s-1-0.4-1-1s0.4-1,1-1S1091,176.7,1091,177.3z"/>
		<path fill="#E71D73" d="M1122.2,246c0,0.6-0.4,1-1,1s-1-0.4-1-1s0.4-1,1-1S1122.2,245.4,1122.2,246z"/>
		<path fill="#E71D73" d="M1104.1,240c0,0.6-0.4,1-1,1s-1-0.4-1-1s0.4-1,1-1S1104.1,239.4,1104.1,240z"/>
		<path fill="#E71D73" d="M1123.6,285.1c0,0.6-0.4,1-1,1s-1-0.4-1-1s0.4-1,1-1S1123.6,284.5,1123.6,285.1z"/>
		<path fill="#E71D73" d="M1125.3,315.7c0,0.6-0.4,1-1,1s-1-0.4-1-1s0.4-1,1-1S1125.3,315.2,1125.3,315.7z"/>
		<path fill="#E71D73" d="M1080.5,325.2c0,0.6-0.4,1-1,1s-1-0.4-1-1s0.4-1,1-1S1080.5,324.6,1080.5,325.2z"/>
		<path fill="#E71D73" d="M1062.2,357.9c0,0.6-0.4,1-1,1s-1-0.4-1-1s0.4-1,1-1S1062.2,357.3,1062.2,357.9z"/>
		<path fill="#E71D73" d="M1029.1,344.3c0,0.6-0.4,1-1,1s-1-0.4-1-1s0.4-1,1-1S1029.1,343.8,1029.1,344.3z"/>
		<path fill="#E71D73" d="M997.3,318.5c0,0.6-0.4,1-1,1s-1-0.4-1-1s0.4-1,1-1S997.3,317.9,997.3,318.5z"/>
		<path fill="#E71D73" d="M992.3,376.3c0,0.6-0.4,1-1,1s-1-0.4-1-1s0.4-1,1-1S992.3,375.8,992.3,376.3z"/>
		<path fill="#E71D73" d="M976.5,382.5c0,0.6-0.4,1-1,1s-1-0.4-1-1s0.4-1,1-1S976.5,382,976.5,382.5z"/>
		<path fill="#1D1D1B" d="M945.1,229.2c0,0.6-0.4,1-1,1s-1-0.4-1-1s0.4-1,1-1S945.1,228.6,945.1,229.2z"/>
		<path fill="#E71D73" d="M985.4,160.6c0,0.6-0.4,1-1,1s-1-0.4-1-1s0.4-1,1-1S985.4,160,985.4,160.6z"/>
		<polygon fill="#EE748A" points="944.5,160.3 937.3,160.8 943,165.2 936.9,161.4 938.9,168.3 936.2,161.7 933.8,168.4 935.5,161.5 
			929.6,165.5 935.1,160.9 927.9,160.7 935,160.1 929.4,155.7 935.5,159.5 933.5,152.6 936.2,159.3 938.6,152.5 936.9,159.5 
			942.8,155.4 937.3,160.1 		"/>
		<polygon fill="#EE748A" points="1135.3,223.6 1128.1,224.1 1133.8,228.5 1127.7,224.7 1129.7,231.6 1127,225 1124.6,231.8 
			1126.3,224.8 1120.3,228.8 1125.8,224.2 1118.6,224 1125.8,223.4 1120.1,219 1126.2,222.8 1124.2,215.9 1126.9,222.6 
			1129.3,215.8 1127.6,222.8 1133.6,218.7 1128.1,223.4 		"/>
		<polygon fill="#EE748A" points="1084.8,336.6 1077.7,337.1 1083.4,341.5 1077.2,337.7 1079.3,344.6 1076.6,337.9 1074.1,344.7 
			1075.8,337.7 1069.9,341.8 1075.4,337.1 1068.2,336.9 1075.4,336.4 1069.7,332 1075.8,335.8 1073.8,328.9 1076.5,335.6 
			1078.9,328.8 1077.2,335.8 1083.1,331.7 1077.6,336.4 		"/>
		<polygon fill="#EE748A" points="935.5,347 928.4,347.5 934.1,351.9 928,348.1 930,355 927.3,348.4 924.8,355.1 926.6,348.1 
			920.6,352.2 926.1,347.6 918.9,347.4 926.1,346.8 920.4,342.4 926.5,346.2 924.5,339.3 927.2,346 929.6,339.2 927.9,346.2 
			933.8,342.1 928.4,346.8 		"/>
		<polygon fill="#EE748A" points="895.3,227.2 888.2,227.8 893.9,232.1 887.8,228.4 889.8,235.3 887.1,228.6 884.6,235.4 
			886.4,228.4 880.4,232.4 885.9,227.8 878.7,227.6 885.9,227.1 880.2,222.7 886.3,226.5 884.3,219.6 887,226.2 889.4,219.4 
			887.7,226.4 893.7,222.4 888.2,227 		"/>
		<path fill="#5168AF" d="M828.2,246.7c0.9,1.3,1.8,2.6,2.8,3.7c1,1.4,2.1,2.7,3.2,4c2.1,2.4,4.3,4.7,6.7,6.9c2.3,2.1,4.7,4,7,6
			c2.5,2.1,5.2,4,7.7,6c1.4,1.2-0.7,3.5-2,2.1c-0.4-0.5-0.8-1.1-1.2-1.6s0.3-1.6,1-1.4c0.5,0.1,1,0.3,1.5,0.5l-1,2.7
			c-5.2-3.8-10.1-8.1-14.5-12.9c-2.1-2.3-4.1-4.7-6-7.3c-1-1.3-1.9-2.7-2.8-4C829.7,250,829.1,248.3,828.2,246.7L828.2,246.7
			L828.2,246.7z"/>
		<path fill="#29235C" d="M827.6,240.1c2.3-6.1,5-12.7,9.7-18.3c2.4-2.8,4.9-5.3,7.7-7.7c1.4-1.2,2.9-2.3,4.4-3.4
			c1.7-1.2,3.7-2.3,5.4-3.5c-0.5-0.6-1.1-1.2-1.6-1.8c-0.7,0.5-1.3,1.1-1.7,1.8c-0.7,1.1,0.6,1.8,1.7,0.9c0.4-0.3,0.8-0.6,1.3-0.8
			c2.2-0.8,1.3-3.3-0.8-2.2c-1.9,1-3.7,2.2-5.3,3.6c-1.6,1.2-3.2,2.5-4.7,3.8c-2.8,2.5-5.3,5.4-7.5,8.5
			C832.2,226.8,829.3,233.3,827.6,240.1C827.6,240.1,827.6,240.1,827.6,240.1L827.6,240.1z"/>
		<path fill="#29235C" d="M829.4,241.9c11.1-1.6,23.3-2.9,35.7-0.2c6.1,1.3,12.1,3.1,17.9,5.3c3,1.2,5.9,2.5,8.8,3.9
			c3.3,1.6,6.4,3.7,9.8,5.3c0.5-1.3,0.9-2.6,1.4-3.9c-1.3-0.6-2.7-1-4.2-1.1c-2.3-0.1-2.3,2.3,0,3.3c0.8,0.3,1.5,0.8,2.2,1.3
			c3,2.6,6.1-0.7,2.7-3.1c-3.1-2-6.4-3.7-9.8-5.1c-3.2-1.5-6.4-2.8-9.6-4c-6.1-2.2-12.5-3.7-19-4.3c-12.9-1.1-24.7-0.4-35.9,2.6v0.1
			L829.4,241.9z"/>
		<path fill="#83D0F5" d="M827.9,252.6c1.7,6.3,3.8,13.1,8,19.1c2.1,3,4.4,5.8,7,8.4c1.3,1.3,2.7,2.6,4.1,3.8c1.6,1.4,3.5,2.6,5,4
			l-1.8,1.6c-0.6-0.6-1.1-1.3-1.6-2c-0.6-1.2,0.7-1.7,1.8-0.8c0.3,0.4,0.8,0.6,1.2,0.9c2.1,1,1,3.4-1,2.1c-1.8-1.2-3.5-2.6-5-4.1
			c-1.5-1.4-3-2.8-4.3-4.2c-2.6-2.8-4.8-5.8-6.6-9.1C831.2,266.1,828.9,259.5,827.9,252.6C827.9,252.5,827.9,252.5,827.9,252.6
			L827.9,252.6z"/>
		<path fill="#00ADB8" d="M815.9,244.1c-5.6,2.4-11.2,4.6-16.7,7.3c-11,5.8-20.9,13.7-29,23.2c-4.2,5.2-8,10.8-11.2,16.7
			c-2,3.4-6.4-0.1-4-3.5c0.6-0.9,1.2-1.9,1.8-2.8c0.6-0.9,1.9-1.1,2.8-0.5c0.7,0.5,1,1.3,0.8,2.1c-0.2,1.1-0.5,2.2-0.8,3.3l-5.1-1.3
			c6.1-12.1,15.9-22.5,26.4-29.9c5.3-3.7,11-6.8,16.9-9.4c5.7-2.7,11.8-4.6,18-5.6C816.1,243.6,816.2,244,815.9,244.1L815.9,244.1z"
			/>
		<path fill="#00ADB8" d="M828.6,244.8c3.3,1.2,6.7,2.3,10,3.7c3.4,1.5,6.7,3.4,9.9,5.5c3.2,2.1,6.3,4.6,9.1,7.3
			c3,3,5.8,6.2,8.3,9.6c1.5,2,3.4-0.4,1.7-2.3c-0.5-0.5-0.9-1.1-1.4-1.6c-1-1.1-2.3-0.3-1.8,1.1c0.3,0.7,0.6,1.3,0.8,2l2.6-1
			c-4.9-6.8-11.2-12.6-18.4-16.9c-3.3-2-6.8-3.6-10.5-4.9c-3.4-1.4-6.9-2.2-10.5-2.6C828.4,244.6,828.4,244.8,828.6,244.8
			L828.6,244.8z"/>
		<path fill="#83D0F5" d="M817.9,211.1c0-0.8,0-1.5,0.1-2.3c0-0.8,0.1-1.7,0.2-2.5c0.2-1.6,0.4-3.1,0.8-4.6c0.3-1.5,0.8-2.9,1.2-4.4
			s1-3,1.5-4.6c0.3-0.9-1.3-1.2-1.4-0.3c0,0.3,0,0.6,0,1s0.5,0.6,0.8,0.3s0.3-0.4,0.5-0.6c-0.4-0.3-0.8-0.5-1.2-0.8
			c-1.1,3-1.9,6.1-2.3,9.2c-0.2,1.5-0.4,3.1-0.5,4.6c0,0.8,0,1.6,0,2.4S817.9,210.2,817.9,211.1L817.9,211.1z"/>
		<path fill="#5168AF" d="M821.5,223.6c-0.4-6.4,0.1-12.9,1.3-19.2c0.6-3.1,1.5-6.1,2.7-9c0.6-1.4,1.3-2.7,2-4
			c0.8-1.5,1.9-2.8,2.8-4.3c1.2-2-1.8-3.4-3-1.6c-0.9,1.4-1.7,2.9-2.4,4.5c-0.7,1.5-1.3,3-1.8,4.5c-1.1,3-1.9,6.2-2.4,9.4
			c-1.1,6.6-0.5,13.2,0.6,19.8C821.3,223.8,821.5,223.7,821.5,223.6L821.5,223.6z"/>
		<path fill="#52C3F1" d="M833.7,244c6.3,1.2,12.5,3.1,18.3,5.8c2.8,1.3,5.5,2.9,8,4.8c1.2,0.9,2.4,1.9,3.4,3
			c1.3,1.2,2.3,2.5,3.5,3.7c1.6,1.6,3.7-0.9,2.3-2.6c-1.2-1.2-2.4-2.3-3.8-3.4c-1.3-1-2.6-2-4-2.9c-2.7-1.8-5.5-3.3-8.5-4.6
			c-6.2-2.6-12.7-3.6-19.3-4.2C833.5,243.8,833.5,244,833.7,244L833.7,244z"/>
		<path fill="#00AFC8" d="M844.7,232.4c6.2-1.8,12.6-2.8,19-3c3.1-0.1,6.3,0.1,9.3,0.6c1.5,0.3,3,0.6,4.4,1.1
			c1.6,0.5,3.2,1.2,4.8,1.8c2.2,0.7,2.9-2.5,0.9-3.3c-1.6-0.6-3.2-1-4.9-1.3c-1.6-0.4-3.2-0.6-4.8-0.8c-3.2-0.4-6.4-0.5-9.7-0.3
			c-6.7,0.4-12.9,2.5-19.1,4.9C844.5,232.2,844.6,232.4,844.7,232.4L844.7,232.4z"/>
		<path fill="#52C3F1" d="M826.4,238.9c-0.4-6.2,0.1-12.5,1.2-18.6c0.6-3,1.4-5.9,2.6-8.7c0.6-1.3,1.3-2.7,2-3.9
			c0.8-1.4,1.9-2.7,2.7-4.1c1.2-1.9-1.7-3.3-2.9-1.6c-0.9,1.4-1.6,2.8-2.3,4.4c-0.7,1.4-1.3,2.9-1.8,4.4c-1.1,2.9-1.8,6-2.3,9.1
			c-1,6.4-0.4,12.7,0.5,19.1C826.2,239.1,826.4,239,826.4,238.9L826.4,238.9z"/>
		<path fill="#5C2483" d="M884.5,239.9c4.4,0.2,8.2,2.6,11.8,5c0.3,0.2,0.7,0.2,1,0.1c0.3-0.2,0.5-0.5,0.6-0.9
			c0-0.4-0.2-0.7-0.5-0.9c-3.8-2.5-8.3-3.7-12.8-3.5c-0.1,0-0.1,0.1-0.1,0.2C884.4,239.9,884.5,239.9,884.5,239.9L884.5,239.9z"/>
		<path fill="#00ADB8" d="M830,225.1c4.7-12.2,14.9-20.3,24.9-28c0.8-0.7,1.3-1.7,1.1-2.8c-0.1-1.1-0.8-2-1.9-2.4
			c-1-0.4-2.2-0.2-3,0.4c-10.5,8.3-18.1,19.5-21.9,32.3C829,225.3,829.8,225.6,830,225.1L830,225.1z"/>
		<path fill="#004E9E" d="M814.2,217.8c-0.2-1.6-0.3-3.1-0.1-4.7c0-1.7,0.4-3.5,1-5.1c0.5-1.3-1.5-2.4-2-1c-0.6,1.7-0.9,3.5-0.8,5.3
			c0.1,1.9,0.6,3.8,1.4,5.6c0,0.1,0.2,0.2,0.3,0.2C814.2,218.1,814.2,218,814.2,217.8L814.2,217.8z"/>
		<path fill="#6BB6A9" d="M857,224.3c1.4-0.8,2.8-1.4,4.3-1.8c1.6-0.6,3.4-0.9,5.1-0.9c1.4,0,1.7-2.2,0.2-2.2
			c-1.8,0-3.6,0.4-5.3,1.2c-1.8,0.8-3.4,2-4.7,3.4c-0.1,0.1-0.1,0.2,0,0.3C856.8,224.4,856.9,224.4,857,224.3L857,224.3z"/>
		<path fill="#36A9E1" d="M841,227.3c5.2-4.6,11.1-8.3,17.6-10.9c6.3-2.4,13.5-3.6,20.1-1.7c2.4,0.7,3.1-2.9,0.6-3.4
			c-7.1-1.3-14.4,0.3-21,3c-6.8,2.8-13,7-18,12.3C840,227,840.6,227.7,841,227.3L841,227.3z"/>
		<path fill="#2768B1" d="M808.4,238.8c-3.5-0.2-7-0.6-10.6-0.5c-3.7,0.1-7.3,0.5-10.9,1.2c-3.6,0.7-7.2,1.8-10.7,3.2
			c-3.7,1.6-7.2,3.5-10.6,5.7c-2,1.3-3.2-1.7-1-2.9c0.6-0.3,1.2-0.7,1.8-1c1.3-0.6,2.3,0.6,1.4,1.7c-0.4,0.5-0.9,1-1.3,1.5l-2.2-2
			c6.7-4.5,14.2-7.5,22.2-8.6c3.8-0.5,7.5-0.7,11.3-0.4c3.6,0.1,7.2,0.7,10.7,1.8C808.6,238.6,808.5,238.8,808.4,238.8L808.4,238.8z
			"/>
		<path fill="#29235C" d="M820.5,249.3c-1.8,2.4-3.8,4.6-5.5,7.1c-3.4,5.1-5.9,10.8-7.3,16.8c-0.6,3.2-1,6.5-1.1,9.8
			c-0.1,1.9-2.7,1.5-2.5-0.5c0.1-0.5,0.1-1.1,0.2-1.6c0.1-0.5,0.7-0.9,1.2-0.8c0.3,0.1,0.5,0.3,0.7,0.5c0.2,0.5,0.3,1,0.4,1.6
			l-2.5,0.7c0-6.6,1.6-13.1,4.6-19c1.5-2.8,3.2-5.5,5.1-8.1c1.8-2.5,4-4.8,6.4-6.7C820.5,249.1,820.6,249.3,820.5,249.3L820.5,249.3
			z"/>
		<path fill="#36A9E1" d="M821.7,240.1c-3.5-2.1-6.8-4.4-10.5-6.3c-7.5-3.8-15.6-6.2-24-7c-4.5-0.3-9-0.2-13.5,0.3
			c-2.6,0.3-2.4-3.6,0.4-3.6c0.8,0,1.5-0.1,2.3-0.1c0.7-0.2,1.4,0.3,1.6,1s-0.3,1.4-1,1.6c-0.7,0.3-1.4,0.6-2.1,0.9l-1.3-3.3
			c9-1.2,18.1-0.2,26.6,2.9c4.1,1.5,8,3.4,11.7,5.7c3.7,2.1,7.1,4.7,10,7.7C822,240,822,240.2,821.7,240.1L821.7,240.1z"/>
		<path fill="#6BB6A9" d="M817.5,249.7c-3.3,2.2-6.6,4.2-9.8,6.6c-3.3,2.6-6.4,5.4-9.1,8.6c-2.9,3.2-5.5,6.7-7.8,10.3
			c-2.5,4.1-4.6,8.4-6.4,12.8c-1.1,2.6-3.8,0.5-2.4-2.1c0.4-0.7,0.7-1.5,1.1-2.1c0.8-1.5,2.4-0.9,2.2,0.8c-0.1,0.8-0.3,1.6-0.4,2.4
			l-3-0.5c4.9-12.9,13.7-23.9,25.2-31.5c3.2-2.4,6.8-4.2,10.6-5.5C817.6,249.4,817.6,249.6,817.5,249.7L817.5,249.7z"/>
		<path fill="#36A9E1" d="M826.8,245.9c-0.5,3.6-1.1,7.1-1.4,10.8c-0.2,3.8-0.1,7.7,0.3,11.5c0.4,3.9,1.2,7.8,2.3,11.6
			c1.3,4.1,2.9,8.1,4.8,12c1.1,2.3-1.9,2.9-2.9,0.5c-0.3-0.7-0.6-1.3-0.8-2c-0.5-1.4,0.8-2.2,1.8-1.1c0.5,0.5,0.9,1.1,1.4,1.7
			l-2.1,1.9c-3.9-7.6-6.2-16-6.7-24.5c-0.2-3.9,0-7.8,0.5-11.7c0.3-3.7,1.2-7.3,2.6-10.7C826.6,245.7,826.8,245.8,826.8,245.9
			L826.8,245.9z"/>
		<path fill="#5C2483" d="M790,246.9c-4.4,0.6-7.9,3.4-11.2,6.1c-0.3,0.2-0.7,0.3-1,0.1c-0.4-0.1-0.6-0.4-0.7-0.8
			c-0.1-0.4,0.1-0.8,0.4-1c3.5-2.8,7.9-4.5,12.4-4.8C790.2,246.5,790.2,246.8,790,246.9L790,246.9z"/>
		<path fill="#004E9E" d="M849.4,277.3c1,1.2,2.2,2.2,3.5,3.1c1.4,1.1,2.9,1.9,4.5,2.5c1.3,0.5,0.9,2.6-0.5,2.2
			c-1.7-0.6-3.3-1.6-4.6-2.8c-1.4-1.3-2.6-2.9-3.4-4.7c-0.1-0.1,0-0.3,0.1-0.3S849.4,277.2,849.4,277.3L849.4,277.3z"/>
		<path fill="#36A9E1" d="M800.9,215.4c0.4,0.7,0.2,1.7-0.5,2.1c-0.7,0.4-1.7,0.2-2.1-0.5c-0.4-0.7-0.2-1.7,0.5-2.1
			C799.5,214.4,800.4,214.7,800.9,215.4C800.9,215.4,800.9,215.4,800.9,215.4z"/>
		<path fill="#36A9E1" d="M767.9,238.6c0.2,0.3,0.1,0.6-0.2,0.8c0,0,0,0,0,0c-0.3,0.2-0.6,0.2-0.8-0.1c-0.2-0.3-0.2-0.6,0.1-0.8
			c0,0,0.1-0.1,0.1-0.1C767.3,238.2,767.7,238.3,767.9,238.6C767.9,238.6,767.9,238.6,767.9,238.6z"/>
		<path fill="#36A9E1" d="M772.3,230.5c0.3,0.4,0.1,0.9-0.3,1.2s-0.9,0.1-1.2-0.3c-0.3-0.4-0.1-1,0.3-1.2
			C771.5,229.9,772,230.1,772.3,230.5C772.3,230.5,772.3,230.5,772.3,230.5z"/>
		<path fill="#36A9E1" d="M796.2,195c0.3,0.4,0.1,1-0.3,1.2c-0.4,0.3-1,0.1-1.2-0.3c-0.3-0.4-0.1-1,0.3-1.2c0,0,0,0,0,0
			C795.4,194.5,795.9,194.6,796.2,195z"/>
		<path fill="#36A9E1" d="M797.5,207c0.3,0.4,0.1,1-0.3,1.2c-0.4,0.3-1,0.1-1.2-0.3c-0.3-0.4-0.1-1,0.3-1.2
			C796.7,206.5,797.2,206.6,797.5,207C797.5,207,797.5,207,797.5,207z"/>
		<path fill="#36A9E1" d="M842.3,189.2c0.2,0.4,0,1-0.4,1.2c-0.4,0.2-0.9,0.1-1.1-0.3c-0.3-0.4-0.2-0.9,0.2-1.2
			c0.4-0.3,0.9-0.2,1.2,0.2C842.2,189.2,842.2,189.2,842.3,189.2z"/>
		<path fill="#36A9E1" d="M863.3,200.2c0.3,0.4,0.2,0.9-0.2,1.2c-0.4,0.3-0.9,0.2-1.2-0.2c0,0-0.1-0.1-0.1-0.1c-0.2-0.4,0-1,0.4-1.2
			C862.6,199.7,863.1,199.8,863.3,200.2z"/>
		<path fill="#36A9E1" d="M875.4,217.6c0.2,0.4,0.1,0.9-0.3,1.2c-0.4,0.3-0.9,0.2-1.2-0.2c-0.3-0.4-0.2-0.9,0.2-1.2
			c0,0,0.1-0.1,0.1-0.1C874.7,217.1,875.2,217.2,875.4,217.6C875.4,217.6,875.4,217.6,875.4,217.6z"/>
		<path fill="#36A9E1" d="M882.3,235.4c0.3,0.4,0.2,0.9-0.2,1.2c-0.4,0.3-0.9,0.2-1.2-0.2c0,0-0.1-0.1-0.1-0.1c-0.2-0.4,0-1,0.4-1.2
			C881.5,234.9,882,235,882.3,235.4z"/>
		<path fill="#36A9E1" d="M865.2,247.3c0.3,0.4,0.2,0.9-0.2,1.2c-0.4,0.3-0.9,0.2-1.2-0.2c0,0-0.1-0.1-0.1-0.1c-0.2-0.4,0-1,0.4-1.2
			C864.5,246.8,864.9,246.9,865.2,247.3z"/>
		<path fill="#36A9E1" d="M867.5,262.6c0.3,0.4,0.1,1-0.3,1.2c0,0,0,0,0,0c-0.4,0.3-1,0.1-1.2-0.3c-0.3-0.4-0.1-1,0.3-1.2
			C866.7,262.1,867.2,262.2,867.5,262.6z"/>
		<path fill="#36A9E1" d="M850.3,265.4c0.3,0.4,0.2,0.9-0.2,1.2c-0.4,0.3-0.9,0.2-1.2-0.2c0,0-0.1-0.1-0.1-0.1c-0.2-0.4,0-1,0.4-1.2
			C849.6,264.9,850,265.1,850.3,265.4z"/>
		<path fill="#36A9E1" d="M841.1,270.2c0.3,0.4,0.1,1-0.3,1.2c0,0,0,0,0,0c-0.4,0.2-1,0-1.2-0.4c-0.2-0.4-0.1-0.9,0.3-1.1
			C840.3,269.6,840.8,269.8,841.1,270.2z"/>
		<path fill="#36A9E1" d="M835.2,287.5c0.2,0.4,0,1-0.4,1.2c-0.4,0.2-0.9,0.1-1.1-0.3c-0.3-0.4-0.2-0.9,0.2-1.2
			c0.4-0.3,0.9-0.2,1.2,0.2C835.1,287.4,835.1,287.4,835.2,287.5z"/>
		<path fill="#36A9E1" d="M811,281.8c0.3,0.4,0.1,1-0.3,1.2c-0.4,0.3-1,0.1-1.2-0.3c-0.3-0.4-0.1-1,0.3-1.2c0,0,0,0,0,0
			C810.3,281.3,810.8,281.4,811,281.8z"/>
		<path fill="#36A9E1" d="M832.2,182.5c0.3,0.4,0.2,0.9-0.2,1.2c-0.4,0.3-0.9,0.2-1.2-0.2c0,0-0.1-0.1-0.1-0.1c-0.2-0.4,0-1,0.4-1.2
			C831.5,182,831.9,182.1,832.2,182.5z"/>
		<path fill="#36A9E1" d="M764.7,264.3c0.3,0.5,0.1,1.1-0.3,1.4c-0.5,0.3-1.1,0.1-1.4-0.3c-0.3-0.5-0.1-1.1,0.3-1.4c0,0,0,0,0,0
			C763.8,263.7,764.4,263.8,764.7,264.3z"/>
		<path fill="#36A9E1" d="M779.8,257.2c0.1,0.2,0.1,0.5-0.2,0.7c-0.2,0.1-0.5,0.1-0.7-0.2l0,0c-0.1-0.2-0.1-0.5,0.2-0.7
			C779.4,256.9,779.7,257,779.8,257.2L779.8,257.2z"/>
		<path fill="#36A9E1" d="M782.3,276.8c0.1,0.2,0.1,0.5-0.2,0.7s-0.5,0.1-0.7-0.2c-0.1-0.2-0.1-0.5,0.2-0.7
			C781.8,276.4,782.1,276.5,782.3,276.8z"/>
		<path fill="#36A9E1" d="M814.8,286.1c0.1,0.2,0.1,0.5-0.2,0.7c-0.2,0.1-0.5,0.1-0.7-0.2c0,0,0,0,0,0c-0.1-0.2-0.1-0.5,0.2-0.7
			c0,0,0,0,0,0C814.3,285.8,814.6,285.9,814.8,286.1z"/>
		<path fill="#36A9E1" d="M803.3,194.8c0.1,0.2,0.1,0.5-0.2,0.7c-0.2,0.1-0.5,0.1-0.7-0.2c-0.1-0.2-0.1-0.5,0.2-0.7c0,0,0,0,0,0
			C802.9,194.5,803.2,194.6,803.3,194.8z"/>
		<path fill="#36A9E1" d="M831,178.4c0.1,0.2,0.1,0.5-0.2,0.7c-0.2,0.1-0.5,0.1-0.7-0.2c-0.1-0.2-0.1-0.5,0.2-0.7
			C830.6,178,830.9,178.1,831,178.4z"/>
		<path fill="#36A9E1" d="M849.6,189.9c0.1,0.2,0.1,0.5-0.2,0.7c-0.2,0.1-0.5,0.1-0.7-0.2c-0.1-0.2-0.1-0.5,0.2-0.7
			C849.2,189.6,849.5,189.6,849.6,189.9z"/>
		<path fill="#36A9E1" d="M839.8,182.7c0.1,0.2,0.1,0.5-0.2,0.7c-0.2,0.1-0.5,0.1-0.7-0.2s-0.1-0.5,0.2-0.7
			C839.3,182.4,839.6,182.5,839.8,182.7L839.8,182.7z"/>
		<path fill="#36A9E1" d="M869.9,204.3c0.1,0.2,0.1,0.5-0.2,0.7c-0.2,0.1-0.5,0.1-0.7-0.2l0,0c-0.1-0.2-0.1-0.5,0.2-0.7
			C869.5,204,869.8,204,869.9,204.3C869.9,204.3,869.9,204.3,869.9,204.3z"/>
		<path fill="#36A9E1" d="M860.7,206.2c0.1,0.2,0.1,0.5-0.2,0.7c-0.2,0.1-0.5,0.1-0.7-0.2c-0.1-0.2-0.1-0.5,0.2-0.7c0,0,0,0,0,0
			C860.3,205.9,860.6,206,860.7,206.2z"/>
		<path fill="#36A9E1" d="M880.1,220.6c0.1,0.2,0.1,0.5-0.2,0.7c-0.2,0.1-0.5,0.1-0.7-0.2c-0.1-0.2-0.1-0.5,0.2-0.7
			C879.7,220.3,880,220.3,880.1,220.6C880.1,220.6,880.1,220.6,880.1,220.6z"/>
		<path fill="#36A9E1" d="M888.4,233.2c0.1,0.2,0.1,0.5-0.2,0.7c-0.2,0.1-0.5,0.1-0.7-0.2l0,0c-0.1-0.2-0.1-0.5,0.2-0.7c0,0,0,0,0,0
			C888,232.9,888.3,233,888.4,233.2z"/>
		<path fill="#36A9E1" d="M871.7,248.2c0.1,0.2,0.1,0.5-0.2,0.7c-0.2,0.1-0.5,0.1-0.7-0.2l0,0c-0.1-0.2-0.1-0.5,0.2-0.7
			C871.2,247.9,871.5,248,871.7,248.2L871.7,248.2z"/>
		<path fill="#36A9E1" d="M871.9,266.6c0.1,0.3,0,0.5-0.3,0.7c-0.2,0.1-0.4,0-0.6-0.1c-0.1-0.2-0.1-0.5,0.2-0.7
			C871.5,266.3,871.8,266.4,871.9,266.6C871.9,266.6,871.9,266.6,871.9,266.6z"/>
		<path fill="#36A9E1" d="M854.5,269c0.1,0.2,0.1,0.5-0.1,0.7c0,0,0,0,0,0c-0.2,0.1-0.5,0.1-0.7-0.2c-0.1-0.2-0.1-0.5,0.2-0.7
			C854.1,268.7,854.4,268.8,854.5,269C854.5,269,854.5,269,854.5,269z"/>
		<path fill="#36A9E1" d="M834.6,265.8c0.1,0.3,0,0.5-0.3,0.7c-0.2,0.1-0.4,0-0.6-0.1c-0.1-0.3,0-0.5,0.3-0.7
			C834.3,265.6,834.5,265.7,834.6,265.8z"/>
		<path fill="#36A9E1" d="M846.7,291.7c0.1,0.2,0.1,0.5-0.2,0.7c-0.2,0.1-0.5,0.1-0.7-0.2c-0.1-0.2-0.1-0.5,0.2-0.7
			C846.3,291.4,846.6,291.4,846.7,291.7z"/>
		<path fill="#36A9E1" d="M841.5,298.2c0.1,0.2,0.1,0.5-0.2,0.7c-0.2,0.1-0.5,0.1-0.7-0.2c0,0,0,0,0,0c-0.1-0.2-0.1-0.5,0.2-0.7
			C841.1,297.9,841.4,297.9,841.5,298.2L841.5,298.2L841.5,298.2z"/>
		<path fill="#36A9E1" d="M790.5,240.7c0.1,0.2,0.1,0.5-0.2,0.7c-0.2,0.1-0.5,0.1-0.7-0.2c0,0,0,0,0,0c-0.1-0.2-0.1-0.5,0.2-0.7
			C790,240.4,790.3,240.4,790.5,240.7L790.5,240.7z"/>
		<path fill="#36A9E1" d="M790.8,201.6c0.1,0.2,0.1,0.5-0.2,0.7c-0.2,0.1-0.5,0.1-0.7-0.2l0,0c-0.1-0.2-0.1-0.5,0.2-0.7
			C790.3,201.3,790.6,201.4,790.8,201.6L790.8,201.6z"/>
		<polygon fill="#36A9E1" points="791.6,211.1 788.7,213 792.2,213.5 788.7,213.4 791.2,215.8 788.4,213.7 789.1,217.1 788.1,213.8 
			786.5,216.9 787.7,213.6 784.6,215.3 787.5,213.3 784,212.8 787.6,212.9 785,210.5 787.8,212.7 787.2,209.2 788.2,212.6 
			789.7,209.4 788.5,212.7 		"/>
		<polygon fill="#36A9E1" points="811.5,203.2 808.6,205.2 812.1,205.7 808.6,205.6 811.1,208 808.3,205.9 809,209.3 808,205.9 
			806.5,209.1 807.7,205.8 804.5,207.5 807.5,205.5 804,205 807.5,205.1 804.9,202.7 807.7,204.9 807.1,201.4 808.1,204.8 
			809.6,201.6 808.4,204.9 		"/>
		<polygon fill="#36A9E1" points="882.9,250.6 880,252.5 883.5,253 880,252.9 882.5,255.3 879.7,253.2 880.3,256.6 879.4,253.3 
			877.8,256.5 879,253.1 875.9,254.8 878.8,252.8 875.3,252.3 878.9,252.4 876.3,250 879.1,252.2 878.5,248.7 879.5,252.1 
			881,248.9 879.8,252.2 		"/>
		<polygon fill="#36A9E1" points="796,295.5 793.1,297.5 796.6,298 793,297.9 795.6,300.3 792.8,298.1 793.4,301.6 792.5,298.2 
			790.9,301.4 792.1,298.1 789,299.8 791.9,297.8 788.4,297.3 792,297.4 789.4,295 792.2,297.1 791.6,293.7 792.5,297.1 
			794.1,293.9 792.9,297.2 		"/>
		<polygon fill="#36A9E1" points="867.7,187.8 864.8,189.8 868.3,190.3 864.7,190.2 867.3,192.6 864.5,190.4 865.1,193.9 
			864.2,190.5 862.6,193.7 863.8,190.4 860.7,192.1 863.6,190.1 860.1,189.6 863.7,189.7 861.1,187.3 863.9,189.4 863.3,186 
			864.3,189.4 865.8,186.2 864.6,189.5 		"/>
		<path fill="#E48868" d="M1049.1,511.8l3,5.6c0,0-6.5,6.9-6.7,9.3h5.2c0,0-3.6,12.7-2.8,12.9l4.3,1.5l0.8-5.3c0,0,2.3,1.5,3,1.1
			c0.6-0.4,1.2-0.8,1.7-1.4c1.5,0.2,2.9,0.2,4.4,0c2.2-0.4,3.9,0.3,5.6-0.9s0.8-13.3,0.5-15s-7.4-15.3-7.4-15.3L1049.1,511.8z"/>
		<path fill="#E48868" d="M928.9,519.8c0,0,1.4,11.4,2.3,15s1.5,5.2,3.9,3.5s1.6,4.7,5.2,2.7s6.3-15.2,6.3-15.2l-10.2-6.6
			L928.9,519.8z"/>
		<path fill="#60421E" d="M1018.1,368.8c0,0,4.4-31.9,0.6-47.9s-18.9-21.8-28.2-20.8s-26.8,5.2-27,29.6s4,41.8,4,41.8L1018.1,368.8z
			"/>
		<path fill="#29113F" d="M1028.8,373.5c5.1,3.5,7.6,11.8,10,19.7s12.3,28.3,14.3,36.2c2.9,11.5-1.4,9.8,2.5,19.2
			c5.5,13.3,5.5,13.3,2,32.6c-1.4,7.5,4.3,25.3,4.3,25.3l-12.7,5.2l-27.5-105.9L1028.8,373.5z"/>
		<path fill="#29113F" d="M957.4,374.8c-5.8,3.7-11.8,12.5-12.7,15.8s-8.2,74.9-7.8,84.4s-7.4,7.4-4.1,21s-7.8,12.8-2.8,21.8
			l0.3,3.2l17.1,3.6l11.7-27.5l2.9-76.4L957.4,374.8z"/>
		<path fill="#CFB199" d="M1001,407.9c-0.2,0.5,0.1,1.1,0.6,1.3c0,0,0,0,0,0c0.5,0.1,1-0.1,1.2-0.5c0-0.1,0.1-0.1,0.1-0.2"/>
		<path fill="#CFB199" d="M1002.2,367.2c-0.2-0.5-0.7-0.7-1.2-0.5c0,0-0.1,0-0.1,0c-0.5,0.2-0.8,0.8-0.5,1.4"/>
		<path fill="#E48868" d="M996.5,303.5c15.6,2,18.1,20.1,14.4,34.4c-2.8,10.6-9.2,21.4-19.2,21.1s-16.1-14-17.8-22.4
			C970.9,323.1,971.5,300.2,996.5,303.5z"/>
		<path fill="#E48868" d="M1008,343.8c-5.4-1.5,1-9.9,1-9.9s0.6-6,5.4-4"/>
		<path fill="#E48868" d="M976.9,333.6c0,0-0.2-6-5.1-4.4s0,15.5,5.4,14.3S976.9,333.6,976.9,333.6z"/>
		<path fill="#60421E" d="M975.3,299.9c1.2-0.5,2.6-0.8,3.9-0.8c0.3-1,0.9-1.8,1.8-2.3c5.5-3,18.4-2.5,24.1,0s12.3,13,13.8,19
			c1.6,6.4-1.5,7.9-3.1,14.3c-0.5,1.8-1.1,3.9-2.7,4.8c-1.4,0.8-3.1,0.5-4.7,0.1c-8.7-2.2-17.2-9.3-23.4-15.8
			c-0.9-0.9-1.7-1.9-2.5-3c0,0-2.8,7.9-2.8,7.9c-2.2,6-1.3,11-6.2,15c-0.5,0.5-1.2,0.8-1.9,0.9c-1.1,0-1.8-1.2-2.3-2.3
			c-1.8-3.9-3.5-7.9-3.7-12.1S971.4,301.6,975.3,299.9z"/>
		<path fill="#BA745D" d="M991.6,359.7c2.4,0,4.7-0.6,6.8-1.8c0.4-0.2,0.4-0.7,0.2-1.1c-0.2-0.3-0.6-0.4-1-0.3
			c-4,2.2-8.9,2.1-12.7-0.4c-0.4-0.2-0.8-0.2-1.1,0.2c-0.2,0.4-0.2,0.8,0.2,1.1c0,0,0,0,0,0C986.3,359,988.9,359.8,991.6,359.7z"/>
		<path fill="#29113F" d="M1021.3,419.7l-5,38.1c13.1,22.3,35.6,121.4,39.2,147.1l-119.3-6.7c8.3-58.1,35.9-140.2,35.9-140.2
			l-7.5-38.8c-6.8-7.5-7.2-19.4-7.2-24.7v-19.8c0,0,30.2-17.2,37-17.2s34.8,15.4,34.8,15.4v21.2
			C1030.5,403.4,1027.6,412.8,1021.3,419.7z"/>
		<path fill="#E48868" d="M1000.2,346.4v18.1c0,0-9.2,15.5-17.6,0.4l0.7-18.5H1000.2z"/>
		<path fill="none" stroke="#A57520" stroke-miterlimit="10" d="M1011.4,364.3c-0.8,1.7-3.9,22-9.6,25c-4.8,2.4-10.3,3-15.5,1.5
			c-10.5-2.9-12.5-22.9-13-24.1"/>
		<path fill="#040407" d="M813.7,504.4c-3.8,63.5-2.2,95.8-2.2,95.8l38.3-2l9.8-69.9l6.7,0.1l9.5,69.4l41.4-0.1c0,0-2.7,2-6.3-93.4
			L813.7,504.4z"/>
		<path fill="#E48868" d="M849.9,305l0.6,35.1c0,0,16,0.4,30.5-0.2l-1.9-34.9H849.9z"/>
		<path fill="#25272B" d="M816.6,415.2l-6.5,105.6c0.3,0.4,0.5,0.8,0.8,1.1l3.6,4.3l-1-22H911l4.6,21.4c6.1-3.6,9.6-11.1,8.8-18.8
			l-9.8-93.8l13.4-59.8c-2.6-3.8-30.4-18.1-45.7-27.3c-6.5,2.2-7.6,7.3-17.1,14c-8.8-4.2-14.4-14.7-22.9-11.5
			c-20.7,8-37.9,24.9-41.2,28.2L816.6,415.2z"/>
		<path fill="#E48868" d="M864.9,259.2c-17.1,0.5-19.6,19.6-19.3,35.6s7.3,26.6,18.2,27.4s18.8-10,22-24.7S892.4,258.4,864.9,259.2z
			"/>
		<path fill="#E48868" d="M848.1,290.7c0,0,0-6.5-5.4-4.9s-0.5,16.9,5.4,15.8S848.1,290.7,848.1,290.7z"/>
		<path fill="#E48868" d="M882.8,295.3c0,0,0.8-6.5,6-4.2s-1.6,16.8-7.4,14.9S882.8,295.3,882.8,295.3z"/>
		<path fill="#E48868" d="M950.8,522.7c0,0-1.7-9.9-4.4-11.1s-11.2,3.8-11.2,3.8s-3.8,6.7-5.9,7.8s-6,6.9-5,7.9s5.6-2.2,5.6-2.2
			l4.8,18.4c1.1,4.1,2.8,1.4,4,0.7s0.8-5.8,0.8-5.8s4.1,0.7,4.7-0.1s1.9-2.5,1.9-2.5s4.7,0.5,5.2-0.6s-0.2-3.2-0.2-3.2
			s2.5-1.7,2.6-2.3S950.8,522.7,950.8,522.7z"/>
		<path fill="#E48868" d="M785.1,520.3c0,0-1.2-10,1.1-11.9S798,509,798,509s5.6,5.4,7.9,5.8s7.7,5,7,6.2s-6-0.6-6-0.6l0.6,19
			c0.1,4.2-2.3,2.2-3.6,1.8s-2.4-5.3-2.4-5.3s-3.8,1.8-4.5,1.2l-2.5-1.9c0,0-4.4,1.8-5.1,0.9s-0.8-3.1-0.8-3.1s-2.8-0.9-3.2-1.5
			S785.1,520.3,785.1,520.3z"/>
		<path fill="#331F07" d="M854.7,273.8c0.3,6.6-5.5,10.1-5.5,10.1v12.7l-2-0.9c0-3.3-0.5-6.6-1.3-9.8c-1-0.8-3.2-0.1-3.2-0.1
			s-1.6-8.5-2.3-11.4s5.4-6.7,5.5-6.8c0.5-0.3,0-5,0.3-5.9c2.3-5.5,10.8-5.7,15.8-5.6c10.6,0.2,21.2,1.7,31.4,4.6
			c-0.8,7.1-2.1,14.1-3.9,21.1C879.6,276.1,866.1,274.4,854.7,273.8z"/>
		<path fill="#331F07" d="M880.4,276c0,0-2.2,8.2,3.3,9.5v8.9l1.2,0.8c0,0,0.7-3.5,2.6-4.5l3.2-13.9L880.4,276z"/>
		<path fill="#BA745D" d="M865,323.1c-0.4,0-0.8,0-1.2,0c-4.9-0.4-9.4-2.8-12.4-6.7c-0.3-0.4-0.2-0.9,0.1-1.2c0,0,0,0,0,0
			c0.4-0.3,0.9-0.2,1.2,0.1c0,0,0,0,0,0c2.7,3.5,6.8,5.7,11.3,6c4.6,0.3,8.8-1.5,12.4-5.5c0.3-0.3,0.9-0.4,1.2,0
			c0.3,0.3,0.4,0.8,0,1.2C874,321,869.6,323.1,865,323.1z"/>
		<path fill="#353535" d="M849.9,321.1l-12.4,3L837,330c0,0-32.9,16-35.9,17.7s-21.6,161-22.1,165.1l29.9-1.1l4.2,29.1l34.8,4
			c0,0-8.8-36.8-2.3-84.6S849.9,321.1,849.9,321.1z"/>
		<path fill="#353535" d="M879.9,320.6l8.9,1.7l4.8,7.8c0,0,32.9,16,35.9,17.7s21.6,160.9,22.1,165.1l-27.9,1.5l4.1,35.3h-28.8
			c0,0-7.6-41.6-14.1-89.4S879.9,320.6,879.9,320.6z"/>
		<path fill="#070606" d="M805.9,510h-0.1c-0.5-0.1-0.8-0.5-0.7-1L822,388.4c1.6-11.5-2.6-23.9-6.5-33.3c-0.2-0.4,0-0.9,0.5-1.1
			c0.4-0.2,0.9,0,1.1,0.5l0,0c4,9.6,8.3,22.3,6.6,34.2l-16.9,120.7C806.7,509.7,806.3,510,805.9,510z"/>
		<path fill="#070606" d="M919.1,506.8c-0.4,0-0.8-0.3-0.8-0.7l-16.9-120.7c-1.7-11.9,2.7-24.5,6.6-34.2c0.2-0.4,0.7-0.6,1.1-0.5
			c0.4,0.2,0.6,0.7,0.5,1.1l0,0c-3.9,9.5-8.1,21.8-6.5,33.3L920,505.8c0.1,0.5-0.3,0.9-0.7,1H919.1z"/>
		<path fill="#070606" d="M865.7,362c-1.9,0.2-3.7-1.1-3.9-3.1c-0.2-1.9,1.1-3.7,3.1-3.9c1.9-0.2,3.7,1.1,3.9,3.1c0,0.1,0,0.3,0,0.4
			C868.9,360.3,867.5,361.9,865.7,362z M865.7,356.4c-1.2-0.1-2.2,0.7-2.4,1.8c-0.1,1.2,0.7,2.2,1.8,2.4c1.2,0.1,2.2-0.7,2.4-1.8
			c0-0.1,0-0.2,0-0.3C867.6,357.4,866.8,356.4,865.7,356.4L865.7,356.4z"/>
		<path fill="#070606" d="M865.7,378c-1.9,0.2-3.7-1.1-3.9-3.1c-0.2-1.9,1.1-3.7,3.1-3.9c1.9-0.2,3.7,1.1,3.9,3.1c0,0.1,0,0.3,0,0.4
			C868.9,376.3,867.5,377.9,865.7,378z M865.7,372.4c-1.2-0.1-2.2,0.7-2.4,1.8c-0.1,1.2,0.7,2.2,1.8,2.4c1.2,0.1,2.2-0.7,2.4-1.8
			c0-0.1,0-0.2,0-0.3C867.6,373.4,866.8,372.5,865.7,372.4L865.7,372.4z"/>
		<path fill="#070606" d="M865.1,394.9c-1.9,0.2-3.7-1.1-3.9-3.1c-0.2-1.9,1.1-3.7,3.1-3.9c1.9-0.2,3.7,1.1,3.9,3.1
			c0,0.1,0,0.3,0,0.4C868.3,393.2,866.9,394.8,865.1,394.9z M865.1,389.3c-1.2-0.1-2.2,0.7-2.4,1.8c-0.1,1.2,0.7,2.2,1.8,2.4
			c1.2,0.1,2.2-0.7,2.4-1.8c0-0.1,0-0.2,0-0.3C867,390.3,866.2,389.4,865.1,389.3z"/>
		<path fill="#070606" d="M865.1,411c-1.9,0.2-3.7-1.1-4-3.1c-0.2-1.9,1.1-3.7,3.1-4c1.9-0.2,3.7,1.1,4,3.1c0,0.1,0,0.3,0,0.5
			C868.3,409.3,866.9,410.9,865.1,411z M865.1,405.4c-1.2-0.1-2.2,0.7-2.4,1.8c-0.1,1.2,0.7,2.2,1.8,2.4c1.2,0.1,2.2-0.7,2.4-1.8
			c0-0.1,0-0.2,0-0.3C867.1,406.4,866.2,405.4,865.1,405.4C865.1,405.4,865.1,405.4,865.1,405.4L865.1,405.4z"/>
		<path fill="#070606" d="M865.7,346.7c-1.9,0.2-3.7-1.1-3.9-3.1s1.1-3.7,3.1-3.9s3.7,1.1,3.9,3.1c0,0.1,0,0.3,0,0.4
			C868.9,345,867.5,346.6,865.7,346.7z M865.7,341.1c-1.2-0.1-2.2,0.7-2.4,1.8c-0.1,1.2,0.7,2.2,1.8,2.4c1.2,0.1,2.2-0.7,2.4-1.8
			c0-0.1,0-0.2,0-0.3C867.6,342.1,866.8,341.2,865.7,341.1z"/>
		<path fill="#070606" d="M866,428.7c-1.9,0.2-3.7-1.1-3.9-3.1c-0.2-1.9,1.1-3.7,3.1-3.9s3.7,1.1,3.9,3.1c0,0.1,0,0.3,0,0.4
			C869.2,427,867.8,428.6,866,428.7z M866,423.1c-1.2-0.1-2.2,0.7-2.4,1.8c-0.1,1.2,0.7,2.2,1.8,2.4c1.2,0.1,2.2-0.7,2.4-1.8
			c0-0.1,0-0.2,0-0.3C867.9,424.1,867.1,423.2,866,423.1z"/>
		<path fill="#070606" d="M866,444.7c-1.9,0.2-3.7-1.1-4-3.1c-0.2-1.9,1.1-3.7,3.1-4c1.9-0.2,3.7,1.1,4,3.1c0,0.1,0,0.3,0,0.4
			C869.2,443.1,867.8,444.6,866,444.7z M866,439.1c-1.2-0.1-2.2,0.7-2.4,1.8c-0.1,1.2,0.7,2.2,1.8,2.4c1.2,0.1,2.2-0.7,2.4-1.8
			c0-0.1,0-0.2,0-0.3C867.9,440.1,867.1,439.2,866,439.1z"/>
		<path fill="#070606" d="M865.4,461.6c-1.9,0.2-3.7-1.1-3.9-3.1c-0.2-1.9,1.1-3.7,3.1-3.9s3.7,1.1,3.9,3.1c0,0.1,0,0.3,0,0.4
			C868.6,459.9,867.2,461.5,865.4,461.6z M865.4,456c-1.2-0.1-2.2,0.7-2.4,1.8c-0.1,1.2,0.7,2.2,1.8,2.4c1.2,0.1,2.2-0.7,2.4-1.8
			c0-0.1,0-0.2,0-0.3C867.3,457,866.5,456.1,865.4,456z"/>
		<path fill="#070606" d="M865.4,477.7c-1.9,0.2-3.7-1.1-4-3.1c-0.2-1.9,1.1-3.7,3.1-4c1.9-0.2,3.7,1.1,4,3.1c0,0.1,0,0.3,0,0.4
			C868.6,476,867.2,477.6,865.4,477.7z M865.4,472.1c-1.2-0.1-2.2,0.7-2.4,1.8c-0.1,1.2,0.7,2.2,1.8,2.4c1.2,0.1,2.2-0.7,2.4-1.8
			c0-0.1,0-0.2,0-0.3C867.3,473.1,866.5,472.1,865.4,472.1L865.4,472.1z"/>
		<path fill="none" stroke="#000000" stroke-miterlimit="10" d="M1008.8,514.3c3,13.2,6,26.5,9,39.7c3.2,14.1-6,34.3-2.9,48.4"/>
		<path fill="none" stroke="#000000" stroke-miterlimit="10" d="M984,518.4c-4.9,12.7-6.9,20.3-11.8,32.9
			c-5.3,13.5,1.8,32.8-3.4,46.3"/>
		<text transform="matrix(1 0 0 1 148.46 140.91)" font-family="'LucidaHandwriting-Italic'" font-size="34px">Last New Years was </text>
		<text transform="matrix(1 0 0 1 148.46 181.71)" font-family="'LucidaHandwriting-Italic'" font-size="34px">incredible. You took </text>
		<text transform="matrix(1 0 0 1 148.46 222.51)" font-family="'LucidaHandwriting-Italic'" font-size="34px">me on a surprise trip</text>
		<text transform="matrix(1 0 0 1 148.46 263.3101)" font-family="'LucidaHandwriting-Italic'" font-size="34px">to see the fire works. </text>
		<text transform="matrix(1 0 0 1 148.46 304.11)" font-family="'LucidaHandwriting-Italic'" font-size="34px">Ill never forget our </text>
		<text transform="matrix(1 0 0 1 148.46 344.91)" font-family="'LucidaHandwriting-Italic'" font-size="34px">perfect night together.</text>
		<text transform="matrix(1 0 0 1 148.46 426.51)" font-family="'LucidaHandwriting-Italic'" font-size="34px">I made this book of </text>
		<text transform="matrix(1 0 0 1 148.46 467.31)" font-family="'LucidaHandwriting-Italic'" font-size="34px">our time together </text>
		<text transform="matrix(1 0 0 1 148.46 508.11)" font-family="'LucidaHandwriting-Italic'" font-size="34px">because I want you to</text>
		<text transform="matrix(1 0 0 1 148.46 548.91)" font-family="'LucidaHandwriting-Italic'" font-size="34px">know how much you </text>
		<text transform="matrix(1 0 0 1 148.46 589.71)" font-family="'LucidaHandwriting-Italic'" font-size="34px">mean to me. </text>
		<text transform="matrix(1 0 0 1 148.46 671.3101)" font-family="'LucidaHandwriting-Italic'" font-size="34px">Happy Anniversary!</text>
	</g>
</g>
</svg>
