<?xml version="1.0" encoding="utf-8"?>
<!-- Generator: Adobe Illustrator 22.0.1, SVG Export Plug-In . SVG Version: 6.00 Build 0)  -->
<svg version="1.1" baseProfile="tiny" id="Layer_1" xmlns="http://www.w3.org/2000/svg" xmlns:xlink="http://www.w3.org/1999/xlink"
	 x="0px" y="0px" viewBox="0 0 579.3 366.6" xml:space="preserve">
<title>table</title>
<g id="Layer_2_1_">
	<g id="table">
		<path fill="#F2F2F2" d="M441.1,212.6c-6.6,0-21.3,5.2-28.8,12l-204,101.8c-5.9,6.5,5.4,12,12,12l359,22.6V219.2L441.1,212.6z"/>
		<path fill="#635142" d="M34.6,110.4H41c6.6,0,12,5.4,12,12v190.4c0,6.6-5.4,12-12,12h-6.5c-6.6,0-12-5.4-12-12V122.4
			C22.6,115.7,28,110.4,34.6,110.4z"/>
		<path fill="#635142" d="M246.2,56.6h6.5c6.6,0,12,5.4,12,12V259c0,6.6-5.4,12-12,12h-6.5c-6.6,0-12-5.4-12-12V68.6
			C234.2,62,239.5,56.6,246.2,56.6z"/>
		<path fill="#635142" d="M550.9,152.2h6.5c6.6,0,12,5.4,12,12v190.4c0,6.6-5.4,12-12,12h-6.5c-6.6,0-12-5.4-12-12V164.2
			C538.9,157.6,544.3,152.2,550.9,152.2z"/>
		<path fill="#8C6E42" d="M237.1,3.4C148.1,23-41.2,69,16.8,83.1c62.5,15.2,523.2,75.7,556.5,49.3c1.4-1.1,3.4-2.9,6-5.2V12
			C461.8,5.7,278.1-5.7,237.1,3.4z"/>
		<path fill="#775D3A" d="M7.8,79.9L0,97.3c-0.9,8.5,20.8,23.6,29.4,24.2l535,41.3c6.4,0.5,12.4-3.1,15-8.9v-31.6L7.8,79.9z"/>
		<polygon fill="#D3D3D1" points="334.1,12.6 234.2,70.1 349.1,87.9 447.7,23.6 		"/>
	</g>
</g>
</svg>
