<svg xmlns="http://www.w3.org/2000/svg" viewBox="0 0 579.34 366.65"><defs><style>.cls-1{fill:#f2f2f2;}.cls-2{fill:#635142;}.cls-3{fill:#8c6e42;}.cls-4{fill:#775d3a;}.cls-5{fill:#d3d3d1;}</style></defs><title>table</title><g id="Layer_2" data-name="Layer 2"><g id="table"><path class="cls-1" d="M441.09,212.58c-6.6,0-21.25,5.23-28.78,12l-204,101.82c-5.9,6.51,5.4,12,12,12l359,22.65V219.16Z"/><rect class="cls-2" x="22.58" y="110.36" width="30.46" height="214.43" rx="12" ry="12"/><rect class="cls-2" x="234.17" y="56.59" width="30.46" height="214.43" rx="12" ry="12"/><rect class="cls-2" x="538.88" y="152.22" width="30.46" height="214.43" rx="12" ry="12"/><path class="cls-3" d="M237.1,3.36C148.08,23-41.16,69,16.81,83.07,79.26,98.25,540,158.73,573.33,132.34c1.38-1.09,3.44-2.87,6-5.19V12C461.8,5.7,278.11-5.68,237.1,3.36Z"/><path class="cls-4" d="M7.83,79.92,0,97.28c-.91,8.5,20.83,23.56,29.35,24.22l535,41.26a15.16,15.16,0,0,0,15-8.89V122.28Z"/><polygon class="cls-5" points="334.07 12.62 234.17 70.1 349.13 87.89 447.66 23.57 334.07 12.62"/></g></g></svg>