<?xml version="1.0" encoding="utf-8"?>
<!-- Generator: Adobe Illustrator 22.0.1, SVG Export Plug-In . SVG Version: 6.00 Build 0)  -->
<svg version="1.1" baseProfile="tiny" id="Layer_1" xmlns="http://www.w3.org/2000/svg" xmlns:xlink="http://www.w3.org/1999/xlink"
	 x="0px" y="0px" viewBox="0 0 220 211.4" xml:space="preserve">
<title>trash</title>
<g id="Layer_2_1_">
	<g id="trash">
		<ellipse fill="#F2F2F2" cx="142.1" cy="196.5" rx="78" ry="14.9"/>
		<ellipse fill="none" stroke="#000000" stroke-width="2" stroke-miterlimit="10" cx="83" cy="30" rx="82" ry="28.8"/>
		<line fill="none" stroke="#474949" stroke-miterlimit="10" x1="1" y1="35.2" x2="26.4" y2="189.4"/>
		<line fill="none" stroke="#474949" stroke-miterlimit="10" x1="165" y1="35.2" x2="139.6" y2="189.4"/>
		<ellipse fill="none" stroke="#000000" stroke-width="2" stroke-miterlimit="10" cx="83" cy="191.6" rx="56.6" ry="14.1"/>
		<path fill="#474949" d="M1,35.2c34,40.7,98.8,135.4,138.6,154.2"/>
		<path fill="#474949" d="M13.7,14.6c26.2,50,82.1,115,128.4,153.1"/>
		<path fill="#474949" d="M5.8,64.5C32,114.4,74.9,164,121.2,202.1"/>
		<path fill="#474949" d="M153.1,12.9c-26.2,50-82.1,115-128.4,153.1"/>
		<path fill="#474949" d="M130.1,6.4C104,56.4,65.6,108.6,19.4,146.6"/>
		<path fill="#474949" d="M33.5,6.4c26.2,50,64.6,102.1,110.8,140.2"/>
		<path fill="#474949" d="M109.4,0.6C83.3,50.5,59.9,83.7,13.7,121.8"/>
		<path fill="#474949" d="M53.3,3.9C79.5,53.9,102.8,87,149,125.1"/>
		<path fill="#474949" d="M88.9,0.6C62.7,50.5,55.7,57.7,9.4,95.8"/>
		<path fill="#474949" d="M74.7,0.6c26.2,49.9,33.3,57.1,79.4,95.2"/>
		<path fill="#474949" d="M68,0.6C49.2,35.2,43,42.2,9.3,71"/>
		<path fill="#474949" d="M100.8,0c18.8,34.6,25.1,41.6,58.7,70.3"/>
		<path fill="#474949" d="M40.6,5.7c-6,18-20.4,26.4-32.4,36.1"/>
		<path fill="#474949" d="M130.4,5.7c6,18,20.4,26.4,32.4,36.1"/>
		<path fill="#474949" d="M158.8,67c-26.1,50-69.1,96.9-115.3,135"/>
		<path fill="#474949" d="M153.5,102.6c-26.2,49.9-41.9,65.1-88.1,103.2"/>
		<path fill="#474949" d="M9.4,102.6c26.2,49.9,41.9,65.1,88.1,103.2"/>
		<path fill="#474949" d="M146.7,146.6c-35.5,47-8.9,12.2-50.8,59.1"/>
		<path fill="#474949" d="M19.8,148c35.5,47,8.9,12.2,50.8,59.1"/>
		<path fill="#474949" d="M165.1,35.2c-34,40.7-98.8,135.4-138.6,154.2"/>
	</g>
</g>
</svg>
