<svg xmlns="http://www.w3.org/2000/svg" viewBox="0 0 220.01 211.39"><defs><style>.cls-1{fill:#f2f2f2;}.cls-2{fill:none;stroke:#000;stroke-width:2px;}.cls-2,.cls-3{stroke-miterlimit:10;}.cls-3,.cls-4{fill:#474949;}.cls-3{stroke:#474949;}</style></defs><title>trash</title><g id="Layer_2" data-name="Layer 2"><g id="trash"><ellipse class="cls-1" cx="142.05" cy="196.53" rx="77.96" ry="14.86"/><ellipse class="cls-2" cx="83.01" cy="29.98" rx="82.01" ry="28.76"/><line class="cls-3" x1="1" y1="35.17" x2="26.39" y2="189.39"/><line class="cls-3" x1="165.01" y1="35.17" x2="139.63" y2="189.39"/><ellipse class="cls-2" cx="83.01" cy="191.65" rx="56.62" ry="14.08"/><path class="cls-4" d="M1,35.17C35,75.89,99.82,170.62,139.63,189.39"/><path class="cls-4" d="M13.69,14.6c26.16,49.95,82.14,115,128.36,153.1"/><path class="cls-4" d="M5.83,64.5C32,114.45,74.93,164,121.15,202.05"/><path class="cls-4" d="M153.05,12.91c-26.15,50-82.13,115-128.35,153.1"/><path class="cls-4" d="M130.12,6.43C104,56.38,65.57,108.55,19.35,146.63"/><path class="cls-4" d="M33.49,6.43c26.16,50,64.55,102.12,110.77,140.2"/><path class="cls-4" d="M109.43.6C83.27,50.54,59.91,83.69,13.69,121.77"/><path class="cls-4" d="M53.3,3.92C79.46,53.86,102.82,87,149,125.08"/><path class="cls-4" d="M88.88.6C62.72,50.54,55.66,57.68,9.44,95.75"/><path class="cls-4" d="M74.73.6C100.89,50.54,108,57.68,154.17,95.75"/><path class="cls-4" d="M68,.6C49.19,35.17,43,42.19,9.31,71"/><path class="cls-4" d="M100.75,0c18.84,34.57,25.09,41.59,58.73,70.35"/><path class="cls-4" d="M40.57,5.73c-6,18-20.38,26.41-32.43,36.09"/><path class="cls-4" d="M130.45,5.73c6,18,20.38,26.41,32.43,36.09"/><path class="cls-4" d="M158.83,67c-26.15,50-69.1,96.94-115.32,135"/><path class="cls-4" d="M153.49,102.55c-26.15,49.94-41.91,65.1-88.13,103.17"/><path class="cls-4" d="M9.44,102.55c26.16,49.94,41.91,65.1,88.13,103.17"/><path class="cls-4" d="M146.66,146.63c-35.5,47-8.89,12.16-50.83,59.09"/><path class="cls-4" d="M19.83,148c35.5,47,8.89,12.17,50.83,59.09"/><path class="cls-4" d="M165.14,35.17c-34,40.72-98.82,135.45-138.62,154.22"/></g></g></svg>