<?xml version="1.0" encoding="utf-8"?>
<!-- Generator: Adobe Illustrator 22.0.1, SVG Export Plug-In . SVG Version: 6.00 Build 0)  -->
<svg version="1.1" baseProfile="tiny" id="Layer_1" xmlns="http://www.w3.org/2000/svg" xmlns:xlink="http://www.w3.org/1999/xlink"
	 x="0px" y="0px" viewBox="0 0 162 574.5" xml:space="preserve">
<title>bestfriend</title>
<g id="Layer_2_1_">
	<g id="friend">
		<path fill="#5A5A5B" d="M88.6,338.6v210.5h13.1c0,0,22.8-95.8,23.8-105.2s-3.4-38.7-3.4-38.7l19.9-76.3L88.6,338.6z"/>
		<path fill="#5A5A5B" d="M81.7,338.6v210.5H68.6c0,0-22.8-95.8-23.8-105.2s3.4-38.7,3.4-38.7l-19.9-76.3L81.7,338.6z"/>
		<polygon fill="#231F1E" points="87,490.9 88.6,559.9 88.6,574.5 107.5,574.5 100.7,561.8 117.9,490.9 		"/>
		<path fill="#CE9E28" d="M122.3,96.4c6.6,15.4,29.2,18.2,36.7,33.3c5,10.1,1.1,22.9-6.7,31S133.4,173,122.5,176
			c-24.2,6.6-50.3,8.2-74.4,0.8c-8.6-2.6-17-6.5-23.7-12.5s-11.6-14.4-12.2-23.4s3.7-18.5,11.6-22.9c4.8-2.7,10.6-3.5,14.7-7.1
			c6-5.4,5.9-14.6,5.7-22.7c-0.4-15.1,0.3-30.1,2.3-45.1c1.5-11.5,4-23.6,11.8-32.2c8.5-9.4,22.5-13,34.8-9.9s22.6,12.4,28.2,23.7
			s6.6,24.7,4,37.2C122.9,73.5,117.7,85.6,122.3,96.4z"/>
		<path fill="#E48868" d="M10.9,284.6c0,0-7.8,14.6-8.5,19.4s-0.7,7.1,3.1,6.1s-0.3,6.5,5.1,5.8s15-15.6,15-15.6l-9.3-12.9
			L10.9,284.6z"/>
		<path fill="#11111C" d="M161.6,385.9c0,0-11.1-138.3-45.2-188.1l8.7-47.1c0,0,14.6-12.4,11.4-31.4v-26c0,0-40-18.9-49.8-18.9
			s-53,21.1-53,21.1v24.3c0,6.5,0.5,21.1,10.3,30.3l10.8,47.7c0,0-34.3,84.2-39.2,191.9C15.5,389.7,102.6,399.5,161.6,385.9z"/>
		<path fill="#11111C" d="M33.6,95.5c-7.6,4.9-11.4,10.8-12.4,15.2s-10.8,98.5-10.3,110.9s-9.7,9.7-5.4,27.6S-4.8,266,1.7,277.9
			l1.6,9.7l13.9,3.2l14.2-41.7l12.4-99L33.6,95.5z"/>
		<path fill="#E48868" d="M111.3,246.8l-6.1,10.8c0,0-12.4,1.5-14.5,3.8l5.3,4.4c0,0-13.7,13.9-13.2,14.9l3,5.1l5.3-4.8
			c0,0,1.1,3.4,2.2,3.7c0.9,0.2,1.9,0.2,2.8,0c1.3,1.4,2.8,2.6,4.5,3.6c2.5,1.4,3.7,3.5,6.5,3.8s11.9-12.9,13-14.8
			s5.2-21.7,5.2-21.7L111.3,246.8z"/>
		<path fill="#11111C" d="M136.4,93.4c10.3,4.9,27.6,96.8,25.4,101.2s-25.7,56.8-34.3,59.6l-24.5-2.4l29.7-68l-7.6-33L136.4,93.4z"
			/>
		<path fill="#393762" d="M75.4,122.5c0.1,0,0.1,0,0.2,0c10.7-2.4,20.2-8.5,27-17.1c0.3-0.4,0.3-1.1-0.1-1.4c0,0,0,0,0,0
			c-0.4-0.3-1.1-0.3-1.4,0.1c0,0,0,0,0,0c-6.5,8.3-15.6,14-25.8,16.4c-0.6,0.1-1,0.6-0.9,1.1S74.9,122.5,75.4,122.5L75.4,122.5z"/>
		<path fill="#393762" d="M44.3,150c0.2,0,0.4,0,0.5-0.1c0.5-0.3,0.6-0.9,0.3-1.4c0,0,0,0,0,0c-6.7-10.8-7.7-24.2-2.8-35.9l0.2-0.4
			l-0.2-0.4c-0.8-1.5-1.5-3.1-2.2-4.7s-1.5-3.3-2.3-4.9c-0.3-0.5-0.9-0.7-1.4-0.4c-0.5,0.3-0.7,0.9-0.4,1.4c0.8,1.5,1.5,3.2,2.3,4.8
			s1.3,3,2.1,4.4c-5,12.2-3.8,26.1,3.1,37.3C43.6,149.8,43.9,150,44.3,150z"/>
		<path fill="#393762" d="M126,150c0.4,0,0.7-0.2,0.9-0.5c6.9-11.2,8.1-25.1,3.1-37.3c0.7-1.4,1.4-2.9,2.1-4.4s1.5-3.3,2.3-4.8
			c0.3-0.5,0.1-1.1-0.4-1.4s-1.1-0.1-1.4,0.4l0,0c-0.8,1.6-1.6,3.2-2.3,4.9s-1.5,3.3-2.3,4.8l-0.2,0.4l0.2,0.4
			c4.9,11.7,3.9,25.1-2.8,35.9c-0.3,0.5-0.2,1.1,0.3,1.4c0,0,0,0,0,0C125.6,150,125.8,150,126,150z"/>
		<path fill="#393762" d="M19.3,286.7c0.5,0,0.9-0.3,1-0.8c2.9-15.2,7.1-30.1,12.5-44.6c0.2-0.5-0.1-1.1-0.6-1.3c0,0,0,0,0,0
			c-0.5-0.2-1.1,0.1-1.3,0.6c0,0,0,0,0,0c-5.4,14.6-9.6,29.6-12.6,44.9c-0.1,0.5,0.2,1.1,0.8,1.2c0,0,0,0,0,0
			C19.2,286.7,19.2,286.7,19.3,286.7z"/>
		<path fill="#393762" d="M127.5,226.4c0.1,0,0.3,0,0.4-0.1c0.5-0.2,0.8-0.8,0.5-1.3c0,0,0,0,0,0l-3.3-7.7c-0.2-0.5-0.8-0.8-1.3-0.6
			c0,0,0,0,0,0c-0.5,0.2-0.8,0.8-0.6,1.3c0,0,0,0,0,0l3.3,7.7C126.7,226.2,127.1,226.4,127.5,226.4z"/>
		<polygon fill="#231F1E" points="83.3,490.9 81.7,559.9 81.7,574.5 62.8,574.5 69.6,561.8 52.4,490.9 		"/>
		<path fill="#E48868" d="M95.3,60.4v23.8c0,0-12.1,20.4-23.1,0.5l1-24.3L95.3,60.4z"/>
		<path fill="#E48868" d="M90.5,3.9c20.5,2.7,23.8,26.4,18.9,45.2c-3.7,14-12.1,28.1-25.2,27.8S63,58.5,60.7,47.5
			C56.9,29.7,57.6-0.4,90.5,3.9z"/>
		<path fill="#E48868" d="M106.9,43.9c0,0,0.8-7.9,7.1-5.2S112.7,59,105.6,57S106.9,43.9,106.9,43.9z"/>
		<path fill="#E48868" d="M64.8,43.5c0,0-0.2-7.9-6.7-5.7s-0.1,20.4,7.1,18.8S64.8,43.5,64.8,43.5z"/>
		<path fill="#BA745D" d="M84,77.9c3.2,0,6.3-0.8,9-2.4c0.5-0.3,0.7-0.9,0.4-1.4c-0.3-0.5-0.9-0.7-1.4-0.4c-5.2,3-11.7,2.7-16.7-0.5
			c-0.5-0.3-1.1-0.2-1.4,0.3c-0.3,0.5-0.2,1.1,0.3,1.4C77,76.8,80.5,77.9,84,77.9z"/>
		<path fill="#CE9E28" d="M73.8,16.9c-0.3,12.5,2.1,25.3,8.6,35.9s17.7,18.8,30.1,19.9c4.4-10.7,7.7-22.6,6.4-34.2s-6.7-23-16-30
			S80.3-0.2,70.1,5.5C61.6,10.2,56.3,19.4,54,28.9s-2,14.7-1.7,24.5C66.6,45.8,75.8,32.9,73.8,16.9z"/>
	</g>
</g>
</svg>
