<?xml version="1.0" encoding="utf-8"?>
<!-- Generator: Adobe Illustrator 22.0.1, SVG Export Plug-In . SVG Version: 6.00 Build 0)  -->
<svg version="1.1" baseProfile="tiny" id="Layer_1" xmlns="http://www.w3.org/2000/svg" xmlns:xlink="http://www.w3.org/1999/xlink"
	 x="0px" y="0px" viewBox="0 0 206.1 589.6" xml:space="preserve">
<title>boyfriend</title>
<g id="Layer_2_1_">
	<g id="Layer_12">
		<polygon fill="#595152" points="54.3,490.4 159.1,485.1 142.9,319.4 53.1,323.9 		"/>
		<polygon fill="#393762" points="49.7,563.3 49.9,576 33.3,589.6 60.2,588.3 62.1,562.7 		"/>
		<polygon fill="#393762" points="161.5,557.6 162.4,571.5 178.3,582.3 151.4,583.7 148.9,558.3 		"/>
		<path fill="#1C1C33" d="M42.3,303.8C41.6,378.4,45,567.5,45,567.5l20.1-1l30.3-247.2l7.9-0.3l41.9,243.4l19.5-1
			c0,0,1.4-151.8-8.5-263.4L42.3,303.8z"/>
		<path fill="#191919" d="M38.4,189.2l-1.3,124.2c0.3,0.4,0.7,0.9,1.1,1.3l4.5,4.9l1.2,15.4l114.1-5.8l3-16.3l0,0
			c6.9-4.5,10.6-13.5,9.1-22.6L153,180.9l12.2-70.9c-3.2-4.3-36.7-19.4-55.2-29.3c-10.6-5.6-35-1.4-41.9,2.2
			c-21,11-46.4,32.9-51.4,38.7L38.4,189.2z"/>
		<path fill="#E48868" d="M70.8,58L72,81.8c0,0,18.8-0.4,35.8-2.1l-2.7-23.5L70.8,58z"/>
		<path fill="#E48868" d="M85.8,3.5C65.8,5.1,64,27.6,65.3,46.3s10.2,30.8,23,31.1s21.4-12.9,24.3-30.3S117.9,0.9,85.8,3.5z"/>
		<path fill="#E48868" d="M67.9,41.4c0,0-0.4-7.7-6.7-5.4s0.4,19.8,7.3,18.2S67.9,41.4,67.9,41.4z"/>
		<path fill="#E48868" d="M108.8,44.8c0,0,0.6-7.7,6.8-5.2s-0.9,19.8-7.8,17.9S108.8,44.8,108.8,44.8z"/>
		<path fill="#E48868" d="M202.1,307.2c0,0-2.6-11.5-5.9-12.7s-12.9,5.1-12.9,5.1s-4.1,8.1-6.5,9.5s-6.6,8.5-5.4,9.6s6.4-3,6.4-3
			l6.8,21.3c1.5,4.7,3.4,1.5,4.7,0.6s0.6-6.8,0.6-6.8s4.9,0.6,5.5-0.4l2.1-3.1c0,0,5.6,0.3,6-1s-0.4-3.8-0.4-3.8s2.8-2.1,3-2.9
			S202.1,307.2,202.1,307.2z"/>
		<path fill="#E48868" d="M7.5,317.1c0,0,1.4-11.7,4.5-13.2s13.4,3.8,13.4,3.8s4.9,7.6,7.4,8.8s7.4,7.8,6.3,9s-6.7-2.3-6.7-2.3
			l-4.6,21.9c-1,4.9-3.2,1.8-4.6,1s-1.3-6.7-1.3-6.7s-4.8,1.1-5.5,0.1l-2.4-2.9c0,0-5.5,0.8-6.1-0.4s0-3.8,0-3.8S5,330.8,4.8,330
			S7.5,317.1,7.5,317.1z"/>
		<path fill="#331F07" d="M74.7,21.2c0.8,7.7-5.9,12.1-5.9,12.1l0.8,14.9l-2.4-1c-0.2-3.9-0.9-7.7-2.1-11.3
			c-1.2-0.9-3.7,0.1-3.7,0.1s-2.4-9.9-3.4-13.2s5.9-8.1,6.1-8.3c0.6-0.4-0.3-5.8,0-7C66.3,1,76.2,0.3,82.2,0.1
			c12.4-0.4,24.9,0.7,37,3.5c-0.5,8.4-1.6,16.7-3.3,24.9C104,22.4,88.1,21.3,74.7,21.2z"/>
		<path fill="#331F07" d="M104.9,22.3c0,0-2.1,9.8,4.4,11l0.5,10.4l1.4,0.8c0,0,0.6-4.1,2.8-5.4l2.9-16.5L104.9,22.3z"/>
		<path fill="#BA745D" d="M89.6,78.4c-0.5,0-0.9,0-1.4,0c-5.8-0.1-11.2-2.7-15-7.1c-0.4-0.4-0.3-1,0.1-1.4c0.4-0.4,1-0.3,1.4,0.1
			c3.4,4,8.3,6.3,13.6,6.4c5.4,0.1,10.2-2.3,14.3-7.1c0.4-0.4,1-0.5,1.4-0.1c0.4,0.4,0.5,1,0.1,1.4C100,75.4,95.1,78.1,89.6,78.4z"
			/>
		<path fill="#383331" d="M71.3,67.1l-24.3,5l10.2,16.1c0,0-37.6,20.7-41.1,22.9S0.4,301,0,305.9l27.1,3.1L8.3,499.2l46.3-2.3
			c0,0,15.6-200.2,20.4-256.6S71.3,67.1,71.3,67.1z"/>
		<path fill="#383331" d="M106.2,65.8l24.7,2.5l-7.3,16.5c0,0,39.5,16.8,43.2,18.6s34.9,187.4,35.8,192.2l-25.6,13.5l29,180l-54,2.7
			c0,0-20.1-198.4-30.5-254S106.2,65.8,106.2,65.8z"/>
		<path fill="#CFB199" d="M89.7,97.1c-4.5,0.2-9,0-13.4-0.7c-0.6-0.1-0.9-0.6-0.8-1.2s0.6-0.9,1.2-0.8c8.7,1.4,17.6,0.9,26.1-1.4
			c0.5-0.1,1.1,0.2,1.2,0.7c0.1,0.5-0.2,1.1-0.7,1.2C98.8,96.1,94.3,96.9,89.7,97.1z"/>
		<path fill="#CFB199" d="M81.7,92.9L81.7,92.9c-0.5,0-1-0.4-1-0.9l-0.2-6.8c0-0.5,0.4-1,0.9-1l0,0c0.6,0,1,0.4,1,1l0.2,6.8
			C82.6,92.4,82.2,92.8,81.7,92.9z"/>
		<path fill="#CFB199" d="M86.6,92.1L86.6,92.1c-0.6,0-1-0.4-1-1l-0.1-4.3c0-0.5,0.4-1,0.9-1l0,0c0.6,0,1,0.4,1,1l0.1,4.3
			C87.6,91.7,87.1,92.1,86.6,92.1z"/>
		<path fill="#734E4F" d="M18.7,303.4h-0.1c-0.5-0.1-0.9-0.5-0.9-1.1l12.6-142.5c1.2-13.6-4.5-27.8-9.6-38.7
			c-0.2-0.5,0.1-1.1,0.7-1.3c0.4-0.1,0.9,0,1.1,0.4c5.2,11.1,11,25.6,9.8,39.7L19.6,302.5C19.6,303,19.2,303.4,18.7,303.4z"/>
		<path fill="#070606" d="M18.7,303.4h-0.1c-0.5-0.1-0.9-0.5-0.9-1.1l12.6-142.5c1.2-13.6-4.5-27.8-9.6-38.7
			c-0.2-0.5,0.1-1.1,0.7-1.3c0.4-0.1,0.9,0,1.1,0.4c5.2,11.1,11,25.6,9.8,39.7L19.6,302.5C19.6,303,19.2,303.4,18.7,303.4z"/>
		<path fill="#070606" d="M67,127.3c-2.7,0.1-5-2-5.2-4.7c-0.1-2.7,2-5,4.7-5.2c2.7-0.1,5,2,5.2,4.7c0,0,0,0,0,0
			C71.8,124.9,69.7,127.2,67,127.3C67,127.3,67,127.3,67,127.3z M66.6,119.4c-1.7,0.1-3,1.4-2.9,3.1c0.1,1.7,1.4,3,3.1,2.9
			c1.7-0.1,3-1.4,2.9-3.1c0,0,0-0.1,0-0.1C69.6,120.6,68.2,119.4,66.6,119.4L66.6,119.4z"/>
		<path fill="#070606" d="M67.6,218.1c-2.7,0.1-5-2-5.2-4.7c-0.1-2.7,2-5,4.7-5.2c2.7-0.1,5,2,5.2,4.7c0,0,0,0,0,0
			C72.4,215.6,70.4,217.9,67.6,218.1z M67.2,210.2c-1.7,0.1-2.9,1.5-2.9,3.1s1.5,2.9,3.1,2.9c1.7-0.1,2.9-1.5,2.9-3.1
			c0,0,0-0.1,0-0.1C70.2,211.4,68.9,210.1,67.2,210.2z"/>
		<path fill="#070606" d="M58.4,324.6c-2.7,0.1-5-2-5.2-4.7c-0.1-2.7,2-5,4.7-5.2c2.7-0.1,5,2,5.2,4.7
			C63.3,322.2,61.2,324.5,58.4,324.6z M58,316.8c-1.7,0.1-3,1.4-2.9,3.1c0.1,1.7,1.4,3,3.1,2.9c1.7-0.1,3-1.4,2.9-3.1
			c0,0,0-0.1,0-0.1C61,318,59.7,316.7,58,316.8z"/>
		<path fill="#070606" d="M116.8,119.5l-4.6,0.2c-0.5,0-1-0.4-1-0.9c0-0.5,0.4-1,0.9-1l4.6-0.2c0.6,0,1,0.4,1.1,0.9
			C117.8,119.1,117.3,119.6,116.8,119.5L116.8,119.5z"/>
		<path fill="#070606" d="M127.3,210.2l-5.9,0.3c-0.6,0-1-0.4-1.1-0.9c0-0.6,0.4-1,1-1.1l0,0l5.9-0.3c0.6,0,1,0.4,1.1,0.9
			C128.3,209.7,127.8,210.1,127.3,210.2z"/>
		<path fill="#070606" d="M144.7,318.3L144.7,318.3l-7.4-0.3c-0.5,0-1-0.5-0.9-1c0-0.5,0.3-1,0.9-1c0,0,0.1,0,0.1,0l7.3,0.3
			c0.6,0,1,0.4,1,1S145.2,318.3,144.7,318.3L144.7,318.3z"/>
		<path fill="#070606" d="M183.3,295.1c-0.5,0-0.9-0.3-1-0.8l-27-140.5c-2.7-13.9,1.6-28.9,5.7-40.5c0.3-0.5,0.9-0.7,1.3-0.4
			c0.4,0.2,0.6,0.6,0.5,1.1c-4,11.3-8.2,26-5.6,39.4l27,140.5c0.1,0.5-0.3,1-0.8,1.1L183.3,295.1z"/>
		<path fill="#020202" d="M112.5,207.5c-0.1,0-0.2,0-0.2,0c-14.6-2.8-26.8-19.7-30.9-34.2c-0.1-0.5,0.2-1.1,0.7-1.2
			c0.5-0.1,1.1,0.2,1.2,0.7c3.6,12.8,13.6,27.4,25.8,31.8c-7-7.4-12.2-16.2-15.4-25.8c-0.2-0.5,0-1.1,0.5-1.3c0.5-0.2,1.1,0,1.3,0.5
			c0,0.1,0.1,0.2,0.1,0.3c3.4,10.5,9.5,20,17.5,27.6c0.4,0.4,0.4,1,0,1.4C113,207.4,112.8,207.5,112.5,207.5L112.5,207.5z"/>
		<path fill="#020202" d="M124.1,317.4L76,319.8c-0.6,0-1-0.4-1.1-1c0-0.6,0.4-1,1-1l48.1-2.4c0.5,0,1,0.4,1,0.9
			C125,316.8,124.7,317.3,124.1,317.4z"/>
	</g>
</g>
</svg>
