<?xml version="1.0" encoding="utf-8"?>
<!-- Generator: Adobe Illustrator 22.0.1, SVG Export Plug-In . SVG Version: 6.00 Build 0)  -->
<svg version="1.1" baseProfile="tiny" id="Layer_1" xmlns="http://www.w3.org/2000/svg" xmlns:xlink="http://www.w3.org/1999/xlink"
	 x="0px" y="0px" viewBox="0 0 1920 1080" xml:space="preserve">
<title>Bus-Scene</title>
<polygon fill="#7D8D8E" points="0,0.5 0,540.5 1920,540.5 1920,402.4 1920,0.5 "/>
<polygon fill="#2B2828" points="0,1080 1920,1080 1920,752.1 0,781.1 "/>
<polygon fill="#D3CBCB" points="0,728.2 1920,696.3 1920,540 0,540 "/>
<polygon fill="#BCB1B1" points="0,784 1920,752.1 1920,696.3 0,728.2 "/>
<ellipse transform="matrix(0.9813 -0.1924 0.1924 0.9813 -124.5207 63.2413)" fill="#C6C1C1" cx="263.5" cy="672.9" rx="200.5" ry="7.3"/>
<ellipse transform="matrix(0.9817 -0.1903 0.1903 0.9817 -111.7197 130.6931)" fill="#C6C1C1" cx="624.5" cy="646.9" rx="138.8" ry="27.7"/>
<line fill="none" stroke="#020202" stroke-miterlimit="10" x1="273" y1="540" x2="357.8" y2="721.7"/>
<line fill="none" stroke="#020202" stroke-miterlimit="10" x1="615.5" y1="540" x2="716.9" y2="715.9"/>
<line fill="none" stroke="#020202" stroke-miterlimit="10" x1="954" y1="540" x2="1055.6" y2="711.5"/>
<line fill="none" stroke="#020202" stroke-miterlimit="10" x1="1287.6" y1="540" x2="1406.8" y2="706.6"/>
<line fill="none" stroke="#020202" stroke-miterlimit="10" x1="1596.6" y1="540" x2="1739.8" y2="700.8"/>
<line fill="none" stroke="#020202" stroke-miterlimit="10" x1="1872.9" y1="540" x2="1920" y2="578.6"/>
<rect x="53.1" y="269.5" fill="#B7B7B2" width="17.4" height="446.4"/>
<circle fill="#020202" cx="61.8" cy="294" r="4.2"/>
<circle fill="#020202" cx="61.6" cy="341.3" r="4.2"/>
<circle fill="#020202" cx="61.8" cy="317.7" r="4.2"/>
<circle fill="#020202" cx="61.9" cy="366.5" r="4.2"/>
<circle fill="#020202" cx="61.7" cy="413.8" r="4.2"/>
<circle fill="#020202" cx="61.9" cy="390.2" r="4.2"/>
<circle fill="#020202" cx="62" cy="437.5" r="4.2"/>
<circle fill="#020202" cx="61.8" cy="484.8" r="4.2"/>
<circle fill="#020202" cx="62" cy="461.2" r="4.2"/>
<circle fill="#020202" cx="62" cy="507" r="4.2"/>
<circle fill="#020202" cx="61.9" cy="554.3" r="4.2"/>
<circle fill="#020202" cx="62" cy="530.7" r="4.2"/>
<circle fill="#020202" cx="62.1" cy="578" r="4.2"/>
<circle fill="#020202" cx="62" cy="625.3" r="4.2"/>
<circle fill="#020202" cx="62.1" cy="601.7" r="4.2"/>
<circle fill="#020202" cx="61.5" cy="649" r="4.2"/>
<circle fill="#020202" cx="61.4" cy="696.3" r="4.2"/>
<circle fill="#020202" cx="61.5" cy="672.7" r="4.2"/>
<path fill="#BA5050" d="M27.1,142.2h67c6.6,0,12,5.4,12,12v113.4c0,6.6-5.4,12-12,12h-67c-6.6,0-12-5.4-12-12V154.2
	C15.1,147.6,20.5,142.2,27.1,142.2z"/>
<path fill="none" stroke="#FFFFFF" stroke-width="4" stroke-miterlimit="10" d="M34.7,153.6h51.9c6.6,0,12,5.4,12,12v90.6
	c0,6.6-5.4,12-12,12H34.7c-6.6,0-12-5.4-12-12v-90.6C22.7,159,28,153.6,34.7,153.6z"/>
<path fill="#707070" d="M490,508.7v153.8h9.6c0,0,16.7-70,17.4-76.9s-2.5-28.3-2.5-28.3l14.5-55.7L490,508.7z"/>
<path fill="#707070" d="M485,508.7v153.8h-9.6c0,0-16.7-70-17.4-76.9s2.5-28.3,2.5-28.3L446,501.6L485,508.7z"/>
<polygon fill="#231F1E" points="488.8,619.9 490,670.4 490,681 503.8,681 498.9,671.8 511.4,619.9 "/>
<path fill="#CE9E28" d="M514.6,331.7c4.8,11.3,21.4,13.3,26.8,24.3c3.7,7.4,0.8,16.7-4.9,22.6s-13.8,9-21.7,11.2
	c-17.7,4.9-36.8,6-54.3,0.6c-6.3-1.9-12.4-4.8-17.3-9.1s-8.5-10.5-8.9-17.1s2.7-13.5,8.5-16.7c3.5-1.9,7.7-2.5,10.7-5.2
	c4.4-3.9,4.3-10.7,4.1-16.6c-0.3-11,0.3-22,1.7-32.9c1.1-8.4,2.9-17.2,8.6-23.5c6.2-6.9,16.5-9.5,25.5-7.2s16.5,9,20.6,17.4
	c4.1,8.4,4.8,18.1,2.9,27.1C515.1,315,511.2,323.9,514.6,331.7z"/>
<path fill="#E48868" d="M433.2,469.2c0,0-5.7,10.7-6.2,14.2s-0.5,5.2,2.2,4.5s-0.3,4.7,3.7,4.2s11-11.4,11-11.4l-6.8-9.4
	L433.2,469.2z"/>
<path fill="#105063" d="M543.3,543.3c0,0-8.1-101.1-33-137.5l6.3-34.4c0,0,10.7-9.1,8.3-22.9v-19c0,0-29.3-13.8-36.4-13.8
	s-38.7,15.4-38.7,15.4v17.8c0,4.7,0.4,15.4,7.5,22.1l7.9,34.8c0,0-25.1,61.6-28.7,140.2C436.6,546,500.3,553.1,543.3,543.3z"/>
<path fill="#105063" d="M449.8,331.1c-5.5,3.6-8.3,7.9-9.1,11.1s-7.9,71.9-7.5,81s-7.1,7.1-4,20.2s-7.5,12.3-2.8,21l1.2,7.1
	l10.1,2.4l10.4-30.4l9.1-72.3L449.8,331.1z"/>
<path fill="#B77053" d="M557.4,492.8c8.7-1.6-5.9-25.6-15.8-31.8s-29.3-11.6-34.4-10.5S523,499.2,557.4,492.8z"/>
<path fill="#B77053" d="M507.2,450.5c-4.4,0-5.9,4-5.9,8.7s10.3,54,18.2,58.2s34.4,3.5,36-4.8s-2.8-27.3-2.8-27.3L507.2,450.5z"/>
<polygon fill="#B77053" points="507.2,450.5 462.8,325 455.4,328.4 501.2,459.2 "/>
<path fill="#E48868" d="M510.3,405.8l-7.9,4.5c0,0-8.4-3.6-10.5-3l1.7,4.7c0,0-13.8,3.7-13.8,4.5v4.3l5-1c0,0-0.6,2.5,0,3.1
	c0.5,0.4,1.1,0.8,1.8,1c0.3,1.4,0.8,2.7,1.5,4c1,1.8,1,3.6,2.7,4.8s12.3-3.7,13.7-4.5s11.3-11.7,11.3-11.7L510.3,405.8z"/>
<path fill="#734E4F" d="M546.8,494.3c1.5,0,3-0.1,4.5-0.4c0.4-0.1,0.7-0.5,0.6-0.9c0,0,0,0,0,0c-0.1-0.4-0.4-0.7-0.8-0.6
	c0,0,0,0,0,0c-8.9,1.6-19-2.1-26.8-10c-7.1-7.1-11.5-16.1-15.9-25.5c-0.2-0.4-0.6-0.5-1-0.4c0,0,0,0,0,0c-0.4,0.2-0.5,0.6-0.4,1
	c0,0,0,0,0,0c4.4,9.5,8.9,18.7,16.2,26C530.1,490.4,538.7,494.3,546.8,494.3z"/>
<path fill="#734E4F" d="M544,487.2c3.4,0,6.7-0.4,10-1c0.4-0.1,0.7-0.5,0.6-0.9c-0.1-0.4-0.5-0.7-0.9-0.6c-4.2,0.8-8.5,1.1-12.7,0.8
	c-0.4,0-0.7,0.3-0.8,0.7c0,0.4,0.3,0.8,0.7,0.8C542,487.2,543,487.2,544,487.2z"/>
<path fill="#734E4F" d="M528.4,515.8c0.2,0,0.3-0.1,0.5-0.2c0.3-0.3,0.4-0.7,0.1-1c-13.8-16.5-22-36.9-23.5-58.3
	c0-0.4-0.4-0.7-0.8-0.7c-0.4,0-0.7,0.4-0.7,0.8c1.6,21.7,9.9,42.4,23.9,59.2C528,515.7,528.2,515.8,528.4,515.8z"/>
<path fill="#734E4F" d="M487.1,410.6c0.1,0,0.2,0,0.3,0c0.4-0.1,0.6-0.6,0.4-1l-10.2-27.6c-0.1-0.4-0.6-0.6-1-0.4
	c-0.4,0.1-0.6,0.6-0.4,1l10.2,27.5C486.5,410.4,486.7,410.6,487.1,410.6z"/>
<path fill="#105063" d="M525,329.5c7.5,3.6,20.2,70.8,18.6,73.9S523.4,426,517,427.9l-6.7-22.1l11.9-10.3l-5.5-24.1L525,329.5z"/>
<path fill="#393762" d="M480.4,350.8c0.1,0,0.1,0,0.2,0c7.8-1.8,14.8-6.2,19.7-12.5c0.3-0.3,0.2-0.8-0.1-1s-0.8-0.2-1,0.1
	c-4.7,6-11.4,10.3-18.9,12c-0.4,0.1-0.7,0.5-0.6,0.9c0,0,0,0,0,0C479.8,350.6,480.1,350.8,480.4,350.8z"/>
<path fill="#393762" d="M457.6,370.9c0.1,0,0.3,0,0.4-0.1c0.3-0.2,0.4-0.7,0.2-1c-4.9-7.9-5.6-17.7-2-26.2l0.1-0.3l-0.2-0.3
	c-0.6-1.1-1.1-2.3-1.6-3.5s-1.1-2.4-1.7-3.6c-0.2-0.4-0.6-0.5-1-0.3c0,0,0,0,0,0c-0.4,0.2-0.5,0.6-0.3,1c0.6,1.1,1.1,2.3,1.6,3.5
	s1,2.2,1.5,3.2c-3.6,8.9-2.8,19.1,2.3,27.3C457.1,370.8,457.4,370.9,457.6,370.9z"/>
<path fill="#393762" d="M517.3,370.9c0.3,0,0.5-0.1,0.6-0.4c5.1-8.2,5.9-18.3,2.3-27.3c0.5-1,1-2.1,1.5-3.2s1.1-2.4,1.7-3.5
	c0.2-0.4,0-0.8-0.3-1c-0.4-0.2-0.8,0-1,0.3c0,0,0,0,0,0c-0.6,1.1-1.1,2.3-1.7,3.5s-1.1,2.4-1.6,3.5l-0.2,0.3l0.1,0.3
	c3.6,8.6,2.9,18.3-2,26.2c-0.2,0.3-0.1,0.8,0.2,1C517.1,370.8,517.2,370.9,517.3,370.9z"/>
<path fill="#393762" d="M439.4,470.7c0.4,0,0.7-0.3,0.7-0.6c2.1-11.1,5.2-22,9.1-32.6c0.1-0.4-0.1-0.8-0.5-0.9
	c-0.3-0.1-0.7,0.1-0.9,0.4c-3.9,10.7-7,21.6-9.2,32.8c-0.1,0.4,0.2,0.8,0.6,0.9c0,0,0,0,0,0L439.4,470.7z"/>
<path fill="#393762" d="M518.4,426.7c0.1,0,0.2,0,0.3-0.1c0.4-0.2,0.6-0.6,0.4-1c0,0,0,0,0,0l-2.4-5.6c-0.2-0.4-0.7-0.5-1-0.3
	c-0.3,0.2-0.5,0.5-0.3,0.9l2.4,5.6C517.8,426.5,518.1,426.7,518.4,426.7z"/>
<polygon fill="#231F1E" points="486.1,619.9 485,670.4 485,681 471.2,681 476.1,671.8 463.5,619.9 "/>
<path fill="#E48868" d="M494.9,305.4v17.4c0,0-8.8,14.9-16.9,0.4l0.7-17.7H494.9z"/>
<path fill="#E48868" d="M491.4,264.2c15,2,17.4,19.3,13.8,33c-2.7,10.2-8.8,20.5-18.4,20.3S471.3,304,469.6,296
	C466.8,283,467.4,261,491.4,264.2z"/>
<path fill="#E48868" d="M503.4,293.4c0,0,0.6-5.7,5.2-3.8c4.6,1.9-1,14.9-6.2,13.4S503.4,293.4,503.4,293.4z"/>
<path fill="#E48868" d="M472.6,293.1c0,0-0.2-5.8-4.9-4.2s0,14.9,5.2,13.8S472.6,293.1,472.6,293.1z"/>
<path fill="#BA745D" d="M486.7,318.2c2.3,0,4.6-0.6,6.5-1.8c0.3-0.2,0.5-0.7,0.3-1c-0.2-0.3-0.6-0.5-1-0.3c-3.8,2.2-8.5,2-12.2-0.4
	c-0.3-0.2-0.8-0.1-1,0.2s-0.1,0.8,0.2,1C481.6,317.5,484.1,318.2,486.7,318.2z"/>
<path fill="#CE9E28" d="M479.2,273.6c-0.2,9.1,1.5,18.5,6.3,26.2s12.9,13.7,22,14.6c3.2-7.9,5.6-16.5,4.7-25s-4.9-16.8-11.7-21.9
	s-16.6-6.4-24-2.3c-6.2,3.5-10.1,10.2-11.8,17.1s-1.5,10.8-1.2,17.9C473.9,294.8,480.7,285.3,479.2,273.6z"/>
<path fill="#111111" d="M432.5,496.4l-28.9-18.6c-1.5-1-1.9-3-1-4.5l8.5-13.2c1-1.5,3-1.9,4.5-1l28.9,18.6c1.5,1,1.9,3,1,4.5
	l-8.5,13.2C436,496.9,434,497.4,432.5,496.4z"/>
<path fill="#D1CEC3" d="M428.7,491.8l-22.8-14.7c-1.4-0.9-1.8-2.7-0.9-4l6.5-10.1c0.9-1.4,2.7-1.8,4-0.9l22.8,14.7
	c1.4,0.9,1.8,2.7,0.9,4l-6.5,10.1C431.9,492.2,430.1,492.6,428.7,491.8z"/>
<polygon fill="#C6C2B5" points="417.7,463.4 427,490.7 423,488.1 414.2,461.4 "/>
<polygon fill="#C6C2B5" points="411.9,462.3 419.8,486.1 416.9,484.2 410.4,464.6 "/>
<path fill="#969BB5" d="M1824.8,442.2c-26.8,0-35.7,15.6-48.7,48.7l-45,126.7c0,26.8,66.9,40.2,93.7,40.2h95.2V442.2H1824.8z"/>
<path fill="#969BB5" d="M1905.3,553.6h-273c-19.7,0.1-35.7,16-35.7,35.7v89.4c0.1,19.7,16,35.7,35.7,35.7h273
	c5.1,0,10.1-1.1,14.7-3.2V556.8C1915.4,554.7,1910.4,553.6,1905.3,553.6z"/>
<circle fill="#020202" cx="1811.7" cy="719.6" r="80.6"/>
<path fill="#8F9093" d="M1841.7,459.2c-15.5,0-20.6,8.9-28.2,27.8l-26,72.2c0,15.3,38.7,22.9,54.2,22.9h78.3V459.2H1841.7z"/>
<path fill="none" stroke="#9D9D9E" stroke-width="2" stroke-miterlimit="10" d="M404.9,473.1c-20.3-9.9-30.3-31.1-25.7-47.8
	c4.3-15.5,36.8-5.8,62.3-23.2c19.7-13.5,11.3-32.8,33.3-66.7c9.9-15.2,12.9-23.4,20.1-30"/>
</svg>
