<?xml version="1.0" encoding="utf-8"?>
<!-- Generator: Adobe Illustrator 22.0.1, SVG Export Plug-In . SVG Version: 6.00 Build 0)  -->
<svg version="1.1" baseProfile="tiny" id="Layer_1" xmlns="http://www.w3.org/2000/svg" xmlns:xlink="http://www.w3.org/1999/xlink"
	 x="0px" y="0px" viewBox="0 0 189.3 521.5" xml:space="preserve">
<title>grey1</title>
<g id="Layer_2_1_">
	<g id="grey1">
		
			<ellipse transform="matrix(0.1366 -0.9906 0.9906 0.1366 -12.9473 190.242)" fill="#A08E7D" cx="102.7" cy="102.5" rx="86.4" ry="72"/>
		<path fill="#6D6A6A" d="M67.4,427.9h14.4c6.6,0,12,5.4,12,12v64.5c0,6.6-5.4,12-12,12H67.4c-6.6,0-12-5.4-12-12v-64.5
			C55.4,433.2,60.8,427.9,67.4,427.9z"/>
		<path fill="#757070" d="M97,433h14.4c6.6,0,12,5.4,12,12v64.5c0,6.6-5.4,12-12,12H97c-6.6,0-12-5.4-12-12V445
			C85,438.4,90.4,433,97,433z"/>
		<path fill="#595858" d="M130.7,203.7c-12.8-16.6-35.2-31.3-54-27c-30.2,6.8-43.4,60.4-46.3,90.7C24.9,323.2,34,340.7,20,381.3
			C7.6,417.2-4.1,426.7,1.5,439.2c6.8,15.5,48.3-2.4,129.3,5.8c32.2,3.3,50.8,8.6,56,0c6.8-11.2-20-28.3-36.7-61.8
			C114.5,311.8,169.2,253.5,130.7,203.7z"/>
		<path fill="#9B9683" d="M172.3,54.5C177.7,39,133-4.7,91.3,0.4C29.1,8-14.7,166.9,14.8,203.1c14.2,17.4,51.8,27.1,66.8,13.5
			c21.3-19.2-10.7-112,11.6-139C115.9,50.1,167.1,69.7,172.3,54.5z"/>
		<path fill="#6D6B6B" d="M84.2,253.3c26.5,2.5,39.8,3.9,79.6-9.9c46.1-16,16.7-91.5,10.9-116.8c-3.1-13.3-34.8-2.8-27.6,12.8
			c16.4,35.7,18.8,59.4,0.5,76c-17.7,16.1-37-2.6-65.3,9.1C62.7,232.4,83.3,253.2,84.2,253.3z"/>
	</g>
</g>
</svg>
