<svg xmlns="http://www.w3.org/2000/svg" viewBox="0 0 186.83 168.25"><defs><style>.cls-1{fill:#d3d3d1;stroke:#000;stroke-miterlimit:10;}</style></defs><title>piece2</title><g id="Layer_2" data-name="Layer 2"><g id="piece2"><g id="piece_2" data-name="piece 2"><path class="cls-1" d="M186.33,102.4,111.5,160A37.52,37.52,0,0,1,73,164.32l-48.2-22.18L38.6,131.49a15.42,15.42,0,0,0,.24-24.28L13.75,87.14l4.74-32.4a31.43,31.43,0,0,0-2.08-16.63L.75.5H186.33Z"/><path d="M22.85,55.82a14,14,0,0,1,.39-3.26,9,9,0,0,1,1.26-2.94,6.69,6.69,0,0,1,2.24-2.12,6.39,6.39,0,0,1,3.34-.82,4.53,4.53,0,0,1,2,.41,4.15,4.15,0,0,1,1.42,1.08,4.45,4.45,0,0,1,.87,1.55,6.14,6.14,0,0,1,.28,1.87,6.64,6.64,0,0,1-.71,3A8.41,8.41,0,0,1,32,57.14a8,8,0,0,1-2.74,1.67,5.79,5.79,0,0,1-3.14.25,1.91,1.91,0,0,0,.59,1.41,3.55,3.55,0,0,0,1.34.8,6.48,6.48,0,0,0,1.64.35c.56.05,1.07.08,1.51.08a6.61,6.61,0,0,0,1.3-.12c.41-.08.81-.17,1.22-.28s.81-.19,1.22-.27a6.89,6.89,0,0,1,1.32-.12l.54,0a1.82,1.82,0,0,1,.52.14.89.89,0,0,1,.39.33,1,1,0,0,1,.15.56,1.22,1.22,0,0,1-.42,1,3.52,3.52,0,0,1-1.08.65,6.12,6.12,0,0,1-1.43.41c-.53.09-1,.17-1.53.22s-.95.08-1.37.09h-.92a9.34,9.34,0,0,1-3.48-.62,7.13,7.13,0,0,1-4.22-4.39A10,10,0,0,1,22.85,55.82Zm3.21-2a3.17,3.17,0,0,0,.28,1.54c.19.32.66.49,1.41.49a4.39,4.39,0,0,0,1.55-.29,4.83,4.83,0,0,0,1.37-.8,4,4,0,0,0,1-1.22A3.21,3.21,0,0,0,32,52.07a6.28,6.28,0,0,0-.08-.94,2.48,2.48,0,0,0-.31-.89,2.34,2.34,0,0,0-.62-.67,1.75,1.75,0,0,0-1-.25,3.41,3.41,0,0,0-1.65.4,4.27,4.27,0,0,0-1.25,1.06,4.7,4.7,0,0,0-.79,1.46A5,5,0,0,0,26.06,53.86Z"/><path d="M39.22,48.59c0-.18,0-.37,0-.56a1.75,1.75,0,0,1,.12-.55.85.85,0,0,1,.3-.39,1,1,0,0,1,.59-.14h.19a.31.31,0,0,0,.15,0,8.09,8.09,0,0,1,1,2c.28.82.55,1.68.81,2.6s.55,1.85.85,2.79a10.45,10.45,0,0,0,1.18,2.52,5.77,5.77,0,0,0,1.79,1.79,4.31,4.31,0,0,0,2.63.58.9.9,0,0,0,.91-.76A7.8,7.8,0,0,0,50,56.58c0-.79,0-1.65-.06-2.6a24.48,24.48,0,0,1,0-2.71A7.49,7.49,0,0,1,50.38,49a2.13,2.13,0,0,1,1.32-1.3,9,9,0,0,1,.65,2.47c.17,1.12.3,2.41.38,3.87s.12,3.05.12,4.76,0,3.4-.12,5.08-.21,3.31-.37,4.86-.34,2.92-.54,4.09a14.22,14.22,0,0,1-.71,2.77c-.28.67-.56,1-.87.86a4,4,0,0,1-1-1.57,9.83,9.83,0,0,1-.48-2.15,18.34,18.34,0,0,1-.11-2.5c0-.88.06-1.76.11-2.65s.11-1.75.18-2.6c0-.58.08-1.12.09-1.63a.67.67,0,0,0-.63-.69,5.36,5.36,0,0,1-1.58-.35A7.93,7.93,0,0,1,44.61,61a13.9,13.9,0,0,1-2.07-2.17A15,15,0,0,1,40.81,56a17.85,17.85,0,0,1-1.59-7.39Z"/><path d="M73,49a.33.33,0,0,1,0-.15.49.49,0,0,1,0-.15l.37-.39c.16-.16.26-.25.3-.25h6.09A9.84,9.84,0,0,0,79.68,47c-.07-.48-.12-1-.17-1.6a15.67,15.67,0,0,1-.05-1.83,7,7,0,0,1,.26-1.73,2.86,2.86,0,0,1,.73-1.27,1.9,1.9,0,0,1,1.4-.5A22.9,22.9,0,0,0,82.28,45a8,8,0,0,0,1.13,2.84A3.32,3.32,0,0,0,85,49.1a5,5,0,0,0,1.87.26,8.38,8.38,0,0,0,1.86-.29,12.27,12.27,0,0,1,1.62-.33,1.89,1.89,0,0,1,1.13.14c.28.15.43.51.43,1.07a1.21,1.21,0,0,1-.29.91,2.27,2.27,0,0,1-1.11.42l-.8.11c-.37,0-.79.1-1.26.14L87,51.66l-1.48.14c-.47,0-.89.06-1.27.07l-.85,0q0,.15,0,.51c0,.25,0,.41,0,.49a8.12,8.12,0,0,0,.42,2.59c.28.83.59,1.67.93,2.49s.64,1.66.92,2.49A7.91,7.91,0,0,1,86,63a2.89,2.89,0,0,1,0,.5,1.12,1.12,0,0,1-.18.45,1,1,0,0,1-.4.31,1.06,1.06,0,0,1-.71-.05A2.64,2.64,0,0,1,83,62.94a8.12,8.12,0,0,1-.83-2.38,21.75,21.75,0,0,1-.37-2.92c-.06-1-.15-2-.28-2.89a8.79,8.79,0,0,0-.62-2.3,1.93,1.93,0,0,0-1.37-1.17L73.68,50c-.08,0-.2-.08-.36-.26a2.16,2.16,0,0,1-.31-.37.35.35,0,0,1,0-.16A.42.42,0,0,1,73,49Z"/><path d="M93.09,58.1A7.26,7.26,0,0,1,94,54.6a9.3,9.3,0,0,1,2.32-2.79A11.71,11.71,0,0,1,99.52,50a10.63,10.63,0,0,1,3.4-.66,3.17,3.17,0,0,1,2.15.72,5.94,5.94,0,0,1,1.28,1.56,8.79,8.79,0,0,1,.83,2,7.36,7.36,0,0,1,.29,1.85,7.18,7.18,0,0,1-.82,3.29,10.4,10.4,0,0,1-2.12,2.81,10.86,10.86,0,0,1-2.94,2,7.65,7.65,0,0,1-3.27.76,5.48,5.48,0,0,1-2.45-.5,4.36,4.36,0,0,1-1.6-1.33,5.66,5.66,0,0,1-.9-2A9.81,9.81,0,0,1,93.09,58.1Zm2.57.3a5.75,5.75,0,0,0,.14,1.38,2.43,2.43,0,0,0,.48,1,2.23,2.23,0,0,0,.92.65,4,4,0,0,0,1.43.23,4.66,4.66,0,0,0,2.24-.62,8.45,8.45,0,0,0,2-1.58,8.34,8.34,0,0,0,1.44-2.1,5.29,5.29,0,0,0,.54-2.24,6.89,6.89,0,0,0-.09-1.06,4.35,4.35,0,0,0-.3-1.06,2.15,2.15,0,0,0-.61-.82,1.49,1.49,0,0,0-1-.33,3,3,0,0,0-1.28.36,11.07,11.07,0,0,0-1.55.94,15.44,15.44,0,0,0-1.57,1.3c-.51.49-1,1-1.41,1.46a8.21,8.21,0,0,0-1,1.39A2.4,2.4,0,0,0,95.66,58.4Z"/><path d="M26.55,82.64c0-.1,0-.28,0-.53s0-.51,0-.79,0-.53,0-.77,0-.4,0-.48a3.25,3.25,0,0,1,1.25-1,.71.71,0,0,1,.8.17,1.94,1.94,0,0,1,.44,1,12.87,12.87,0,0,1,.2,1.57c0,.59.06,1.21.06,1.85s0,1.25,0,1.8A14.09,14.09,0,0,0,29.51,87a1.35,1.35,0,0,0,.34.85H40.23a1,1,0,0,0,.91-.4,2,2,0,0,0,.31-1,7.34,7.34,0,0,0,0-1.46c-.06-.54-.12-1.1-.17-1.68a16.1,16.1,0,0,1-.06-1.69,4.1,4.1,0,0,1,.27-1.47,2.16,2.16,0,0,1,1.93-1.4.73.73,0,0,1,.74.44,3,3,0,0,1,.23.79,7.32,7.32,0,0,1,0,1.41q0,.72-.15,1.44a9.35,9.35,0,0,0-.11,1.37,28.56,28.56,0,0,0,.23,3.58c.15,1.19.31,2.38.49,3.57s.33,2.38.48,3.56a27.63,27.63,0,0,1,.23,3.49,7.43,7.43,0,0,1-.25,2.68c-.2.54-.45.78-.75.73s-.64-.36-1-.92a10.27,10.27,0,0,1-1-2.28,20.33,20.33,0,0,1-.75-3.34,23.6,23.6,0,0,1-.24-3.46.69.69,0,0,0-.69-.7H31.38a.69.69,0,0,0-.69.77c.12,1.11.28,2.16.47,3.16.23,1.23.42,2.32.55,3.26a12.33,12.33,0,0,1,.15,2.24c0,.55-.24.84-.62.86a2.08,2.08,0,0,1-1.49-.59,4.87,4.87,0,0,1-1-1.62A12.33,12.33,0,0,1,28,96.73c-.18-.91-.33-1.88-.46-2.9s-.21-2.07-.28-3.14-.14-2.09-.2-3.08-.13-1.92-.21-2.77S26.67,83.25,26.55,82.64Z"/><path d="M47.31,93a13.53,13.53,0,0,1,.4-3.26A9.23,9.23,0,0,1,49,86.82,6.79,6.79,0,0,1,51.2,84.7a6.42,6.42,0,0,1,3.35-.82,4.56,4.56,0,0,1,2,.41,4.36,4.36,0,0,1,1.42,1.08,4.43,4.43,0,0,1,.86,1.55,6.14,6.14,0,0,1,.29,1.87,6.77,6.77,0,0,1-.71,3,8.58,8.58,0,0,1-1.91,2.56A8.12,8.12,0,0,1,53.73,96a5.83,5.83,0,0,1-3.15.25,2,2,0,0,0,.59,1.41,3.59,3.59,0,0,0,1.35.8,6.4,6.4,0,0,0,1.63.35c.57.05,1.07.08,1.52.08a6.68,6.68,0,0,0,1.3-.12c.4-.08.81-.17,1.21-.28s.81-.19,1.23-.27a6.86,6.86,0,0,1,1.31-.12,4.93,4.93,0,0,1,.55,0,1.75,1.75,0,0,1,.51.14.92.92,0,0,1,.4.33,1,1,0,0,1,.15.56,1.2,1.2,0,0,1-.43,1,3.59,3.59,0,0,1-1.07.65,6.06,6.06,0,0,1-1.44.41c-.52.09-1,.17-1.53.22s-1,.08-1.36.09h-.92a9.34,9.34,0,0,1-3.48-.62,7.43,7.43,0,0,1-2.61-1.72,7.65,7.65,0,0,1-1.62-2.67A10.27,10.27,0,0,1,47.31,93Zm3.21-2a3.15,3.15,0,0,0,.29,1.54c.19.32.66.49,1.41.49a4.33,4.33,0,0,0,1.54-.29,4.88,4.88,0,0,0,1.38-.8,4,4,0,0,0,1-1.22,3.21,3.21,0,0,0,.37-1.51,6.28,6.28,0,0,0-.08-.94,2.5,2.5,0,0,0-.32-.89,2.21,2.21,0,0,0-.62-.67,1.72,1.72,0,0,0-1-.25,3.36,3.36,0,0,0-1.65.4A4.19,4.19,0,0,0,51.58,88a5.15,5.15,0,0,0-.79,1.46A5,5,0,0,0,50.52,91.06Z"/><path d="M77.55,98.31a.69.69,0,0,0-1-.29l-1.28.92a13,13,0,0,1-1.62,1,6.77,6.77,0,0,1-1.68.63,9.18,9.18,0,0,1-2.19.22,5.37,5.37,0,0,1-4.18-1.5,6.44,6.44,0,0,1-1.36-4.47,10.16,10.16,0,0,1,.3-2.39A12.65,12.65,0,0,1,65.4,90a14.31,14.31,0,0,1,1.41-2.33,10.71,10.71,0,0,1,1.85-2,8.64,8.64,0,0,1,2.19-1.35,6.27,6.27,0,0,1,2.47-.5A7.12,7.12,0,0,1,76.74,85a5.51,5.51,0,0,1,1.88,2.21,10.63,10.63,0,0,1,.87,3c.16,1.1.29,2.24.38,3.41s.21,2.34.35,3.51a11,11,0,0,0,.77,3,.7.7,0,0,1,0,.53,4.52,4.52,0,0,1-.63,1.14.54.54,0,0,1-.78.13,3.63,3.63,0,0,1-1-1.33Q78.17,99.69,77.55,98.31ZM66.78,94.93a4,4,0,0,0,.65,2.53,2.83,2.83,0,0,0,2.32.8,6.35,6.35,0,0,0,2.37-.44,6,6,0,0,0,2-1.21,5.84,5.84,0,0,0,1.37-1.86A5.64,5.64,0,0,0,76,92.33q0-.54,0-1.53a10.54,10.54,0,0,0-.12-2,4.63,4.63,0,0,0-.57-1.68A1.39,1.39,0,0,0,74,86.46a5.46,5.46,0,0,0-2.9.8,8.14,8.14,0,0,0-2.3,2A10.06,10.06,0,0,0,67.32,92,8.5,8.5,0,0,0,66.78,94.93Z"/><path d="M83,88.73a3.51,3.51,0,0,1,0-.56,1.89,1.89,0,0,1,.12-.52.88.88,0,0,1,.28-.38.93.93,0,0,1,.56-.15c.21,0,.43.16.69.47a9.32,9.32,0,0,1,.77,1.18c.26.48.52,1,.77,1.56s.47,1.09.67,1.56.34.88.46,1.23a4.88,4.88,0,0,0,.22.54c.26-.71.55-1.47.87-2.3A13,13,0,0,1,89.65,89a7.12,7.12,0,0,1,1.7-1.8,3.93,3.93,0,0,1,2.4-.72,4.16,4.16,0,0,1,1.38.22,3.48,3.48,0,0,1,1.15.67,3.41,3.41,0,0,1,.8,1,3.14,3.14,0,0,1,.31,1.4,1,1,0,0,1-.53.93,2.53,2.53,0,0,1-1.2.28h-.3l-1.31-1.3a.12.12,0,0,1-.09,0l-.1,0-.11,0a2.23,2.23,0,0,0-1.65.6,3.74,3.74,0,0,0-.89,1.45,7.19,7.19,0,0,0-.38,1.81c0,.64-.07,1.22-.07,1.75a6.38,6.38,0,0,0,.12,1.22c.08.42.17.82.27,1.21s.19.8.27,1.21a6.88,6.88,0,0,1,.12,1.29c0,.85-.45,1.27-1.36,1.27a2.34,2.34,0,0,1-1.57-.8,11.91,11.91,0,0,1-1.62-2,24.27,24.27,0,0,1-1.53-2.74c-.49-1-.91-2-1.27-2.93a25.22,25.22,0,0,1-.87-2.57A7.17,7.17,0,0,1,83,88.73Z"/><path d="M97.81,86.18a.33.33,0,0,1,0-.15.49.49,0,0,1,0-.15,5.09,5.09,0,0,1,.36-.39c.16-.16.26-.25.31-.25h6.08a9.51,9.51,0,0,0-.09-1c-.06-.49-.12-1-.17-1.61a15.72,15.72,0,0,1,0-1.83,6.55,6.55,0,0,1,.26-1.73,2.94,2.94,0,0,1,.72-1.27,1.91,1.91,0,0,1,1.41-.5,23,23,0,0,0,.42,4.91A8,8,0,0,0,108.27,85a3.24,3.24,0,0,0,1.62,1.3,4.88,4.88,0,0,0,1.86.26,8.2,8.2,0,0,0,1.86-.29,13,13,0,0,1,1.62-.33,1.92,1.92,0,0,1,1.14.14c.28.15.42.51.42,1.07a1.21,1.21,0,0,1-.29.91,2.27,2.27,0,0,1-1.1.42l-.8.11c-.38,0-.8.1-1.26.14l-1.48.13-1.49.14c-.46,0-.89.06-1.27.07l-.85,0q0,.15,0,.51c0,.25,0,.41,0,.49a7.86,7.86,0,0,0,.43,2.59c.28.83.59,1.67.92,2.49s.64,1.66.92,2.49a7.66,7.66,0,0,1,.43,2.57,2.92,2.92,0,0,1,0,.5,1.12,1.12,0,0,1-.18.45.87.87,0,0,1-.39.31,1.09,1.09,0,0,1-.72,0,2.66,2.66,0,0,1-1.71-1.3,8.12,8.12,0,0,1-.83-2.38,21.78,21.78,0,0,1-.36-2.92c-.06-1-.16-2-.29-2.89a8.9,8.9,0,0,0-.62-2.3,1.92,1.92,0,0,0-1.36-1.17l-5.84-1.33c-.09,0-.21-.08-.37-.26a2,2,0,0,1-.3-.37.35.35,0,0,1,0-.16A.42.42,0,0,1,97.81,86.18Z"/></g></g></g></svg>