<svg xmlns="http://www.w3.org/2000/svg" viewBox="0 0 205.4 87.04"><defs><style>.cls-1{fill:#d3d3d1;stroke:#000;stroke-miterlimit:10;}</style></defs><title>piece3</title><g id="Layer_2" data-name="Layer 2"><g id="piece3"><g id="piece_3" data-name="piece 3"><path class="cls-1" d="M.5,14.86,72.86,36.49A23.79,23.79,0,0,0,100.93,25L131.29.58,204.4,33.45,149.27,72.1c-8.87,11.63-19,20.67-49.87,9l-37-14L44.23,75.87A25.29,25.29,0,0,1,22.5,76L.5,67.1Z"/><path d="M47.27,55.17a17.64,17.64,0,0,1,.21-2.63,17,17,0,0,1,.67-2.73,14.87,14.87,0,0,1,1.15-2.54,9.43,9.43,0,0,1,1.64-2.13,7.09,7.09,0,0,1,2.13-1.46,6.61,6.61,0,0,1,2.68-.53,9.46,9.46,0,0,1,3.65.67,7.19,7.19,0,0,1,2.66,1.88,7.86,7.86,0,0,1,1.62,2.89,11.94,11.94,0,0,1,.55,3.68,18.74,18.74,0,0,1-.28,3,17.72,17.72,0,0,1-.86,3.23,17.38,17.38,0,0,1-1.47,3,12.31,12.31,0,0,1-2,2.57A8.9,8.9,0,0,1,57,65.92a7.58,7.58,0,0,1-3.16.66A5.73,5.73,0,0,1,51.22,66a5.54,5.54,0,0,1-1.8-1.45,7.27,7.27,0,0,1-1.15-2.11A15.49,15.49,0,0,1,47.62,60a19.6,19.6,0,0,1-.29-2.53C47.29,56.66,47.27,55.88,47.27,55.17Zm2.58,1.36c0,.81,0,1.65.12,2.53a7.75,7.75,0,0,0,.6,2.42A4.6,4.6,0,0,0,52,63.3a3.92,3.92,0,0,0,2.49.71,4.39,4.39,0,0,0,2.33-.62,6.6,6.6,0,0,0,1.81-1.62A11.19,11.19,0,0,0,60,59.52a16.53,16.53,0,0,0,1-2.56,21.42,21.42,0,0,0,.54-2.51,14.91,14.91,0,0,0,.18-2.15,15.14,15.14,0,0,0-.21-2.58,5.77,5.77,0,0,0-.76-2.09,3.72,3.72,0,0,0-1.51-1.37,5.54,5.54,0,0,0-2.57-.5,5.18,5.18,0,0,0-2.35.51,6.06,6.06,0,0,0-1.77,1.36,7.75,7.75,0,0,0-1.26,2,13.69,13.69,0,0,0-.8,2.31A18.82,18.82,0,0,0,50,54.31,19.88,19.88,0,0,0,49.85,56.53Z"/><path d="M65.44,47.12V46a8,8,0,0,1,.15-1.54,4.49,4.49,0,0,1,.48-1.35,1.11,1.11,0,0,1,1-.57c.26,0,.48.22.65.68a9.82,9.82,0,0,1,.43,1.69c.11.68.19,1.43.24,2.24s.09,1.59.12,2.32,0,1.36.07,1.89a5.86,5.86,0,0,0,.1,1c.06.32.17.8.34,1.45s.36,1.38.56,2.19.43,1.67.67,2.56.47,1.74.68,2.54.41,1.54.59,2.18.32,1.11.43,1.4a.82.82,0,0,0,0,.18A.82.82,0,0,1,72,65a.67.67,0,0,1-.23.53,1.53,1.53,0,0,1-.55.3,2.9,2.9,0,0,1-.65.14L70,66l-.35,0-.29,0q-.63-2.11-1.35-4.47t-1.28-4.76c-.39-1.62-.7-3.24-.94-4.86A32.34,32.34,0,0,1,65.44,47.12Z"/><path d="M72.58,47.12V46a8,8,0,0,1,.15-1.54,4.24,4.24,0,0,1,.49-1.35,1.1,1.1,0,0,1,1-.57c.26,0,.47.22.65.68a9,9,0,0,1,.42,1.69c.11.68.19,1.43.24,2.24s.09,1.59.12,2.32.06,1.36.08,1.89a5.24,5.24,0,0,0,.09,1c.06.32.18.8.35,1.45s.36,1.38.56,2.19.42,1.67.66,2.56.47,1.74.69,2.54.4,1.54.59,2.18.32,1.11.42,1.4a.82.82,0,0,0,0,.18.82.82,0,0,1,0,.18.67.67,0,0,1-.23.53,1.57,1.57,0,0,1-.54.3,2.9,2.9,0,0,1-.65.14l-.61,0-.35,0-.28,0q-.64-2.11-1.35-4.47c-.48-1.56-.9-3.15-1.29-4.76s-.69-3.24-.94-4.86A32.34,32.34,0,0,1,72.58,47.12Z"/><path d="M79.73,55.17a17.64,17.64,0,0,1,.21-2.63,16,16,0,0,1,.66-2.73,15.69,15.69,0,0,1,1.15-2.54,9.73,9.73,0,0,1,1.64-2.13,7.22,7.22,0,0,1,2.13-1.46,6.61,6.61,0,0,1,2.68-.53,9.46,9.46,0,0,1,3.65.67,7.11,7.11,0,0,1,2.66,1.88,7.86,7.86,0,0,1,1.62,2.89,11.64,11.64,0,0,1,.55,3.68,18.66,18.66,0,0,1-.27,3,17.75,17.75,0,0,1-.87,3.23,17.38,17.38,0,0,1-1.47,3,12.61,12.61,0,0,1-2,2.57,9,9,0,0,1-2.62,1.79,7.66,7.66,0,0,1-3.17.66A5.68,5.68,0,0,1,83.68,66a5.48,5.48,0,0,1-1.81-1.45,7.51,7.51,0,0,1-1.15-2.11A15.49,15.49,0,0,1,80.07,60a19.58,19.58,0,0,1-.28-2.53C79.75,56.66,79.73,55.88,79.73,55.17Zm2.57,1.36c0,.81,0,1.65.12,2.53A7.49,7.49,0,0,0,83,61.48a4.51,4.51,0,0,0,1.39,1.82A3.87,3.87,0,0,0,86.9,64a4.37,4.37,0,0,0,2.33-.62,6.64,6.64,0,0,0,1.82-1.62,12.18,12.18,0,0,0,1.38-2.25A16.48,16.48,0,0,0,93.38,57a21.42,21.42,0,0,0,.54-2.51,13.72,13.72,0,0,0,0-4.73,6,6,0,0,0-.75-2.09,3.81,3.81,0,0,0-1.52-1.37,5.52,5.52,0,0,0-2.57-.5,5.18,5.18,0,0,0-2.35.51,6.34,6.34,0,0,0-1.77,1.36,7.72,7.72,0,0,0-1.25,2,13.72,13.72,0,0,0-.81,2.31,20.73,20.73,0,0,0-.44,2.41A19.88,19.88,0,0,0,82.3,56.53Z"/><path d="M97.89,47.12V46A8,8,0,0,1,98,44.41a4.24,4.24,0,0,1,.49-1.35,1.1,1.1,0,0,1,1-.57c.27,0,.48.22.66.68a9,9,0,0,1,.42,1.69c.11.68.19,1.43.24,2.24s.09,1.59.12,2.32.06,1.36.08,1.89a5.24,5.24,0,0,0,.09,1c.06.32.18.8.35,1.45s.35,1.38.56,2.19.42,1.67.66,2.56.47,1.74.68,2.54.41,1.54.59,2.18.33,1.11.43,1.4a.82.82,0,0,0,0,.18.82.82,0,0,1,0,.18.67.67,0,0,1-.23.53,1.57,1.57,0,0,1-.54.3,2.9,2.9,0,0,1-.65.14l-.61,0-.35,0-.29,0-1.34-4.47q-.72-2.34-1.29-4.76c-.38-1.62-.7-3.24-.94-4.86A32.34,32.34,0,0,1,97.89,47.12Z"/></g></g></g></svg>