<?xml version="1.0" encoding="utf-8"?>
<!-- Generator: Adobe Illustrator 22.0.1, SVG Export Plug-In . SVG Version: 6.00 Build 0)  -->
<svg version="1.1" baseProfile="tiny" id="Layer_1" xmlns="http://www.w3.org/2000/svg" xmlns:xlink="http://www.w3.org/1999/xlink"
	 x="0px" y="0px" viewBox="0 0 1286.1 904.2" xml:space="preserve">
<title>SBPg1</title>
<g id="Layer_2_1_">
	<g id="Layer_2-2">
		<path fill="#A38672" d="M605.9,837.9L34.1,904.2c-18.8,0-34.1-14-34.1-31.1L13.7,51.8c0-17.1,15.4-31.1,34.1-31.1l558,44
			c18.8,0,34.1,14,34.1,31.1v711C640,823.9,624.7,837.9,605.9,837.9z"/>
		<path fill="#C6A185" d="M611.9,828.1L40.1,894.4c-18.8,0-34.1-14-34.1-31.1L19.7,42c0-17.1,15.4-31.1,34.1-31.1l558,44
			c18.8,0,34.1,14,34.1,31.1v711C646,814.1,630.7,828.1,611.9,828.1z"/>
		<path fill="#D6D6D6" d="M644,811.1c-113.4-12.1-197.9-11.4-293.8,5.1C232,836.5,131.1,869.3,19.4,869.3
			C25.7,570.4,39.6,335,46,36.1c99.4-7.6,187.7-33.3,285.7-22.8C435.6,24.5,538.9,51.9,644,69V811.1z"/>
		<path fill="#E5E5E5" d="M653.3,800.2c-111.9-12.1-195.3-11.4-290,5.1c-116.8,20.3-216.4,53.1-326.7,53.1
			c6.2-298.8,20-534.3,26.2-833.2C161,17.7,248.2-8,344.9,2.5C447.5,13.7,549.5,41,653.3,58.2V800.2z"/>
		<path fill="#A38672" d="M678.2,836.9l571.8,66.3c18.8,0,34.1-14,34.1-31.1l-13.8-821.3c0-17.1-15.4-31.1-34.1-31.1l-558.1,44
			c-18.8,0-34.1,14-34.1,31.1v711C644,822.9,659.4,836.9,678.2,836.9z"/>
		<path fill="#C6A185" d="M680.2,828.1l571.8,66.3c18.8,0,34.1-14,34.1-31.1L1272.3,42c0-17.1-15.4-31.1-34.1-31.1l-558.1,44
			c-18.8,0-34.2,14-34.2,31.1v711C646,814.1,661.4,828.1,680.2,828.1z"/>
		<path fill="#D6D6D6" d="M644,811.1c113.9-12.1,198.8-11.4,295.2,5.1c118.8,20.3,220.3,53.1,332.5,53.1
			c-6.4-298.8-5.1-534.3-11.4-833.2c-100-7.6-203.9-33.3-302.4-22.8C853.5,24.5,748.5,57.8,644,69V811.1z"/>
		<path fill="#E5E5E5" d="M645,800.2c111.9-12.1,195.3-11.4,290,5.1c116.8,20.3,216.4,53.1,326.7,53.1
			c-6.2-298.8-5-534.3-11.2-833.2C1152.3,17.7,1050.2-8,953.4,2.5C850.8,13.7,747.6,47,645,58.2V800.2z"/>
		<line fill="none" stroke="#A38672" stroke-miterlimit="10" x1="645" y1="58.2" x2="645" y2="800.2"/>
		<path fill="#F7F7F7" d="M732.3,682.6c90.1-3.3,145.9-2.7,214.6,1.9c91.1,6.1,120.4,11.4,218,23c1.5-211.6,2-368.8,1.6-587
			c-70.4-5.4-97.9-4.6-213.2,5.9c-73.7,6.7-147.5,16.2-221.1,24.3L732.3,682.6z"/>
		<path fill="#9BDBEA" d="M746.3,612.5c79.1-1.9,138.2-4.9,211.6-3.2c54.1,1.3,111.1,5.7,185.4,14.8c5.4,0.7,10.3-3.2,10.9-8.5
			c0-0.4,0.1-0.8,0.1-1.2c0-166.9-0.2-297.1-1.4-473.9c-66-4.5-134.5-2.5-199.5,3.8c-68.9,6.6-138.2,15.1-207.1,21.7V612.5z"/>
		<path fill="#3F4A51" d="M815.6,609.9c48.1-1.4,91.8-2.4,142.3-1.2c54.1,1.3,111.1,5.7,185.4,14.8c2.2,0.3,4.5-0.2,6.4-1.4
			c3.7-3.2,4.6-9.3,4.6-20.6v-0.4l-1.7-334.8c0-16.3-14.7-43.9-29.8-50l-51-27c-50.4-21-66.7,8.6-77.9,16.8l-61.5,79.2
			c-1.4,1-2.7,2.2-4,3.4L808.2,412.6c-14.8,23.7-6.4,16.8-17.8,42l-44.1,157.2C797.4,608.8,802.1,609,815.6,609.9z"/>
		<path fill="#D7DADB" d="M1152.4,265.3c-1.6-20.4-12.6-38.9-29.8-50l-51-27c-50.4-21-66.7,8.6-77.9,16.8l-61.5,79.2
			c-1.4,1-2.7,2.2-4,3.4c34.3,2.3,51-6.5,59.7-16.4c7.8-8.9,11-20.6,16-20c7.8,1,5.8,30.1,16,33c11.4,3.2,24.1-30.2,36-28
			c17.5,3.2,10.9,78.9,28,82c9.4,1.7,22-19.3,26-27c6.3-12.2,11-30,11-30s6.4,14.3,12,15C1136.8,296.8,1142.8,291,1152.4,265.3z"/>
		<polygon fill="#595152" points="828.7,549.6 918.1,549.6 911.5,540.6 834.8,540.6 		"/>
		<path fill="#040407" d="M826.5,523c-3.8,63.5-3.5,87.3-3.5,87.3l38.3-2l9.8-69.9l6.7,0.1l9.5,69.4l41.4-0.1c0,0-1.4,10.5-5-84.9
			L826.5,523z"/>
		<path fill="#E48868" d="M861.4,315.1v26.2c0,0,16,0.4,30.5-0.2l-1.3-26H861.4z"/>
		<path fill="#1C2133" d="M828.1,425.4L821.6,531c0.3,0.4,0.5,0.8,0.9,1.1l3.6,4.3l0.3,13.1h97.3l3.3-13.7
			c6.1-3.6,9.6-11.1,8.8-18.8l-9.8-93.8l13.4-59.8c-2.6-3.8-30.3-18.1-45.7-27.3c-6.5,2.2-9.5,2.4-18.4,3.6
			c-11-1.5-13.1-4.4-21.6-1.1c-20.7,7.9-37.9,24.9-41.2,28.2L828.1,425.4z"/>
		<path fill="#E48868" d="M876.5,269.4c-17.1,0.5-19.6,19.6-19.3,35.6s7.3,26.6,18.2,27.5s18.8-10.1,22-24.7
			S903.9,268.5,876.5,269.4z"/>
		<path fill="#E48868" d="M859.6,300.9c0,0,0-6.5-5.4-4.9s-0.5,16.8,5.4,15.8S859.6,300.9,859.6,300.9z"/>
		<path fill="#E48868" d="M894.3,305.5c0,0,0.8-6.5,6-4.2s-1.6,16.8-7.4,14.9S894.3,305.5,894.3,305.5z"/>
		<path fill="#E48868" d="M962.3,532.8c0,0-1.7-9.9-4.4-11.1s-11.2,3.8-11.2,3.8s-3.8,6.7-5.9,7.8s-6,6.9-5,7.9s5.6-2.2,5.6-2.2
			l4.8,18.4c1.1,4.1,2.8,1.4,4,0.7s0.8-5.8,0.8-5.8s4.1,0.7,4.7-0.1l1.9-2.5c0,0,4.7,0.5,5.2-0.6s-0.2-3.2-0.2-3.2s2.5-1.7,2.6-2.3
			S962.3,532.8,962.3,532.8z"/>
		<path fill="#E48868" d="M796.3,532.8c0,0,1.7-9.9,4.4-11.1s11.2,3.8,11.2,3.8s3.8,6.7,5.9,7.8s6,6.9,5,7.9s-5.6-2.2-5.6-2.2
			l-4.8,18.4c-1.1,4.1-2.8,1.4-4,0.7s-0.8-5.8-0.8-5.8s-4.1,0.7-4.7-0.1s-1.9-2.5-1.9-2.5s-4.7,0.5-5.2-0.6s0.2-3.2,0.2-3.2
			s-2.5-1.7-2.6-2.3S796.3,532.8,796.3,532.8z"/>
		<path fill="#331F07" d="M866.3,284c0.3,6.6-5.5,10.1-5.5,10.1v12.7l-2-0.9c0-3.3-0.5-6.6-1.3-9.8c-1-0.8-3.2-0.1-3.2-0.1
			s-1.6-8.5-2.3-11.4s5.4-6.7,5.5-6.8c0.5-0.3,0-5,0.3-5.9c2.3-5.5,10.8-5.7,15.8-5.6c10.6,0.2,21.2,1.7,31.4,4.6
			c-0.8,7.1-2.1,14.1-4,21.1C891.1,286.3,877.7,284.6,866.3,284z"/>
		<path fill="#331F07" d="M891.9,286.2c0,0-2.2,8.2,3.3,9.5v8.9l1.2,0.8c0,0,0.7-3.5,2.6-4.5l3.2-13.9L891.9,286.2z"/>
		<path fill="#BA745D" d="M876.5,333.3c-0.4,0-0.8,0-1.2,0c-4.9-0.4-9.4-2.8-12.4-6.7c-0.3-0.4-0.2-0.9,0.1-1.2c0,0,0,0,0,0
			c0.4-0.3,0.9-0.2,1.2,0.1c2.7,3.5,6.8,5.7,11.3,6c4.6,0.3,8.8-1.5,12.4-5.5c0.3-0.3,0.9-0.3,1.2,0.1c0.3,0.3,0.3,0.8,0,1.1
			C885.5,331.2,881.1,333.3,876.5,333.3z"/>
		<path fill="#541604" d="M861.4,322.8l-20.9,3.2l8,14.1c0,0-32.9,16-35.9,17.7S791,518.8,790.4,523l22.9,3.8l-0.8,22.8l46.8,5.4
			c0,0-8.8-36.8-2.3-84.6S861.4,322.8,861.4,322.8z"/>
		<path fill="#541604" d="M891.1,323.3l20.9,3.2l-6.9,13.7c0,0,32.9,16,35.9,17.7s21.6,160.9,22.1,165.1l-22.4,10.4l-1.4,26.3h-28.8
			c0,0-7.6-41.6-14.1-89.4S891.1,323.3,891.1,323.3z"/>
		<path fill="#734E4F" d="M806.5,521.7h-0.1c-0.5-0.1-0.8-0.5-0.7-0.9c0,0,0,0,0,0L822.5,400c1.6-11.5-2.6-23.9-6.5-33.3
			c-0.2-0.4,0-0.9,0.5-1.1c0.4-0.2,0.9,0,1.1,0.5c3.9,9.6,8.3,22.3,6.6,34.2l-16.9,120.7C807.2,521.4,806.9,521.7,806.5,521.7z"/>
		<path fill="#070606" d="M806.5,521.7h-0.1c-0.5-0.1-0.8-0.5-0.7-0.9c0,0,0,0,0,0L822.5,400c1.6-11.5-2.6-23.9-6.5-33.3
			c-0.2-0.4,0-0.9,0.5-1.1c0.4-0.2,0.9,0,1.1,0.5c3.9,9.6,8.3,22.3,6.6,34.2l-16.9,120.7C807.2,521.4,806.9,521.7,806.5,521.7z"/>
		<path fill="#070606" d="M855.1,373.9c-2.3,0-4.2-1.9-4.2-4.2c0-2.3,1.9-4.2,4.2-4.2c2.3,0,4.2,1.9,4.2,4.2c0,0,0,0,0,0
			C859.3,372,857.4,373.9,855.1,373.9z M855.1,367.2c-1.4,0-2.5,1.1-2.5,2.5c0,1.4,1.1,2.5,2.5,2.5c1.4,0,2.5-1.1,2.5-2.5
			S856.5,367.2,855.1,367.2L855.1,367.2z"/>
		<path fill="#070606" d="M851.8,451.2c-2.3,0-4.2-1.9-4.2-4.2c0-2.3,1.9-4.2,4.2-4.2c2.3,0,4.2,1.9,4.2,4.2c0,0,0,0,0,0
			C856,449.3,854.1,451.2,851.8,451.2z M851.8,444.5c-1.4,0-2.5,1.1-2.5,2.5c0,1.4,1.1,2.5,2.5,2.5c1.4,0,2.5-1.1,2.5-2.5
			S853.2,444.5,851.8,444.5L851.8,444.5z"/>
		<path fill="#070606" d="M839.3,541.5c-2.3,0-4.2-1.9-4.2-4.2s1.9-4.2,4.2-4.2c2.3,0,4.2,1.9,4.2,4.2
			C843.6,539.6,841.7,541.5,839.3,541.5C839.3,541.5,839.3,541.5,839.3,541.5z M839.3,534.7c-1.4,0-2.5,1.1-2.5,2.5
			c0,1.4,1.1,2.5,2.5,2.5c1.4,0,2.5-1.1,2.5-2.5C841.9,535.9,840.7,534.7,839.3,534.7C839.3,534.7,839.3,534.7,839.3,534.7z"/>
		<path fill="#070606" d="M897.8,369.4h-3.9c-0.5,0.1-0.9-0.3-0.9-0.8s0.3-0.9,0.8-0.9c0.1,0,0.1,0,0.2,0h3.9
			c0.5,0.1,0.8,0.5,0.8,0.9C898.5,369.1,898.2,369.4,897.8,369.4z"/>
		<path fill="#070606" d="M902.9,447h-5.1c-0.5-0.1-0.8-0.5-0.8-0.9c0-0.4,0.4-0.7,0.8-0.8h5.1c0.5,0.1,0.8,0.5,0.8,0.9
			C903.6,446.6,903.3,447,902.9,447z"/>
		<path fill="#070606" d="M946.9,521.7c-0.4,0-0.8-0.3-0.8-0.7l-16.9-120.7c-1.7-11.9,2.6-24.5,6.6-34.2c0.2-0.4,0.7-0.6,1.1-0.5
			c0.4,0.2,0.6,0.7,0.5,1.1c-3.9,9.5-8.1,21.8-6.5,33.3l16.9,120.7c0.1,0.5-0.3,0.9-0.7,0.9c0,0,0,0,0,0L946.9,521.7z"/>
		<path fill="#020202" d="M890.4,444.1h-0.2c-12.3-3-22-17.9-24.8-30.4c-0.1-0.5,0.2-0.9,0.6-1c0.5-0.1,0.9,0.2,1,0.6
			c2.5,11,10.3,23.9,20.6,28.2c-5.6-6.6-9.7-14.3-12-22.6c-0.1-0.5,0.1-0.9,0.6-1c0.5-0.1,0.9,0.1,1,0.6c2.5,9.1,7.2,17.4,13.7,24.2
			c0.3,0.3,0.3,0.9,0,1.2C890.8,444,890.6,444.1,890.4,444.1L890.4,444.1z"/>
		<polyline fill="#1D1D33" points="960.5,528.9 1003.8,536.2 1047,528.9 1044.2,613.2 1018.7,610.3 1004.2,551.1 998.9,610.3 
			969.8,610.3 		"/>
		<path fill="#E48868" d="M944.2,531.5c0,0-2.9,11.1-3.4,14.7s-0.5,5.4,2.3,4.7s-0.3,4.9,3.9,4.4s11.4-11.9,11.4-11.9l-7-9.8
			L944.2,531.5z"/>
		<path fill="#60421E" d="M1029.4,383.4c0,0,4.4-31.9,0.6-47.9s-18.9-21.8-28.2-20.8s-26.8,5.2-27,29.6s4,41.8,4,41.8L1029.4,383.4z
			"/>
		<path fill="#232323" d="M1034.1,427.7l9.6,33.6c12.5,18.3,8.3,46.4,9.7,69.3c0.3,4.6-3.2,8.6-7.9,8.9c-0.2,0-0.4,0-0.6,0
			l-83.3-0.8c-1.5,0-2.8-1.3-2.8-2.8c0-0.1,0-0.3,0-0.4c8.5-51.8,8.8-71.7,8.8-71.7l4.6-36.5c-7.4-7-7.8-18.1-7.8-23v-18.6
			c0,0,32.9-16,40.3-16s37.9,14.4,37.9,14.4v19.8C1045.2,418.2,1034.1,427.7,1034.1,427.7z"/>
		<path fill="#333231" d="M1041.8,385.1c5.1,3.5,5.9,14.8,8.2,22.7s17.1,28.5,14.3,36.2s-6.6,8.1-3.5,17.8s-5.4,13.3-12.8,11.3
			s-25.3-14.1-25.3-14.1l1.5-5.7l8.6-33L1041.8,385.1z"/>
		<path fill="#333231" d="M966.7,385.1c-5.8,3.7-10.8,9.9-11.6,13.2s-8.2,74.9-7.8,84.4s-7.4,7.4-4.1,21s-7.8,12.8-2.9,21.8l1.2,7.4
			l17.1,3.6l10.8-31.7l2.9-76.4L966.7,385.1z"/>
		<path fill="#CFB199" d="M1014.1,423.1c0-0.1,0.1-0.1,0.1-0.2c3.2-10.6,3.3-31.2-0.7-41.1c-0.2-0.5-0.7-0.7-1.2-0.5
			c0,0-0.1,0-0.1,0c-0.5,0.2-0.8,0.9-0.5,1.4c3.8,9.5,3.6,29.5,0.6,39.7c-0.2,0.5,0.1,1.1,0.6,1.3c0,0,0,0,0,0
			C1013.4,423.8,1013.9,423.6,1014.1,423.1z"/>
		<path fill="#CFB199" d="M989.3,418.8c0-0.1-0.1-0.2-0.1-0.3c-2.9-13-1.4-26.9,4.2-38c0.3-0.5,0.9-0.8,1.5-0.5c0,0,0.1,0,0.1,0.1
			c0.6,0.3,0.8,1.1,0.5,1.7c-5.3,10.7-6.8,24-4,36.4c0.2,0.6-0.2,1.2-0.8,1.4c0,0-0.1,0-0.1,0C990.1,419.7,989.6,419.4,989.3,418.8z
			"/>
		<path fill="#E48868" d="M1011.5,361v18.1c0,0-9.2,15.5-17.6,0.4l0.7-18.5L1011.5,361z"/>
		<path fill="#E48868" d="M1007.8,318c15.6,2,18.1,20.1,14.4,34.4c-2.8,10.6-9.2,21.4-19.2,21.1s-16.1-14-17.8-22.4
			C982.2,337.6,982.8,314.7,1007.8,318z"/>
		<path fill="#E48868" d="M1019.3,358.4c-5.4-1.5,1-9.9,1-9.9s0.6-6,5.4-4"/>
		<path fill="#E48868" d="M988.2,348.1c0,0-0.2-6-5.1-4.4s0,15.5,5.4,14.3S988.2,348.1,988.2,348.1z"/>
		<path fill="#60421E" d="M986.6,314.4c1.2-0.5,2.6-0.8,3.9-0.8c0.3-1,1-1.8,1.8-2.3c5.5-3,18.4-2.5,24.1,0s12.3,12.9,13.7,19
			c1.6,6.4-1.5,7.9-3.1,14.3c-0.4,1.8-1.1,3.9-2.7,4.8c-1.4,0.8-3.1,0.5-4.7,0.1c-8.7-2.2-17.2-9.3-23.4-15.8
			c-0.9-0.9-1.7-1.9-2.5-3c0,0-2.8,7.9-2.8,7.9c-2.2,6-1.3,11-6.2,15c-0.5,0.5-1.2,0.8-1.9,0.9c-1.1,0-1.8-1.2-2.3-2.3
			c-1.8-3.9-3.5-7.9-3.7-12.1S982.7,316.2,986.6,314.4z"/>
		<path fill="#BA745D" d="M1002.9,374.3c2.4,0,4.7-0.6,6.8-1.8c0.4-0.2,0.4-0.7,0.2-1.1c-0.2-0.3-0.6-0.4-1-0.3
			c-4,2.2-8.9,2.1-12.7-0.4c-0.4-0.2-0.8-0.1-1.1,0.2c-0.2,0.4-0.1,0.8,0.2,1.1C997.6,373.5,1000.2,374.3,1002.9,374.3z"/>
		<path fill="#191919" d="M1055,446.7c0.4,0,0.8-0.4,0.7-0.8c0-0.3-0.3-0.6-0.6-0.7l-22.7-3.8c-0.4,0-0.8,0.3-0.8,0.7
			c0,0.4,0.2,0.7,0.6,0.8l22.7,3.8L1055,446.7z"/>
		<path fill="#E48868" d="M1027.7,440l-6-1.9c0,0-0.1-9.5-1.6-11.3l-3.8,3.6c0,0-6.2-11.6-7-11.3l-4.1,1.8l3.1,4.4
			c0,0-2.7,0.5-3,1.3c-0.2,0.7-0.3,1.4-0.2,2.1c-1.2,0.9-2.2,1.9-3.1,3.1c-1.3,1.8-3,2.5-3.4,4.6s8.7,10.1,10.1,11.1
			s15.9,5.8,15.9,5.8L1027.7,440z"/>
		<path fill="#191919" d="M1052.5,473.4c1.9,0,3.8-0.2,5.6-0.7c0.4-0.1,0.7-0.5,0.6-0.9c0,0,0,0,0,0c-0.1-0.4-0.5-0.7-0.9-0.6
			c-9.3,2.3-16.9-2.1-23.6-6c-1.1-0.6-2.3-1.3-3.3-1.9c-0.4-0.2-0.9,0-1,0.4c-0.2,0.4,0,0.8,0.3,1c1.1,0.6,2.2,1.2,3.3,1.9
			C1039,469.8,1045.2,473.4,1052.5,473.4z"/>
		<path fill="#333231" d="M1029.8,520h-43.4c-4.4,0,1.1-4.9,1.1-9.3v-13.2c0-2.8,2.3-5.1,5.1-5.1l0,0h32c2.8,0,3.7,1.7,3.7,4.5
			l1.4,13.9C1029.8,515.1,1034.2,520,1029.8,520z"/>
		<g>
			<path d="M142.8,231.8l-3.8,18.7c-0.2,1-0.3,1.7-0.3,2c0,0.3,0.1,0.6,0.2,1c-1.1,0.6-2.2,0.8-3.1,0.8c-0.6,0-0.9-0.2-0.9-0.7
				c0-0.2,0.1-0.9,0.3-2.1l4-19.9H137c-2.6,0-4.9,0.2-6.8,0.7c0.4-1.5,0.9-2.4,1.5-2.8c0.6-0.4,2-0.5,4.1-0.5H147c3,0,5-1.1,6-3.3
				c0.4,0.7,0.6,1.2,0.6,1.6c0,1.4-0.9,2.6-2.7,3.5c-1.1,0.5-3.1,0.8-6.1,0.8H142.8z"/>
			<path d="M156.7,246.5c3.3-7.4,6.7-11.1,10.1-11.1c1.4,0,2.4,0.6,3,1.7c0.6,1.1,0.9,3,0.9,5.6l0,2c0,3.5,0.5,5.2,1.5,5.3
				c0.8,0,2.1-1,3.9-3c1.8-2,3.6-4.5,5.4-7.6l1.4,0.8c-1.8,3.6-3.8,6.6-6.1,9c-2.3,2.5-4.1,3.7-5.6,3.7c-1.4,0-2.3-0.6-2.9-1.9
				s-0.9-3.4-0.9-6.2v-1.5c0-3.3-0.6-5-1.7-5c-1.6,0-3.7,2.2-6.2,6.7c-2.5,4.5-3.8,7.2-3.8,8c0,0.3,0.1,0.5,0.3,0.8
				c-0.5,0.3-1.1,0.4-1.9,0.4c-1,0-1.5-0.4-1.5-1.3c0-0.6,0.3-2.5,1-5.5c0-0.1,0.2-0.8,0.4-2.1l3.4-17.1c-0.7,0.3-1.5,0.4-2.2,0.4
				c-2.1,0-3.2-1.3-3.2-3.8c1.1,0.8,2.3,1.2,3.7,1.2c2,0,3.9-0.4,5.7-1.2l-2.7,13.7c0,0.2-0.5,2.2-1.5,6.2
				C157.1,244.9,156.9,245.6,156.7,246.5z"/>
			<path d="M198,240.2c-2.5,4.4-5,7.8-7.6,10.3s-4.9,3.7-6.9,3.7c-1.2,0-2.2-0.4-3-1.2c-0.8-0.8-1.1-1.9-1.1-3.2
				c0-0.5,0.1-1.3,0.3-2.4l0.4-1.8c0.5-2.6,0.8-4.5,0.8-5.5c0-0.6-0.2-1.1-0.6-1.5c1.4-0.3,2.3-0.5,2.7-0.5c0.8,0,1.2,0.6,1.2,1.7
				c0,0.9-0.2,2.1-0.5,3.7l-0.6,3.2c-0.3,1.6-0.5,2.6-0.5,3c0,1.4,0.6,2.1,1.7,2.1c1.4,0,3.2-1.2,5.5-3.5c2.3-2.3,4.5-5.3,6.7-8.8
				L198,240.2z M183.2,231.8l0.2,0c0.7,0,1.8-0.4,3.2-1.1c1.4-0.7,2.5-1.4,3.3-2.2c-0.5,1.5-1.4,2.8-2.6,3.8
				c-1.9,1.6-3.2,2.4-3.8,2.4c-0.4,0-0.7-0.3-0.7-0.8C182.8,233.2,182.9,232.5,183.2,231.8z"/>
			<path d="M203.2,247.9c0.4,0.8,0.6,1.6,0.6,2.4c0,1.7-0.7,3.2-2.1,4.4c-1.4,1.3-3.1,1.9-5,1.9c-1.1,0-2.1-0.3-2.9-0.9
				c-0.8-0.6-1.2-1.3-1.2-2.1c0-0.9,0.5-1.7,1.6-2.6s2.9-1.9,5.4-3.2l-1.3-2.1c-1.6-2.6-2.4-4.6-2.4-6.1c0-2.1,1.2-3.8,3.7-5.1
				c1.5,0.6,2.3,1.3,2.3,2.2c0,1.2-1,2.4-2.9,3.6l1.9,3.5l1.5,2.7c2.1-1.3,3.7-2.3,4.8-3.2c1.1-0.9,2.4-2.3,4.1-4.2l1.3,0.8
				C210.2,243.1,207.1,245.8,203.2,247.9z M200.4,249.4c-3.3,1.7-4.9,3.1-4.9,4.1c0,0.9,0.7,1.4,2,1.4c1,0,1.8-0.3,2.4-1
				c0.6-0.7,0.9-1.5,0.9-2.5C200.8,250.7,200.7,250.1,200.4,249.4z"/>
			<path d="M222.7,254.2c0.3-1,0.4-2.1,0.4-3.4c0-3.1-0.4-6.2-1.1-9.2s-1.7-5.2-2.8-6.4c1-0.5,1.9-0.7,2.5-0.7c1.2,0,2.2,1.4,3,4.2
				c0.8,2.8,1.4,6.7,1.7,11.7c1.6-2.1,3-4.3,4.1-6.7c1.1-2.4,1.7-4.3,1.7-5.6c0-0.1,0-0.3,0-0.5c1-0.4,1.7-0.5,2.2-0.5
				c1,0,1.4,0.4,1.4,1.1c0,0.2-0.2,1.4-0.6,3.6c-0.1,0.5-0.2,1-0.2,1.4l-0.1,1.1c-0.1,0.9-0.1,1.9-0.1,3c0,3.1,0.7,4.6,2.1,4.6
				c1.3,0,2.4-1.1,3.4-3.4s1.5-4.8,1.5-7.8c0-2.1-0.5-3.3-1.6-3.8c1-0.8,1.9-1.2,2.8-1.2c1.3,0,2,1,2,3.1c0,3-1.1,6.5-3.2,10.5
				c-1.9,3.5-3.9,5.2-6.1,5.2c-2.5,0-3.8-2.1-3.8-6.4l0.1-3.9c-1.3,2.8-2.6,5.2-4,7.2C226.7,253.2,224.9,254.2,222.7,254.2z"/>
			<path d="M262.1,243.6c-1.4,2.9-3.2,5.4-5.2,7.5c-2.1,2.1-3.9,3.1-5.4,3.1c-1.2,0-2.1-0.5-2.8-1.6c-0.7-1-1.1-2.4-1.1-4.2
				c0-3.5,1-6.5,3.1-9.1s4.5-4,7.3-4c1.7,0,3.5,0.5,5.4,1.6c0.3-1,1.5-1.5,3.5-1.5c0.1,0,0.3,0,0.6,0c-0.6,1-1.1,2.3-1.4,4l-0.3,1.4
				c-0.3,1.6-0.5,3.4-0.5,5.5c0,2.4,0.6,3.6,1.7,3.6c1.2,0,2.8-1,4.9-3c2.1-2,4.1-4.5,6.1-7.6l1.3,0.9c-2,3.7-4.4,6.7-7,9.1
				c-2.6,2.4-4.9,3.7-6.8,3.7c-2.4,0-3.6-2-3.6-6C262,246.2,262.1,245.1,262.1,243.6z M262.9,239.7c-2.3-1.5-4.3-2.3-5.8-2.3
				c-1.7,0-3.1,1-4.3,3c-1.2,2-1.8,4.4-1.8,7.2c0,2.2,0.7,3.4,2.2,3.4c1.6,0,4.6-3.5,9.1-10.4C262.3,240.5,262.5,240.2,262.9,239.7z
				"/>
			<path d="M284.7,247.9c0.4,0.8,0.6,1.6,0.6,2.4c0,1.7-0.7,3.2-2.1,4.4c-1.4,1.3-3.1,1.9-5,1.9c-1.1,0-2.1-0.3-2.9-0.9
				c-0.8-0.6-1.2-1.3-1.2-2.1c0-0.9,0.5-1.7,1.6-2.6s2.9-1.9,5.4-3.2l-1.3-2.1c-1.6-2.6-2.4-4.6-2.4-6.1c0-2.1,1.2-3.8,3.7-5.1
				c1.5,0.6,2.3,1.3,2.3,2.2c0,1.2-1,2.4-2.9,3.6l1.9,3.5l1.5,2.7c2.1-1.3,3.7-2.3,4.8-3.2c1.1-0.9,2.4-2.3,4.1-4.2l1.3,0.8
				C291.6,243.1,288.5,245.8,284.7,247.9z M281.9,249.4c-3.3,1.7-4.9,3.1-4.9,4.1c0,0.9,0.7,1.4,2,1.4c1,0,1.8-0.3,2.4-1
				c0.6-0.7,0.9-1.5,0.9-2.5C282.2,250.7,282.1,250.1,281.9,249.4z"/>
			<path d="M303.3,240.6H303c-1.6,0-3.1,0.4-4.3,1.2c0.3-1.4,0.7-2.3,1.2-2.7c0.5-0.4,1.6-0.6,3.2-0.6h0.6l0.5-2.7
				c0.7-3.7,1.9-6.4,3.6-8c2-2,4.2-3.1,6.7-3.1c1,0,1.8,0.2,2.5,0.7c0.7,0.4,1,1,1,1.6c0,0.6-0.7,1.4-2.1,2.2
				c-0.4-1.7-1.3-2.5-2.7-2.5c-2.5,0-4.3,2.7-5.4,8.2l-0.7,3.7h5.8c2.6,0,4.6-0.1,5.8-0.4c-0.5,1.2-1.1,1.9-1.8,2.1
				c-0.7,0.2-2.4,0.4-5.3,0.4h-5l-2.8,14.2c-0.3,1.4-0.4,2.6-0.4,3.6c0,0.7,0.1,1.2,0.4,1.8c-1.1,0.4-2,0.5-2.6,0.5
				c-0.9,0-1.4-0.5-1.4-1.5c0-0.8,0.2-2.1,0.5-4L303.3,240.6z"/>
			<path d="M317.2,253.7c-0.8,0.4-1.4,0.5-1.8,0.5c-1.1,0-1.7-0.5-1.7-1.5c0-0.5,0.2-1.8,0.6-3.8l0.8-4.1c0.5-2.5,0.8-4.3,0.8-5.5
				c0-0.6-0.2-1.2-0.5-1.6c1.2-0.4,2.1-0.6,2.8-0.6c0.8,0,1.2,0.5,1.2,1.5c0,0.6-0.3,2.2-0.8,4.8l-0.9,4.8c2.1-4.1,4.2-7.2,6.3-9.5
				c2.1-2.3,4-3.4,5.8-3.4c0.6,0,1.1,0.2,1.6,0.5c0.4,0.3,0.7,0.8,0.7,1.3c0,0.8-0.8,1.8-2.5,3.1c-0.4-0.9-1-1.3-1.8-1.3
				c-1.4,0-3.2,1.5-5.4,4.5c-1.3,1.9-2.5,3.8-3.5,5.8c-1,2-1.5,3.4-1.5,4.2L317.2,253.7z"/>
			<path d="M349.3,241.6c0,0.3,0,0.5,0,0.7c0,3.2-1.1,6-3.3,8.4c-2.2,2.4-4.7,3.6-7.6,3.6c-2.2,0-4-0.7-5.4-2.1
				c-1.4-1.4-2.1-3.3-2.1-5.5c0-2.6,0.9-4.8,2.7-6.7s3.9-2.8,6.4-2.8c0.4,0,0.8,0,1.2,0.1c-0.3-0.5-0.4-0.9-0.4-1.3
				c0-0.5,0.2-1,0.5-1.5c2.7,0.2,4.9,1.6,6.7,4.2c1.8,1.3,3.8,1.9,5.7,1.9c1.3,0,2.7-0.4,4.2-1.3l0.8,1.4c-1.8,1.2-3.6,1.8-5.4,1.8
				C352.3,242.3,350.9,242.1,349.3,241.6z M345.6,240.1c-0.9-0.3-1.8-0.7-2.5-1.3c-0.6-0.1-1-0.2-1.4-0.2c-1.9,0-3.5,0.8-5,2.5
				c-1.5,1.7-2.2,3.6-2.2,5.8c0,1.6,0.4,2.9,1.3,3.9c0.9,1,2,1.5,3.4,1.5c1.9,0,3.5-0.9,4.8-2.8c1.3-1.9,2-4.1,2-6.7
				C346,241.9,345.9,241,345.6,240.1z"/>
			<path d="M359.9,248c4-8.4,7.5-12.6,10.6-12.6c1.3,0,2,1,2,2.9c0,0.8-0.3,2.7-0.9,5.6l-1,5c1.9-4.1,4-7.3,6.1-9.8
				c2.1-2.5,3.9-3.7,5.4-3.7c1.7,0,2.5,1,2.5,3c0,0.7-0.2,2.3-0.7,4.9l-0.5,2.6c-0.3,1.6-0.5,2.7-0.5,3.5c0,1.3,0.5,2,1.4,2
				c2.1,0,5.4-3.9,9.8-11.8l1.4,0.8c-4.8,9.4-9,14-12.6,14c-2.3,0-3.4-1.5-3.4-4.5c0-1,0.2-2.6,0.7-4.8l0.5-2.3
				c0.3-1.5,0.5-2.5,0.5-2.9c0-0.5-0.2-0.7-0.7-0.7c-1.2,0-3.3,2.4-6.4,7.1c-2.8,4.3-4.2,6.8-4.2,7.4c0,0.1,0,0.2,0.1,0.3
				c-0.2,0-0.4,0.1-0.8,0.2c-0.2,0.1-0.4,0.1-0.7,0.1c-1,0-1.5-0.5-1.5-1.5c0-0.3,0.2-1.2,0.5-2.7c0.1-0.5,0.2-1.1,0.4-1.7l0.7-3.5
				c0.5-2.5,0.8-4.1,0.8-4.6c0-0.7-0.3-1.1-0.8-1.1c-1.2,0-3,2.1-5.3,6.4c-2.3,4.2-3.5,6.8-3.5,7.6c0,0.2,0.1,0.5,0.3,0.7
				c-0.6,0.3-1.2,0.4-1.7,0.4c-1.2,0-1.7-0.6-1.7-1.9c0-0.2,0.2-1.8,0.5-4.8l0.4-3.5c0.1-1.2,0.2-2.4,0.2-3.4c0-1.3-0.3-2.3-0.8-2.9
				c1.3-0.5,2.2-0.7,2.7-0.7c1,0,1.5,0.6,1.5,1.7c0,0.4-0.1,1.9-0.4,4.6L359.9,248z"/>
			<path d="M420.2,241.6c0,0.3,0,0.5,0,0.7c0,3.2-1.1,6-3.3,8.4c-2.2,2.4-4.7,3.6-7.6,3.6c-2.2,0-4-0.7-5.4-2.1
				c-1.4-1.4-2.1-3.3-2.1-5.5c0-2.6,0.9-4.8,2.7-6.7s3.9-2.8,6.4-2.8c0.4,0,0.8,0,1.2,0.1c-0.3-0.5-0.4-0.9-0.4-1.3
				c0-0.5,0.2-1,0.5-1.5c2.7,0.2,4.9,1.6,6.7,4.2c1.8,1.3,3.8,1.9,5.7,1.9c1.3,0,2.7-0.4,4.2-1.3l0.8,1.4c-1.8,1.2-3.6,1.8-5.4,1.8
				C423.1,242.3,421.7,242.1,420.2,241.6z M416.4,240.1c-0.9-0.3-1.8-0.7-2.5-1.3c-0.6-0.1-1-0.2-1.4-0.2c-1.9,0-3.5,0.8-5,2.5
				c-1.5,1.7-2.2,3.6-2.2,5.8c0,1.6,0.4,2.9,1.3,3.9c0.9,1,2,1.5,3.4,1.5c1.9,0,3.5-0.9,4.8-2.8c1.3-1.9,2-4.1,2-6.7
				C416.8,241.9,416.7,241,416.4,240.1z"/>
			<path d="M440.2,243.6c-1.5,3.2-3.2,5.7-5.1,7.7c-1.9,2-3.6,3-5.1,3c-1.2,0-2.2-0.4-2.9-1.3c-0.8-0.9-1.1-2-1.1-3.3
				c0-1.7,0.6-5,1.8-9.6c0.3-1.3,0.5-2.1,0.5-2.4c0-0.3-0.1-0.7-0.3-1.1l2.3,0c1,0,1.5,0.4,1.5,1.1c0,0.5-0.3,1.8-1,4.1
				c-0.2,0.7-0.3,1.1-0.4,1.4l-0.2,1c-0.5,2-0.7,3.6-0.7,4.6c0,1.6,0.6,2.5,1.7,2.5c1.8,0,4.2-2.3,7-6.9c2.3-3.7,3.5-6.4,3.5-8
				c0-0.2-0.1-0.4-0.2-0.7c0.9-0.3,1.7-0.4,2.3-0.4c1,0,1.5,0.3,1.5,0.9c0,0.1,0,0.4-0.1,0.6c0,0.2-0.1,0.6-0.3,1.2
				c0,0.1-0.1,0.6-0.3,1.3c-0.1,0.5-0.2,1-0.3,1.3l-0.2,0.8c-0.4,1.8-0.5,3.5-0.5,5.1c0,2.4,0.6,3.6,1.8,3.6c2.6,0,5.9-3.6,9.9-10.9
				l1.4,0.8c-4.5,8.7-8.7,13.1-12.5,13.1c-2.5,0-3.8-2.2-3.8-6.6C440.1,245.9,440.1,244.8,440.2,243.6z"/>
			<path d="M455.7,253.7c-0.8,0.4-1.4,0.5-1.8,0.5c-1.1,0-1.7-0.5-1.7-1.5c0-0.5,0.2-1.8,0.6-3.8l0.8-4.1c0.5-2.5,0.8-4.3,0.8-5.5
				c0-0.6-0.2-1.2-0.5-1.6c1.2-0.4,2.1-0.6,2.8-0.6c0.8,0,1.2,0.5,1.2,1.5c0,0.6-0.3,2.2-0.8,4.8l-0.9,4.8c2.1-4.1,4.2-7.2,6.3-9.5
				c2.1-2.3,4-3.4,5.8-3.4c0.6,0,1.1,0.2,1.6,0.5c0.4,0.3,0.7,0.8,0.7,1.3c0,0.8-0.8,1.8-2.5,3.1c-0.4-0.9-1-1.3-1.8-1.3
				c-1.4,0-3.2,1.5-5.4,4.5c-1.3,1.9-2.5,3.8-3.5,5.8c-1,2-1.5,3.4-1.5,4.2L455.7,253.7z"/>
			<path d="M494.1,247.2c0.3,0.5,0.4,1,0.4,1.4c0,1.1-0.9,2.3-2.7,3.6c-1.8,1.3-3.5,2-5,2c-1.3,0-2.4-0.6-3.2-1.8
				c-0.8-1.2-1.3-2.7-1.3-4.6c0-2.1,0.5-5,1.6-8.9l0.8-2.8h-2.8c-1.2,0-2.1,0.2-2.8,0.5c0.6-1.2,1.2-1.9,1.6-2.2
				c0.4-0.3,1.1-0.4,2.1-0.4h2.5l0.3-1.1c0.5-1.7,1.1-2.9,1.8-3.5c0.7-0.6,1.8-1,3.2-1c0.2,0,0.4,0,0.8,0c-0.9,1.1-1.8,3-2.7,5.6
				h8.8c1.5,0,2.7-0.2,3.5-0.6c-0.3,1.1-0.6,1.9-1.1,2.2c-0.5,0.3-1.3,0.5-2.6,0.5h-9.3c-0.1,0.4-0.2,0.6-0.2,0.8
				c-1.3,4.6-2,8-2,10.3c0,2.6,0.9,3.9,2.8,3.9c1,0,2-0.4,3.1-1.2C492.9,249.1,493.7,248.2,494.1,247.2z"/>
			<path d="M500.6,253.7c-0.8,0.4-1.4,0.5-1.8,0.5c-1.1,0-1.7-0.5-1.7-1.5c0-0.5,0.2-1.8,0.6-3.8l0.8-4.1c0.5-2.5,0.8-4.3,0.8-5.5
				c0-0.6-0.2-1.2-0.5-1.6c1.2-0.4,2.1-0.6,2.8-0.6c0.8,0,1.2,0.5,1.2,1.5c0,0.6-0.3,2.2-0.8,4.8l-0.9,4.8c2.1-4.1,4.2-7.2,6.3-9.5
				c2.1-2.3,4-3.4,5.8-3.4c0.6,0,1.1,0.2,1.6,0.5c0.4,0.3,0.7,0.8,0.7,1.3c0,0.8-0.8,1.8-2.5,3.1c-0.4-0.9-1-1.3-1.8-1.3
				c-1.4,0-3.2,1.5-5.4,4.5c-1.3,1.9-2.5,3.8-3.5,5.8c-1,2-1.5,3.4-1.5,4.2L500.6,253.7z"/>
			<path d="M534.6,240.2c-2.5,4.4-5,7.8-7.6,10.3s-4.9,3.7-6.9,3.7c-1.2,0-2.2-0.4-3-1.2c-0.8-0.8-1.1-1.9-1.1-3.2
				c0-0.5,0.1-1.3,0.3-2.4l0.4-1.8c0.5-2.6,0.8-4.5,0.8-5.5c0-0.6-0.2-1.1-0.6-1.5c1.4-0.3,2.3-0.5,2.7-0.5c0.8,0,1.2,0.6,1.2,1.7
				c0,0.9-0.2,2.1-0.5,3.7l-0.6,3.2c-0.3,1.6-0.5,2.6-0.5,3c0,1.4,0.6,2.1,1.7,2.1c1.4,0,3.2-1.2,5.5-3.5c2.3-2.3,4.5-5.3,6.7-8.8
				L534.6,240.2z M519.8,231.8l0.2,0c0.7,0,1.8-0.4,3.2-1.1c1.4-0.7,2.5-1.4,3.3-2.2c-0.5,1.5-1.4,2.8-2.6,3.8
				c-1.9,1.6-3.2,2.4-3.8,2.4c-0.4,0-0.7-0.3-0.7-0.8C519.4,233.2,519.6,232.5,519.8,231.8z"/>
			<path d="M533.1,252.8l-1.2,6.1c-0.3,1.4-0.4,2.6-0.4,3.6c0,0.7,0.1,1.2,0.4,1.8c-1.1,0.4-2,0.5-2.6,0.5c-0.9,0-1.4-0.5-1.4-1.6
				c0-0.8,0.2-2.1,0.5-4l4.8-24.4c-1,0.2-1.8,0.3-2.4,0.3c-1,0-1.7-0.2-2.1-0.7c-0.5-0.5-0.8-1.3-1.1-2.6c0.8,0.5,2,0.8,3.7,0.8
				c2,0,4-0.4,5.9-1.1l-1.3,6.4c1.9-1.8,3.8-2.7,5.8-2.7c1.8,0,3.2,0.7,4.4,2c1.2,1.3,1.8,3,1.8,5c0,3.1-1.1,5.8-3.2,8.1
				s-4.7,3.4-7.7,3.4C535.5,253.8,534.2,253.4,533.1,252.8z M533.7,250.2c1.1,1.3,2.5,2,4.1,2c1.9,0,3.6-0.8,5-2.5
				c1.4-1.6,2.1-3.6,2.1-6c0-1.7-0.4-3.1-1.2-4.1c-0.8-1.1-1.8-1.6-3-1.6c-1.5,0-3.2,0.9-5,2.6L533.7,250.2z"/>
		</g>
		<g>
			<path d="M142.8,288c0.3,0.5,0.4,1,0.4,1.4c0,1.1-0.9,2.3-2.7,3.6c-1.8,1.3-3.5,2-5,2c-1.3,0-2.4-0.6-3.2-1.8
				c-0.8-1.2-1.3-2.7-1.3-4.6c0-2.1,0.5-5,1.6-8.9l0.8-2.8h-2.8c-1.2,0-2.1,0.2-2.8,0.5c0.6-1.2,1.2-1.9,1.6-2.2
				c0.4-0.3,1.1-0.4,2.1-0.4h2.5l0.3-1.1c0.5-1.7,1.1-2.9,1.8-3.5c0.7-0.6,1.8-1,3.2-1c0.2,0,0.4,0,0.8,0c-0.9,1.1-1.8,3-2.7,5.6
				h8.8c1.5,0,2.7-0.2,3.5-0.6c-0.3,1.1-0.6,1.9-1.1,2.2c-0.5,0.3-1.3,0.5-2.6,0.5h-9.3c-0.1,0.4-0.2,0.6-0.2,0.8
				c-1.3,4.6-2,8-2,10.3c0,2.6,0.9,3.9,2.8,3.9c1,0,2-0.4,3.1-1.2C141.5,289.9,142.3,289,142.8,288z"/>
			<path d="M163,282.4c0,0.3,0,0.5,0,0.7c0,3.2-1.1,6-3.3,8.4c-2.2,2.4-4.7,3.6-7.6,3.6c-2.2,0-4-0.7-5.4-2.1
				c-1.4-1.4-2.1-3.3-2.1-5.5c0-2.6,0.9-4.8,2.7-6.7s3.9-2.8,6.4-2.8c0.4,0,0.8,0,1.2,0.1c-0.3-0.5-0.4-0.9-0.4-1.3
				c0-0.5,0.2-1,0.5-1.5c2.7,0.2,4.9,1.6,6.7,4.2c1.8,1.3,3.8,1.9,5.7,1.9c1.3,0,2.7-0.4,4.2-1.3l0.8,1.4c-1.8,1.2-3.6,1.8-5.4,1.8
				C165.9,283.1,164.5,282.9,163,282.4z M159.2,280.9c-0.9-0.3-1.8-0.7-2.5-1.3c-0.6-0.1-1-0.2-1.4-0.2c-1.9,0-3.5,0.8-5,2.5
				c-1.5,1.7-2.2,3.6-2.2,5.8c0,1.6,0.4,2.9,1.3,3.9c0.9,1,2,1.5,3.4,1.5c1.9,0,3.5-0.9,4.8-2.8c1.3-1.9,2-4.1,2-6.7
				C159.6,282.7,159.5,281.8,159.2,280.9z"/>
			<path d="M192,288c0.3,0.5,0.4,1,0.4,1.4c0,1.1-0.9,2.3-2.7,3.6c-1.8,1.3-3.5,2-5,2c-1.3,0-2.4-0.6-3.2-1.8
				c-0.8-1.2-1.3-2.7-1.3-4.6c0-2.1,0.5-5,1.6-8.9l0.8-2.8h-2.8c-1.2,0-2.1,0.2-2.8,0.5c0.6-1.2,1.2-1.9,1.6-2.2
				c0.4-0.3,1.1-0.4,2.1-0.4h2.5l0.3-1.1c0.5-1.7,1.1-2.9,1.8-3.5c0.7-0.6,1.8-1,3.2-1c0.2,0,0.4,0,0.8,0c-0.9,1.1-1.8,3-2.7,5.6
				h8.8c1.5,0,2.7-0.2,3.5-0.6c-0.3,1.1-0.6,1.9-1.1,2.2c-0.5,0.3-1.3,0.5-2.6,0.5H186c-0.1,0.4-0.2,0.6-0.2,0.8
				c-1.3,4.6-2,8-2,10.3c0,2.6,0.9,3.9,2.8,3.9c1,0,2-0.4,3.1-1.2C190.8,289.9,191.6,289,192,288z"/>
			<path d="M198.3,287.3c3.3-7.4,6.7-11.1,10.1-11.1c1.4,0,2.4,0.6,3,1.7c0.6,1.1,0.9,3,0.9,5.6l0,2c0,3.5,0.5,5.2,1.5,5.3
				c0.8,0,2.1-1,3.9-3c1.8-2,3.6-4.5,5.4-7.6l1.4,0.8c-1.8,3.6-3.8,6.6-6.1,9c-2.3,2.5-4.1,3.7-5.6,3.7c-1.4,0-2.3-0.6-2.9-1.9
				s-0.9-3.4-0.9-6.2V284c0-3.3-0.6-5-1.7-5c-1.6,0-3.7,2.2-6.2,6.7c-2.5,4.5-3.8,7.2-3.8,8c0,0.3,0.1,0.5,0.3,0.8
				c-0.5,0.3-1.1,0.4-1.9,0.4c-1,0-1.5-0.4-1.5-1.3c0-0.6,0.3-2.5,1-5.5c0-0.1,0.2-0.8,0.4-2.1l3.4-17.1c-0.7,0.3-1.5,0.4-2.2,0.4
				c-2.1,0-3.2-1.3-3.2-3.8c1.1,0.8,2.3,1.2,3.7,1.2c2,0,3.9-0.4,5.7-1.2l-2.7,13.7c0,0.2-0.5,2.2-1.5,6.2
				C198.6,285.7,198.5,286.4,198.3,287.3z"/>
			<path d="M223.2,287.7c0,3.2,1.4,4.9,4.1,4.9c2.4,0,5-1.1,7.9-3.4c2.9-2.3,5.5-5.2,7.8-8.9l1.4,0.8c-2.2,4-5,7.4-8.5,10.1
				s-6.8,4-9.9,4c-2,0-3.6-0.6-4.7-1.9c-1.2-1.3-1.7-3-1.7-5.3c0-3.2,1-6,3.1-8.2c2.1-2.3,4.6-3.4,7.6-3.4c1.4,0,2.6,0.4,3.4,1.1
				c0.9,0.7,1.3,1.7,1.3,2.9c0,2-1.2,3.7-3.6,5.3C229.1,286.9,226.3,287.7,223.2,287.7z M223.4,286.1c2.3-0.1,4.3-0.8,6-2
				c1.7-1.2,2.5-2.6,2.5-4.2c0-1.4-0.6-2.1-1.9-2.1c-1.5,0-2.9,0.8-4.2,2.4C224.5,281.8,223.7,283.8,223.4,286.1z"/>
			<path d="M261.8,278.8c-0.5-0.5-0.7-1.1-0.7-1.9c0-1.8,1.6-3.6,4.7-5.1c3.1-1.6,6.5-2.4,10-2.4c5.5,0,8.2,1.7,8.2,5.2
				c0,1.7-0.6,3.1-1.8,4.3c-1.2,1.2-3.2,2.4-6.2,3.7c2.6,6,4.9,9,6.8,9c1,0,2.1-0.7,3.2-2.1c0.1,0.3,0.1,0.5,0.1,0.6
				c0,0.9-0.5,1.9-1.6,2.9c-1.1,1-2.2,1.5-3.2,1.5c-2.6,0-5.4-3.5-8.3-10.6c-0.6,0.2-1.1,0.2-1.6,0.2c-0.2,0-0.4,0-0.6-0.1
				c0.4-2.1,1.4-3.1,3.1-3.1c0.3,0,0.7,0.1,1.2,0.2c3.6-1.2,5.4-3.2,5.4-6.1c0-1-0.5-1.9-1.6-2.6c-1-0.7-2.4-1-4-1
				c-2.7,0-5.3,0.7-7.9,2C264.8,274.9,263,276.7,261.8,278.8z M267.8,296.2c-1.1,0.6-2.2,0.8-3.1,0.8c-0.6,0-0.9-0.2-0.9-0.7
				c0-0.2,0.1-0.9,0.4-2.1l3.2-16.1c0.2-0.9,0.3-1.6,0.3-2c0-0.4-0.1-0.7-0.4-1.1c1.5-0.6,2.5-0.8,3.1-0.8c0.7,0,1,0.4,1,1.2
				c0,0.2-0.2,1.2-0.5,2.9l-2.9,14.8c-0.2,1-0.3,1.8-0.3,2.2C267.6,295.6,267.6,295.9,267.8,296.2z"/>
			<path d="M307.7,282.4c0,0.3,0,0.5,0,0.7c0,3.2-1.1,6-3.3,8.4c-2.2,2.4-4.7,3.6-7.6,3.6c-2.2,0-4-0.7-5.4-2.1
				c-1.4-1.4-2.1-3.3-2.1-5.5c0-2.6,0.9-4.8,2.7-6.7s3.9-2.8,6.4-2.8c0.4,0,0.8,0,1.2,0.1c-0.3-0.5-0.4-0.9-0.4-1.3
				c0-0.5,0.2-1,0.5-1.5c2.7,0.2,4.9,1.6,6.7,4.2c1.8,1.3,3.8,1.9,5.7,1.9c1.3,0,2.7-0.4,4.2-1.3l0.8,1.4c-1.8,1.2-3.6,1.8-5.4,1.8
				C310.7,283.1,309.3,282.9,307.7,282.4z M304,280.9c-0.9-0.3-1.8-0.7-2.5-1.3c-0.6-0.1-1-0.2-1.4-0.2c-1.9,0-3.5,0.8-5,2.5
				c-1.5,1.7-2.2,3.6-2.2,5.8c0,1.6,0.4,2.9,1.3,3.9c0.9,1,2,1.5,3.4,1.5c1.9,0,3.5-0.9,4.8-2.8c1.3-1.9,2-4.1,2-6.7
				C304.4,282.7,304.2,281.8,304,280.9z"/>
			<path d="M336.7,281c-2.7,4.5-5.5,8-8.5,10.6c-3,2.6-5.8,3.9-8.4,3.9c-2.1,0-3.9-0.7-5.2-2.2s-2-3.4-2-5.7c0-3.1,1.1-5.8,3.4-8
				c2.3-2.3,5-3.4,8.1-3.4c1.3,0,2.3,0.2,3.1,0.7c0.8,0.5,1.2,1.1,1.2,1.8c0,1.2-1,2.1-3.1,2.7c0.1-0.3,0.2-0.5,0.2-0.8
				c0-1.8-1-2.7-2.9-2.7c-1.6,0-3.2,0.9-4.6,2.8c-1.4,1.8-2.1,3.9-2.1,6.1c0,1.8,0.5,3.2,1.4,4.4c0.9,1.1,2.1,1.7,3.6,1.7
				c4.1,0,8.8-4.2,14.3-12.7L336.7,281z"/>
			<path d="M337,285.1l-0.8,4c-0.3,1.4-0.4,2.6-0.4,3.6c0,0.6,0.1,1.2,0.4,1.8c-1.1,0.4-2,0.6-2.6,0.6c-0.9,0-1.4-0.5-1.4-1.6
				c0-0.8,0.2-2.1,0.5-4l4.1-20.5c-1,0.4-1.9,0.5-2.6,0.5c-1.3,0-1.9-0.6-1.9-1.7c0-0.4,0.1-1.1,0.3-2.1c0.8,0.8,1.8,1.2,2.9,1.2
				c1.5,0,3.2-0.5,5.2-1.4l-3.7,18.7c1.7-2.1,3.6-4,5.7-5.6c2-1.6,3.5-2.5,4.4-2.5c0.5,0,1.1,0.7,1.8,2.2c-1.1,0.1-2.6,0.7-4.4,1.8
				c-1.9,1.1-3.4,2.2-4.6,3.4c2.8,4.4,5.2,6.6,7.3,6.6c1,0,1.9-0.4,2.9-1.1c0.9-0.7,2.2-2,3.7-3.9c1.5-1.8,2.7-3.5,3.6-5.1l1.4,0.8
				c-2,3.7-4.1,6.7-6.4,9c-2.2,2.3-4.2,3.4-5.8,3.4c-1.3,0-3-0.8-5-2.5C339.7,289.2,338.2,287.3,337,285.1z"/>
			<path d="M361.2,294.5c-0.5-3-1.3-5.9-2.5-8.8c-1.2-2.9-2.5-5.1-3.9-6.6c0.8-0.7,1.7-1,2.5-1c0.7,0,1.4,0.3,1.9,1
				c0.5,0.7,1.1,2,1.9,4c1.2,3.2,2,6.1,2.6,8.6c3.7-5.9,5.8-11.1,6.1-15.5c1.9,0.3,2.9,0.9,2.9,1.9c0,1.1-0.9,3.2-2.6,6.6
				s-3.6,6.3-5.6,9.1c-2.3,3.2-4.6,5.7-6.9,7.5c-2.3,1.8-4.3,2.7-5.9,2.7c-1.5,0-2.2-0.6-2.2-1.9c0-0.5,0.1-1.1,0.4-1.8
				c0.6,0.4,1.4,0.6,2.3,0.6C355.1,300.9,358.2,298.8,361.2,294.5z"/>
			<path d="M391,278.5l-2.2,10.9c-0.3,1.4-0.4,2.5-0.4,3.3c0,0.8,0.3,1.5,1,1.9c-1.2,0.4-2.1,0.6-2.8,0.6c-1.1,0-1.7-0.5-1.7-1.4
				c0-1,0.3-2.8,1-5.4l3.7-14.1l-0.7-2.1c-0.8-2.3-1.5-3.8-2.3-4.3c1.1-0.7,2-1,2.8-1c0.6,0,1.1,0.5,1.6,1.4c0.4,1,1.2,3.4,2.4,7.3
				c0.2,0.8,0.4,1.4,0.6,1.9l0.3,0.8c1.7,4.9,3.1,7.4,4.4,7.4c1.4,0,3.3-2,5.7-6c2.4-4,3.7-7.2,4-9.8c1.2-0.4,2.1-0.6,2.7-0.6
				c1.1,0,1.6,0.6,1.6,1.8c0,0.4-0.1,1.5-0.4,3.3c-0.2,1.6-0.4,3-0.5,4l-1.1,10.8c-0.1,0.8-0.1,1.5-0.1,2.2c0,2.2,0.4,3.6,1.3,4.1
				c-1.1,0.8-2.1,1.2-2.9,1.2c-1.3,0-2-1.4-2-4.1c0-1.1,0.1-2.4,0.2-4l1.4-13.7c-1.3,4-3,7.3-5.1,10.1c-2.1,2.8-3.9,4.2-5.6,4.2
				c-1.3,0-2.6-1-3.8-2.9C393,284.5,391.9,281.9,391,278.5z"/>
			<path d="M434.9,282.4c0,0.3,0,0.5,0,0.7c0,3.2-1.1,6-3.3,8.4c-2.2,2.4-4.7,3.6-7.6,3.6c-2.2,0-4-0.7-5.4-2.1
				c-1.4-1.4-2.1-3.3-2.1-5.5c0-2.6,0.9-4.8,2.7-6.7s3.9-2.8,6.4-2.8c0.4,0,0.8,0,1.2,0.1c-0.3-0.5-0.4-0.9-0.4-1.3
				c0-0.5,0.2-1,0.5-1.5c2.7,0.2,4.9,1.6,6.7,4.2c1.8,1.3,3.8,1.9,5.7,1.9c1.3,0,2.7-0.4,4.2-1.3l0.8,1.4c-1.8,1.2-3.6,1.8-5.4,1.8
				C437.8,283.1,436.4,282.9,434.9,282.4z M431.1,280.9c-0.9-0.3-1.8-0.7-2.5-1.3c-0.6-0.1-1-0.2-1.4-0.2c-1.9,0-3.5,0.8-5,2.5
				c-1.5,1.7-2.2,3.6-2.2,5.8c0,1.6,0.4,2.9,1.3,3.9c0.9,1,2,1.5,3.4,1.5c1.9,0,3.5-0.9,4.8-2.8c1.3-1.9,2-4.1,2-6.7
				C431.5,282.7,431.4,281.8,431.1,280.9z"/>
			<path d="M454.9,284.4c-1.5,3.2-3.2,5.7-5.1,7.7c-1.9,2-3.6,3-5.1,3c-1.2,0-2.2-0.4-2.9-1.3c-0.8-0.9-1.1-2-1.1-3.3
				c0-1.7,0.6-5,1.8-9.6c0.3-1.3,0.5-2.1,0.5-2.4c0-0.3-0.1-0.7-0.3-1.1l2.3,0c1,0,1.5,0.4,1.5,1.1c0,0.5-0.3,1.8-1,4.1
				c-0.2,0.7-0.3,1.1-0.4,1.4l-0.2,1c-0.5,2-0.7,3.6-0.7,4.6c0,1.6,0.6,2.5,1.7,2.5c1.8,0,4.2-2.3,7-6.9c2.3-3.7,3.5-6.4,3.5-8
				c0-0.2-0.1-0.4-0.2-0.7c0.9-0.3,1.7-0.4,2.3-0.4c1,0,1.5,0.3,1.5,0.9c0,0.1,0,0.4-0.1,0.6c0,0.2-0.1,0.6-0.3,1.2
				c0,0.1-0.1,0.6-0.3,1.3c-0.1,0.5-0.2,1-0.3,1.3l-0.2,0.8c-0.4,1.8-0.5,3.5-0.5,5.1c0,2.4,0.6,3.6,1.8,3.6c2.6,0,5.9-3.6,9.9-10.9
				l1.4,0.8c-4.5,8.7-8.7,13.1-12.5,13.1c-2.5,0-3.8-2.2-3.8-6.6C454.8,286.7,454.8,285.6,454.9,284.4z"/>
			<path d="M479,288c0.3,0.5,0.4,1,0.4,1.4c0,1.1-0.9,2.3-2.7,3.6c-1.8,1.3-3.5,2-5,2c-1.3,0-2.4-0.6-3.2-1.8
				c-0.8-1.2-1.3-2.7-1.3-4.6c0-2.1,0.5-5,1.6-8.9l0.8-2.8h-2.8c-1.2,0-2.1,0.2-2.8,0.5c0.6-1.2,1.2-1.9,1.6-2.2
				c0.4-0.3,1.1-0.4,2.1-0.4h2.5l0.3-1.1c0.5-1.7,1.1-2.9,1.8-3.5c0.7-0.6,1.8-1,3.2-1c0.2,0,0.4,0,0.8,0c-0.9,1.1-1.8,3-2.7,5.6
				h8.8c1.5,0,2.7-0.2,3.5-0.6c-0.3,1.1-0.6,1.9-1.1,2.2c-0.5,0.3-1.3,0.5-2.6,0.5H473c-0.1,0.4-0.2,0.6-0.2,0.8
				c-1.3,4.6-2,8-2,10.3c0,2.6,0.9,3.9,2.8,3.9c1,0,2-0.4,3.1-1.2C477.7,289.9,478.5,289,479,288z"/>
			<path d="M495.6,284.4c-1.4,2.9-3.2,5.4-5.2,7.5c-2.1,2.1-3.9,3.1-5.4,3.1c-1.2,0-2.1-0.5-2.8-1.6c-0.7-1-1.1-2.4-1.1-4.2
				c0-3.5,1-6.5,3.1-9.1s4.5-4,7.3-4c1.7,0,3.5,0.5,5.4,1.6c0.3-1,1.5-1.5,3.5-1.5c0.1,0,0.3,0,0.6,0c-0.6,1-1.1,2.3-1.4,4l-0.3,1.4
				c-0.3,1.6-0.5,3.4-0.5,5.5c0,2.4,0.6,3.6,1.7,3.6c1.2,0,2.8-1,4.9-3c2.1-2,4.1-4.5,6.1-7.6l1.3,0.9c-2,3.7-4.4,6.7-7,9.1
				c-2.6,2.4-4.9,3.7-6.8,3.7c-2.4,0-3.6-2-3.6-6C495.5,287,495.5,285.9,495.6,284.4z M496.4,280.5c-2.3-1.5-4.3-2.3-5.8-2.3
				c-1.7,0-3.1,1-4.3,3c-1.2,2-1.8,4.4-1.8,7.2c0,2.2,0.7,3.4,2.2,3.4c1.6,0,4.6-3.5,9.1-10.4C495.7,281.3,496,281,496.4,280.5z"/>
			<path d="M527.9,281c-2.5,4.4-5,7.8-7.6,10.3s-4.9,3.7-6.9,3.7c-1.2,0-2.2-0.4-3-1.2c-0.8-0.8-1.1-1.9-1.1-3.2
				c0-0.5,0.1-1.3,0.3-2.4l0.4-1.8c0.5-2.6,0.8-4.5,0.8-5.5c0-0.6-0.2-1.1-0.6-1.5c1.4-0.3,2.3-0.5,2.7-0.5c0.8,0,1.2,0.6,1.2,1.7
				c0,0.9-0.2,2.1-0.5,3.7l-0.6,3.2c-0.3,1.6-0.5,2.6-0.5,3c0,1.4,0.6,2.1,1.7,2.1c1.4,0,3.2-1.2,5.5-3.5c2.3-2.3,4.5-5.3,6.7-8.8
				L527.9,281z M513.2,272.6l0.2,0c0.7,0,1.8-0.4,3.2-1.1c1.4-0.7,2.5-1.4,3.3-2.2c-0.5,1.5-1.4,2.8-2.6,3.8
				c-1.9,1.6-3.2,2.4-3.8,2.4c-0.4,0-0.7-0.3-0.7-0.8C512.8,274,512.9,273.3,513.2,272.6z"/>
			<path d="M528.8,288.6c3.9-8.3,7.5-12.5,10.6-12.5c2.4,0,3.7,2.4,3.7,7.3l0,2c0,2.3,0.1,3.9,0.4,4.8c0.2,0.9,0.7,1.3,1.3,1.3
				c1,0,2-0.8,3.2-2.3s3.2-4.6,5.9-9.1l1.4,0.8c-2.4,4.6-4.6,8-6.5,10.2s-3.7,3.3-5.2,3.3c-1.4,0-2.4-0.7-3-2
				c-0.6-1.4-0.9-3.7-0.9-7.1l0-1.4c0-1.8-0.1-3.1-0.3-3.8c-0.2-0.7-0.6-1.1-1.2-1.1c-1.5,0-3.8,2.9-7.1,8.7
				c-0.8,1.4-1.3,2.3-1.5,2.8c-0.9,1.5-1.3,2.6-1.3,3.2c0,0.3,0.1,0.5,0.2,0.8c-0.6,0.3-1.2,0.4-1.6,0.4c-1.1,0-1.7-0.6-1.7-1.9
				c0-0.4,0.1-1.9,0.4-4.8l0.4-3.6c0.2-1.5,0.2-2.7,0.2-3.6c0-1.2-0.3-2.1-0.8-2.8c0.2-0.1,0.6-0.2,1.2-0.4c0.7-0.2,1.2-0.4,1.6-0.4
				c0.9,0,1.3,0.6,1.3,1.9c0,0.7-0.1,1.8-0.2,3.4c0,0.4-0.1,0.7-0.1,1L528.8,288.6z"/>
			<path d="M560.6,288.7c0.4,0.8,0.6,1.6,0.6,2.4c0,1.7-0.7,3.2-2.1,4.4c-1.4,1.3-3.1,1.9-5,1.9c-1.1,0-2.1-0.3-2.9-0.9
				c-0.8-0.6-1.2-1.3-1.2-2.1c0-0.9,0.5-1.7,1.6-2.6s2.9-1.9,5.4-3.2l-1.3-2.1c-1.6-2.6-2.4-4.6-2.4-6.1c0-2.1,1.2-3.8,3.7-5.1
				c1.5,0.6,2.3,1.3,2.3,2.2c0,1.2-1,2.4-2.9,3.6l1.9,3.5l1.5,2.7c2.1-1.3,3.7-2.3,4.8-3.2c1.1-0.9,2.4-2.3,4.1-4.2l1.3,0.8
				C567.6,283.9,564.5,286.6,560.6,288.7z M557.8,290.2c-3.3,1.7-4.9,3.1-4.9,4.1c0,0.9,0.7,1.4,2,1.4c1,0,1.8-0.3,2.4-1
				c0.6-0.7,0.9-1.5,0.9-2.5C558.2,291.5,558.1,290.9,557.8,290.2z"/>
			<path d="M566.2,290.6l1.2-0.2c0.8-0.2,1.4-0.2,1.7-0.2c1,0,1.4,0.5,1.4,1.5c0,0.4-0.1,0.9-0.2,1.4l-0.2,1.1l-0.8,0.1
				c-1.1,0.2-1.7,0.3-1.9,0.3c-0.8,0-1.2-0.4-1.2-1.2c0-0.2,0-0.4,0.1-0.6l0.1-0.4c0-0.2,0.1-0.4,0.1-0.6
				C566.6,291.3,566.5,290.9,566.2,290.6z"/>
		</g>
		<g>
			<path d="M141.1,312.6l-4.1,20.6c2.1-0.3,3.6-0.4,4.5-0.4c1.4,0,2.2,1,2.2,3c-0.8-0.3-1.7-0.4-2.6-0.4c-0.9,0-1.9,0.1-3.2,0.2
				l-3.8,0.5c-1.4,0.2-2.3,0.3-2.8,0.3c-0.9,0-1.6-0.2-2-0.7c-0.4-0.4-0.6-1.3-0.7-2.4c0.8,0.4,1.6,0.6,2.5,0.6
				c0.5,0,1.2-0.1,2.3-0.2l4.1-20.7c-1.2,0.2-2.2,0.3-3.1,0.3c-1.5,0-2.3-0.9-2.3-2.7c0.4,0.3,1,0.4,1.6,0.4c0.8,0,2-0.1,3.5-0.4
				l2.6-0.5c1.8-0.3,3.2-0.5,4.2-0.5c1.5,0,2.4,1,2.6,3c-0.6-0.3-1.3-0.4-1.9-0.4c-0.9,0-1.8,0.1-2.9,0.2
				C141.7,312.5,141.5,312.5,141.1,312.6z"/>
			<path d="M164.2,328.1c3.3-7.4,6.7-11.1,10.1-11.1c1.4,0,2.4,0.6,3,1.7c0.6,1.1,0.9,3,0.9,5.6l0,2c0,3.5,0.5,5.2,1.5,5.3
				c0.8,0,2.1-1,3.9-3c1.8-2,3.6-4.5,5.4-7.6l1.4,0.8c-1.8,3.6-3.8,6.6-6.1,9c-2.3,2.5-4.1,3.7-5.6,3.7c-1.4,0-2.3-0.6-2.9-1.9
				s-0.9-3.4-0.9-6.2v-1.5c0-3.3-0.6-5-1.7-5c-1.6,0-3.7,2.2-6.2,6.7c-2.5,4.5-3.8,7.2-3.8,8c0,0.3,0.1,0.5,0.3,0.8
				c-0.5,0.3-1.1,0.4-1.9,0.4c-1,0-1.5-0.4-1.5-1.3c0-0.6,0.3-2.5,1-5.5c0-0.1,0.2-0.8,0.4-2.1l3.4-17.1c-0.7,0.3-1.5,0.4-2.2,0.4
				c-2.1,0-3.2-1.3-3.2-3.8c1.1,0.8,2.3,1.2,3.7,1.2c2,0,3.9-0.4,5.7-1.2l-2.7,13.7c0,0.2-0.5,2.2-1.5,6.2
				C164.5,326.5,164.4,327.2,164.2,328.1z"/>
			<path d="M200,325.2c-1.4,2.9-3.2,5.4-5.2,7.5c-2.1,2.1-3.9,3.1-5.4,3.1c-1.2,0-2.1-0.5-2.8-1.6c-0.7-1-1.1-2.4-1.1-4.2
				c0-3.5,1-6.5,3.1-9.1s4.5-4,7.3-4c1.7,0,3.5,0.5,5.4,1.6c0.3-1,1.5-1.5,3.5-1.5c0.1,0,0.3,0,0.6,0c-0.6,1-1.1,2.3-1.4,4l-0.3,1.4
				c-0.3,1.6-0.5,3.4-0.5,5.5c0,2.4,0.6,3.6,1.7,3.6c1.2,0,2.8-1,4.9-3c2.1-2,4.1-4.5,6.1-7.6l1.3,0.9c-2,3.7-4.4,6.7-7,9.1
				c-2.6,2.4-4.9,3.7-6.8,3.7c-2.4,0-3.6-2-3.6-6C199.9,327.8,199.9,326.7,200,325.2z M200.8,321.3c-2.3-1.5-4.3-2.3-5.8-2.3
				c-1.7,0-3.1,1-4.3,3c-1.2,2-1.8,4.4-1.8,7.2c0,2.2,0.7,3.4,2.2,3.4c1.6,0,4.6-3.5,9.1-10.4C200.1,322.1,200.4,321.8,200.8,321.3z
				"/>
			<path d="M217.4,335.8c0.2-1,0.4-1.8,0.4-2.5c0-2.7-0.6-5.8-1.7-9.1s-2.5-5.8-4.1-7.5c1-0.5,1.8-0.7,2.6-0.7
				c1.2,0,2.4,1.6,3.7,4.8c1.2,3.2,2.1,7.1,2.7,11.6c1.9-2.5,3.5-5,4.8-7.6s2-4.9,2.1-6.8c1.7,0.7,2.5,1.4,2.5,2.3
				c0,0.8-0.8,2.5-2.4,5.1c-1.6,2.7-3.3,5.2-5.2,7.5c-0.9,1.2-1.7,1.9-2.3,2.2C219.9,335.5,218.9,335.7,217.4,335.8z"/>
			<path d="M235.2,328.5c0,3.2,1.4,4.9,4.1,4.9c2.4,0,5-1.1,7.9-3.4c2.9-2.3,5.5-5.2,7.8-8.9l1.4,0.8c-2.2,4-5,7.4-8.5,10.1
				s-6.8,4-9.9,4c-2,0-3.6-0.6-4.7-1.9c-1.2-1.3-1.7-3-1.7-5.3c0-3.2,1-6,3.1-8.2c2.1-2.3,4.6-3.4,7.6-3.4c1.4,0,2.6,0.4,3.4,1.1
				c0.9,0.7,1.3,1.7,1.3,2.9c0,2-1.2,3.7-3.6,5.3C241,327.7,238.3,328.5,235.2,328.5z M235.3,326.9c2.3-0.1,4.3-0.8,6-2
				c1.7-1.2,2.5-2.6,2.5-4.2c0-1.4-0.6-2.1-1.9-2.1c-1.5,0-2.9,0.8-4.2,2.4C236.4,322.6,235.6,324.6,235.3,326.9z"/>
			<path d="M268.7,329.4c3.9-8.3,7.5-12.5,10.6-12.5c2.4,0,3.7,2.4,3.7,7.3l0,2c0,2.3,0.1,3.9,0.4,4.8c0.2,0.9,0.7,1.3,1.3,1.3
				c1,0,2-0.8,3.2-2.3s3.2-4.6,5.9-9.1l1.4,0.8c-2.4,4.6-4.6,8-6.5,10.2s-3.7,3.3-5.2,3.3c-1.4,0-2.4-0.7-3-2
				c-0.6-1.4-0.9-3.7-0.9-7.1l0-1.4c0-1.8-0.1-3.1-0.3-3.8c-0.2-0.7-0.6-1.1-1.2-1.1c-1.5,0-3.8,2.9-7.1,8.7
				c-0.8,1.4-1.3,2.3-1.5,2.8c-0.9,1.5-1.3,2.6-1.3,3.2c0,0.3,0.1,0.5,0.2,0.8c-0.6,0.3-1.2,0.4-1.6,0.4c-1.1,0-1.7-0.6-1.7-1.9
				c0-0.4,0.1-1.9,0.4-4.8l0.4-3.6c0.2-1.5,0.2-2.7,0.2-3.6c0-1.2-0.3-2.1-0.8-2.8c0.2-0.1,0.6-0.2,1.2-0.4c0.7-0.2,1.2-0.4,1.6-0.4
				c0.9,0,1.3,0.6,1.3,1.9c0,0.7-0.1,1.8-0.2,3.4c0,0.4-0.1,0.7-0.1,1L268.7,329.4z"/>
			<path d="M294,328.5c0,3.2,1.4,4.9,4.1,4.9c2.4,0,5-1.1,7.9-3.4c2.9-2.3,5.5-5.2,7.8-8.9l1.4,0.8c-2.2,4-5,7.4-8.5,10.1
				s-6.8,4-9.9,4c-2,0-3.6-0.6-4.7-1.9c-1.2-1.3-1.7-3-1.7-5.3c0-3.2,1-6,3.1-8.2c2.1-2.3,4.6-3.4,7.6-3.4c1.4,0,2.6,0.4,3.4,1.1
				c0.9,0.7,1.3,1.7,1.3,2.9c0,2-1.2,3.7-3.6,5.3C299.8,327.7,297.1,328.5,294,328.5z M294.1,326.9c2.3-0.1,4.3-0.8,6-2
				c1.7-1.2,2.5-2.6,2.5-4.2c0-1.4-0.6-2.1-1.9-2.1c-1.5,0-2.9,0.8-4.2,2.4C295.2,322.6,294.4,324.6,294.1,326.9z"/>
			<path d="M315.3,335.8c0.2-1,0.4-1.8,0.4-2.5c0-2.7-0.6-5.8-1.7-9.1s-2.5-5.8-4.1-7.5c1-0.5,1.8-0.7,2.6-0.7
				c1.2,0,2.4,1.6,3.7,4.8c1.2,3.2,2.1,7.1,2.7,11.6c1.9-2.5,3.5-5,4.8-7.6s2-4.9,2.1-6.8c1.7,0.7,2.5,1.4,2.5,2.3
				c0,0.8-0.8,2.5-2.4,5.1c-1.6,2.7-3.3,5.2-5.2,7.5c-0.9,1.2-1.7,1.9-2.3,2.2C317.7,335.5,316.7,335.7,315.3,335.8z"/>
			<path d="M333.1,328.5c0,3.2,1.4,4.9,4.1,4.9c2.4,0,5-1.1,7.9-3.4c2.9-2.3,5.5-5.2,7.8-8.9l1.4,0.8c-2.2,4-5,7.4-8.5,10.1
				s-6.8,4-9.9,4c-2,0-3.6-0.6-4.7-1.9c-1.2-1.3-1.7-3-1.7-5.3c0-3.2,1-6,3.1-8.2c2.1-2.3,4.6-3.4,7.6-3.4c1.4,0,2.6,0.4,3.4,1.1
				c0.9,0.7,1.3,1.7,1.3,2.9c0,2-1.2,3.7-3.6,5.3C338.9,327.7,336.2,328.5,333.1,328.5z M333.2,326.9c2.3-0.1,4.3-0.8,6-2
				c1.7-1.2,2.5-2.6,2.5-4.2c0-1.4-0.6-2.1-1.9-2.1c-1.5,0-2.9,0.8-4.2,2.4C334.3,322.6,333.5,324.6,333.2,326.9z"/>
			<path d="M353.6,335.3c-0.8,0.4-1.4,0.5-1.8,0.5c-1.1,0-1.7-0.5-1.7-1.5c0-0.5,0.2-1.8,0.6-3.8l0.8-4.1c0.5-2.5,0.8-4.3,0.8-5.5
				c0-0.6-0.2-1.2-0.5-1.6c1.2-0.4,2.1-0.6,2.8-0.6c0.8,0,1.2,0.5,1.2,1.5c0,0.6-0.3,2.2-0.8,4.8l-0.9,4.8c2.1-4.1,4.2-7.2,6.3-9.5
				c2.1-2.3,4-3.4,5.8-3.4c0.6,0,1.1,0.2,1.6,0.5c0.4,0.3,0.7,0.8,0.7,1.3c0,0.8-0.8,1.8-2.5,3.1c-0.4-0.9-1-1.3-1.8-1.3
				c-1.4,0-3.2,1.5-5.4,4.5c-1.3,1.9-2.5,3.8-3.5,5.8c-1,2-1.5,3.4-1.5,4.2L353.6,335.3z"/>
			<path d="M382.8,328.5c0,3.2,1.4,4.9,4.1,4.9c2.4,0,5-1.1,7.9-3.4c2.9-2.3,5.5-5.2,7.8-8.9l1.4,0.8c-2.2,4-5,7.4-8.5,10.1
				s-6.8,4-9.9,4c-2,0-3.6-0.6-4.7-1.9c-1.2-1.3-1.7-3-1.7-5.3c0-3.2,1-6,3.1-8.2c2.1-2.3,4.6-3.4,7.6-3.4c1.4,0,2.6,0.4,3.4,1.1
				c0.9,0.7,1.3,1.7,1.3,2.9c0,2-1.2,3.7-3.6,5.3C388.7,327.7,385.9,328.5,382.8,328.5z M382.9,326.9c2.3-0.1,4.3-0.8,6-2
				c1.7-1.2,2.5-2.6,2.5-4.2c0-1.4-0.6-2.1-1.9-2.1c-1.5,0-2.9,0.8-4.2,2.4C384,322.6,383.3,324.6,382.9,326.9z"/>
			<path d="M406.1,329.8c-2.3,3.1-3.7,6.1-4.2,9c-1.3-0.8-2-1.6-2-2.5c0-1.7,1.7-4.4,5.2-8.1c-0.8-1.3-1.5-3-2.2-4.9
				c-0.7-1.9-1-3.3-1-4.2c0-0.9,1.1-1.5,3.3-1.9c-0.1,0.2-0.1,0.5-0.1,0.7c0,2,0.9,4.7,2.6,8c2.9-3.3,4.3-6,4.3-7.9l0-0.2
				c0.1,0,0.4,0,0.9-0.1h0.2c1.2,0,1.8,0.3,1.8,1c0,1.6-2.1,4.5-6.4,8.7c1.6,2.6,3.4,3.9,5.3,3.9c3.3,0,6.9-3.4,10.7-10.3l1.4,0.8
				c-2.5,4.4-4.7,7.6-6.8,9.6c-2.1,2-4.2,3-6.3,3C410.2,334.4,408,332.9,406.1,329.8z"/>
			<path d="M424.4,334.4l-1.2,6.1c-0.3,1.4-0.4,2.6-0.4,3.6c0,0.7,0.1,1.2,0.4,1.8c-1.1,0.4-2,0.5-2.6,0.5c-0.9,0-1.4-0.5-1.4-1.6
				c0-0.8,0.2-2.1,0.5-4l4.8-24.4c-1,0.2-1.8,0.3-2.4,0.3c-1,0-1.7-0.2-2.1-0.7c-0.5-0.5-0.8-1.3-1.1-2.6c0.8,0.5,2,0.8,3.7,0.8
				c2,0,4-0.4,5.9-1.1l-1.3,6.4c1.9-1.8,3.8-2.7,5.8-2.7c1.8,0,3.2,0.7,4.4,2c1.2,1.3,1.8,3,1.8,5c0,3.1-1.1,5.8-3.2,8.1
				s-4.7,3.4-7.7,3.4C426.8,335.4,425.4,335,424.4,334.4z M424.9,331.8c1.1,1.3,2.5,2,4.1,2c1.9,0,3.6-0.8,5-2.5
				c1.4-1.6,2.1-3.6,2.1-6c0-1.7-0.4-3.1-1.2-4.1c-0.8-1.1-1.8-1.6-3-1.6c-1.5,0-3.2,0.9-5,2.6L424.9,331.8z"/>
			<path d="M445.4,328.5c0,3.2,1.4,4.9,4.1,4.9c2.4,0,5-1.1,7.9-3.4c2.9-2.3,5.5-5.2,7.8-8.9l1.4,0.8c-2.2,4-5,7.4-8.5,10.1
				s-6.8,4-9.9,4c-2,0-3.6-0.6-4.7-1.9c-1.2-1.3-1.7-3-1.7-5.3c0-3.2,1-6,3.1-8.2c2.1-2.3,4.6-3.4,7.6-3.4c1.4,0,2.6,0.4,3.4,1.1
				c0.9,0.7,1.3,1.7,1.3,2.9c0,2-1.2,3.7-3.6,5.3C451.2,327.7,448.5,328.5,445.4,328.5z M445.5,326.9c2.3-0.1,4.3-0.8,6-2
				c1.7-1.2,2.5-2.6,2.5-4.2c0-1.4-0.6-2.1-1.9-2.1c-1.5,0-2.9,0.8-4.2,2.4C446.6,322.6,445.8,324.6,445.5,326.9z"/>
			<path d="M465.9,335.3c-0.8,0.4-1.4,0.5-1.8,0.5c-1.1,0-1.7-0.5-1.7-1.5c0-0.5,0.2-1.8,0.6-3.8l0.8-4.1c0.5-2.5,0.8-4.3,0.8-5.5
				c0-0.6-0.2-1.2-0.5-1.6c1.2-0.4,2.1-0.6,2.8-0.6c0.8,0,1.2,0.5,1.2,1.5c0,0.6-0.3,2.2-0.8,4.8l-0.9,4.8c2.1-4.1,4.2-7.2,6.3-9.5
				c2.1-2.3,4-3.4,5.8-3.4c0.6,0,1.1,0.2,1.6,0.5c0.4,0.3,0.7,0.8,0.7,1.3c0,0.8-0.8,1.8-2.5,3.1c-0.4-0.9-1-1.3-1.8-1.3
				c-1.4,0-3.2,1.5-5.4,4.5c-1.3,1.9-2.5,3.8-3.5,5.8c-1,2-1.5,3.4-1.5,4.2L465.9,335.3z"/>
			<path d="M500,321.8c-2.5,4.4-5,7.8-7.6,10.3s-4.9,3.7-6.9,3.7c-1.2,0-2.2-0.4-3-1.2c-0.8-0.8-1.1-1.9-1.1-3.2
				c0-0.5,0.1-1.3,0.3-2.4l0.4-1.8c0.5-2.6,0.8-4.5,0.8-5.5c0-0.6-0.2-1.1-0.6-1.5c1.4-0.3,2.3-0.5,2.7-0.5c0.8,0,1.2,0.6,1.2,1.7
				c0,0.9-0.2,2.1-0.5,3.7l-0.6,3.2c-0.3,1.6-0.5,2.6-0.5,3c0,1.4,0.6,2.1,1.7,2.1c1.4,0,3.2-1.2,5.5-3.5c2.3-2.3,4.5-5.3,6.7-8.8
				L500,321.8z M485.2,313.4l0.2,0c0.7,0,1.8-0.4,3.2-1.1c1.4-0.7,2.5-1.4,3.3-2.2c-0.5,1.5-1.4,2.8-2.6,3.8
				c-1.9,1.6-3.2,2.4-3.8,2.4c-0.4,0-0.7-0.3-0.7-0.8C484.8,314.8,484.9,314.1,485.2,313.4z"/>
			<path d="M498.7,328.5c0,3.2,1.4,4.9,4.1,4.9c2.4,0,5-1.1,7.9-3.4c2.9-2.3,5.5-5.2,7.8-8.9l1.4,0.8c-2.2,4-5,7.4-8.5,10.1
				s-6.8,4-9.9,4c-2,0-3.6-0.6-4.7-1.9c-1.2-1.3-1.7-3-1.7-5.3c0-3.2,1-6,3.1-8.2c2.1-2.3,4.6-3.4,7.6-3.4c1.4,0,2.6,0.4,3.4,1.1
				c0.9,0.7,1.3,1.7,1.3,2.9c0,2-1.2,3.7-3.6,5.3C504.6,327.7,501.8,328.5,498.7,328.5z M498.8,326.9c2.3-0.1,4.3-0.8,6-2
				c1.7-1.2,2.5-2.6,2.5-4.2c0-1.4-0.6-2.1-1.9-2.1c-1.5,0-2.9,0.8-4.2,2.4C499.9,322.6,499.2,324.6,498.8,326.9z"/>
			<path d="M520.8,329.4c3.9-8.3,7.5-12.5,10.6-12.5c2.4,0,3.7,2.4,3.7,7.3l0,2c0,2.3,0.1,3.9,0.4,4.8c0.2,0.9,0.7,1.3,1.3,1.3
				c1,0,2-0.8,3.2-2.3s3.2-4.6,5.9-9.1l1.4,0.8c-2.4,4.6-4.6,8-6.5,10.2s-3.7,3.3-5.2,3.3c-1.4,0-2.4-0.7-3-2
				c-0.6-1.4-0.9-3.7-0.9-7.1l0-1.4c0-1.8-0.1-3.1-0.3-3.8c-0.2-0.7-0.6-1.1-1.2-1.1c-1.5,0-3.8,2.9-7.1,8.7
				c-0.8,1.4-1.3,2.3-1.5,2.8c-0.9,1.5-1.3,2.6-1.3,3.2c0,0.3,0.1,0.5,0.2,0.8c-0.6,0.3-1.2,0.4-1.6,0.4c-1.1,0-1.7-0.6-1.7-1.9
				c0-0.4,0.1-1.9,0.4-4.8l0.4-3.6c0.2-1.5,0.2-2.7,0.2-3.6c0-1.2-0.3-2.1-0.8-2.8c0.2-0.1,0.6-0.2,1.2-0.4c0.7-0.2,1.2-0.4,1.6-0.4
				c0.9,0,1.3,0.6,1.3,1.9c0,0.7-0.1,1.8-0.2,3.4c0,0.4-0.1,0.7-0.1,1L520.8,329.4z"/>
			<path d="M566.7,321.8c-2.7,4.5-5.5,8-8.5,10.6c-3,2.6-5.8,3.9-8.4,3.9c-2.1,0-3.9-0.7-5.2-2.2s-2-3.4-2-5.7c0-3.1,1.1-5.8,3.4-8
				c2.3-2.3,5-3.4,8.1-3.4c1.3,0,2.3,0.2,3.1,0.7c0.8,0.5,1.2,1.1,1.2,1.8c0,1.2-1,2.1-3.1,2.7c0.1-0.3,0.2-0.5,0.2-0.8
				c0-1.8-1-2.7-2.9-2.7c-1.6,0-3.2,0.9-4.6,2.8c-1.4,1.8-2.1,3.9-2.1,6.1c0,1.8,0.5,3.2,1.4,4.4c0.9,1.1,2.1,1.7,3.6,1.7
				c4.1,0,8.8-4.2,14.3-12.7L566.7,321.8z"/>
			<path d="M565.4,328.5c0,3.2,1.4,4.9,4.1,4.9c2.4,0,5-1.1,7.9-3.4c2.9-2.3,5.5-5.2,7.8-8.9l1.4,0.8c-2.2,4-5,7.4-8.5,10.1
				s-6.8,4-9.9,4c-2,0-3.6-0.6-4.7-1.9c-1.2-1.3-1.7-3-1.7-5.3c0-3.2,1-6,3.1-8.2c2.1-2.3,4.6-3.4,7.6-3.4c1.4,0,2.6,0.4,3.4,1.1
				c0.9,0.7,1.3,1.7,1.3,2.9c0,2-1.2,3.7-3.6,5.3C571.3,327.7,568.5,328.5,565.4,328.5z M565.6,326.9c2.3-0.1,4.3-0.8,6-2
				c1.7-1.2,2.5-2.6,2.5-4.2c0-1.4-0.6-2.1-1.9-2.1c-1.5,0-2.9,0.8-4.2,2.4C566.7,322.6,565.9,324.6,565.6,326.9z"/>
			<path d="M596,325.7c-1.7,3.1-3.5,5.6-5.4,7.4c-1.9,1.8-3.6,2.7-5.1,2.7c-1.2,0-2.1-0.5-2.8-1.6c-0.7-1-1-2.4-1-4.2
				c0-3.5,1-6.6,3.1-9.2c2.1-2.6,4.5-3.9,7.3-3.9c1.6,0,3.4,0.5,5.4,1.6l1.8-8.9c-1,0.2-1.8,0.3-2.4,0.3c-1,0-1.7-0.2-2.1-0.7
				c-0.5-0.5-0.8-1.3-1.1-2.6c0.8,0.5,2,0.8,3.7,0.8c2,0,4-0.4,5.9-1.1l-3.6,18.2c-0.4,2-0.6,3.8-0.6,5.2c0,1.9,0.5,2.9,1.6,2.9
				c1.1,0,2.8-1.2,5.3-3.7s4.5-5.1,6.2-7.8l1.4,0.9c-2,3.6-4.4,6.8-7.4,9.7c-2.9,2.8-5.3,4.3-7.1,4.3c-2.2,0-3.4-1.8-3.4-5.4
				C595.6,328.9,595.8,327.4,596,325.7z M596.9,321.3c-2.3-1.5-4.2-2.3-5.7-2.3c-1.7,0-3.1,1-4.3,3.1s-1.8,4.4-1.8,7.2
				c0,2.2,0.7,3.4,2.2,3.4c1.6,0,4.6-3.5,9.1-10.4C596.4,322.1,596.6,321.8,596.9,321.3z"/>
		</g>
		<g>
			<path d="M140.1,370.3c0.4,0.8,0.6,1.6,0.6,2.4c0,1.7-0.7,3.2-2.1,4.4c-1.4,1.3-3.1,1.9-5,1.9c-1.1,0-2.1-0.3-2.9-0.9
				c-0.8-0.6-1.2-1.3-1.2-2.1c0-0.9,0.5-1.7,1.6-2.6s2.9-1.9,5.4-3.2l-1.3-2.1c-1.6-2.6-2.4-4.6-2.4-6.1c0-2.1,1.2-3.8,3.7-5.1
				c1.5,0.6,2.3,1.3,2.3,2.2c0,1.2-1,2.4-2.9,3.6l1.9,3.5l1.5,2.7c2.1-1.3,3.7-2.3,4.8-3.2c1.1-0.9,2.4-2.3,4.1-4.2l1.3,0.8
				C147.1,365.5,143.9,368.2,140.1,370.3z M137.3,371.8c-3.3,1.7-4.9,3.1-4.9,4.1c0,0.9,0.7,1.4,2,1.4c1,0,1.8-0.3,2.4-1
				c0.6-0.7,0.9-1.5,0.9-2.5C137.7,373.1,137.5,372.5,137.3,371.8z"/>
			<path d="M162.6,364c0,0.3,0,0.5,0,0.7c0,3.2-1.1,6-3.3,8.4c-2.2,2.4-4.7,3.6-7.6,3.6c-2.2,0-4-0.7-5.4-2.1
				c-1.4-1.4-2.1-3.3-2.1-5.5c0-2.6,0.9-4.8,2.7-6.7s3.9-2.8,6.4-2.8c0.4,0,0.8,0,1.2,0.1c-0.3-0.5-0.4-0.9-0.4-1.3
				c0-0.5,0.2-1,0.5-1.5c2.7,0.2,4.9,1.6,6.7,4.2c1.8,1.3,3.8,1.9,5.7,1.9c1.3,0,2.7-0.4,4.2-1.3l0.8,1.4c-1.8,1.2-3.6,1.8-5.4,1.8
				C165.6,364.7,164.2,364.5,162.6,364z M158.9,362.5c-0.9-0.3-1.8-0.7-2.5-1.3c-0.6-0.1-1-0.2-1.4-0.2c-1.9,0-3.5,0.8-5,2.5
				c-1.5,1.7-2.2,3.6-2.2,5.8c0,1.6,0.4,2.9,1.3,3.9c0.9,1,2,1.5,3.4,1.5c1.9,0,3.5-0.9,4.8-2.8c1.3-1.9,2-4.1,2-6.7
				C159.3,364.3,159.1,363.4,158.9,362.5z"/>
			<path d="M184.6,370.4c4-8.4,7.5-12.6,10.6-12.6c1.3,0,2,1,2,2.9c0,0.8-0.3,2.7-0.9,5.6l-1,5c1.9-4.1,4-7.3,6.1-9.8
				c2.1-2.5,3.9-3.7,5.4-3.7c1.7,0,2.5,1,2.5,3c0,0.7-0.2,2.3-0.7,4.9l-0.5,2.6c-0.3,1.6-0.5,2.7-0.5,3.5c0,1.3,0.5,2,1.4,2
				c2.1,0,5.4-3.9,9.8-11.8l1.4,0.8c-4.8,9.4-9,14-12.6,14c-2.3,0-3.4-1.5-3.4-4.5c0-1,0.2-2.6,0.7-4.8l0.5-2.3
				c0.3-1.5,0.5-2.5,0.5-2.9c0-0.5-0.2-0.7-0.7-0.7c-1.2,0-3.3,2.4-6.4,7.1c-2.8,4.3-4.2,6.8-4.2,7.4c0,0.1,0,0.2,0.1,0.3
				c-0.2,0-0.4,0.1-0.8,0.2c-0.2,0.1-0.4,0.1-0.7,0.1c-1,0-1.5-0.5-1.5-1.5c0-0.3,0.2-1.2,0.5-2.7c0.1-0.5,0.2-1.1,0.4-1.7l0.7-3.5
				c0.5-2.5,0.8-4.1,0.8-4.6c0-0.7-0.3-1.1-0.8-1.1c-1.2,0-3,2.1-5.3,6.4c-2.3,4.2-3.5,6.8-3.5,7.6c0,0.2,0.1,0.5,0.3,0.7
				c-0.6,0.3-1.2,0.4-1.7,0.4c-1.2,0-1.7-0.6-1.7-1.9c0-0.2,0.2-1.8,0.5-4.8l0.4-3.5c0.1-1.2,0.2-2.4,0.2-3.4c0-1.3-0.3-2.3-0.8-2.9
				c1.3-0.5,2.2-0.7,2.7-0.7c1,0,1.5,0.6,1.5,1.7c0,0.4-0.1,1.9-0.4,4.6L184.6,370.4z"/>
			<path d="M230.7,366c-1.5,3.2-3.2,5.7-5.1,7.7c-1.9,2-3.6,3-5.1,3c-1.2,0-2.2-0.4-2.9-1.3c-0.8-0.9-1.1-2-1.1-3.3
				c0-1.7,0.6-5,1.8-9.6c0.3-1.3,0.5-2.1,0.5-2.4c0-0.3-0.1-0.7-0.3-1.1l2.3,0c1,0,1.5,0.4,1.5,1.1c0,0.5-0.3,1.8-1,4.1
				c-0.2,0.7-0.3,1.1-0.4,1.4l-0.2,1c-0.5,2-0.7,3.6-0.7,4.6c0,1.6,0.6,2.5,1.7,2.5c1.8,0,4.2-2.3,7-6.9c2.3-3.7,3.5-6.4,3.5-8
				c0-0.2-0.1-0.4-0.2-0.7c0.9-0.3,1.7-0.4,2.3-0.4c1,0,1.5,0.3,1.5,0.9c0,0.1,0,0.4-0.1,0.6c0,0.2-0.1,0.6-0.3,1.2
				c0,0.1-0.1,0.6-0.3,1.3c-0.1,0.5-0.2,1-0.3,1.3l-0.2,0.8c-0.4,1.8-0.5,3.5-0.5,5.1c0,2.4,0.6,3.6,1.8,3.6c2.6,0,5.9-3.6,9.9-10.9
				l1.4,0.8c-4.5,8.7-8.7,13.1-12.5,13.1c-2.5,0-3.8-2.2-3.8-6.6C230.5,368.3,230.6,367.2,230.7,366z"/>
			<path d="M266.2,362.6c-2.7,4.5-5.5,8-8.5,10.6c-3,2.6-5.8,3.9-8.4,3.9c-2.1,0-3.9-0.7-5.2-2.2s-2-3.4-2-5.7c0-3.1,1.1-5.8,3.4-8
				c2.3-2.3,5-3.4,8.1-3.4c1.3,0,2.3,0.2,3.1,0.7c0.8,0.5,1.2,1.1,1.2,1.8c0,1.2-1,2.1-3.1,2.7c0.1-0.3,0.2-0.5,0.2-0.8
				c0-1.8-1-2.7-2.9-2.7c-1.6,0-3.2,0.9-4.6,2.8c-1.4,1.8-2.1,3.9-2.1,6.1c0,1.8,0.5,3.2,1.4,4.4c0.9,1.1,2.1,1.7,3.6,1.7
				c4.1,0,8.8-4.2,14.3-12.7L266.2,362.6z"/>
			<path d="M265.5,368.9c3.3-7.4,6.7-11.1,10.1-11.1c1.4,0,2.4,0.6,3,1.7c0.6,1.1,0.9,3,0.9,5.6l0,2c0,3.5,0.5,5.2,1.5,5.3
				c0.8,0,2.1-1,3.9-3c1.8-2,3.6-4.5,5.4-7.6l1.4,0.8c-1.8,3.6-3.8,6.6-6.1,9c-2.3,2.5-4.1,3.7-5.6,3.7c-1.4,0-2.3-0.6-2.9-1.9
				s-0.9-3.4-0.9-6.2v-1.5c0-3.3-0.6-5-1.7-5c-1.6,0-3.7,2.2-6.2,6.7c-2.5,4.5-3.8,7.2-3.8,8c0,0.3,0.1,0.5,0.3,0.8
				c-0.5,0.3-1.1,0.4-1.9,0.4c-1,0-1.5-0.4-1.5-1.3c0-0.6,0.3-2.5,1-5.5c0-0.1,0.2-0.8,0.4-2.1l3.4-17.1c-0.7,0.3-1.5,0.4-2.2,0.4
				c-2.1,0-3.2-1.3-3.2-3.8c1.1,0.8,2.3,1.2,3.7,1.2c2,0,3.9-0.4,5.7-1.2l-2.7,13.7c0,0.2-0.5,2.2-1.5,6.2
				C265.9,367.3,265.7,368,265.5,368.9z"/>
			<path d="M301.8,376.6c0.3-1,0.4-2.1,0.4-3.4c0-3.1-0.4-6.2-1.1-9.2s-1.7-5.2-2.8-6.4c1-0.5,1.9-0.7,2.5-0.7c1.2,0,2.2,1.4,3,4.2
				c0.8,2.8,1.4,6.7,1.7,11.7c1.6-2.1,3-4.3,4.1-6.7c1.1-2.4,1.7-4.3,1.7-5.6c0-0.1,0-0.3,0-0.5c1-0.4,1.7-0.5,2.2-0.5
				c1,0,1.4,0.4,1.4,1.1c0,0.2-0.2,1.4-0.6,3.6c-0.1,0.5-0.2,1-0.2,1.4l-0.1,1.1c-0.1,0.9-0.1,1.9-0.1,3c0,3.1,0.7,4.6,2.1,4.6
				c1.3,0,2.4-1.1,3.4-3.4s1.5-4.8,1.5-7.8c0-2.1-0.5-3.3-1.6-3.8c1-0.8,1.9-1.2,2.8-1.2c1.3,0,2,1,2,3.1c0,3-1.1,6.5-3.2,10.5
				c-1.9,3.5-3.9,5.2-6.1,5.2c-2.5,0-3.8-2.1-3.8-6.4l0.1-3.9c-1.3,2.8-2.6,5.2-4,7.2C305.9,375.6,304.1,376.6,301.8,376.6z"/>
			<path d="M346.7,362.6c-2.5,4.4-5,7.8-7.6,10.3s-4.9,3.7-6.9,3.7c-1.2,0-2.2-0.4-3-1.2c-0.8-0.8-1.1-1.9-1.1-3.2
				c0-0.5,0.1-1.3,0.3-2.4l0.4-1.8c0.5-2.6,0.8-4.5,0.8-5.5c0-0.6-0.2-1.1-0.6-1.5c1.4-0.3,2.3-0.5,2.7-0.5c0.8,0,1.2,0.6,1.2,1.7
				c0,0.9-0.2,2.1-0.5,3.7l-0.6,3.2c-0.3,1.6-0.5,2.6-0.5,3c0,1.4,0.6,2.1,1.7,2.1c1.4,0,3.2-1.2,5.5-3.5c2.3-2.3,4.5-5.3,6.7-8.8
				L346.7,362.6z M331.9,354.2l0.2,0c0.7,0,1.8-0.4,3.2-1.1c1.4-0.7,2.5-1.4,3.3-2.2c-0.5,1.5-1.4,2.8-2.6,3.8
				c-1.9,1.6-3.2,2.4-3.8,2.4c-0.4,0-0.7-0.3-0.7-0.8C331.6,355.6,331.7,354.9,331.9,354.2z"/>
			<path d="M354.7,369.6c0.3,0.5,0.4,1,0.4,1.4c0,1.1-0.9,2.3-2.7,3.6c-1.8,1.3-3.5,2-5,2c-1.3,0-2.4-0.6-3.2-1.8
				c-0.8-1.2-1.3-2.7-1.3-4.6c0-2.1,0.5-5,1.6-8.9l0.8-2.8h-2.8c-1.2,0-2.1,0.2-2.8,0.5c0.6-1.2,1.2-1.9,1.6-2.2
				c0.4-0.3,1.1-0.4,2.1-0.4h2.5l0.3-1.1c0.5-1.7,1.1-2.9,1.8-3.5c0.7-0.6,1.8-1,3.2-1c0.2,0,0.4,0,0.8,0c-0.9,1.1-1.8,3-2.7,5.6
				h8.8c1.5,0,2.7-0.2,3.5-0.6c-0.3,1.1-0.6,1.9-1.1,2.2c-0.5,0.3-1.3,0.5-2.6,0.5h-9.3c-0.1,0.4-0.2,0.6-0.2,0.8
				c-1.3,4.6-2,8-2,10.3c0,2.6,0.9,3.9,2.8,3.9c1,0,2-0.4,3.1-1.2C353.4,371.5,354.2,370.6,354.7,369.6z"/>
			<path d="M361,368.9c3.3-7.4,6.7-11.1,10.1-11.1c1.4,0,2.4,0.6,3,1.7c0.6,1.1,0.9,3,0.9,5.6l0,2c0,3.5,0.5,5.2,1.5,5.3
				c0.8,0,2.1-1,3.9-3c1.8-2,3.6-4.5,5.4-7.6l1.4,0.8c-1.8,3.6-3.8,6.6-6.1,9c-2.3,2.5-4.1,3.7-5.6,3.7c-1.4,0-2.3-0.6-2.9-1.9
				s-0.9-3.4-0.9-6.2v-1.5c0-3.3-0.6-5-1.7-5c-1.6,0-3.7,2.2-6.2,6.7c-2.5,4.5-3.8,7.2-3.8,8c0,0.3,0.1,0.5,0.3,0.8
				c-0.5,0.3-1.1,0.4-1.9,0.4c-1,0-1.5-0.4-1.5-1.3c0-0.6,0.3-2.5,1-5.5c0-0.1,0.2-0.8,0.4-2.1l3.4-17.1c-0.7,0.3-1.5,0.4-2.2,0.4
				c-2.1,0-3.2-1.3-3.2-3.8c1.1,0.8,2.3,1.2,3.7,1.2c2,0,3.9-0.4,5.7-1.2l-2.7,13.7c0,0.2-0.5,2.2-1.5,6.2
				C361.3,367.3,361.2,368,361,368.9z"/>
			<path d="M408.2,366c-1.4,2.9-3.2,5.4-5.2,7.5c-2.1,2.1-3.9,3.1-5.4,3.1c-1.2,0-2.1-0.5-2.8-1.6c-0.7-1-1.1-2.4-1.1-4.2
				c0-3.5,1-6.5,3.1-9.1s4.5-4,7.3-4c1.7,0,3.5,0.5,5.4,1.6c0.3-1,1.5-1.5,3.5-1.5c0.1,0,0.3,0,0.6,0c-0.6,1-1.1,2.3-1.4,4l-0.3,1.4
				c-0.3,1.6-0.5,3.4-0.5,5.5c0,2.4,0.6,3.6,1.7,3.6c1.2,0,2.8-1,4.9-3c2.1-2,4.1-4.5,6.1-7.6l1.3,0.9c-2,3.7-4.4,6.7-7,9.1
				c-2.6,2.4-4.9,3.7-6.8,3.7c-2.4,0-3.6-2-3.6-6C408.1,368.6,408.2,367.5,408.2,366z M409,362.1c-2.3-1.5-4.3-2.3-5.8-2.3
				c-1.7,0-3.1,1-4.3,3c-1.2,2-1.8,4.4-1.8,7.2c0,2.2,0.7,3.4,2.2,3.4c1.6,0,4.6-3.5,9.1-10.4C408.4,362.9,408.6,362.6,409,362.1z"
				/>
			<path d="M426.4,370.2c3.9-8.3,7.5-12.5,10.6-12.5c2.4,0,3.7,2.4,3.7,7.3l0,2c0,2.3,0.1,3.9,0.4,4.8c0.2,0.9,0.7,1.3,1.3,1.3
				c1,0,2-0.8,3.2-2.3s3.2-4.6,5.9-9.1l1.4,0.8c-2.4,4.6-4.6,8-6.5,10.2s-3.7,3.3-5.2,3.3c-1.4,0-2.4-0.7-3-2
				c-0.6-1.4-0.9-3.7-0.9-7.1l0-1.4c0-1.8-0.1-3.1-0.3-3.8c-0.2-0.7-0.6-1.1-1.2-1.1c-1.5,0-3.8,2.9-7.1,8.7
				c-0.8,1.4-1.3,2.3-1.5,2.8c-0.9,1.5-1.3,2.6-1.3,3.2c0,0.3,0.1,0.5,0.2,0.8c-0.6,0.3-1.2,0.4-1.6,0.4c-1.1,0-1.7-0.6-1.7-1.9
				c0-0.4,0.1-1.9,0.4-4.8l0.4-3.6c0.2-1.5,0.2-2.7,0.2-3.6c0-1.2-0.3-2.1-0.8-2.8c0.2-0.1,0.6-0.2,1.2-0.4c0.7-0.2,1.2-0.4,1.6-0.4
				c0.9,0,1.3,0.6,1.3,1.9c0,0.7-0.1,1.8-0.2,3.4c0,0.4-0.1,0.7-0.1,1L426.4,370.2z"/>
			<path d="M455.3,376.1c-0.5-3-1.3-5.9-2.5-8.8c-1.2-2.9-2.5-5.1-3.9-6.6c0.8-0.7,1.7-1,2.5-1c0.7,0,1.4,0.3,1.9,1
				c0.5,0.7,1.1,2,1.9,4c1.2,3.2,2,6.1,2.6,8.6c3.7-5.9,5.8-11.1,6.1-15.5c1.9,0.3,2.9,0.9,2.9,1.9c0,1.1-0.9,3.2-2.6,6.6
				s-3.6,6.3-5.6,9.1c-2.3,3.2-4.6,5.7-6.9,7.5c-2.3,1.8-4.3,2.7-5.9,2.7c-1.5,0-2.2-0.6-2.2-1.9c0-0.5,0.1-1.1,0.4-1.8
				c0.6,0.4,1.4,0.6,2.3,0.6C449.3,382.5,452.4,380.4,455.3,376.1z"/>
			<path d="M485.7,364c0,0.3,0,0.5,0,0.7c0,3.2-1.1,6-3.3,8.4c-2.2,2.4-4.7,3.6-7.6,3.6c-2.2,0-4-0.7-5.4-2.1
				c-1.4-1.4-2.1-3.3-2.1-5.5c0-2.6,0.9-4.8,2.7-6.7s3.9-2.8,6.4-2.8c0.4,0,0.8,0,1.2,0.1c-0.3-0.5-0.4-0.9-0.4-1.3
				c0-0.5,0.2-1,0.5-1.5c2.7,0.2,4.9,1.6,6.7,4.2c1.8,1.3,3.8,1.9,5.7,1.9c1.3,0,2.7-0.4,4.2-1.3l0.8,1.4c-1.8,1.2-3.6,1.8-5.4,1.8
				C488.7,364.7,487.3,364.5,485.7,364z M481.9,362.5c-0.9-0.3-1.8-0.7-2.5-1.3c-0.6-0.1-1-0.2-1.4-0.2c-1.9,0-3.5,0.8-5,2.5
				c-1.5,1.7-2.2,3.6-2.2,5.8c0,1.6,0.4,2.9,1.3,3.9c0.9,1,2,1.5,3.4,1.5c1.9,0,3.5-0.9,4.8-2.8c1.3-1.9,2-4.1,2-6.7
				C482.4,364.3,482.2,363.4,481.9,362.5z"/>
			<path d="M496.2,370.2c3.9-8.3,7.5-12.5,10.6-12.5c2.4,0,3.7,2.4,3.7,7.3l0,2c0,2.3,0.1,3.9,0.4,4.8c0.2,0.9,0.7,1.3,1.3,1.3
				c1,0,2-0.8,3.2-2.3s3.2-4.6,5.9-9.1l1.4,0.8c-2.4,4.6-4.6,8-6.5,10.2s-3.7,3.3-5.2,3.3c-1.4,0-2.4-0.7-3-2
				c-0.6-1.4-0.9-3.7-0.9-7.1l0-1.4c0-1.8-0.1-3.1-0.3-3.8c-0.2-0.7-0.6-1.1-1.2-1.1c-1.5,0-3.8,2.9-7.1,8.7
				c-0.8,1.4-1.3,2.3-1.5,2.8c-0.9,1.5-1.3,2.6-1.3,3.2c0,0.3,0.1,0.5,0.2,0.8c-0.6,0.3-1.2,0.4-1.6,0.4c-1.1,0-1.7-0.6-1.7-1.9
				c0-0.4,0.1-1.9,0.4-4.8l0.4-3.6c0.2-1.5,0.2-2.7,0.2-3.6c0-1.2-0.3-2.1-0.8-2.8c0.2-0.1,0.6-0.2,1.2-0.4c0.7-0.2,1.2-0.4,1.6-0.4
				c0.9,0,1.3,0.6,1.3,1.9c0,0.7-0.1,1.8-0.2,3.4c0,0.4-0.1,0.7-0.1,1L496.2,370.2z"/>
			<path d="M521.5,369.3c0,3.2,1.4,4.9,4.1,4.9c2.4,0,5-1.1,7.9-3.4c2.9-2.3,5.5-5.2,7.8-8.9l1.4,0.8c-2.2,4-5,7.4-8.5,10.1
				s-6.8,4-9.9,4c-2,0-3.6-0.6-4.7-1.9c-1.2-1.3-1.7-3-1.7-5.3c0-3.2,1-6,3.1-8.2c2.1-2.3,4.6-3.4,7.6-3.4c1.4,0,2.6,0.4,3.4,1.1
				c0.9,0.7,1.3,1.7,1.3,2.9c0,2-1.2,3.7-3.6,5.3C527.3,368.5,524.6,369.3,521.5,369.3z M521.6,367.7c2.3-0.1,4.3-0.8,6-2
				c1.7-1.2,2.5-2.6,2.5-4.2c0-1.4-0.6-2.1-1.9-2.1c-1.5,0-2.9,0.8-4.2,2.4C522.7,363.4,521.9,365.4,521.6,367.7z"/>
		</g>
		<g>
			<path d="M147.6,405.4c0.2,0.5,0.2,1.1,0.2,1.7c0,2.8-1,5.2-2.9,7.2c-1.9,2.1-4.2,3.1-6.9,3.1c-1.9,0-3.5-0.6-4.7-1.7
				s-1.8-2.6-1.8-4.4c0-1.3,0.2-3.2,0.7-5.7l2.8-14.1c-0.5,0.1-1,0.1-1.4,0.1c-2.4,0-3.6-1.2-3.6-3.7c0.7,0.7,1.9,1,3.5,1
				c1.4,0,3.2-0.4,5.5-1.1l-3.9,19.7c-0.3,1.3-0.4,2.5-0.4,3.5c0,1.4,0.4,2.5,1.1,3.3c0.7,0.8,1.7,1.3,2.8,1.3
				c1.7,0,3.2-0.8,4.4-2.4c1.2-1.6,1.8-3.5,1.8-5.7c0-1.1-0.2-2.2-0.5-3.2c-1.4-0.5-2.5-1.1-3.4-1.8c-0.9-0.7-1.3-1.5-1.3-2.2
				c0-0.4,0.2-0.9,0.5-1.5c3,0.2,5.3,1.5,6.8,3.9c1.4,0.7,3,1,4.5,1c1.6,0,3.3-0.5,5-1.5l0.8,1.3c-1.9,1.5-4.1,2.2-6.5,2.2
				C149.6,405.8,148.6,405.7,147.6,405.4z"/>
			<path d="M155.9,410.1c0,3.2,1.4,4.9,4.1,4.9c2.4,0,5-1.1,7.9-3.4c2.9-2.3,5.5-5.2,7.8-8.9l1.4,0.8c-2.2,4-5,7.4-8.5,10.1
				s-6.8,4-9.9,4c-2,0-3.6-0.6-4.7-1.9c-1.2-1.3-1.7-3-1.7-5.3c0-3.2,1-6,3.1-8.2c2.1-2.3,4.6-3.4,7.6-3.4c1.4,0,2.6,0.4,3.4,1.1
				c0.9,0.7,1.3,1.7,1.3,2.9c0,2-1.2,3.7-3.6,5.3C161.8,409.3,159,410.1,155.9,410.1z M156.1,408.5c2.3-0.1,4.3-0.8,6-2
				c1.7-1.2,2.5-2.6,2.5-4.2c0-1.4-0.6-2.1-1.9-2.1c-1.5,0-2.9,0.8-4.2,2.4C157.2,404.2,156.4,406.2,156.1,408.5z"/>
			<path d="M174.9,403.8h-0.3c-1.6,0-3.1,0.4-4.3,1.2c0.3-1.4,0.7-2.3,1.2-2.7c0.5-0.4,1.6-0.6,3.2-0.6h0.6l0.5-2.7
				c0.7-3.7,1.9-6.4,3.6-8c2-2,4.2-3.1,6.7-3.1c1,0,1.8,0.2,2.5,0.7c0.7,0.4,1,1,1,1.6c0,0.6-0.7,1.4-2.1,2.2
				c-0.4-1.7-1.3-2.5-2.7-2.5c-2.5,0-4.3,2.7-5.4,8.2l-0.7,3.7h5.8c2.6,0,4.6-0.1,5.8-0.4c-0.5,1.2-1.1,1.9-1.8,2.1
				c-0.7,0.2-2.4,0.4-5.3,0.4h-5l-2.8,14.2c-0.3,1.4-0.4,2.6-0.4,3.6c0,0.7,0.1,1.2,0.4,1.8c-1.1,0.4-2,0.5-2.6,0.5
				c-0.9,0-1.4-0.5-1.4-1.5c0-0.8,0.2-2.1,0.5-4L174.9,403.8z"/>
			<path d="M202.6,404.8c0,0.3,0,0.5,0,0.7c0,3.2-1.1,6-3.3,8.4c-2.2,2.4-4.7,3.6-7.6,3.6c-2.2,0-4-0.7-5.4-2.1
				c-1.4-1.4-2.1-3.3-2.1-5.5c0-2.6,0.9-4.8,2.7-6.7s3.9-2.8,6.4-2.8c0.4,0,0.8,0,1.2,0.1c-0.3-0.5-0.4-0.9-0.4-1.3
				c0-0.5,0.2-1,0.5-1.5c2.7,0.2,4.9,1.6,6.7,4.2c1.8,1.3,3.8,1.9,5.7,1.9c1.3,0,2.7-0.4,4.2-1.3l0.8,1.4c-1.8,1.2-3.6,1.8-5.4,1.8
				C205.5,405.5,204.1,405.3,202.6,404.8z M198.8,403.3c-0.9-0.3-1.8-0.7-2.5-1.3c-0.6-0.1-1-0.2-1.4-0.2c-1.9,0-3.5,0.8-5,2.5
				c-1.5,1.7-2.2,3.6-2.2,5.8c0,1.6,0.4,2.9,1.3,3.9c0.9,1,2,1.5,3.4,1.5c1.9,0,3.5-0.9,4.8-2.8c1.3-1.9,2-4.1,2-6.7
				C199.2,405.1,199.1,404.2,198.8,403.3z"/>
			<path d="M211.6,416.9c-0.8,0.4-1.4,0.5-1.8,0.5c-1.1,0-1.7-0.5-1.7-1.5c0-0.5,0.2-1.8,0.6-3.8l0.8-4.1c0.5-2.5,0.8-4.3,0.8-5.5
				c0-0.6-0.2-1.2-0.5-1.6c1.2-0.4,2.1-0.6,2.8-0.6c0.8,0,1.2,0.5,1.2,1.5c0,0.6-0.3,2.2-0.8,4.8l-0.9,4.8c2.1-4.1,4.2-7.2,6.3-9.5
				c2.1-2.3,4-3.4,5.8-3.4c0.6,0,1.1,0.2,1.6,0.5c0.4,0.3,0.7,0.8,0.7,1.3c0,0.8-0.8,1.8-2.5,3.1c-0.4-0.9-1-1.3-1.8-1.3
				c-1.4,0-3.2,1.5-5.4,4.5c-1.3,1.9-2.5,3.8-3.5,5.8c-1,2-1.5,3.4-1.5,4.2L211.6,416.9z"/>
			<path d="M229.3,410.1c0,3.2,1.4,4.9,4.1,4.9c2.4,0,5-1.1,7.9-3.4c2.9-2.3,5.5-5.2,7.8-8.9l1.4,0.8c-2.2,4-5,7.4-8.5,10.1
				s-6.8,4-9.9,4c-2,0-3.6-0.6-4.7-1.9c-1.2-1.3-1.7-3-1.7-5.3c0-3.2,1-6,3.1-8.2c2.1-2.3,4.6-3.4,7.6-3.4c1.4,0,2.6,0.4,3.4,1.1
				c0.9,0.7,1.3,1.7,1.3,2.9c0,2-1.2,3.7-3.6,5.3C235.1,409.3,232.4,410.1,229.3,410.1z M229.4,408.5c2.3-0.1,4.3-0.8,6-2
				c1.7-1.2,2.5-2.6,2.5-4.2c0-1.4-0.6-2.1-1.9-2.1c-1.5,0-2.9,0.8-4.2,2.4C230.5,404.2,229.7,406.2,229.4,408.5z"/>
			<path d="M246.7,413l1.2-0.2c0.8-0.2,1.4-0.2,1.7-0.2c1,0,1.4,0.5,1.4,1.5c0,0.4-0.1,0.9-0.2,1.4l-0.2,1.1l-0.8,0.1
				c-1.1,0.2-1.7,0.3-1.9,0.3c-0.8,0-1.2-0.4-1.2-1.2c0-0.2,0-0.4,0.1-0.6l0.1-0.4c0-0.2,0.1-0.4,0.1-0.6
				C247.1,413.7,247,413.3,246.7,413z"/>
			<path d="M279.4,394.2l-4.1,20.6c2.1-0.3,3.6-0.4,4.5-0.4c1.4,0,2.2,1,2.2,3c-0.8-0.3-1.7-0.4-2.6-0.4c-0.9,0-1.9,0.1-3.2,0.2
				l-3.8,0.5c-1.4,0.2-2.3,0.3-2.8,0.3c-0.9,0-1.6-0.2-2-0.7c-0.4-0.4-0.6-1.3-0.7-2.4c0.8,0.4,1.6,0.6,2.5,0.6
				c0.5,0,1.2-0.1,2.3-0.2l4.1-20.7c-1.2,0.2-2.2,0.3-3.1,0.3c-1.5,0-2.3-0.9-2.3-2.7c0.4,0.3,1,0.4,1.6,0.4c0.8,0,2-0.1,3.5-0.4
				l2.6-0.5c1.8-0.3,3.2-0.5,4.2-0.5c1.5,0,2.4,1,2.6,3c-0.6-0.3-1.3-0.4-1.9-0.4c-0.9,0-1.8,0.1-2.9,0.2
				C280,394.1,279.7,394.1,279.4,394.2z"/>
			<path d="M312.7,406.8c-1.4,2.9-3.2,5.4-5.2,7.5c-2.1,2.1-3.9,3.1-5.4,3.1c-1.2,0-2.1-0.5-2.8-1.6c-0.7-1-1.1-2.4-1.1-4.2
				c0-3.5,1-6.5,3.1-9.1s4.5-4,7.3-4c1.7,0,3.5,0.5,5.4,1.6c0.3-1,1.5-1.5,3.5-1.5c0.1,0,0.3,0,0.6,0c-0.6,1-1.1,2.3-1.4,4l-0.3,1.4
				c-0.3,1.6-0.5,3.4-0.5,5.5c0,2.4,0.6,3.6,1.7,3.6c1.2,0,2.8-1,4.9-3c2.1-2,4.1-4.5,6.1-7.6l1.3,0.9c-2,3.7-4.4,6.7-7,9.1
				c-2.6,2.4-4.9,3.7-6.8,3.7c-2.4,0-3.6-2-3.6-6C312.6,409.4,312.7,408.3,312.7,406.8z M313.5,402.9c-2.3-1.5-4.3-2.3-5.8-2.3
				c-1.7,0-3.1,1-4.3,3c-1.2,2-1.8,4.4-1.8,7.2c0,2.2,0.7,3.4,2.2,3.4c1.6,0,4.6-3.5,9.1-10.4C312.9,403.7,313.1,403.4,313.5,402.9z
				"/>
			<path d="M330.9,411.2c4-8.4,7.5-12.6,10.6-12.6c1.3,0,2,1,2,2.9c0,0.8-0.3,2.7-0.9,5.6l-1,5c1.9-4.1,4-7.3,6.1-9.8
				c2.1-2.5,3.9-3.7,5.4-3.7c1.7,0,2.5,1,2.5,3c0,0.7-0.2,2.3-0.7,4.9l-0.5,2.6c-0.3,1.6-0.5,2.7-0.5,3.5c0,1.3,0.5,2,1.4,2
				c2.1,0,5.4-3.9,9.8-11.8l1.4,0.8c-4.8,9.4-9,14-12.6,14c-2.3,0-3.4-1.5-3.4-4.5c0-1,0.2-2.6,0.7-4.8l0.5-2.3
				c0.3-1.5,0.5-2.5,0.5-2.9c0-0.5-0.2-0.7-0.7-0.7c-1.2,0-3.3,2.4-6.4,7.1c-2.8,4.3-4.2,6.8-4.2,7.4c0,0.1,0,0.2,0.1,0.3
				c-0.2,0-0.4,0.1-0.8,0.2c-0.2,0.1-0.4,0.1-0.7,0.1c-1,0-1.5-0.5-1.5-1.5c0-0.3,0.2-1.2,0.5-2.7c0.1-0.5,0.2-1.1,0.4-1.7l0.7-3.5
				c0.5-2.5,0.8-4.1,0.8-4.6c0-0.7-0.3-1.1-0.8-1.1c-1.2,0-3,2.1-5.3,6.4c-2.3,4.2-3.5,6.8-3.5,7.6c0,0.2,0.1,0.5,0.3,0.7
				c-0.6,0.3-1.2,0.4-1.7,0.4c-1.2,0-1.7-0.6-1.7-1.9c0-0.2,0.2-1.8,0.5-4.8l0.4-3.5c0.1-1.2,0.2-2.4,0.2-3.4c0-1.3-0.3-2.3-0.8-2.9
				c1.3-0.5,2.2-0.7,2.7-0.7c1,0,1.5,0.6,1.5,1.7c0,0.4-0.1,1.9-0.4,4.6L330.9,411.2z"/>
			<path d="M383.3,411.1c0.4,0.8,0.6,1.6,0.6,2.4c0,1.7-0.7,3.2-2.1,4.4c-1.4,1.3-3.1,1.9-5,1.9c-1.1,0-2.1-0.3-2.9-0.9
				c-0.8-0.6-1.2-1.3-1.2-2.1c0-0.9,0.5-1.7,1.6-2.6s2.9-1.9,5.4-3.2l-1.3-2.1c-1.6-2.6-2.4-4.6-2.4-6.1c0-2.1,1.2-3.8,3.7-5.1
				c1.5,0.6,2.3,1.3,2.3,2.2c0,1.2-1,2.4-2.9,3.6l1.9,3.5l1.5,2.7c2.1-1.3,3.7-2.3,4.8-3.2c1.1-0.9,2.4-2.3,4.1-4.2l1.3,0.8
				C390.2,406.3,387.1,409,383.3,411.1z M380.5,412.6c-3.3,1.7-4.9,3.1-4.9,4.1c0,0.9,0.7,1.4,2,1.4c1,0,1.8-0.3,2.4-1
				c0.6-0.7,0.9-1.5,0.9-2.5C380.9,413.9,380.7,413.3,380.5,412.6z"/>
			<path d="M405.8,404.8c0,0.3,0,0.5,0,0.7c0,3.2-1.1,6-3.3,8.4c-2.2,2.4-4.7,3.6-7.6,3.6c-2.2,0-4-0.7-5.4-2.1
				c-1.4-1.4-2.1-3.3-2.1-5.5c0-2.6,0.9-4.8,2.7-6.7s3.9-2.8,6.4-2.8c0.4,0,0.8,0,1.2,0.1c-0.3-0.5-0.4-0.9-0.4-1.3
				c0-0.5,0.2-1,0.5-1.5c2.7,0.2,4.9,1.6,6.7,4.2c1.8,1.3,3.8,1.9,5.7,1.9c1.3,0,2.7-0.4,4.2-1.3l0.8,1.4c-1.8,1.2-3.6,1.8-5.4,1.8
				C408.8,405.5,407.4,405.3,405.8,404.8z M402,403.3c-0.9-0.3-1.8-0.7-2.5-1.3c-0.6-0.1-1-0.2-1.4-0.2c-1.9,0-3.5,0.8-5,2.5
				c-1.5,1.7-2.2,3.6-2.2,5.8c0,1.6,0.4,2.9,1.3,3.9c0.9,1,2,1.5,3.4,1.5c1.9,0,3.5-0.9,4.8-2.8c1.3-1.9,2-4.1,2-6.7
				C402.5,405.1,402.3,404.2,402,403.3z"/>
			<path d="M435.9,407c-1.1,2.2-2.6,4.2-4.7,5.8c-2,1.7-3.9,2.5-5.5,2.5c-1.2,0-2.2-0.4-3-1.2s-1.1-1.9-1.1-3.2
				c0-3.1,1.2-5.9,3.5-8.5c2.3-2.6,4.9-3.9,7.6-3.9c1.4,0,2.9,0.4,4.6,1.2c0.2-1.1,0.5-1.7,1-2c0.4-0.3,1.5-0.5,3.2-0.7
				c-0.9,1.7-1.7,5.9-2.5,12.4l-0.2,1.7c4.7-2.9,8.4-5.8,11-8.7l1.4,0.9c-2.4,3.2-6.6,6.6-12.5,10.4c0,0.4-0.1,0.8-0.1,1
				c-0.2,2.8-0.5,4.8-0.9,6.1c-0.4,1.3-1.2,2.6-2.3,3.8c-2.1,2.3-4.8,3.5-7.8,3.5c-1.6,0-3-0.4-4-1.2c-1-0.8-1.5-1.8-1.5-3
				c0-1.2,0.4-2.3,1.3-3.2c0.9-0.9,2.6-2,5-3.3c1.6-0.9,3.9-2.1,6.9-3.8L435.9,407z M436.7,402.7c-1.4-1.5-3-2.3-4.7-2.3
				c-1.6,0-3.2,1-4.6,3.1c-1.5,2.1-2.2,4.2-2.2,6.5c0,1.6,0.6,2.5,1.8,2.5c1.2,0,2.7-1,4.7-2.9C433.6,407.6,435.3,405.3,436.7,402.7
				z M435.1,415.7c-0.6,0.4-1.9,1.1-3.9,2.2c-3.8,2.2-5.7,4.1-5.7,5.7c0,0.7,0.3,1.3,0.9,1.8c0.6,0.5,1.4,0.7,2.4,0.7
				C433,426.2,435.1,422.7,435.1,415.7z"/>
			<path d="M450.6,416.9c-0.8,0.4-1.4,0.5-1.8,0.5c-1.1,0-1.7-0.5-1.7-1.5c0-0.5,0.2-1.8,0.6-3.8l0.8-4.1c0.5-2.5,0.8-4.3,0.8-5.5
				c0-0.6-0.2-1.2-0.5-1.6c1.2-0.4,2.1-0.6,2.8-0.6c0.8,0,1.2,0.5,1.2,1.5c0,0.6-0.3,2.2-0.8,4.8l-0.9,4.8c2.1-4.1,4.2-7.2,6.3-9.5
				c2.1-2.3,4-3.4,5.8-3.4c0.6,0,1.1,0.2,1.6,0.5c0.4,0.3,0.7,0.8,0.7,1.3c0,0.8-0.8,1.8-2.5,3.1c-0.4-0.9-1-1.3-1.8-1.3
				c-1.4,0-3.2,1.5-5.4,4.5c-1.3,1.9-2.5,3.8-3.5,5.8c-1,2-1.5,3.4-1.5,4.2L450.6,416.9z"/>
			<path d="M468.3,410.1c0,3.2,1.4,4.9,4.1,4.9c2.4,0,5-1.1,7.9-3.4c2.9-2.3,5.5-5.2,7.8-8.9l1.4,0.8c-2.2,4-5,7.4-8.5,10.1
				s-6.8,4-9.9,4c-2,0-3.6-0.6-4.7-1.9c-1.2-1.3-1.7-3-1.7-5.3c0-3.2,1-6,3.1-8.2c2.1-2.3,4.6-3.4,7.6-3.4c1.4,0,2.6,0.4,3.4,1.1
				c0.9,0.7,1.3,1.7,1.3,2.9c0,2-1.2,3.7-3.6,5.3C474.1,409.3,471.4,410.1,468.3,410.1z M468.4,408.5c2.3-0.1,4.3-0.8,6-2
				c1.7-1.2,2.5-2.6,2.5-4.2c0-1.4-0.6-2.1-1.9-2.1c-1.5,0-2.9,0.8-4.2,2.4C469.5,404.2,468.7,406.2,468.4,408.5z"/>
			<path d="M499.1,406.8c-1.4,2.9-3.2,5.4-5.2,7.5c-2.1,2.1-3.9,3.1-5.4,3.1c-1.2,0-2.1-0.5-2.8-1.6c-0.7-1-1.1-2.4-1.1-4.2
				c0-3.5,1-6.5,3.1-9.1s4.5-4,7.3-4c1.7,0,3.5,0.5,5.4,1.6c0.3-1,1.5-1.5,3.5-1.5c0.1,0,0.3,0,0.6,0c-0.6,1-1.1,2.3-1.4,4l-0.3,1.4
				c-0.3,1.6-0.5,3.4-0.5,5.5c0,2.4,0.6,3.6,1.7,3.6c1.2,0,2.8-1,4.9-3c2.1-2,4.1-4.5,6.1-7.6l1.3,0.9c-2,3.7-4.4,6.7-7,9.1
				c-2.6,2.4-4.9,3.7-6.8,3.7c-2.4,0-3.6-2-3.6-6C499,409.4,499,408.3,499.1,406.8z M499.9,402.9c-2.3-1.5-4.3-2.3-5.8-2.3
				c-1.7,0-3.1,1-4.3,3c-1.2,2-1.8,4.4-1.8,7.2c0,2.2,0.7,3.4,2.2,3.4c1.6,0,4.6-3.5,9.1-10.4C499.2,403.7,499.5,403.4,499.9,402.9z
				"/>
			<path d="M524.3,410.4c0.3,0.5,0.4,1,0.4,1.4c0,1.1-0.9,2.3-2.7,3.6c-1.8,1.3-3.5,2-5,2c-1.3,0-2.4-0.6-3.2-1.8
				c-0.8-1.2-1.3-2.7-1.3-4.6c0-2.1,0.5-5,1.6-8.9l0.8-2.8h-2.8c-1.2,0-2.1,0.2-2.8,0.5c0.6-1.2,1.2-1.9,1.6-2.2
				c0.4-0.3,1.1-0.4,2.1-0.4h2.5l0.3-1.1c0.5-1.7,1.1-2.9,1.8-3.5c0.7-0.6,1.8-1,3.2-1c0.2,0,0.4,0,0.8,0c-0.9,1.1-1.8,3-2.7,5.6
				h8.8c1.5,0,2.7-0.2,3.5-0.6c-0.3,1.1-0.6,1.9-1.1,2.2c-0.5,0.3-1.3,0.5-2.6,0.5h-9.3c-0.1,0.4-0.2,0.6-0.2,0.8
				c-1.3,4.6-2,8-2,10.3c0,2.6,0.9,3.9,2.8,3.9c1,0,2-0.4,3.1-1.2C523.1,412.3,523.9,411.4,524.3,410.4z"/>
			<path d="M529.1,403.8h-0.3c-1.6,0-3.1,0.4-4.3,1.2c0.3-1.4,0.7-2.3,1.2-2.7c0.5-0.4,1.6-0.6,3.2-0.6h0.6l0.5-2.7
				c0.7-3.7,1.9-6.4,3.6-8c2-2,4.2-3.1,6.7-3.1c1,0,1.8,0.2,2.5,0.7c0.7,0.4,1,1,1,1.6c0,0.6-0.7,1.4-2.1,2.2
				c-0.4-1.7-1.3-2.5-2.7-2.5c-2.5,0-4.3,2.7-5.4,8.2l-0.7,3.7h5.8c2.6,0,4.6-0.1,5.8-0.4c-0.5,1.2-1.1,1.9-1.8,2.1
				c-0.7,0.2-2.4,0.4-5.3,0.4h-5l-2.8,14.2c-0.3,1.4-0.4,2.6-0.4,3.6c0,0.7,0.1,1.2,0.4,1.8c-1.1,0.4-2,0.5-2.6,0.5
				c-0.9,0-1.4-0.5-1.4-1.5c0-0.8,0.2-2.1,0.5-4L529.1,403.8z"/>
			<path d="M554,406.8c-1.5,3.2-3.2,5.7-5.1,7.7c-1.9,2-3.6,3-5.1,3c-1.2,0-2.2-0.4-2.9-1.3c-0.8-0.9-1.1-2-1.1-3.3
				c0-1.7,0.6-5,1.8-9.6c0.3-1.3,0.5-2.1,0.5-2.4c0-0.3-0.1-0.7-0.3-1.1l2.3,0c1,0,1.5,0.4,1.5,1.1c0,0.5-0.3,1.8-1,4.1
				c-0.2,0.7-0.3,1.1-0.4,1.4l-0.2,1c-0.5,2-0.7,3.6-0.7,4.6c0,1.6,0.6,2.5,1.7,2.5c1.8,0,4.2-2.3,7-6.9c2.3-3.7,3.5-6.4,3.5-8
				c0-0.2-0.1-0.4-0.2-0.7c0.9-0.3,1.7-0.4,2.3-0.4c1,0,1.5,0.3,1.5,0.9c0,0.1,0,0.4-0.1,0.6c0,0.2-0.1,0.6-0.3,1.2
				c0,0.1-0.1,0.6-0.3,1.3c-0.1,0.5-0.2,1-0.3,1.3l-0.2,0.8c-0.4,1.8-0.5,3.5-0.5,5.1c0,2.4,0.6,3.6,1.8,3.6c2.6,0,5.9-3.6,9.9-10.9
				l1.4,0.8c-4.5,8.7-8.7,13.1-12.5,13.1c-2.5,0-3.8-2.2-3.8-6.6C553.9,409.1,553.9,408,554,406.8z"/>
			<path d="M583.9,403.5c-2.3,4.3-4.6,7.8-6.9,10.2c-2.3,2.5-4.4,3.7-6.1,3.7c-1.3,0-2.3-0.5-3.1-1.5c-0.8-1-1.2-2.3-1.2-3.9
				c0-0.9,0.2-2.2,0.5-3.9l3.3-16.6c-0.4,0.1-0.8,0.1-1.1,0.1c-2.5,0-3.8-1.1-3.8-3.2V388c1.3,0.8,2.8,1.1,4.5,1.1
				c1.7,0,3.1-0.4,4.4-1.2l-3.9,20c-0.3,1.8-0.5,3-0.5,3.7c0,1.9,0.7,2.8,2.1,2.8c1.3,0,2.7-0.8,4-2.2c1.3-1.5,3.5-4.7,6.6-9.6
				L583.9,403.5z"/>
		</g>
		<g>
			<path d="M132.7,444.6h-0.3c-1.6,0-3.1,0.4-4.3,1.2c0.3-1.4,0.7-2.3,1.2-2.7c0.5-0.4,1.6-0.6,3.2-0.6h0.6l0.5-2.7
				c0.7-3.7,1.9-6.4,3.6-8c2-2,4.2-3.1,6.7-3.1c1,0,1.8,0.2,2.5,0.7c0.7,0.4,1,1,1,1.6c0,0.6-0.7,1.4-2.1,2.2
				c-0.4-1.7-1.3-2.5-2.7-2.5c-2.5,0-4.3,2.7-5.4,8.2l-0.7,3.7h5.8c2.6,0,4.6-0.1,5.8-0.4c-0.5,1.2-1.1,1.9-1.8,2.1
				c-0.7,0.2-2.4,0.4-5.3,0.4h-5l-2.8,14.2c-0.3,1.4-0.4,2.6-0.4,3.6c0,0.7,0.1,1.2,0.4,1.8c-1.1,0.4-2,0.5-2.6,0.5
				c-0.9,0-1.4-0.5-1.4-1.5c0-0.8,0.2-2.1,0.5-4L132.7,444.6z"/>
			<path d="M160.3,445.6c0,0.3,0,0.5,0,0.7c0,3.2-1.1,6-3.3,8.4c-2.2,2.4-4.7,3.6-7.6,3.6c-2.2,0-4-0.7-5.4-2.1
				c-1.4-1.4-2.1-3.3-2.1-5.5c0-2.6,0.9-4.8,2.7-6.7s3.9-2.8,6.4-2.8c0.4,0,0.8,0,1.2,0.1c-0.3-0.5-0.4-0.9-0.4-1.3
				c0-0.5,0.2-1,0.5-1.5c2.7,0.2,4.9,1.6,6.7,4.2c1.8,1.3,3.8,1.9,5.7,1.9c1.3,0,2.7-0.4,4.2-1.3l0.8,1.4c-1.8,1.2-3.6,1.8-5.4,1.8
				C163.3,446.3,161.9,446.1,160.3,445.6z M156.6,444.1c-0.9-0.3-1.8-0.7-2.5-1.3c-0.6-0.1-1-0.2-1.4-0.2c-1.9,0-3.5,0.8-5,2.5
				c-1.5,1.7-2.2,3.6-2.2,5.8c0,1.6,0.4,2.9,1.3,3.9c0.9,1,2,1.5,3.4,1.5c1.9,0,3.5-0.9,4.8-2.8c1.3-1.9,2-4.1,2-6.7
				C157,445.9,156.8,445,156.6,444.1z"/>
			<path d="M169.4,457.7c-0.8,0.4-1.4,0.5-1.8,0.5c-1.1,0-1.7-0.5-1.7-1.5c0-0.5,0.2-1.8,0.6-3.8l0.8-4.1c0.5-2.5,0.8-4.3,0.8-5.5
				c0-0.6-0.2-1.2-0.5-1.6c1.2-0.4,2.1-0.6,2.8-0.6c0.8,0,1.2,0.5,1.2,1.5c0,0.6-0.3,2.2-0.8,4.8l-0.9,4.8c2.1-4.1,4.2-7.2,6.3-9.5
				c2.1-2.3,4-3.4,5.8-3.4c0.6,0,1.1,0.2,1.6,0.5c0.4,0.3,0.7,0.8,0.7,1.3c0,0.8-0.8,1.8-2.5,3.1c-0.4-0.9-1-1.3-1.8-1.3
				c-1.4,0-3.2,1.5-5.4,4.5c-1.3,1.9-2.5,3.8-3.5,5.8c-1,2-1.5,3.4-1.5,4.2L169.4,457.7z"/>
			<path d="M202.2,457.7c-0.5-3-1.3-5.9-2.5-8.8c-1.2-2.9-2.5-5.1-3.9-6.6c0.8-0.7,1.7-1,2.5-1c0.7,0,1.4,0.3,1.9,1
				c0.5,0.7,1.1,2,1.9,4c1.2,3.2,2,6.1,2.6,8.6c3.7-5.9,5.8-11.1,6.1-15.5c1.9,0.3,2.9,0.9,2.9,1.9c0,1.1-0.9,3.2-2.6,6.6
				s-3.6,6.3-5.6,9.1c-2.3,3.2-4.6,5.7-6.9,7.5c-2.3,1.8-4.3,2.7-5.9,2.7c-1.5,0-2.2-0.6-2.2-1.9c0-0.5,0.1-1.1,0.4-1.8
				c0.6,0.4,1.4,0.6,2.3,0.6C196.1,464.1,199.2,462,202.2,457.7z"/>
			<path d="M232.5,445.6c0,0.3,0,0.5,0,0.7c0,3.2-1.1,6-3.3,8.4c-2.2,2.4-4.7,3.6-7.6,3.6c-2.2,0-4-0.7-5.4-2.1
				c-1.4-1.4-2.1-3.3-2.1-5.5c0-2.6,0.9-4.8,2.7-6.7s3.9-2.8,6.4-2.8c0.4,0,0.8,0,1.2,0.1c-0.3-0.5-0.4-0.9-0.4-1.3
				c0-0.5,0.2-1,0.5-1.5c2.7,0.2,4.9,1.6,6.7,4.2c1.8,1.3,3.8,1.9,5.7,1.9c1.3,0,2.7-0.4,4.2-1.3l0.8,1.4c-1.8,1.2-3.6,1.8-5.4,1.8
				C235.5,446.3,234.1,446.1,232.5,445.6z M228.8,444.1c-0.9-0.3-1.8-0.7-2.5-1.3c-0.6-0.1-1-0.2-1.4-0.2c-1.9,0-3.5,0.8-5,2.5
				c-1.5,1.7-2.2,3.6-2.2,5.8c0,1.6,0.4,2.9,1.3,3.9c0.9,1,2,1.5,3.4,1.5c1.9,0,3.5-0.9,4.8-2.8c1.3-1.9,2-4.1,2-6.7
				C229.2,445.9,229.1,445,228.8,444.1z"/>
			<path d="M252.6,447.6c-1.5,3.2-3.2,5.7-5.1,7.7c-1.9,2-3.6,3-5.1,3c-1.2,0-2.2-0.4-2.9-1.3c-0.8-0.9-1.1-2-1.1-3.3
				c0-1.7,0.6-5,1.8-9.6c0.3-1.3,0.5-2.1,0.5-2.4c0-0.3-0.1-0.7-0.3-1.1l2.3,0c1,0,1.5,0.4,1.5,1.1c0,0.5-0.3,1.8-1,4.1
				c-0.2,0.7-0.3,1.1-0.4,1.4l-0.2,1c-0.5,2-0.7,3.6-0.7,4.6c0,1.6,0.6,2.5,1.7,2.5c1.8,0,4.2-2.3,7-6.9c2.3-3.7,3.5-6.4,3.5-8
				c0-0.2-0.1-0.4-0.2-0.7c0.9-0.3,1.7-0.4,2.3-0.4c1,0,1.5,0.3,1.5,0.9c0,0.1,0,0.4-0.1,0.6c0,0.2-0.1,0.6-0.3,1.2
				c0,0.1-0.1,0.6-0.3,1.3c-0.1,0.5-0.2,1-0.3,1.3l-0.2,0.8c-0.4,1.8-0.5,3.5-0.5,5.1c0,2.4,0.6,3.6,1.8,3.6c2.6,0,5.9-3.6,9.9-10.9
				l1.4,0.8c-4.5,8.7-8.7,13.1-12.5,13.1c-2.5,0-3.8-2.2-3.8-6.6C252.4,449.9,252.5,448.8,252.6,447.6z"/>
			<path d="M265,453.8l1.2-0.2c0.8-0.2,1.4-0.2,1.7-0.2c1,0,1.4,0.5,1.4,1.5c0,0.4-0.1,0.9-0.2,1.4l-0.2,1.1l-0.8,0.1
				c-1.1,0.2-1.7,0.3-1.9,0.3c-0.8,0-1.2-0.4-1.2-1.2c0-0.2,0-0.4,0.1-0.6l0.1-0.4c0-0.2,0.1-0.4,0.1-0.6
				C265.3,454.5,265.2,454.1,265,453.8z"/>
			<path d="M297.6,435l-4.1,20.6c2.1-0.3,3.6-0.4,4.5-0.4c1.4,0,2.2,1,2.2,3c-0.8-0.3-1.7-0.4-2.6-0.4c-0.9,0-1.9,0.1-3.2,0.2
				l-3.8,0.5c-1.4,0.2-2.3,0.3-2.8,0.3c-0.9,0-1.6-0.2-2-0.7c-0.4-0.4-0.6-1.3-0.7-2.4c0.8,0.4,1.6,0.6,2.5,0.6
				c0.5,0,1.2-0.1,2.3-0.2l4.1-20.7c-1.2,0.2-2.2,0.3-3.1,0.3c-1.5,0-2.3-0.9-2.3-2.7c0.4,0.3,1,0.4,1.6,0.4c0.8,0,2-0.1,3.5-0.4
				l2.6-0.5c1.8-0.3,3.2-0.5,4.2-0.5c1.5,0,2.4,1,2.6,3c-0.6-0.3-1.3-0.4-1.9-0.4c-0.9,0-1.8,0.1-2.9,0.2
				C298.2,434.9,298,434.9,297.6,435z"/>
			<path d="M320.7,450.5c3.3-7.4,6.7-11.1,10.1-11.1c1.4,0,2.4,0.6,3,1.7c0.6,1.1,0.9,3,0.9,5.6l0,2c0,3.5,0.5,5.2,1.5,5.3
				c0.8,0,2.1-1,3.9-3c1.8-2,3.6-4.5,5.4-7.6l1.4,0.8c-1.8,3.6-3.8,6.6-6.1,9c-2.3,2.5-4.1,3.7-5.6,3.7c-1.4,0-2.3-0.6-2.9-1.9
				s-0.9-3.4-0.9-6.2v-1.5c0-3.3-0.6-5-1.7-5c-1.6,0-3.7,2.2-6.2,6.7c-2.5,4.5-3.8,7.2-3.8,8c0,0.3,0.1,0.5,0.3,0.8
				c-0.5,0.3-1.1,0.4-1.9,0.4c-1,0-1.5-0.4-1.5-1.3c0-0.6,0.3-2.5,1-5.5c0-0.1,0.2-0.8,0.4-2.1l3.4-17.1c-0.7,0.3-1.5,0.4-2.2,0.4
				c-2.1,0-3.2-1.3-3.2-3.8c1.1,0.8,2.3,1.2,3.7,1.2c2,0,3.9-0.4,5.7-1.2l-2.7,13.7c0,0.2-0.5,2.2-1.5,6.2
				C321,448.9,320.9,449.6,320.7,450.5z"/>
			<path d="M360,445.6c0,0.3,0,0.5,0,0.7c0,3.2-1.1,6-3.3,8.4c-2.2,2.4-4.7,3.6-7.6,3.6c-2.2,0-4-0.7-5.4-2.1
				c-1.4-1.4-2.1-3.3-2.1-5.5c0-2.6,0.9-4.8,2.7-6.7s3.9-2.8,6.4-2.8c0.4,0,0.8,0,1.2,0.1c-0.3-0.5-0.4-0.9-0.4-1.3
				c0-0.5,0.2-1,0.5-1.5c2.7,0.2,4.9,1.6,6.7,4.2c1.8,1.3,3.8,1.9,5.7,1.9c1.3,0,2.7-0.4,4.2-1.3l0.8,1.4c-1.8,1.2-3.6,1.8-5.4,1.8
				C363,446.3,361.6,446.1,360,445.6z M356.3,444.1c-0.9-0.3-1.8-0.7-2.5-1.3c-0.6-0.1-1-0.2-1.4-0.2c-1.9,0-3.5,0.8-5,2.5
				c-1.5,1.7-2.2,3.6-2.2,5.8c0,1.6,0.4,2.9,1.3,3.9c0.9,1,2,1.5,3.4,1.5c1.9,0,3.5-0.9,4.8-2.8c1.3-1.9,2-4.1,2-6.7
				C356.7,445.9,356.5,445,356.3,444.1z"/>
			<path d="M368.2,456.8l-1.2,6.1c-0.3,1.4-0.4,2.6-0.4,3.6c0,0.7,0.1,1.2,0.4,1.8c-1.1,0.4-2,0.5-2.6,0.5c-0.9,0-1.4-0.5-1.4-1.6
				c0-0.8,0.2-2.1,0.5-4l4.8-24.4c-1,0.2-1.8,0.3-2.4,0.3c-1,0-1.7-0.2-2.1-0.7c-0.5-0.5-0.8-1.3-1.1-2.6c0.8,0.5,2,0.8,3.7,0.8
				c2,0,4-0.4,5.9-1.1l-1.3,6.4c1.9-1.8,3.8-2.7,5.8-2.7c1.8,0,3.2,0.7,4.4,2c1.2,1.3,1.8,3,1.8,5c0,3.1-1.1,5.8-3.2,8.1
				s-4.7,3.4-7.7,3.4C370.6,457.8,369.3,457.4,368.2,456.8z M368.7,454.2c1.1,1.3,2.5,2,4.1,2c1.9,0,3.6-0.8,5-2.5
				c1.4-1.6,2.1-3.6,2.1-6c0-1.7-0.4-3.1-1.2-4.1c-0.8-1.1-1.8-1.6-3-1.6c-1.5,0-3.2,0.9-5,2.6L368.7,454.2z"/>
			<path d="M389.2,450.9c0,3.2,1.4,4.9,4.1,4.9c2.4,0,5-1.1,7.9-3.4c2.9-2.3,5.5-5.2,7.8-8.9l1.4,0.8c-2.2,4-5,7.4-8.5,10.1
				s-6.8,4-9.9,4c-2,0-3.6-0.6-4.7-1.9c-1.2-1.3-1.7-3-1.7-5.3c0-3.2,1-6,3.1-8.2c2.1-2.3,4.6-3.4,7.6-3.4c1.4,0,2.6,0.4,3.4,1.1
				c0.9,0.7,1.3,1.7,1.3,2.9c0,2-1.2,3.7-3.6,5.3C395,450.1,392.3,450.9,389.2,450.9z M389.3,449.3c2.3-0.1,4.3-0.8,6-2
				c1.7-1.2,2.5-2.6,2.5-4.2c0-1.4-0.6-2.1-1.9-2.1c-1.5,0-2.9,0.8-4.2,2.4C390.4,445,389.6,447,389.3,449.3z"/>
			<path d="M424.1,457.7c-0.5-3-1.3-5.9-2.5-8.8c-1.2-2.9-2.5-5.1-3.9-6.6c0.8-0.7,1.7-1,2.5-1c0.7,0,1.4,0.3,1.9,1
				c0.5,0.7,1.1,2,1.9,4c1.2,3.2,2,6.1,2.6,8.6c3.7-5.9,5.8-11.1,6.1-15.5c1.9,0.3,2.9,0.9,2.9,1.9c0,1.1-0.9,3.2-2.6,6.6
				s-3.6,6.3-5.6,9.1c-2.3,3.2-4.6,5.7-6.9,7.5c-2.3,1.8-4.3,2.7-5.9,2.7c-1.5,0-2.2-0.6-2.2-1.9c0-0.5,0.1-1.1,0.4-1.8
				c0.6,0.4,1.4,0.6,2.3,0.6C418.1,464.1,421.2,462,424.1,457.7z"/>
			<path d="M454.5,445.6c0,0.3,0,0.5,0,0.7c0,3.2-1.1,6-3.3,8.4c-2.2,2.4-4.7,3.6-7.6,3.6c-2.2,0-4-0.7-5.4-2.1
				c-1.4-1.4-2.1-3.3-2.1-5.5c0-2.6,0.9-4.8,2.7-6.7s3.9-2.8,6.4-2.8c0.4,0,0.8,0,1.2,0.1c-0.3-0.5-0.4-0.9-0.4-1.3
				c0-0.5,0.2-1,0.5-1.5c2.7,0.2,4.9,1.6,6.7,4.2c1.8,1.3,3.8,1.9,5.7,1.9c1.3,0,2.7-0.4,4.2-1.3l0.8,1.4c-1.8,1.2-3.6,1.8-5.4,1.8
				C457.5,446.3,456.1,446.1,454.5,445.6z M450.7,444.1c-0.9-0.3-1.8-0.7-2.5-1.3c-0.6-0.1-1-0.2-1.4-0.2c-1.9,0-3.5,0.8-5,2.5
				c-1.5,1.7-2.2,3.6-2.2,5.8c0,1.6,0.4,2.9,1.3,3.9c0.9,1,2,1.5,3.4,1.5c1.9,0,3.5-0.9,4.8-2.8c1.3-1.9,2-4.1,2-6.7
				C451.2,445.9,451,445,450.7,444.1z"/>
			<path d="M474.6,447.6c-1.5,3.2-3.2,5.7-5.1,7.7c-1.9,2-3.6,3-5.1,3c-1.2,0-2.2-0.4-2.9-1.3c-0.8-0.9-1.1-2-1.1-3.3
				c0-1.7,0.6-5,1.8-9.6c0.3-1.3,0.5-2.1,0.5-2.4c0-0.3-0.1-0.7-0.3-1.1l2.3,0c1,0,1.5,0.4,1.5,1.1c0,0.5-0.3,1.8-1,4.1
				c-0.2,0.7-0.3,1.1-0.4,1.4l-0.2,1c-0.5,2-0.7,3.6-0.7,4.6c0,1.6,0.6,2.5,1.7,2.5c1.8,0,4.2-2.3,7-6.9c2.3-3.7,3.5-6.4,3.5-8
				c0-0.2-0.1-0.4-0.2-0.7c0.9-0.3,1.7-0.4,2.3-0.4c1,0,1.5,0.3,1.5,0.9c0,0.1,0,0.4-0.1,0.6c0,0.2-0.1,0.6-0.3,1.2
				c0,0.1-0.1,0.6-0.3,1.3c-0.1,0.5-0.2,1-0.3,1.3l-0.2,0.8c-0.4,1.8-0.5,3.5-0.5,5.1c0,2.4,0.6,3.6,1.8,3.6c2.6,0,5.9-3.6,9.9-10.9
				l1.4,0.8c-4.5,8.7-8.7,13.1-12.5,13.1c-2.5,0-3.8-2.2-3.8-6.6C474.4,449.9,474.5,448.8,474.6,447.6z"/>
		</g>
		<g>
			<path d="M135.1,489.1l-0.8,4c-0.3,1.4-0.4,2.6-0.4,3.6c0,0.6,0.1,1.2,0.4,1.8c-1.1,0.4-2,0.6-2.6,0.6c-0.9,0-1.4-0.5-1.4-1.6
				c0-0.8,0.2-2.1,0.5-4L135,473c-1,0.4-1.9,0.5-2.6,0.5c-1.3,0-1.9-0.6-1.9-1.7c0-0.4,0.1-1.1,0.3-2.1c0.8,0.8,1.8,1.2,2.9,1.2
				c1.5,0,3.2-0.5,5.2-1.4l-3.7,18.7c1.7-2.1,3.6-4,5.7-5.6c2-1.6,3.5-2.5,4.4-2.5c0.5,0,1.1,0.7,1.8,2.2c-1.1,0.1-2.6,0.7-4.4,1.8
				c-1.9,1.1-3.4,2.2-4.6,3.4c2.8,4.4,5.2,6.6,7.3,6.6c1,0,1.9-0.4,2.9-1.1c0.9-0.7,2.2-2,3.7-3.9c1.5-1.8,2.7-3.5,3.6-5.1l1.4,0.8
				c-2,3.7-4.1,6.7-6.4,9c-2.2,2.3-4.2,3.4-5.8,3.4c-1.3,0-3-0.8-5-2.5C137.8,493.2,136.3,491.3,135.1,489.1z"/>
			<path d="M157.8,492.6c3.9-8.3,7.5-12.5,10.6-12.5c2.4,0,3.7,2.4,3.7,7.3l0,2c0,2.3,0.1,3.9,0.4,4.8c0.2,0.9,0.7,1.3,1.3,1.3
				c1,0,2-0.8,3.2-2.3s3.2-4.6,5.9-9.1l1.4,0.8c-2.4,4.6-4.6,8-6.5,10.2s-3.7,3.3-5.2,3.3c-1.4,0-2.4-0.7-3-2
				c-0.6-1.4-0.9-3.7-0.9-7.1l0-1.4c0-1.8-0.1-3.1-0.3-3.8c-0.2-0.7-0.6-1.1-1.2-1.1c-1.5,0-3.8,2.9-7.1,8.7
				c-0.8,1.4-1.3,2.3-1.5,2.8c-0.9,1.5-1.3,2.6-1.3,3.2c0,0.3,0.1,0.5,0.2,0.8c-0.6,0.3-1.2,0.4-1.6,0.4c-1.1,0-1.7-0.6-1.7-1.9
				c0-0.4,0.1-1.9,0.4-4.8l0.4-3.6c0.2-1.5,0.2-2.7,0.2-3.6c0-1.2-0.3-2.1-0.8-2.8c0.2-0.1,0.6-0.2,1.2-0.4c0.7-0.2,1.2-0.4,1.6-0.4
				c0.9,0,1.3,0.6,1.3,1.9c0,0.7-0.1,1.8-0.2,3.4c0,0.4-0.1,0.7-0.1,1L157.8,492.6z"/>
			<path d="M197.5,486.4c0,0.3,0,0.5,0,0.7c0,3.2-1.1,6-3.3,8.4c-2.2,2.4-4.7,3.6-7.6,3.6c-2.2,0-4-0.7-5.4-2.1
				c-1.4-1.4-2.1-3.3-2.1-5.5c0-2.6,0.9-4.8,2.7-6.7s3.9-2.8,6.4-2.8c0.4,0,0.8,0,1.2,0.1c-0.3-0.5-0.4-0.9-0.4-1.3
				c0-0.5,0.2-1,0.5-1.5c2.7,0.2,4.9,1.6,6.7,4.2c1.8,1.3,3.8,1.9,5.7,1.9c1.3,0,2.7-0.4,4.2-1.3l0.8,1.4c-1.8,1.2-3.6,1.8-5.4,1.8
				C200.5,487.1,199.1,486.9,197.5,486.4z M193.7,484.9c-0.9-0.3-1.8-0.7-2.5-1.3c-0.6-0.1-1-0.2-1.4-0.2c-1.9,0-3.5,0.8-5,2.5
				c-1.5,1.7-2.2,3.6-2.2,5.8c0,1.6,0.4,2.9,1.3,3.9c0.9,1,2,1.5,3.4,1.5c1.9,0,3.5-0.9,4.8-2.8c1.3-1.9,2-4.1,2-6.7
				C194.2,486.7,194,485.8,193.7,484.9z"/>
			<path d="M205.8,499c0.3-1,0.4-2.1,0.4-3.4c0-3.1-0.4-6.2-1.1-9.2s-1.7-5.2-2.8-6.4c1-0.5,1.9-0.7,2.5-0.7c1.2,0,2.2,1.4,3,4.2
				c0.8,2.8,1.4,6.7,1.7,11.7c1.6-2.1,3-4.3,4.1-6.7c1.1-2.4,1.7-4.3,1.7-5.6c0-0.1,0-0.3,0-0.5c1-0.4,1.7-0.5,2.2-0.5
				c1,0,1.4,0.4,1.4,1.1c0,0.2-0.2,1.4-0.6,3.6c-0.1,0.5-0.2,1-0.2,1.4l-0.1,1.1c-0.1,0.9-0.1,1.9-0.1,3c0,3.1,0.7,4.6,2.1,4.6
				c1.3,0,2.4-1.1,3.4-3.4s1.5-4.8,1.5-7.8c0-2.1-0.5-3.3-1.6-3.8c1-0.8,1.9-1.2,2.8-1.2c1.3,0,2,1,2,3.1c0,3-1.1,6.5-3.2,10.5
				c-1.9,3.5-3.9,5.2-6.1,5.2c-2.5,0-3.8-2.1-3.8-6.4l0.1-3.9c-1.3,2.8-2.6,5.2-4,7.2C209.8,498,208,499,205.8,499z"/>
			<path d="M246.4,491.3c3.3-7.4,6.7-11.1,10.1-11.1c1.4,0,2.4,0.6,3,1.7c0.6,1.1,0.9,3,0.9,5.6l0,2c0,3.5,0.5,5.2,1.5,5.3
				c0.8,0,2.1-1,3.9-3c1.8-2,3.6-4.5,5.4-7.6l1.4,0.8c-1.8,3.6-3.8,6.6-6.1,9c-2.3,2.5-4.1,3.7-5.6,3.7c-1.4,0-2.3-0.6-2.9-1.9
				s-0.9-3.4-0.9-6.2V488c0-3.3-0.6-5-1.7-5c-1.6,0-3.7,2.2-6.2,6.7c-2.5,4.5-3.8,7.2-3.8,8c0,0.3,0.1,0.5,0.3,0.8
				c-0.5,0.3-1.1,0.4-1.9,0.4c-1,0-1.5-0.4-1.5-1.3c0-0.6,0.3-2.5,1-5.5c0-0.1,0.2-0.8,0.4-2.1l3.4-17.1c-0.7,0.3-1.5,0.4-2.2,0.4
				c-2.1,0-3.2-1.3-3.2-3.8c1.1,0.8,2.3,1.2,3.7,1.2c2,0,3.9-0.4,5.7-1.2l-2.7,13.7c0,0.2-0.5,2.2-1.5,6.2
				C246.7,489.7,246.6,490.4,246.4,491.3z"/>
			<path d="M285.7,486.4c0,0.3,0,0.5,0,0.7c0,3.2-1.1,6-3.3,8.4c-2.2,2.4-4.7,3.6-7.6,3.6c-2.2,0-4-0.7-5.4-2.1
				c-1.4-1.4-2.1-3.3-2.1-5.5c0-2.6,0.9-4.8,2.7-6.7s3.9-2.8,6.4-2.8c0.4,0,0.8,0,1.2,0.1c-0.3-0.5-0.4-0.9-0.4-1.3
				c0-0.5,0.2-1,0.5-1.5c2.7,0.2,4.9,1.6,6.7,4.2c1.8,1.3,3.8,1.9,5.7,1.9c1.3,0,2.7-0.4,4.2-1.3l0.8,1.4c-1.8,1.2-3.6,1.8-5.4,1.8
				C288.7,487.1,287.3,486.9,285.7,486.4z M282,484.9c-0.9-0.3-1.8-0.7-2.5-1.3c-0.6-0.1-1-0.2-1.4-0.2c-1.9,0-3.5,0.8-5,2.5
				c-1.5,1.7-2.2,3.6-2.2,5.8c0,1.6,0.4,2.9,1.3,3.9c0.9,1,2,1.5,3.4,1.5c1.9,0,3.5-0.9,4.8-2.8c1.3-1.9,2-4.1,2-6.7
				C282.4,486.7,282.2,485.8,282,484.9z"/>
			<path d="M294,499c0.3-1,0.4-2.1,0.4-3.4c0-3.1-0.4-6.2-1.1-9.2s-1.7-5.2-2.8-6.4c1-0.5,1.9-0.7,2.5-0.7c1.2,0,2.2,1.4,3,4.2
				c0.8,2.8,1.4,6.7,1.7,11.7c1.6-2.1,3-4.3,4.1-6.7c1.1-2.4,1.7-4.3,1.7-5.6c0-0.1,0-0.3,0-0.5c1-0.4,1.7-0.5,2.2-0.5
				c1,0,1.4,0.4,1.4,1.1c0,0.2-0.2,1.4-0.6,3.6c-0.1,0.5-0.2,1-0.2,1.4l-0.1,1.1c-0.1,0.9-0.1,1.9-0.1,3c0,3.1,0.7,4.6,2.1,4.6
				c1.3,0,2.4-1.1,3.4-3.4s1.5-4.8,1.5-7.8c0-2.1-0.5-3.3-1.6-3.8c1-0.8,1.9-1.2,2.8-1.2c1.3,0,2,1,2,3.1c0,3-1.1,6.5-3.2,10.5
				c-1.9,3.5-3.9,5.2-6.1,5.2c-2.5,0-3.8-2.1-3.8-6.4l0.1-3.9c-1.3,2.8-2.6,5.2-4,7.2C298,498,296.2,499,294,499z"/>
			<path d="M336.2,492.8c4-8.4,7.5-12.6,10.6-12.6c1.3,0,2,1,2,2.9c0,0.8-0.3,2.7-0.9,5.6l-1,5c1.9-4.1,4-7.3,6.1-9.8
				c2.1-2.5,3.9-3.7,5.4-3.7c1.7,0,2.5,1,2.5,3c0,0.7-0.2,2.3-0.7,4.9l-0.5,2.6c-0.3,1.6-0.5,2.7-0.5,3.5c0,1.3,0.5,2,1.4,2
				c2.1,0,5.4-3.9,9.8-11.8l1.4,0.8c-4.8,9.4-9,14-12.6,14c-2.3,0-3.4-1.5-3.4-4.5c0-1,0.2-2.6,0.7-4.8l0.5-2.3
				c0.3-1.5,0.5-2.5,0.5-2.9c0-0.5-0.2-0.7-0.7-0.7c-1.2,0-3.3,2.4-6.4,7.1c-2.8,4.3-4.2,6.8-4.2,7.4c0,0.1,0,0.2,0.1,0.3
				c-0.2,0-0.4,0.1-0.8,0.2c-0.2,0.1-0.4,0.1-0.7,0.1c-1,0-1.5-0.5-1.5-1.5c0-0.3,0.2-1.2,0.5-2.7c0.1-0.5,0.2-1.1,0.4-1.7l0.7-3.5
				c0.5-2.5,0.8-4.1,0.8-4.6c0-0.7-0.3-1.1-0.8-1.1c-1.2,0-3,2.1-5.3,6.4c-2.3,4.2-3.5,6.8-3.5,7.6c0,0.2,0.1,0.5,0.3,0.7
				c-0.6,0.3-1.2,0.4-1.7,0.4c-1.2,0-1.7-0.6-1.7-1.9c0-0.2,0.2-1.8,0.5-4.8l0.4-3.5c0.1-1.2,0.2-2.4,0.2-3.4c0-1.3-0.3-2.3-0.8-2.9
				c1.3-0.5,2.2-0.7,2.7-0.7c1,0,1.5,0.6,1.5,1.7c0,0.4-0.1,1.9-0.4,4.6L336.2,492.8z"/>
			<path d="M382.3,488.4c-1.5,3.2-3.2,5.7-5.1,7.7c-1.9,2-3.6,3-5.1,3c-1.2,0-2.2-0.4-2.9-1.3c-0.8-0.9-1.1-2-1.1-3.3
				c0-1.7,0.6-5,1.8-9.6c0.3-1.3,0.5-2.1,0.5-2.4c0-0.3-0.1-0.7-0.3-1.1l2.3,0c1,0,1.5,0.4,1.5,1.1c0,0.5-0.3,1.8-1,4.1
				c-0.2,0.7-0.3,1.1-0.4,1.4l-0.2,1c-0.5,2-0.7,3.6-0.7,4.6c0,1.6,0.6,2.5,1.7,2.5c1.8,0,4.2-2.3,7-6.9c2.3-3.7,3.5-6.4,3.5-8
				c0-0.2-0.1-0.4-0.2-0.7c0.9-0.3,1.7-0.4,2.3-0.4c1,0,1.5,0.3,1.5,0.9c0,0.1,0,0.4-0.1,0.6c0,0.2-0.1,0.6-0.3,1.2
				c0,0.1-0.1,0.6-0.3,1.3c-0.1,0.5-0.2,1-0.3,1.3l-0.2,0.8c-0.4,1.8-0.5,3.5-0.5,5.1c0,2.4,0.6,3.6,1.8,3.6c2.6,0,5.9-3.6,9.9-10.9
				l1.4,0.8c-4.5,8.7-8.7,13.1-12.5,13.1c-2.5,0-3.8-2.2-3.8-6.6C382.1,490.7,382.2,489.6,382.3,488.4z"/>
			<path d="M417.8,485c-2.7,4.5-5.5,8-8.5,10.6c-3,2.6-5.8,3.9-8.4,3.9c-2.1,0-3.9-0.7-5.2-2.2s-2-3.4-2-5.7c0-3.1,1.1-5.8,3.4-8
				c2.3-2.3,5-3.4,8.1-3.4c1.3,0,2.3,0.2,3.1,0.7c0.8,0.5,1.2,1.1,1.2,1.8c0,1.2-1,2.1-3.1,2.7c0.1-0.3,0.2-0.5,0.2-0.8
				c0-1.8-1-2.7-2.9-2.7c-1.6,0-3.2,0.9-4.6,2.8c-1.4,1.8-2.1,3.9-2.1,6.1c0,1.8,0.5,3.2,1.4,4.4c0.9,1.1,2.1,1.7,3.6,1.7
				c4.1,0,8.8-4.2,14.3-12.7L417.8,485z"/>
			<path d="M417.1,491.3c3.3-7.4,6.7-11.1,10.1-11.1c1.4,0,2.4,0.6,3,1.7c0.6,1.1,0.9,3,0.9,5.6l0,2c0,3.5,0.5,5.2,1.5,5.3
				c0.8,0,2.1-1,3.9-3c1.8-2,3.6-4.5,5.4-7.6l1.4,0.8c-1.8,3.6-3.8,6.6-6.1,9c-2.3,2.5-4.1,3.7-5.6,3.7c-1.4,0-2.3-0.6-2.9-1.9
				s-0.9-3.4-0.9-6.2V488c0-3.3-0.6-5-1.7-5c-1.6,0-3.7,2.2-6.2,6.7c-2.5,4.5-3.8,7.2-3.8,8c0,0.3,0.1,0.5,0.3,0.8
				c-0.5,0.3-1.1,0.4-1.9,0.4c-1,0-1.5-0.4-1.5-1.3c0-0.6,0.3-2.5,1-5.5c0-0.1,0.2-0.8,0.4-2.1l3.4-17.1c-0.7,0.3-1.5,0.4-2.2,0.4
				c-2.1,0-3.2-1.3-3.2-3.8c1.1,0.8,2.3,1.2,3.7,1.2c2,0,3.9-0.4,5.7-1.2l-2.7,13.7c0,0.2-0.5,2.2-1.5,6.2
				C417.4,489.7,417.3,490.4,417.1,491.3z"/>
			<path d="M457.1,498.5c-0.5-3-1.3-5.9-2.5-8.8c-1.2-2.9-2.5-5.1-3.9-6.6c0.8-0.7,1.7-1,2.5-1c0.7,0,1.4,0.3,1.9,1
				c0.5,0.7,1.1,2,1.9,4c1.2,3.2,2,6.1,2.6,8.6c3.7-5.9,5.8-11.1,6.1-15.5c1.9,0.3,2.9,0.9,2.9,1.9c0,1.1-0.9,3.2-2.6,6.6
				s-3.6,6.3-5.6,9.1c-2.3,3.2-4.6,5.7-6.9,7.5c-2.3,1.8-4.3,2.7-5.9,2.7c-1.5,0-2.2-0.6-2.2-1.9c0-0.5,0.1-1.1,0.4-1.8
				c0.6,0.4,1.4,0.6,2.3,0.6C451.1,504.9,454.2,502.8,457.1,498.5z"/>
			<path d="M487.5,486.4c0,0.3,0,0.5,0,0.7c0,3.2-1.1,6-3.3,8.4c-2.2,2.4-4.7,3.6-7.6,3.6c-2.2,0-4-0.7-5.4-2.1
				c-1.4-1.4-2.1-3.3-2.1-5.5c0-2.6,0.9-4.8,2.7-6.7s3.9-2.8,6.4-2.8c0.4,0,0.8,0,1.2,0.1c-0.3-0.5-0.4-0.9-0.4-1.3
				c0-0.5,0.2-1,0.5-1.5c2.7,0.2,4.9,1.6,6.7,4.2c1.8,1.3,3.8,1.9,5.7,1.9c1.3,0,2.7-0.4,4.2-1.3l0.8,1.4c-1.8,1.2-3.6,1.8-5.4,1.8
				C490.4,487.1,489,486.9,487.5,486.4z M483.7,484.9c-0.9-0.3-1.8-0.7-2.5-1.3c-0.6-0.1-1-0.2-1.4-0.2c-1.9,0-3.5,0.8-5,2.5
				c-1.5,1.7-2.2,3.6-2.2,5.8c0,1.6,0.4,2.9,1.3,3.9c0.9,1,2,1.5,3.4,1.5c1.9,0,3.5-0.9,4.8-2.8c1.3-1.9,2-4.1,2-6.7
				C484.1,486.7,484,485.8,483.7,484.9z"/>
			<path d="M507.5,488.4c-1.5,3.2-3.2,5.7-5.1,7.7c-1.9,2-3.6,3-5.1,3c-1.2,0-2.2-0.4-2.9-1.3c-0.8-0.9-1.1-2-1.1-3.3
				c0-1.7,0.6-5,1.8-9.6c0.3-1.3,0.5-2.1,0.5-2.4c0-0.3-0.1-0.7-0.3-1.1l2.3,0c1,0,1.5,0.4,1.5,1.1c0,0.5-0.3,1.8-1,4.1
				c-0.2,0.7-0.3,1.1-0.4,1.4l-0.2,1c-0.5,2-0.7,3.6-0.7,4.6c0,1.6,0.6,2.5,1.7,2.5c1.8,0,4.2-2.3,7-6.9c2.3-3.7,3.5-6.4,3.5-8
				c0-0.2-0.1-0.4-0.2-0.7c0.9-0.3,1.7-0.4,2.3-0.4c1,0,1.5,0.3,1.5,0.9c0,0.1,0,0.4-0.1,0.6c0,0.2-0.1,0.6-0.3,1.2
				c0,0.1-0.1,0.6-0.3,1.3c-0.1,0.5-0.2,1-0.3,1.3l-0.2,0.8c-0.4,1.8-0.5,3.5-0.5,5.1c0,2.4,0.6,3.6,1.8,3.6c2.6,0,5.9-3.6,9.9-10.9
				l1.4,0.8c-4.5,8.7-8.7,13.1-12.5,13.1c-2.5,0-3.8-2.2-3.8-6.6C507.4,490.7,507.4,489.6,507.5,488.4z"/>
		</g>
		<g>
			<path d="M135.8,533.6c4-8.4,7.5-12.6,10.6-12.6c1.3,0,2,1,2,2.9c0,0.8-0.3,2.7-0.9,5.6l-1,5c1.9-4.1,4-7.3,6.1-9.8
				c2.1-2.5,3.9-3.7,5.4-3.7c1.7,0,2.5,1,2.5,3c0,0.7-0.2,2.3-0.7,4.9l-0.5,2.6c-0.3,1.6-0.5,2.7-0.5,3.5c0,1.3,0.5,2,1.4,2
				c2.1,0,5.4-3.9,9.8-11.8l1.4,0.8c-4.8,9.4-9,14-12.6,14c-2.3,0-3.4-1.5-3.4-4.5c0-1,0.2-2.6,0.7-4.8l0.5-2.3
				c0.3-1.5,0.5-2.5,0.5-2.9c0-0.5-0.2-0.7-0.7-0.7c-1.2,0-3.3,2.4-6.4,7.1c-2.8,4.3-4.2,6.8-4.2,7.4c0,0.1,0,0.2,0.1,0.3
				c-0.2,0-0.4,0.1-0.8,0.2c-0.2,0.1-0.4,0.1-0.7,0.1c-1,0-1.5-0.5-1.5-1.5c0-0.3,0.2-1.2,0.5-2.7c0.1-0.5,0.2-1.1,0.4-1.7l0.7-3.5
				c0.5-2.5,0.8-4.1,0.8-4.6c0-0.7-0.3-1.1-0.8-1.1c-1.2,0-3,2.1-5.3,6.4c-2.3,4.2-3.5,6.8-3.5,7.6c0,0.2,0.1,0.5,0.3,0.7
				c-0.6,0.3-1.2,0.4-1.7,0.4c-1.2,0-1.7-0.6-1.7-1.9c0-0.2,0.2-1.8,0.5-4.8l0.4-3.5c0.1-1.2,0.2-2.4,0.2-3.4c0-1.3-0.3-2.3-0.8-2.9
				c1.3-0.5,2.2-0.7,2.7-0.7c1,0,1.5,0.6,1.5,1.7c0,0.4-0.1,1.9-0.4,4.6L135.8,533.6z"/>
			<path d="M170.1,532.5c0,3.2,1.4,4.9,4.1,4.9c2.4,0,5-1.1,7.9-3.4c2.9-2.3,5.5-5.2,7.8-8.9l1.4,0.8c-2.2,4-5,7.4-8.5,10.1
				s-6.8,4-9.9,4c-2,0-3.6-0.6-4.7-1.9c-1.2-1.3-1.7-3-1.7-5.3c0-3.2,1-6,3.1-8.2c2.1-2.3,4.6-3.4,7.6-3.4c1.4,0,2.6,0.4,3.4,1.1
				c0.9,0.7,1.3,1.7,1.3,2.9c0,2-1.2,3.7-3.6,5.3C176,531.7,173.2,532.5,170.1,532.5z M170.3,530.9c2.3-0.1,4.3-0.8,6-2
				c1.7-1.2,2.5-2.6,2.5-4.2c0-1.4-0.6-2.1-1.9-2.1c-1.5,0-2.9,0.8-4.2,2.4C171.4,526.6,170.6,528.6,170.3,530.9z"/>
			<path d="M200.9,529.2c-1.4,2.9-3.2,5.4-5.2,7.5c-2.1,2.1-3.9,3.1-5.4,3.1c-1.2,0-2.1-0.5-2.8-1.6c-0.7-1-1.1-2.4-1.1-4.2
				c0-3.5,1-6.5,3.1-9.1s4.5-4,7.3-4c1.7,0,3.5,0.5,5.4,1.6c0.3-1,1.5-1.5,3.5-1.5c0.1,0,0.3,0,0.6,0c-0.6,1-1.1,2.3-1.4,4l-0.3,1.4
				c-0.3,1.6-0.5,3.4-0.5,5.5c0,2.4,0.6,3.6,1.7,3.6c1.2,0,2.8-1,4.9-3c2.1-2,4.1-4.5,6.1-7.6l1.3,0.9c-2,3.7-4.4,6.7-7,9.1
				c-2.6,2.4-4.9,3.7-6.8,3.7c-2.4,0-3.6-2-3.6-6C200.8,531.8,200.8,530.7,200.9,529.2z M201.7,525.3c-2.3-1.5-4.3-2.3-5.8-2.3
				c-1.7,0-3.1,1-4.3,3c-1.2,2-1.8,4.4-1.8,7.2c0,2.2,0.7,3.4,2.2,3.4c1.6,0,4.6-3.5,9.1-10.4C201.1,526.1,201.3,525.8,201.7,525.3z
				"/>
			<path d="M219.1,533.4c3.9-8.3,7.5-12.5,10.6-12.5c2.4,0,3.7,2.4,3.7,7.3l0,2c0,2.3,0.1,3.9,0.4,4.8c0.2,0.9,0.7,1.3,1.3,1.3
				c1,0,2-0.8,3.2-2.3s3.2-4.6,5.9-9.1l1.4,0.8c-2.4,4.6-4.6,8-6.5,10.2s-3.7,3.3-5.2,3.3c-1.4,0-2.4-0.7-3-2
				c-0.6-1.4-0.9-3.7-0.9-7.1l0-1.4c0-1.8-0.1-3.1-0.3-3.8c-0.2-0.7-0.6-1.1-1.2-1.1c-1.5,0-3.8,2.9-7.1,8.7
				c-0.8,1.4-1.3,2.3-1.5,2.8c-0.9,1.5-1.3,2.6-1.3,3.2c0,0.3,0.1,0.5,0.2,0.8c-0.6,0.3-1.2,0.4-1.6,0.4c-1.1,0-1.7-0.6-1.7-1.9
				c0-0.4,0.1-1.9,0.4-4.8l0.4-3.6c0.2-1.5,0.2-2.7,0.2-3.6c0-1.2-0.3-2.1-0.8-2.8c0.2-0.1,0.6-0.2,1.2-0.4c0.7-0.2,1.2-0.4,1.6-0.4
				c0.9,0,1.3,0.6,1.3,1.9c0,0.7-0.1,1.8-0.2,3.4c0,0.4-0.1,0.7-0.1,1L219.1,533.4z"/>
			<path d="M265.1,532.8c0.3,0.5,0.4,1,0.4,1.4c0,1.1-0.9,2.3-2.7,3.6c-1.8,1.3-3.5,2-5,2c-1.3,0-2.4-0.6-3.2-1.8
				c-0.8-1.2-1.3-2.7-1.3-4.6c0-2.1,0.5-5,1.6-8.9l0.8-2.8h-2.8c-1.2,0-2.1,0.2-2.8,0.5c0.6-1.2,1.2-1.9,1.6-2.2
				c0.4-0.3,1.1-0.4,2.1-0.4h2.5l0.3-1.1c0.5-1.7,1.1-2.9,1.8-3.5c0.7-0.6,1.8-1,3.2-1c0.2,0,0.4,0,0.8,0c-0.9,1.1-1.8,3-2.7,5.6
				h8.8c1.5,0,2.7-0.2,3.5-0.6c-0.3,1.1-0.6,1.9-1.1,2.2c-0.5,0.3-1.3,0.5-2.6,0.5H259c-0.1,0.4-0.2,0.6-0.2,0.8
				c-1.3,4.6-2,8-2,10.3c0,2.6,0.9,3.9,2.8,3.9c1,0,2-0.4,3.1-1.2C263.8,534.7,264.6,533.8,265.1,532.8z"/>
			<path d="M285.2,527.2c0,0.3,0,0.5,0,0.7c0,3.2-1.1,6-3.3,8.4c-2.2,2.4-4.7,3.6-7.6,3.6c-2.2,0-4-0.7-5.4-2.1
				c-1.4-1.4-2.1-3.3-2.1-5.5c0-2.6,0.9-4.8,2.7-6.7s3.9-2.8,6.4-2.8c0.4,0,0.8,0,1.2,0.1c-0.3-0.5-0.4-0.9-0.4-1.3
				c0-0.5,0.2-1,0.5-1.5c2.7,0.2,4.9,1.6,6.7,4.2c1.8,1.3,3.8,1.9,5.7,1.9c1.3,0,2.7-0.4,4.2-1.3l0.8,1.4c-1.8,1.2-3.6,1.8-5.4,1.8
				C288.2,527.9,286.8,527.7,285.2,527.2z M281.4,525.7c-0.9-0.3-1.8-0.7-2.5-1.3c-0.6-0.1-1-0.2-1.4-0.2c-1.9,0-3.5,0.8-5,2.5
				c-1.5,1.7-2.2,3.6-2.2,5.8c0,1.6,0.4,2.9,1.3,3.9c0.9,1,2,1.5,3.4,1.5c1.9,0,3.5-0.9,4.8-2.8c1.3-1.9,2-4.1,2-6.7
				C281.9,527.5,281.7,526.6,281.4,525.7z"/>
			<path d="M307.2,533.6c4-8.4,7.5-12.6,10.6-12.6c1.3,0,2,1,2,2.9c0,0.8-0.3,2.7-0.9,5.6l-1,5c1.9-4.1,4-7.3,6.1-9.8
				c2.1-2.5,3.9-3.7,5.4-3.7c1.7,0,2.5,1,2.5,3c0,0.7-0.2,2.3-0.7,4.9l-0.5,2.6c-0.3,1.6-0.5,2.7-0.5,3.5c0,1.3,0.5,2,1.4,2
				c2.1,0,5.4-3.9,9.8-11.8l1.4,0.8c-4.8,9.4-9,14-12.6,14c-2.3,0-3.4-1.5-3.4-4.5c0-1,0.2-2.6,0.7-4.8l0.5-2.3
				c0.3-1.5,0.5-2.5,0.5-2.9c0-0.5-0.2-0.7-0.7-0.7c-1.2,0-3.3,2.4-6.4,7.1c-2.8,4.3-4.2,6.8-4.2,7.4c0,0.1,0,0.2,0.1,0.3
				c-0.2,0-0.4,0.1-0.8,0.2c-0.2,0.1-0.4,0.1-0.7,0.1c-1,0-1.5-0.5-1.5-1.5c0-0.3,0.2-1.2,0.5-2.7c0.1-0.5,0.2-1.1,0.4-1.7l0.7-3.5
				c0.5-2.5,0.8-4.1,0.8-4.6c0-0.7-0.3-1.1-0.8-1.1c-1.2,0-3,2.1-5.3,6.4c-2.3,4.2-3.5,6.8-3.5,7.6c0,0.2,0.1,0.5,0.3,0.7
				c-0.6,0.3-1.2,0.4-1.7,0.4c-1.2,0-1.7-0.6-1.7-1.9c0-0.2,0.2-1.8,0.5-4.8l0.4-3.5c0.1-1.2,0.2-2.4,0.2-3.4c0-1.3-0.3-2.3-0.8-2.9
				c1.3-0.5,2.2-0.7,2.7-0.7c1,0,1.5,0.6,1.5,1.7c0,0.4-0.1,1.9-0.4,4.6L307.2,533.6z"/>
			<path d="M341.6,532.5c0,3.2,1.4,4.9,4.1,4.9c2.4,0,5-1.1,7.9-3.4c2.9-2.3,5.5-5.2,7.8-8.9l1.4,0.8c-2.2,4-5,7.4-8.5,10.1
				s-6.8,4-9.9,4c-2,0-3.6-0.6-4.7-1.9c-1.2-1.3-1.7-3-1.7-5.3c0-3.2,1-6,3.1-8.2c2.1-2.3,4.6-3.4,7.6-3.4c1.4,0,2.6,0.4,3.4,1.1
				c0.9,0.7,1.3,1.7,1.3,2.9c0,2-1.2,3.7-3.6,5.3C347.4,531.7,344.7,532.5,341.6,532.5z M341.7,530.9c2.3-0.1,4.3-0.8,6-2
				c1.7-1.2,2.5-2.6,2.5-4.2c0-1.4-0.6-2.1-1.9-2.1c-1.5,0-2.9,0.8-4.2,2.4C342.8,526.6,342,528.6,341.7,530.9z"/>
			<path d="M359,535.4l1.2-0.2c0.8-0.2,1.4-0.2,1.7-0.2c1,0,1.4,0.5,1.4,1.5c0,0.4-0.1,0.9-0.2,1.4L363,539l-0.8,0.1
				c-1.1,0.2-1.7,0.3-1.9,0.3c-0.8,0-1.2-0.4-1.2-1.2c0-0.2,0-0.4,0.1-0.6l0.1-0.4c0-0.2,0.1-0.4,0.1-0.6
				C359.3,536.1,359.2,535.7,359,535.4z"/>
		</g>
	</g>
</g>
</svg>
